<?xml version="1.0" encoding="utf-8"?>
<!-- Generator: Adobe Illustrator 23.0.4, SVG Export Plug-In . SVG Version: 6.00 Build 0)  -->
<svg version="1.1" id="Capa_1" xmlns="http://www.w3.org/2000/svg" xmlns:xlink="http://www.w3.org/1999/xlink" x="0px" y="0px"
	 viewBox="0 0 211.1 66.7" style="enable-background:new 0 0 211.1 66.7;" xml:space="preserve">
<style type="text/css">
	.st0{fill:#FFFFFF;}
</style>
<g>
	<g>
		<path class="st0" d="M160.7,21.1l-0.9,10.6c-1.7,0-3,0.4-4,1.9c-0.6,0.6-0.9,3.2-0.9,5.1c-0.6,6.2-3,10.6-7.2,13.2
			c-2.3,1.3-5.5,1.9-9.6,1.9h-0.6l1.5-11.3c1.9,0,3.4,0,4.3-0.9c0.9-0.9,1.3-3.6,1.5-5.7c0.2-3.4,0.4-5.5,0.9-7
			c0.4-1.3,1.3-2.8,2.8-4c2.3-2.3,5.7-3.8,9.8-3.8C158.1,21.1,160.7,21.1,160.7,21.1z"/>
		<path class="st0" d="M35.4,15.8l5.7-5.7c0,0-4.5-4.5-16-4.5C10.1,5.6,2.4,18.8,2.4,28.8c0,8.7,6,24.2,24.5,24.2
			c26.8,0,23.6-27.4,23.6-27.4H27.7v7.9h12.6c0,0-2.1,10.2-13.2,10c-10.8-0.2-13.6-8.9-13.6-13.8c0-4.5,2.8-13.8,12.8-14
			C30.1,15.4,35.4,15.8,35.4,15.8z"/>
		<path class="st0" d="M97.9,24.7c-3-3-7.2-4.7-12.3-4.7c-4.7,0-8.7,1.7-11.9,4.9s-4.9,7.2-4.9,11.9c0,4.9,1.7,8.7,4.9,12.1
			c3.2,3.2,7.2,4.9,12.1,4.9c0.9,0,2.8-0.4,3.8-0.4l1.3-6.2c-1.1,0.6-3.6-3-5.1-3c-3.8,0-7-3.2-7-7s3.2-7,7-7s7,3.8,7,7.7
			c0,0.2,0,0.2,0,0.4v0.2v14.9h9.8V37.7C102.6,32,101.1,27.7,97.9,24.7z"/>
		<path class="st0" d="M133.9,24.9c-3.4-3.2-7.4-4.9-12.1-4.9c-2.3,0-4.7,0.4-7,1.5s-4.3,2.6-5.7,4.3c-2.6,3.2-3.8,7.2-3.8,12.1
			v27.9h10.2V38.6c0-0.2,0-0.2,0-0.4c0-0.2,0-0.2,0-0.4c0-3.8,2.6-7.7,6.6-7.7c3.8,0,7,3.2,7,7s-3.2,7-7,7c-1.5,0-2.3,0-3.6-0.9
			v10.4c1.5,0.2,3.2,0,4,0c4.5,0,8.3-1.7,11.7-4.9c3.2-3.4,4.9-7.2,4.9-11.9S137.3,28.1,133.9,24.9z"/>
		<path class="st0" d="M189.8,24.7c-3-3-7.2-4.7-12.3-4.7c-4.7,0-8.7,1.7-11.9,4.9s-4.9,7.2-4.9,11.9c0,4.9,1.7,8.7,4.9,12.1
			c3.2,3.2,7.2,4.9,12.1,4.9c0.9,0,2.6-0.4,3.4-0.4l1.3-6.2c-1.1,0.9-3.6-3-5.1-3c-3.8,0-7-3.2-7-7s3.2-7,7-7s7,3.8,7,7.7
			c0,0.2,0,0.2,0,0.4v0.2v14.9h10.2V37.7C194.3,32,192.8,27.7,189.8,24.7z"/>
		<path class="st0" d="M54.1,53h8.5c0,0,0-13.4,0-18.9c0-0.9,1.1-2.1,2.1-3.2C66,29.6,69,30,69,30l1.1-9.1c0,0-3.6-0.6-6.8,0
			c-2.3,0.4-3.8,1.1-5.3,2.6c-2.3,2.1-3.8,6.2-3.8,7.9C53.7,37.7,54.1,53,54.1,53z"/>
	</g>
	<path class="st0" d="M119.4,55.6"/>
</g>
</svg>
