<?xml version="1.0" encoding="utf-8"?>
<!-- Generator: Adobe Illustrator 23.0.4, SVG Export Plug-In . SVG Version: 6.00 Build 0)  -->
<svg version="1.1" id="Capa_1" xmlns="http://www.w3.org/2000/svg" xmlns:xlink="http://www.w3.org/1999/xlink" x="0px" y="0px"
	 viewBox="0 0 119 59" style="enable-background:new 0 0 119 59;" xml:space="preserve">
<style type="text/css">
	.st0{fill:#FFFFFF;}
</style>
<g>
	<g>
		<path class="st0" d="M8.1,35.5c-0.4,0-0.9-0.1-1.5-0.3s-1.1-0.5-1.6-1S4.3,33,4.3,32c0-0.8,0.2-2,0.5-3.3c0.4-1.4,0.8-2.9,1.4-4.6
			c0.6-1.7,1.1-3.5,1.7-5.4c0.6-1.9,1-3.8,1.4-5.7c0.4-1.9,0.5-3.7,0.5-5.5c0-1.1,0-2.1-0.1-3c0-1.1-0.3-1.8-0.6-2.4
			c-0.4-0.6-1-0.9-1.9-0.9c-0.8,0-1.5,0.2-2.1,0.7S4.1,3,3.7,3.8S3.1,5.4,2.9,6.2C2.7,7.1,2.7,7.8,2.7,8.6c0,0.5,0,0.9,0.1,1.3
			C2.9,10.3,3,10.7,3.1,11c-1.1,0-1.9-0.3-2.4-0.9C0.2,9.5,0,8.7,0,7.9C0,7,0.2,6.1,0.6,5.2c0.4-0.9,1-1.7,1.8-2.5
			C3.1,1.9,4,1.3,5,0.8s2-0.7,3.1-0.7c1.8,0,3.2,0.7,4.1,2.1s1.3,3.3,1.3,5.7c0,1.7-0.2,3.5-0.6,5.3c-0.4,1.9-0.8,3.7-1.4,5.6
			c-0.6,1.8-1.1,3.6-1.7,5.3s-1,3.3-1.4,4.7s-0.6,2.7-0.6,3.6c0,0.5,0.1,0.9,0.2,1.2c0.2,0.3,0.5,0.5,1,0.5c0.8,0,1.8-0.4,2.9-1.3
			c1.1-0.8,2.2-2,3.4-3.4c1.2-1.5,2.3-3.1,3.4-4.9c1.1-1.8,2.1-3.7,3-5.7c0.9-2,1.6-3.9,2.1-5.8s0.8-3.7,0.8-5.3
			c0-1.5-0.2-2.5-0.7-3.2c-0.4-0.7-1-1.1-1.8-1.3c0.4-0.7,0.8-1.2,1.3-1.5c0.4-0.4,0.8-0.6,1.2-0.6c0.6,0,1.2,0.4,1.8,1.2
			s0.9,2,0.9,3.7c0,1.6-0.3,3.4-0.9,5.5c-0.6,2.1-1.4,4.2-2.4,6.4s-2.2,4.4-3.5,6.4c-1.3,2.1-2.7,4-4.1,5.6c-1.4,1.7-2.9,3-4.3,4
			C10.6,35,9.3,35.5,8.1,35.5z"/>
		<path class="st0" d="M27.4,33.7c-0.9,0-1.7-0.3-2.3-0.9c-0.6-0.6-0.9-1.5-0.9-2.7c0-1.1,0.2-2.2,0.7-3.4c0.5-1.2,1.1-2.4,1.9-3.6
			c0.8-1.2,1.7-2.3,2.8-3.3c1-1,2.1-1.8,3.3-2.4s2.3-0.9,3.4-0.9s2.1,0.3,2.9,0.9c0.8,0.6,1.1,1.4,1.1,2.4c0,0.7-0.2,1.2-0.6,1.5
			c-0.4,0.3-0.9,0.4-1.6,0.4c0.1-0.2,0.1-0.5,0.2-0.8c0-0.3,0.1-0.5,0.1-0.8c0-0.7-0.2-1.3-0.5-1.7c-0.3-0.5-0.9-0.7-1.7-0.7
			s-1.7,0.3-2.5,0.9s-1.7,1.3-2.5,2.3s-1.5,2-2.1,3.1s-1.1,2.2-1.5,3.3c-0.4,1.1-0.5,2.1-0.5,2.9c0,1.1,0.4,1.7,1.2,1.7
			c0.7,0,1.4-0.3,2.2-0.9c0.8-0.6,1.6-1.4,2.4-2.4c0.8-1,1.6-2,2.4-3.1c0.8-1.1,1.4-2,2-2.9c0.1-0.2,0.2-0.3,0.2-0.3
			c0.2,0,0.4,0.1,0.7,0.2s0.5,0.2,0.7,0.4c0.2,0.1,0.3,0.3,0.3,0.6c0,0.3-0.1,0.6-0.4,1.1c-0.3,0.5-0.6,1-0.9,1.6
			c-0.3,0.6-0.6,1.2-0.9,1.8c-0.3,0.6-0.4,1.2-0.4,1.7c0,0.4,0.1,0.9,0.4,1.3c0.2,0.4,0.6,0.6,1.1,0.6c0.8,0,1.8-0.6,3.1-1.7
			c1.3-1.2,2.6-2.9,3.9-5.2l0.4,0.4c-0.6,1.6-1.4,3-2.4,4.2c-1,1.2-2,2.1-3.1,2.8s-2.2,1-3.2,1c-1.1,0-1.9-0.3-2.4-1
			c-0.5-0.6-0.8-1.3-0.8-2.1c0-0.2,0-0.4,0-0.6c0-0.2,0.1-0.4,0.1-0.7c-1.3,1.7-2.4,3-3.4,3.8C29.6,33.3,28.5,33.7,27.4,33.7z"/>
		<path class="st0" d="M48.1,33c-1.3,0-2.2-0.4-2.7-1.3c-0.5-0.9-0.8-1.9-0.8-3.2c0-1.4,0.3-3.1,0.8-5s1.2-4,2.1-6.1
			c0.9-2.1,1.8-4.2,2.8-6.3c1-2,2.1-3.9,3.1-5.6s2-3,2.8-4c0.9-1,1.5-1.5,2-1.5c0.3,0,0.6,0.2,0.8,0.5c0.2,0.4,0.4,0.8,0.5,1.3
			s0.2,1,0.2,1.4c0,0.8-0.2,1.8-0.6,3.1s-1,2.7-1.7,4.3s-1.6,3.1-2.5,4.7c-1,1.6-2.1,3.1-3.2,4.6c-1.2,1.5-2.4,2.7-3.7,3.8
			c-0.2,0.8-0.3,1.6-0.4,2.3c-0.1,0.7-0.2,1.5-0.2,2.1c0,1.1,0.2,2,0.5,2.5c0.3,0.6,0.8,0.8,1.5,0.8c0.8,0,1.6-0.4,2.4-1.1
			c0.8-0.7,1.5-1.6,2.2-2.7c0.7-1.1,1.3-2.2,1.8-3.3l0.7,0.4c-1.2,2.5-2.4,4.5-3.8,5.9C51.2,32.2,49.7,33,48.1,33z M48.4,22.2
			c1-1,2-2.2,3-3.5s1.9-2.7,2.7-4.2c0.8-1.4,1.6-2.8,2.2-4.2c0.6-1.3,1.1-2.6,1.5-3.6c0.4-1,0.6-1.9,0.6-2.4c0-0.3,0-0.5-0.1-0.6
			s-0.1-0.1-0.2-0.1c-0.2,0-0.6,0.4-1.2,1.1s-1.2,1.8-2,3c-0.8,1.3-1.5,2.7-2.3,4.3s-1.5,3.3-2.3,5.1C49.5,18.8,48.9,20.5,48.4,22.2
			z"/>
		<path class="st0" d="M57.8,33c-1.1,0-2-0.4-2.6-1.1c-0.6-0.7-0.9-1.6-0.9-2.7c0-0.9,0.2-2,0.6-3.1c0.4-1.2,0.9-2.3,1.6-3.5
			s1.5-2.2,2.4-3.2s1.9-1.7,2.9-2.4c1-0.6,2.1-0.9,3.1-0.9c0.6,0,1,0.1,1.3,0.3c0.3,0.2,0.5,0.4,0.6,0.7c0.1,0,0.1,0,0.2,0
			c0,0,0.1,0,0.2,0c0.6,0,0.9,0.2,1.2,0.7c0.2,0.4,0.3,0.8,0.3,1.1c0,0.4-0.1,0.8-0.4,1.4s-0.6,1.2-0.9,1.9
			c-0.3,0.7-0.4,1.5-0.4,2.2c0,0.8,0.2,1.4,0.6,1.8s1.1,0.6,2,0.6c0.6,0,1.2-0.3,1.9-0.9c0.7-0.6,1.3-1.3,2-2.2
			c0.6-0.9,1.2-1.9,1.7-2.9c0.5-1.1,0.9-2.1,1.2-3c-0.3-0.3-0.4-0.6-0.4-1.1c0-0.6,0.1-1.1,0.4-1.6c0.2-0.5,0.5-0.8,0.8-1.1
			c0.3-0.2,0.5-0.4,0.7-0.4c0.3,0,0.5,0.1,0.5,0.4s0.1,0.5,0.1,0.6s-0.1,0.4-0.2,0.9c-0.2,0.4-0.2,0.7-0.2,0.8
			c0,0.4,0.2,0.8,0.7,1.1c0.5,0.3,1,0.7,1.6,1.1s1.1,0.9,1.6,1.5s0.7,1.4,0.7,2.3s-0.2,1.8-0.5,2.7c-0.4,0.9-0.7,1.8-1.1,2.6
			s-0.5,1.5-0.5,2.2c0,0.5,0.1,0.9,0.4,1.1c0.3,0.2,0.6,0.3,0.9,0.3c0.7,0,1.4-0.2,2.2-0.7c0.7-0.4,1.5-1,2.2-1.7s1.3-1.4,1.9-2.1
			s1-1.4,1.2-2.1l0,0.5c-0.6,1.2-1.3,2.4-2.3,3.6c-1,1.2-2,2.2-3.2,2.9c-1.2,0.8-2.4,1.1-3.7,1.1c-1,0-1.8-0.3-2.4-0.8
			s-0.9-1.2-0.9-2.1c0-0.9,0.2-1.8,0.6-2.8s0.8-1.9,1.2-2.9c0.4-1,0.6-1.8,0.6-2.6c0-0.9-0.3-1.6-0.8-2.1s-1.1-0.9-1.6-1.3
			c-0.3,1-0.8,2-1.3,3.1s-1.2,2.1-1.8,3.1c-0.7,1-1.4,1.7-2.2,2.3c-0.8,0.6-1.6,0.9-2.4,0.9S67.6,27.3,67,27
			c-0.7-0.3-1.2-0.8-1.5-1.5c-0.9,2.1-2,3.9-3.4,5.3C60.8,32.4,59.4,33,57.8,33z M58.8,31.2c0.7,0,1.4-0.3,2.2-0.9
			c0.8-0.6,1.5-1.4,2.2-2.4c0.7-1,1.4-2.2,1.9-3.4c-0.2-0.7-0.3-1.5-0.3-2.5c0-0.7,0-1.3,0.1-1.8s0.2-0.9,0.3-1.3
			c0.1-0.4,0.3-0.7,0.4-0.9c-1,0-1.9,0.3-2.8,0.8s-1.6,1.2-2.4,2.1c-0.7,0.9-1.3,1.8-1.8,2.8s-0.9,2-1.2,2.9
			C57.1,27.5,57,28.3,57,29s0.1,1.2,0.4,1.6C57.9,30.9,58.3,31.2,58.8,31.2z"/>
		<path class="st0" d="M92.7,33.6c-1.8,0-3.1-0.5-4-1.5s-1.3-2.2-1.3-3.6c0-1.3,0.3-2.7,1-4.2s1.5-2.8,2.6-4.1
			c1.1-1.3,2.3-2.3,3.6-3.1c1.3-0.8,2.6-1.2,3.9-1.2c0.7,0,1.3,0.2,1.9,0.5c0.6,0.4,0.9,1.1,0.9,2.2s-0.3,2.2-1,3.1
			c-0.7,1-1.5,1.9-2.6,2.6c-1.1,0.8-2.2,1.4-3.5,1.9s-2.5,0.8-3.8,0.9c-0.1,0.3-0.1,0.6-0.1,0.8c0,0.3,0,0.5,0,0.7
			c0,0.4,0.1,0.9,0.2,1.3c0.1,0.4,0.3,0.8,0.5,1.2c0.3,0.4,0.6,0.7,1.1,0.9s1,0.3,1.7,0.3c1.3,0,2.5-0.4,3.7-1.1
			c1.2-0.7,2.4-1.7,3.4-2.8c1.1-1.2,1.9-2.5,2.7-3.9l0.5,0.4c-0.8,1.8-1.8,3.3-3,4.6s-2.5,2.3-4,3C95.6,33.2,94.1,33.6,92.7,33.6z
			 M90.5,26.2c0.8-0.3,1.7-0.7,2.7-1.2s2-1.1,2.9-1.8c0.9-0.7,1.7-1.5,2.3-2.3c0.6-0.8,0.9-1.7,0.9-2.7c0-0.3-0.1-0.6-0.2-0.7
			c-0.1-0.2-0.4-0.3-0.7-0.3c-0.7,0-1.5,0.3-2.2,0.8c-0.8,0.5-1.6,1.3-2.3,2.1c-0.7,0.9-1.4,1.8-2,2.9
			C91.2,24.1,90.8,25.1,90.5,26.2z"/>
		<path class="st0" d="M107.2,33.9c-1.4,0-2.5-0.3-3.3-0.9c-0.8-0.6-1.4-1.3-1.7-2.2c-0.3-0.9-0.5-1.8-0.5-2.6c0-0.9,0.1-1.6,0.4-2
			c0.2-0.5,0.5-0.8,0.9-1.1c0.3-0.2,0.7-0.4,1-0.5s0.5-0.2,0.6-0.4c0.9-1,1.7-2,2.4-3c0.7-1.1,1.4-2.2,1.9-3.3v-0.5
			c0-1.1,0.2-1.9,0.5-2.3c0.4-0.5,0.8-0.7,1.2-0.7c0.2,0,0.4,0.1,0.5,0.2s0.2,0.2,0.2,0.4c0,0.1,0,0.4-0.1,0.7
			c-0.1,0.3-0.1,0.7-0.1,1.2c0,1,0.2,2,0.6,3.1s0.8,2.3,1.1,3.6c0.4,1.2,0.6,2.5,0.6,3.9c0,0.4,0,0.8-0.1,1.1c0,0.4-0.1,0.7-0.2,1
			c1-0.2,2-0.6,2.9-1.4s1.8-1.9,2.6-3.6L119,25c-0.6,1.6-1.4,2.8-2.5,3.7c-1.1,0.8-2.3,1.4-3.6,1.6c-0.5,1.3-1.2,2.2-2.2,2.8
			C109.6,33.6,108.4,33.9,107.2,33.9z M107.3,32.3c0.4,0,0.8-0.1,1.4-0.4c0.6-0.2,1-0.8,1.4-1.8c-1.2-0.2-2.3-0.7-3.3-1.5
			c-1-0.7-1.7-1.5-2.1-2.2c-0.6,0-1,0.5-1,1.5c0,1.1,0.3,2,0.9,2.9C105.2,31.9,106.1,32.3,107.3,32.3z M110.2,29.5
			c0.1-0.3,0.1-0.6,0.1-0.9c0-0.3,0-0.7,0-1.1c0-1.4-0.2-2.7-0.5-4.1s-0.6-2.6-0.9-3.8c-0.7,1.1-1.4,2.2-2.1,3.2s-1.5,1.9-2.1,2.5
			c0.4,0.9,1.1,1.8,2,2.6C107.8,28.6,108.9,29.2,110.2,29.5z"/>
	</g>
	<g>
		<path class="st0" d="M9.5,55.9c0,1.2-0.2,2-0.6,2.5C8.6,58.8,8.1,59,7.5,59c-0.1,0-0.3,0-0.5-0.1v-0.8c0,0,0.1,0,0.2,0
			c0.1,0,0.1,0,0.2,0c0.4,0,0.7-0.1,0.8-0.4c0.2-0.3,0.3-0.8,0.3-1.6v-2.2l-0.4,0.4c-0.1,0-0.2,0-0.4,0c-1.2,0-1.8-0.9-1.8-2.6v-5.6
			H7v6c0,0.9,0.3,1.3,0.8,1.3s0.8-0.4,0.8-1.3v-6h1.1v9.8H9.5z"/>
		<path class="st0" d="M20,51.5c0,1.5-0.2,2.5-0.6,3.3c-0.4,0.6-0.9,1-1.5,1c-0.1,0-0.2,0-0.2,0l-0.5-0.5v0.4h-1V41.4h1.1v4.7
			c0.6,0.1,1.1,0.5,1.6,1.1C19.6,48.2,20,49.7,20,51.5z M18.9,52c0-2.8-0.6-4.5-1.7-5v7.3c0,0.1,0.1,0.3,0.2,0.4
			c0.1,0.1,0.3,0.2,0.4,0.2c0.3,0,0.5-0.3,0.7-0.8C18.8,53.6,18.9,52.9,18.9,52z"/>
		<path class="st0" d="M26.2,53.2c0,1.7-0.6,2.6-1.8,2.6s-1.8-0.9-1.8-2.6v-7h1.1v7.5c0,0.3,0.1,0.6,0.2,0.9
			c0.1,0.3,0.3,0.4,0.5,0.4s0.4-0.1,0.5-0.4c0.1-0.3,0.2-0.6,0.2-0.9v-7.6h1.1V53.2z"/>
		<path class="st0" d="M32.5,48.6c0,1-0.3,1.8-0.9,2.5c-0.5,0.6-1.1,0.9-1.7,0.9c0.1,2,0.6,3,1.5,3c0.1,0,0.2,0,0.3,0v0.8
			c-0.1,0-0.2,0-0.4,0c-1.7,0-2.5-1.6-2.5-4.9c0-3.2,0.7-4.8,2.1-4.8c0.4,0,0.8,0.2,1.1,0.6C32.3,47.1,32.5,47.7,32.5,48.6z
			 M31.5,48.5c0-1.1-0.2-1.6-0.6-1.6c-0.6,0-0.9,1.3-0.9,4c0,0.1,0,0.2,0,0.3c0.4,0,0.8-0.3,1.1-0.8C31.3,49.8,31.5,49.2,31.5,48.5z
			"/>
		<path class="st0" d="M38.6,55.7h-1.1v-7.5c0-0.3-0.1-0.6-0.2-0.9s-0.3-0.4-0.5-0.4s-0.4,0.1-0.5,0.4c-0.1,0.3-0.2,0.6-0.2,0.9v7.5
			H35v-9.6h1v0.4l0.4-0.4c0.1,0,0.3,0,0.4,0c1.2,0,1.8,0.9,1.8,2.6V55.7z"/>
		<path class="st0" d="M44.6,55.7h-1v-0.4l-0.5,0.5c-0.1,0-0.2,0-0.3,0c-0.5,0-1-0.3-1.3-0.9c-0.4-0.6-0.5-1.3-0.5-2.2
			c0-1.4,0.3-2.5,1-3.4c0.5-0.6,1-1,1.5-1.1v-0.3c0-0.6-0.3-0.9-0.8-0.9c-0.3,0-0.6,0.1-1,0.2v-0.8c0.3-0.1,0.7-0.1,1.1-0.1
			c1.2,0,1.7,0.7,1.7,2L44.6,55.7L44.6,55.7z M43.5,54.3V49c-0.3,0-0.6,0.4-0.9,0.9c-0.4,0.7-0.6,1.6-0.6,2.7c0,0.8,0.1,1.3,0.3,1.8
			c0.1,0.3,0.3,0.5,0.5,0.5C43.1,54.9,43.4,54.7,43.5,54.3z"/>
		<path class="st0" d="M49.7,46.4c-0.8,0.8-1.2,1.5-1.2,2.2c0,0.5,0.2,1.1,0.5,1.8c0.4,0.8,0.6,1.5,0.6,2c0,0.8-0.2,1.5-0.5,2.1
			c-0.2,0.4-0.6,0.9-1.2,1.4l-0.6-0.6c0.8-0.8,1.2-1.7,1.2-2.6c0-0.5-0.2-1.2-0.6-2c-0.3-0.7-0.5-1.4-0.5-2c0-1,0.6-2,1.7-3
			L49.7,46.4z"/>
		<path class="st0" d="M59.1,55.7c-0.2,0-0.4,0.1-0.6,0.1c-0.6,0-1.1-0.3-1.5-0.8c-0.7-0.8-1-2.2-1-4c0-1.9,0.3-3.2,1-4
			c0.4-0.6,0.9-0.8,1.5-0.8c0.2,0,0.4,0,0.6,0.1V47c-0.2,0-0.3,0-0.4,0c-0.4,0-0.7,0.2-1,0.7c-0.4,0.7-0.6,1.8-0.6,3.4
			c0,1.6,0.2,2.7,0.6,3.4c0.3,0.5,0.6,0.7,1,0.7c0.2,0,0.3,0,0.4,0V55.7z"/>
		<path class="st0" d="M65.4,50.9c0,3.2-0.7,4.9-2,4.9c-1.4,0-2-1.6-2-4.9s0.7-4.9,2-4.9C64.7,46,65.4,47.7,65.4,50.9z M64.2,50.9
			c0-2.7-0.3-4-0.9-4s-0.9,1.3-0.9,4s0.3,4,0.9,4S64.2,53.6,64.2,50.9z"/>
		<path class="st0" d="M70.3,46.4c-0.8,0.8-1.2,1.5-1.2,2.2c0,0.5,0.2,1.1,0.5,1.8c0.4,0.8,0.6,1.5,0.6,2c0,0.8-0.2,1.5-0.5,2.1
			c-0.2,0.4-0.6,0.9-1.2,1.4l-0.6-0.6c0.8-0.8,1.2-1.7,1.2-2.6c0-0.5-0.2-1.2-0.6-2c-0.3-0.7-0.5-1.4-0.5-2c0-1,0.6-2,1.7-3
			L70.3,46.4z"/>
		<path class="st0" d="M75.7,55.6c-0.2,0-0.4,0.1-0.5,0.1c-1.3,0-2-1-2-3V47h-0.4v-0.9h0.4v-1.8h1.1v1.8h1.3v0.8h-1.3v5.9
			c0,1.3,0.4,2,1.1,2c0.1,0,0.2,0,0.4,0L75.7,55.6L75.7,55.6z"/>
		<path class="st0" d="M81.6,53.2c0,1.7-0.6,2.6-1.8,2.6S78,54.9,78,53.2v-7h1.1v7.5c0,0.3,0.1,0.6,0.2,0.9c0.1,0.3,0.3,0.4,0.5,0.4
			s0.4-0.1,0.5-0.4c0.1-0.3,0.2-0.6,0.2-0.9v-7.6h1.1L81.6,53.2L81.6,53.2z"/>
		<path class="st0" d="M90.6,55.7h-1.1v-7.5c0-0.3-0.1-0.6-0.2-0.9c-0.1-0.3-0.3-0.4-0.5-0.4s-0.4,0.1-0.5,0.4
			c-0.1,0.3-0.2,0.6-0.2,0.9v7.5H87v-7.5c0-0.3-0.1-0.6-0.2-0.9c-0.1-0.3-0.3-0.4-0.5-0.4s-0.4,0.1-0.5,0.4
			c-0.1,0.3-0.2,0.6-0.2,0.9v7.5h-1.2v-9.6h1v0.4l0.5-0.5c0.1,0,0.3,0,0.4,0c0.5,0,1,0.2,1.3,0.6c0.3-0.4,0.7-0.6,1.3-0.6
			c1.2,0,1.8,0.9,1.8,2.6v7.1H90.6z"/>
		<path class="st0" d="M97.4,51.5c0,1.5-0.2,2.5-0.6,3.3c-0.4,0.6-0.9,1-1.5,1c-0.1,0-0.2,0-0.2,0l-0.5-0.5v0.4h-1V41.4h1.1v4.7
			c0.6,0.1,1.1,0.5,1.6,1.1C97,48.2,97.4,49.7,97.4,51.5z M96.3,52c0-2.8-0.6-4.5-1.7-5v7.3c0,0.1,0.1,0.3,0.2,0.4
			c0.1,0.1,0.3,0.2,0.4,0.2c0.3,0,0.5-0.3,0.7-0.8C96.2,53.6,96.3,52.9,96.3,52z"/>
		<path class="st0" d="M102.7,47h-0.3c-0.9,0-1.3,0.6-1.3,1.7v7H100v-9.6h1v0.6c0.3-0.4,0.7-0.6,1.2-0.6h0.4V47H102.7z"/>
		<path class="st0" d="M108.2,48.6c0,1-0.3,1.8-0.9,2.5c-0.5,0.6-1.1,0.9-1.7,0.9c0.1,2,0.6,3,1.5,3c0.1,0,0.2,0,0.3,0v0.8
			c-0.1,0-0.2,0-0.4,0c-1.7,0-2.5-1.6-2.5-4.9c0-3.2,0.7-4.8,2.1-4.8c0.4,0,0.8,0.2,1.1,0.6C108.1,47.1,108.2,47.7,108.2,48.6z
			 M107.2,48.5c0-1.1-0.2-1.6-0.6-1.6c-0.6,0-0.9,1.3-0.9,4c0,0.1,0,0.2,0,0.3c0.4,0,0.8-0.3,1.1-0.8
			C107,49.8,107.2,49.2,107.2,48.5z"/>
		<path class="st0" d="M113.1,46.4c-0.8,0.8-1.2,1.5-1.2,2.2c0,0.5,0.2,1.1,0.5,1.8c0.4,0.8,0.6,1.5,0.6,2c0,0.8-0.2,1.5-0.5,2.1
			c-0.2,0.4-0.6,0.9-1.2,1.4l-0.6-0.6c0.8-0.8,1.2-1.7,1.2-2.6c0-0.5-0.2-1.2-0.6-2c-0.3-0.7-0.5-1.4-0.5-2c0-1,0.6-2,1.7-3
			L113.1,46.4z"/>
	</g>
</g>
</svg>
