<?xml version="1.0" encoding="utf-8"?>
<!-- Generator: Adobe Illustrator 23.0.4, SVG Export Plug-In . SVG Version: 6.00 Build 0)  -->
<svg version="1.1" id="Capa_1" xmlns="http://www.w3.org/2000/svg" xmlns:xlink="http://www.w3.org/1999/xlink" x="0px" y="0px"
	 viewBox="0 0 136.1 66.7" style="enable-background:new 0 0 136.1 66.7;" xml:space="preserve">
<style type="text/css">
	.st0{fill:#FFFFFF;}
</style>
<g>
	<g>
		<path class="st0" d="M16.7,39.4c-0.4,0-0.9-0.1-1.5-0.3c-0.6-0.2-1.1-0.5-1.6-1c-0.5-0.5-0.7-1.2-0.7-2.2c0-0.8,0.2-2,0.5-3.3
			c0.4-1.4,0.8-2.9,1.4-4.6c0.6-1.7,1.1-3.5,1.7-5.4c0.6-1.9,1-3.8,1.4-5.7c0.4-1.9,0.5-3.7,0.5-5.5c0-1.1,0-2.1-0.1-3
			C18.3,7.3,18,6.6,17.7,6c-0.4-0.6-1-0.9-1.9-0.9c-0.8,0-1.5,0.2-2.1,0.7c-0.6,0.5-1,1.1-1.4,1.9c-0.4,0.8-0.6,1.6-0.8,2.4
			c-0.2,0.9-0.2,1.6-0.2,2.4c0,0.5,0,0.9,0.1,1.3c0.1,0.4,0.2,0.8,0.3,1.1c-1.1,0-1.9-0.3-2.4-0.9c-0.5-0.6-0.7-1.4-0.7-2.2
			c0-0.9,0.2-1.8,0.6-2.7c0.4-0.9,1-1.7,1.8-2.5c0.7-0.8,1.6-1.4,2.6-1.9c1-0.5,2-0.7,3.1-0.7c1.8,0,3.2,0.7,4.1,2.1
			c0.9,1.4,1.3,3.3,1.3,5.7c0,1.7-0.2,3.5-0.6,5.3c-0.4,1.9-0.8,3.7-1.4,5.6c-0.6,1.8-1.1,3.6-1.7,5.3c-0.6,1.7-1,3.3-1.4,4.7
			c-0.4,1.4-0.6,2.7-0.6,3.6c0,0.5,0.1,0.9,0.2,1.2c0.2,0.3,0.5,0.5,1,0.5c0.8,0,1.8-0.4,2.9-1.3c1.1-0.8,2.2-2,3.4-3.4
			c1.2-1.5,2.3-3.1,3.4-4.9c1.1-1.8,2.1-3.7,3-5.7c0.9-2,1.6-3.9,2.1-5.8c0.5-1.9,0.8-3.7,0.8-5.3c0-1.5-0.2-2.5-0.7-3.2
			c-0.4-0.7-1-1.1-1.8-1.3c0.4-0.7,0.8-1.2,1.3-1.5C32.4,5.2,32.8,5,33.2,5c0.6,0,1.2,0.4,1.8,1.2c0.6,0.8,0.9,2,0.9,3.7
			c0,1.6-0.3,3.4-0.9,5.5c-0.6,2.1-1.4,4.2-2.4,6.4c-1,2.2-2.2,4.4-3.5,6.4c-1.3,2.1-2.7,4-4.1,5.6c-1.4,1.7-2.9,3-4.3,4
			C19.2,38.9,17.9,39.4,16.7,39.4z"/>
		<path class="st0" d="M36,37.6c-0.9,0-1.7-0.3-2.3-0.9c-0.6-0.6-0.9-1.5-0.9-2.7c0-1.1,0.2-2.2,0.7-3.4c0.5-1.2,1.1-2.4,1.9-3.6
			c0.8-1.2,1.7-2.3,2.8-3.3c1-1,2.1-1.8,3.3-2.4c1.2-0.6,2.3-0.9,3.4-0.9s2.1,0.3,2.9,0.9c0.8,0.6,1.1,1.4,1.1,2.4
			c0,0.7-0.2,1.2-0.6,1.5c-0.4,0.3-0.9,0.4-1.6,0.4c0.1-0.2,0.1-0.5,0.2-0.8c0-0.3,0.1-0.5,0.1-0.8c0-0.7-0.2-1.3-0.5-1.7
			c-0.3-0.5-0.9-0.7-1.7-0.7c-0.8,0-1.7,0.3-2.5,0.9c-0.8,0.6-1.7,1.3-2.5,2.3c-0.8,1-1.5,2-2.1,3.1c-0.6,1.1-1.1,2.2-1.5,3.3
			c-0.4,1.1-0.5,2.1-0.5,2.9c0,1.1,0.4,1.7,1.2,1.7c0.7,0,1.4-0.3,2.2-0.9c0.8-0.6,1.6-1.4,2.4-2.4c0.8-1,1.6-2,2.4-3.1
			c0.8-1.1,1.4-2,2-2.9c0.1-0.2,0.2-0.3,0.2-0.3c0.2,0,0.4,0.1,0.7,0.2c0.3,0.1,0.5,0.2,0.7,0.4c0.2,0.1,0.3,0.3,0.3,0.6
			c0,0.3-0.1,0.6-0.4,1.1c-0.3,0.5-0.6,1-0.9,1.6c-0.3,0.6-0.6,1.2-0.9,1.8c-0.3,0.6-0.4,1.2-0.4,1.7c0,0.4,0.1,0.9,0.4,1.3
			c0.2,0.4,0.6,0.6,1.1,0.6c0.8,0,1.8-0.6,3.1-1.7c1.3-1.2,2.6-2.9,3.9-5.2l0.4,0.4c-0.6,1.6-1.4,3-2.4,4.2c-1,1.2-2,2.1-3.1,2.8
			s-2.2,1-3.2,1c-1.1,0-1.9-0.3-2.4-1c-0.5-0.6-0.8-1.3-0.8-2.1c0-0.2,0-0.4,0-0.6c0-0.2,0.1-0.4,0.1-0.7c-1.3,1.7-2.4,3-3.4,3.8
			C38.2,37.2,37.1,37.6,36,37.6z"/>
		<path class="st0" d="M56.7,36.9c-1.3,0-2.2-0.4-2.7-1.3c-0.5-0.9-0.8-1.9-0.8-3.2c0-1.4,0.3-3.1,0.8-5c0.5-1.9,1.2-4,2.1-6.1
			c0.9-2.1,1.8-4.2,2.8-6.3c1-2,2.1-3.9,3.1-5.6c1-1.7,2-3,2.8-4c0.9-1,1.5-1.5,2-1.5c0.3,0,0.6,0.2,0.8,0.5
			c0.2,0.4,0.4,0.8,0.5,1.3c0.1,0.5,0.2,1,0.2,1.4c0,0.8-0.2,1.8-0.6,3.1c-0.4,1.3-1,2.7-1.7,4.3c-0.7,1.6-1.6,3.1-2.5,4.7
			c-1,1.6-2.1,3.1-3.2,4.6c-1.2,1.5-2.4,2.7-3.7,3.8c-0.2,0.8-0.3,1.6-0.4,2.3c-0.1,0.7-0.2,1.5-0.2,2.1c0,1.1,0.2,2,0.5,2.5
			c0.3,0.6,0.8,0.8,1.5,0.8c0.8,0,1.6-0.4,2.4-1.1c0.8-0.7,1.5-1.6,2.2-2.7c0.7-1.1,1.3-2.2,1.8-3.3l0.7,0.4
			c-1.2,2.5-2.4,4.5-3.8,5.9C59.8,36.1,58.3,36.9,56.7,36.9z M57,26.1c1-1,2-2.2,3-3.5c1-1.3,1.9-2.7,2.7-4.2
			c0.8-1.4,1.6-2.8,2.2-4.2c0.6-1.3,1.1-2.6,1.5-3.6C66.8,9.6,67,8.7,67,8.2c0-0.3,0-0.5-0.1-0.6c-0.1-0.1-0.1-0.1-0.2-0.1
			c-0.2,0-0.6,0.4-1.2,1.1c-0.6,0.7-1.2,1.8-2,3c-0.8,1.3-1.5,2.7-2.3,4.3c-0.8,1.6-1.5,3.3-2.3,5.1C58.1,22.7,57.5,24.4,57,26.1z"
			/>
		<path class="st0" d="M66.4,36.9c-1.1,0-2-0.4-2.6-1.1c-0.6-0.7-0.9-1.6-0.9-2.7c0-0.9,0.2-2,0.6-3.1c0.4-1.2,0.9-2.3,1.6-3.5
			c0.7-1.2,1.5-2.2,2.4-3.2c0.9-1,1.9-1.7,2.9-2.4c1-0.6,2.1-0.9,3.1-0.9c0.6,0,1,0.1,1.3,0.3c0.3,0.2,0.5,0.4,0.6,0.7
			c0.1,0,0.1,0,0.2,0c0,0,0.1,0,0.2,0c0.6,0,0.9,0.2,1.2,0.7c0.2,0.4,0.3,0.8,0.3,1.1c0,0.4-0.1,0.8-0.4,1.4
			c-0.3,0.6-0.6,1.2-0.9,1.9c-0.3,0.7-0.4,1.5-0.4,2.2c0,0.8,0.2,1.4,0.6,1.8c0.4,0.4,1.1,0.6,2,0.6c0.6,0,1.2-0.3,1.9-0.9
			c0.7-0.6,1.3-1.3,2-2.2c0.6-0.9,1.2-1.9,1.7-2.9c0.5-1.1,0.9-2.1,1.2-3c-0.3-0.3-0.4-0.6-0.4-1.1c0-0.6,0.1-1.1,0.4-1.6
			c0.2-0.5,0.5-0.8,0.8-1.1c0.3-0.2,0.5-0.4,0.7-0.4c0.3,0,0.5,0.1,0.5,0.4c0,0.3,0.1,0.5,0.1,0.6c0,0.1-0.1,0.4-0.2,0.9
			c-0.2,0.4-0.2,0.7-0.2,0.8c0,0.4,0.2,0.8,0.7,1.1c0.5,0.3,1,0.7,1.6,1.1c0.6,0.4,1.1,0.9,1.6,1.5c0.5,0.6,0.7,1.4,0.7,2.3
			c0,0.9-0.2,1.8-0.5,2.7c-0.4,0.9-0.7,1.8-1.1,2.6c-0.4,0.8-0.5,1.5-0.5,2.2c0,0.5,0.1,0.9,0.4,1.1c0.3,0.2,0.6,0.3,0.9,0.3
			c0.7,0,1.4-0.2,2.2-0.7c0.7-0.4,1.5-1,2.2-1.7c0.7-0.7,1.3-1.4,1.9-2.1c0.6-0.7,1-1.4,1.2-2.1L98,29c-0.6,1.2-1.3,2.4-2.3,3.6
			c-1,1.2-2,2.2-3.2,2.9c-1.2,0.8-2.4,1.1-3.7,1.1c-1,0-1.8-0.3-2.4-0.8c-0.6-0.5-0.9-1.2-0.9-2.1c0-0.9,0.2-1.8,0.6-2.8
			c0.4-1,0.8-1.9,1.2-2.9c0.4-1,0.6-1.8,0.6-2.6c0-0.9-0.3-1.6-0.8-2.1c-0.5-0.5-1.1-0.9-1.6-1.3c-0.3,1-0.8,2-1.3,3.1
			c-0.5,1.1-1.2,2.1-1.8,3.1c-0.7,1-1.4,1.7-2.2,2.3c-0.8,0.6-1.6,0.9-2.4,0.9c-0.8,0-1.6-0.2-2.2-0.5c-0.7-0.3-1.2-0.8-1.5-1.5
			c-0.9,2.1-2,3.9-3.4,5.3C69.4,36.3,68,36.9,66.4,36.9z M67.4,35.1c0.7,0,1.4-0.3,2.2-0.9c0.8-0.6,1.5-1.4,2.2-2.4
			c0.7-1,1.4-2.2,1.9-3.4c-0.2-0.7-0.3-1.5-0.3-2.5c0-0.7,0-1.3,0.1-1.8c0.1-0.5,0.2-0.9,0.3-1.3c0.1-0.4,0.3-0.7,0.4-0.9
			c-1,0-1.9,0.3-2.8,0.8c-0.9,0.5-1.6,1.2-2.4,2.1c-0.7,0.9-1.3,1.8-1.8,2.8c-0.5,1-0.9,2-1.2,2.9c-0.3,0.9-0.4,1.7-0.4,2.4
			c0,0.7,0.1,1.2,0.4,1.6C66.5,34.8,66.9,35.1,67.4,35.1z"/>
		<path class="st0" d="M101.3,37.5c-1.8,0-3.1-0.5-4-1.5c-0.9-1-1.3-2.2-1.3-3.6c0-1.3,0.3-2.7,1-4.2c0.7-1.5,1.5-2.8,2.6-4.1
			c1.1-1.3,2.3-2.3,3.6-3.1c1.3-0.8,2.6-1.2,3.9-1.2c0.7,0,1.3,0.2,1.9,0.5c0.6,0.4,0.9,1.1,0.9,2.2c0,1.1-0.3,2.2-1,3.1
			c-0.7,1-1.5,1.9-2.6,2.6c-1.1,0.8-2.2,1.4-3.5,1.9c-1.3,0.5-2.5,0.8-3.8,0.9c-0.1,0.3-0.1,0.6-0.1,0.8c0,0.3,0,0.5,0,0.7
			c0,0.4,0.1,0.9,0.2,1.3c0.1,0.4,0.3,0.8,0.5,1.2c0.3,0.4,0.6,0.7,1.1,0.9c0.5,0.2,1,0.3,1.7,0.3c1.3,0,2.5-0.4,3.7-1.1
			c1.2-0.7,2.4-1.7,3.4-2.8c1.1-1.2,1.9-2.5,2.7-3.9l0.5,0.4c-0.8,1.8-1.8,3.3-3,4.6c-1.2,1.3-2.5,2.3-4,3
			C104.2,37.1,102.7,37.5,101.3,37.5z M99.1,30.1c0.8-0.3,1.7-0.7,2.7-1.2c1-0.5,2-1.1,2.9-1.8c0.9-0.7,1.7-1.5,2.3-2.3
			c0.6-0.8,0.9-1.7,0.9-2.7c0-0.3-0.1-0.6-0.2-0.7c-0.1-0.2-0.4-0.3-0.7-0.3c-0.7,0-1.5,0.3-2.2,0.8c-0.8,0.5-1.6,1.3-2.3,2.1
			c-0.7,0.9-1.4,1.8-2,2.9C99.8,28,99.4,29,99.1,30.1z"/>
		<path class="st0" d="M115.8,37.8c-1.4,0-2.5-0.3-3.3-0.9c-0.8-0.6-1.4-1.3-1.7-2.2c-0.3-0.9-0.5-1.8-0.5-2.6c0-0.9,0.1-1.6,0.4-2
			c0.2-0.5,0.5-0.8,0.9-1.1c0.3-0.2,0.7-0.4,1-0.5c0.3-0.1,0.5-0.2,0.6-0.4c0.9-1,1.7-2,2.4-3c0.7-1.1,1.4-2.2,1.9-3.3v-0.5
			c0-1.1,0.2-1.9,0.5-2.3c0.4-0.5,0.8-0.7,1.2-0.7c0.2,0,0.4,0.1,0.5,0.2c0.1,0.1,0.2,0.2,0.2,0.4c0,0.1,0,0.4-0.1,0.7
			c-0.1,0.3-0.1,0.7-0.1,1.2c0,1,0.2,2,0.6,3.1c0.4,1.1,0.8,2.3,1.1,3.6c0.4,1.2,0.6,2.5,0.6,3.9c0,0.4,0,0.8-0.1,1.1
			c0,0.4-0.1,0.7-0.2,1c1-0.2,2-0.6,2.9-1.4s1.8-1.9,2.6-3.6l0.4,0.4c-0.6,1.6-1.4,2.8-2.5,3.7c-1.1,0.8-2.3,1.4-3.6,1.6
			c-0.5,1.3-1.2,2.2-2.2,2.8C118.2,37.5,117,37.8,115.8,37.8z M115.9,36.2c0.4,0,0.8-0.1,1.4-0.4c0.6-0.2,1-0.8,1.4-1.8
			c-1.2-0.2-2.3-0.7-3.3-1.5c-1-0.7-1.7-1.5-2.1-2.2c-0.6,0-1,0.5-1,1.5c0,1.1,0.3,2,0.9,2.9C113.8,35.8,114.7,36.2,115.9,36.2z
			 M118.8,33.4c0.1-0.3,0.1-0.6,0.1-0.9c0-0.3,0-0.7,0-1.1c0-1.4-0.2-2.7-0.5-4.1c-0.3-1.4-0.6-2.6-0.9-3.8
			c-0.7,1.1-1.4,2.2-2.1,3.2c-0.7,1-1.5,1.9-2.1,2.5c0.4,0.9,1.1,1.8,2,2.6C116.4,32.5,117.5,33.1,118.8,33.4z"/>
	</g>
	<g>
		<path class="st0" d="M18.1,59.8c0,1.2-0.2,2-0.6,2.5c-0.3,0.4-0.8,0.6-1.4,0.6c-0.1,0-0.3,0-0.5-0.1V62c0,0,0.1,0,0.2,0
			c0.1,0,0.1,0,0.2,0c0.4,0,0.7-0.1,0.8-0.4c0.2-0.3,0.3-0.8,0.3-1.6v-2.2l-0.4,0.4c-0.1,0-0.2,0-0.4,0c-1.2,0-1.8-0.9-1.8-2.6V50
			h1.1v6c0,0.9,0.3,1.3,0.8,1.3c0.5,0,0.8-0.4,0.8-1.3v-6h1.1V59.8z"/>
		<path class="st0" d="M28.6,55.4c0,1.5-0.2,2.5-0.6,3.3c-0.4,0.6-0.9,1-1.5,1c-0.1,0-0.2,0-0.2,0l-0.5-0.5v0.4h-1V45.3h1.1V50
			c0.6,0.1,1.1,0.5,1.6,1.1C28.2,52.1,28.6,53.6,28.6,55.4z M27.5,55.9c0-2.8-0.6-4.5-1.7-5v7.3c0,0.1,0.1,0.3,0.2,0.4
			c0.1,0.1,0.3,0.2,0.4,0.2c0.3,0,0.5-0.3,0.7-0.8C27.4,57.5,27.5,56.8,27.5,55.9z"/>
		<path class="st0" d="M34.8,57.1c0,1.7-0.6,2.6-1.8,2.6s-1.8-0.9-1.8-2.6v-7h1.1v7.5c0,0.3,0.1,0.6,0.2,0.9
			c0.1,0.3,0.3,0.4,0.5,0.4s0.4-0.1,0.5-0.4c0.1-0.3,0.2-0.6,0.2-0.9V50h1.1V57.1z"/>
		<path class="st0" d="M41.1,52.5c0,1-0.3,1.8-0.9,2.5c-0.5,0.6-1.1,0.9-1.7,0.9c0.1,2,0.6,3,1.5,3c0.1,0,0.2,0,0.3,0v0.8
			c-0.1,0-0.2,0-0.4,0c-1.7,0-2.5-1.6-2.5-4.9c0-3.2,0.7-4.8,2.1-4.8c0.4,0,0.8,0.2,1.1,0.6C40.9,51,41.1,51.6,41.1,52.5z
			 M40.1,52.4c0-1.1-0.2-1.6-0.6-1.6c-0.6,0-0.9,1.3-0.9,4c0,0.1,0,0.2,0,0.3c0.4,0,0.8-0.3,1.1-0.8C39.9,53.7,40.1,53.1,40.1,52.4z
			"/>
		<path class="st0" d="M47.2,59.6h-1.1v-7.5c0-0.3-0.1-0.6-0.2-0.9s-0.3-0.4-0.5-0.4c-0.2,0-0.4,0.1-0.5,0.4
			c-0.1,0.3-0.2,0.6-0.2,0.9v7.5h-1.1V50h1v0.4L45,50c0.1,0,0.3,0,0.4,0c1.2,0,1.8,0.9,1.8,2.6V59.6z"/>
		<path class="st0" d="M53.2,59.6h-1v-0.4l-0.5,0.5c-0.1,0-0.2,0-0.3,0c-0.5,0-1-0.3-1.3-0.9c-0.4-0.6-0.5-1.3-0.5-2.2
			c0-1.4,0.3-2.5,1-3.4c0.5-0.6,1-1,1.5-1.1v-0.3c0-0.6-0.3-0.9-0.8-0.9c-0.3,0-0.6,0.1-1,0.2v-0.8c0.3-0.1,0.7-0.1,1.1-0.1
			c1.2,0,1.7,0.7,1.7,2V59.6z M52.1,58.2v-5.3c-0.3,0-0.6,0.4-0.9,0.9c-0.4,0.7-0.6,1.6-0.6,2.7c0,0.8,0.1,1.3,0.3,1.8
			c0.1,0.3,0.3,0.5,0.5,0.5C51.7,58.8,52,58.6,52.1,58.2z"/>
		<path class="st0" d="M58.3,50.3c-0.8,0.8-1.2,1.5-1.2,2.2c0,0.5,0.2,1.1,0.5,1.8c0.4,0.8,0.6,1.5,0.6,2c0,0.8-0.2,1.5-0.5,2.1
			c-0.2,0.4-0.6,0.9-1.2,1.4l-0.6-0.6c0.8-0.8,1.2-1.7,1.2-2.6c0-0.5-0.2-1.2-0.6-2c-0.3-0.7-0.5-1.4-0.5-2c0-1,0.6-2,1.7-3
			L58.3,50.3z"/>
		<path class="st0" d="M67.7,59.6c-0.2,0-0.4,0.1-0.6,0.1c-0.6,0-1.1-0.3-1.5-0.8c-0.7-0.8-1-2.2-1-4c0-1.9,0.3-3.2,1-4
			c0.4-0.6,0.9-0.8,1.5-0.8c0.2,0,0.4,0,0.6,0.1v0.7c-0.2,0-0.3,0-0.4,0c-0.4,0-0.7,0.2-1,0.7c-0.4,0.7-0.6,1.8-0.6,3.4
			c0,1.6,0.2,2.7,0.6,3.4c0.3,0.5,0.6,0.7,1,0.7c0.2,0,0.3,0,0.4,0V59.6z"/>
		<path class="st0" d="M74,54.8c0,3.2-0.7,4.9-2,4.9c-1.4,0-2-1.6-2-4.9s0.7-4.9,2-4.9C73.3,49.9,74,51.6,74,54.8z M72.8,54.8
			c0-2.7-0.3-4-0.9-4c-0.6,0-0.9,1.3-0.9,4c0,2.7,0.3,4,0.9,4C72.5,58.8,72.8,57.5,72.8,54.8z"/>
		<path class="st0" d="M78.9,50.3c-0.8,0.8-1.2,1.5-1.2,2.2c0,0.5,0.2,1.1,0.5,1.8c0.4,0.8,0.6,1.5,0.6,2c0,0.8-0.2,1.5-0.5,2.1
			c-0.2,0.4-0.6,0.9-1.2,1.4l-0.6-0.6c0.8-0.8,1.2-1.7,1.2-2.6c0-0.5-0.2-1.2-0.6-2c-0.3-0.7-0.5-1.4-0.5-2c0-1,0.6-2,1.7-3
			L78.9,50.3z"/>
		<path class="st0" d="M84.3,59.5c-0.2,0-0.4,0.1-0.5,0.1c-1.3,0-2-1-2-3v-5.7h-0.4V50h0.4v-1.8h1.1V50h1.3v0.8h-1.3v5.9
			c0,1.3,0.4,2,1.1,2c0.1,0,0.2,0,0.4,0V59.5z"/>
		<path class="st0" d="M90.2,57.1c0,1.7-0.6,2.6-1.8,2.6s-1.8-0.9-1.8-2.6v-7h1.1v7.5c0,0.3,0.1,0.6,0.2,0.9
			c0.1,0.3,0.3,0.4,0.5,0.4s0.4-0.1,0.5-0.4c0.1-0.3,0.2-0.6,0.2-0.9V50h1.1V57.1z"/>
		<path class="st0" d="M99.2,59.6h-1.1v-7.5c0-0.3-0.1-0.6-0.2-0.9c-0.1-0.3-0.3-0.4-0.5-0.4c-0.2,0-0.4,0.1-0.5,0.4
			c-0.1,0.3-0.2,0.6-0.2,0.9v7.5h-1.1v-7.5c0-0.3-0.1-0.6-0.2-0.9c-0.1-0.3-0.3-0.4-0.5-0.4s-0.4,0.1-0.5,0.4
			c-0.1,0.3-0.2,0.6-0.2,0.9v7.5H93V50h1v0.4l0.5-0.5c0.1,0,0.3,0,0.4,0c0.5,0,1,0.2,1.3,0.6c0.3-0.4,0.7-0.6,1.3-0.6
			c1.2,0,1.8,0.9,1.8,2.6V59.6z"/>
		<path class="st0" d="M106,55.4c0,1.5-0.2,2.5-0.6,3.3c-0.4,0.6-0.9,1-1.5,1c-0.1,0-0.2,0-0.2,0l-0.5-0.5v0.4h-1V45.3h1.1V50
			c0.6,0.1,1.1,0.5,1.6,1.1C105.6,52.1,106,53.6,106,55.4z M104.9,55.9c0-2.8-0.6-4.5-1.7-5v7.3c0,0.1,0.1,0.3,0.2,0.4
			c0.1,0.1,0.3,0.2,0.4,0.2c0.3,0,0.5-0.3,0.7-0.8C104.8,57.5,104.9,56.8,104.9,55.9z"/>
		<path class="st0" d="M111.3,50.9H111c-0.9,0-1.3,0.6-1.3,1.7v7h-1.1V50h1v0.6c0.3-0.4,0.7-0.6,1.2-0.6h0.4V50.9z"/>
		<path class="st0" d="M116.8,52.5c0,1-0.3,1.8-0.9,2.5c-0.5,0.6-1.1,0.9-1.7,0.9c0.1,2,0.6,3,1.5,3c0.1,0,0.2,0,0.3,0v0.8
			c-0.1,0-0.2,0-0.4,0c-1.7,0-2.5-1.6-2.5-4.9c0-3.2,0.7-4.8,2.1-4.8c0.4,0,0.8,0.2,1.1,0.6C116.7,51,116.8,51.6,116.8,52.5z
			 M115.8,52.4c0-1.1-0.2-1.6-0.6-1.6c-0.6,0-0.9,1.3-0.9,4c0,0.1,0,0.2,0,0.3c0.4,0,0.8-0.3,1.1-0.8
			C115.6,53.7,115.8,53.1,115.8,52.4z"/>
		<path class="st0" d="M121.7,50.3c-0.8,0.8-1.2,1.5-1.2,2.2c0,0.5,0.2,1.1,0.5,1.8c0.4,0.8,0.6,1.5,0.6,2c0,0.8-0.2,1.5-0.5,2.1
			c-0.2,0.4-0.6,0.9-1.2,1.4l-0.6-0.6c0.8-0.8,1.2-1.7,1.2-2.6c0-0.5-0.2-1.2-0.6-2c-0.3-0.7-0.5-1.4-0.5-2c0-1,0.6-2,1.7-3
			L121.7,50.3z"/>
	</g>
</g>
</svg>
