<svg xmlns="http://www.w3.org/2000/svg" viewBox="0 0 294.84 295.8"><defs><style>.cls-1{fill:#d7d8d8;}.cls-2{fill:#f7f7f6;}.cls-3{fill:#e4e5e4;}.cls-4{fill:#efefee;}.cls-5{fill:#fff;}.cls-6{fill:#1d2f37;}.cls-7{fill:#ee5a62;}.cls-8{opacity:0.24;}.cls-9{opacity:0.3;}.cls-10{fill:#405761;}.cls-11{fill:#fab697;}.cls-12{fill:#eb976f;}.cls-13{fill:#198f8a;}</style></defs><title>img</title><g id="Capa_2" data-name="Capa 2"><g id="Layer_1" data-name="Layer 1"><rect class="cls-1" x="56.18" y="232.11" width="5.13" height="38.39" transform="translate(-192.56 310.04) rotate(-90)"/><path class="cls-2" d="M44.78,249a12.12,12.12,0,0,1,0,4.8,12.12,12.12,0,0,1,0-4.8Z"/><path class="cls-2" d="M43.94,248.84a11.69,11.69,0,0,1,0,4.81,12.17,12.17,0,0,1,0-4.81Z"/><path class="cls-2" d="M75,249a12.12,12.12,0,0,1,0,4.8,12.12,12.12,0,0,1,0-4.8Z"/><path class="cls-2" d="M74.13,248.84a11.69,11.69,0,0,1,0,4.81,12.17,12.17,0,0,1,0-4.81Z"/><path class="cls-2" d="M69.12,251.46c0,.13-4.4.24-9.82.24s-9.82-.11-9.82-.24a98,98,0,0,1,9.82-.24A98,98,0,0,1,69.12,251.46Z"/><rect class="cls-1" x="53.45" y="257.76" width="10.26" height="38.39" transform="translate(-218.38 335.53) rotate(-90)"/><path class="cls-2" d="M78.26,279.2s-.06.05-.2.12l-.64.29a11.34,11.34,0,0,1-2.61.74,6.71,6.71,0,0,1-4.22-.59,5.76,5.76,0,0,1-2-1.82,4.2,4.2,0,0,1-.69-3,3.11,3.11,0,0,1,.7-1.52,2,2,0,0,1,1.62-.74,2.36,2.36,0,0,1,1.63.88,3.24,3.24,0,0,1,.74,1.75A4.67,4.67,0,0,1,71.26,279a5.88,5.88,0,0,1-3.69,1.81,9.89,9.89,0,0,1-4.29-.54,8,8,0,0,1-3.74-2.51,4.17,4.17,0,0,1-.87-2.22,2.87,2.87,0,0,1,.82-2.3,1.89,1.89,0,0,1,1.2-.53,2.18,2.18,0,0,1,1.25.36,3.33,3.33,0,0,1,1.42,2.07,4.83,4.83,0,0,1-1.52,4.51,7.46,7.46,0,0,1-4.32,1.76A10.55,10.55,0,0,1,53,281a6.17,6.17,0,0,1-3.41-2.65,4.53,4.53,0,0,1-.42-4.07,2.12,2.12,0,0,1,1.56-1.33,2.52,2.52,0,0,1,1.94.47,3.21,3.21,0,0,1,.91,3.46,6,6,0,0,1-1.93,2.72,8.73,8.73,0,0,1-5.27,2.05,8.41,8.41,0,0,1-4.17-1A8.32,8.32,0,0,1,40.08,279a4.78,4.78,0,0,1-.46-.54c-.1-.12-.15-.19-.14-.2a9.72,9.72,0,0,0,2.85,2.18,8.28,8.28,0,0,0,9.13-1.19,5.63,5.63,0,0,0,1.8-2.57,2.81,2.81,0,0,0-.8-3,2,2,0,0,0-1.61-.38,1.69,1.69,0,0,0-1.25,1.09,4.09,4.09,0,0,0,.41,3.67,5.82,5.82,0,0,0,3.18,2.45,10.22,10.22,0,0,0,4.28.4,7.12,7.12,0,0,0,4.05-1.64,4.37,4.37,0,0,0,1.37-4,2.86,2.86,0,0,0-1.2-1.77,1.46,1.46,0,0,0-1.87.11,2.37,2.37,0,0,0-.67,1.92,3.59,3.59,0,0,0,.77,2,7.46,7.46,0,0,0,3.51,2.37,9.32,9.32,0,0,0,4.08.52A5.37,5.37,0,0,0,71,278.69a4.26,4.26,0,0,0,1.23-3.3,2.45,2.45,0,0,0-2-2.3,1.67,1.67,0,0,0-1.33.6,2.82,2.82,0,0,0-.64,1.35,3.94,3.94,0,0,0,.62,2.73,5.29,5.29,0,0,0,1.88,1.75,6.7,6.7,0,0,0,4.07.65,12.44,12.44,0,0,0,2.59-.65C78,279.31,78.26,279.18,78.26,279.2Z"/><rect class="cls-3" x="51.39" y="245.43" width="17.8" height="34.96" transform="translate(-202.62 323.2) rotate(-90)"/><path class="cls-1" d="M48.62,254.62a78.37,78.37,0,0,1,.24,8.62,78.26,78.26,0,0,1-.24,8.61,78.26,78.26,0,0,1-.24-8.61A78.37,78.37,0,0,1,48.62,254.62Z"/><path class="cls-1" d="M51.27,254.4a76.38,76.38,0,0,1,.24,8.51,76.27,76.27,0,0,1-.24,8.5,76.27,76.27,0,0,1-.24-8.5A76.38,76.38,0,0,1,51.27,254.4Z"/><path class="cls-1" d="M73.82,253.83a84.62,84.62,0,0,1,.24,9,84.51,84.51,0,0,1-.24,8.95,84.51,84.51,0,0,1-.24-8.95A84.62,84.62,0,0,1,73.82,253.83Z"/><path class="cls-1" d="M70.7,254.07a75.81,75.81,0,0,1,.25,8.72,75.92,75.92,0,0,1-.25,8.73,80.39,80.39,0,0,1-.24-8.73A80.28,80.28,0,0,1,70.7,254.07Z"/><path class="cls-3" d="M258.89,215.17a19.15,19.15,0,0,1,11.91-1.45c2.16.36,4.41,1,5.89,2.63s1.75,4.48.06,5.87a5.62,5.62,0,0,1-3.71.94c-3.15,0-6.65-.59-9.17,1.31-1.43,1.08-2.39,2.88-4.1,3.41a4.06,4.06,0,0,1-4.47-2,6.91,6.91,0,0,1-.5-5.12A7.78,7.78,0,0,1,258.89,215.17Z"/><path class="cls-3" d="M250.58,199.14c2.22,3.16,6.53,2.11,8.52.18s2.84-4.73,3.61-7.4c1.76-6.1,3.53-12.5,2.22-18.71a10.36,10.36,0,0,0-2.39-5.09,5.41,5.41,0,0,0-5.15-1.71c-2.17.57-3.52,2.7-4.49,4.72a44.54,44.54,0,0,0-4.41,19.14c0,3.09.35,6.32,2.09,8.87"/><path class="cls-3" d="M244.5,203.68a11.54,11.54,0,0,0,1.79-10.6A20.35,20.35,0,0,0,240,184a33.84,33.84,0,0,0-11.24-6.64,11.88,11.88,0,0,0-5.05-.85,5.31,5.31,0,0,0-4.25,2.56c-1.18,2.26,0,5,1.18,7.23A86,86,0,0,0,228,197.52c2.22,2.85,4.75,5.67,8.12,7s6.88,1.13,8.67-1.21"/><path class="cls-1" d="M250.43,246.88a7,7,0,0,0,.2-1.44c.1-1,.23-2.36.38-3.92s.43-3.62.89-5.76A43.44,43.44,0,0,1,254,229a24.66,24.66,0,0,1,3.47-6.15,13,13,0,0,1,4.39-3.65,12.31,12.31,0,0,1,3.69-1.15,5.76,5.76,0,0,0,1.43-.21,7.36,7.36,0,0,0-1.45,0,11.22,11.22,0,0,0-3.86,1,12.91,12.91,0,0,0-4.62,3.68,24.39,24.39,0,0,0-3.6,6.27,41.53,41.53,0,0,0-2.08,6.91,49.83,49.83,0,0,0-.76,5.83c-.13,1.67-.18,3-.2,4A6.83,6.83,0,0,0,250.43,246.88Z"/><path class="cls-1" d="M250.7,243.86a2.49,2.49,0,0,0,0-.67v-1.9c0-1.66,0-4.06.08-7,.15-5.91.66-12.29,1.64-21.27.93-8.44,2.18-18.27,3.51-24.66.28-1.45.56-2.76.83-3.9s.48-2.14.69-2.94.33-1.37.44-1.86a2.61,2.61,0,0,0,.12-.66,2.83,2.83,0,0,0-.23.63c-.15.48-.33,1.09-.56,1.83s-.49,1.77-.78,2.92-.62,2.44-.93,3.89a220.25,220.25,0,0,0-3.68,22.89c-1,9-1.43,17.19-1.47,23.13,0,3,0,5.36.11,7,0,.78.08,1.41.11,1.91A2.71,2.71,0,0,0,250.7,243.86Z"/><path class="cls-1" d="M250.74,228.06a12.25,12.25,0,0,0,0-2c-.08-1.28-.25-3.13-.61-5.4a70.82,70.82,0,0,0-1.76-7.87,64.41,64.41,0,0,0-3.29-9.31,49.63,49.63,0,0,0-9.66-15,25.07,25.07,0,0,0-2.28-2.12c-.34-.29-.65-.59-1-.82l-.88-.61a12.32,12.32,0,0,0-1.68-1.07,57.32,57.32,0,0,1,5.5,4.91,52.24,52.24,0,0,1,9.43,15,74.31,74.31,0,0,1,3.31,9.22c.86,2.9,1.43,5.56,1.86,7.8s.65,4.07.8,5.34A14,14,0,0,0,250.74,228.06Z"/><polygon class="cls-3" points="234.41 253.54 235.99 275.23 263.87 275.23 265.45 253.54 234.41 253.54"/><rect class="cls-3" x="231.72" y="244.98" width="37.06" height="8.55"/><polygon class="cls-1" points="231.72 274.4 231.72 276.77 233.46 276.77 268.16 276.77 268.16 274.4 231.72 274.4"/><polygon class="cls-1" points="235.16 280.68 233.46 276.51 266.83 276.51 264.84 280.68 235.16 280.68"/><path class="cls-4" d="M264.93,260.63a1.08,1.08,0,0,1-.13.2l-.42.55-1.62,2.08-.07.09-.07-.1c-1-1.41-2.39-3.29-4-5.51h.23l-3.93,5.56-.12.17-.14-.16L250,258h.27l-.25.32-4.17,5.22-.14.18-.13-.18-3.93-5.56h.23l-4.84,5.51-.08.1-.07-.11c-.64-1.07-1.14-1.93-1.51-2.55l-.39-.67c-.09-.16-.13-.24-.12-.25a1.23,1.23,0,0,1,.16.22l.43.65,1.59,2.5h-.15l4.76-5.58.12-.14.11.15,4,5.53h-.27l4.15-5.23.26-.32.13-.17.14.16,4.64,5.55h-.26c1.44-2,2.77-3.86,4-5.53l.12-.16.11.16c1.57,2.25,2.91,4.15,3.9,5.58h-.14l1.69-2,.45-.52C264.87,260.68,264.92,260.62,264.93,260.63Z"/><path class="cls-4" d="M265.84,253.39c0,.1-7,.18-15.6.18s-15.6-.08-15.6-.18,7-.17,15.6-.17S265.84,253.3,265.84,253.39Z"/><path class="cls-1" d="M106.93,27.38s-.06,0-.16-.05l-.45-.18-1.72-.71-6.3-2.7-20.74-9-.72-.32H77L56.68,23.08l-6.15,2.58-1.67.69a4,4,0,0,1-.6.21,4.3,4.3,0,0,1,.57-.28l1.65-.75,6.1-2.69,20.27-8.79.07,0,.08,0,.71.31L98.4,23.5l6.26,2.8,1.69.79.43.21Z"/><rect class="cls-1" x="6.11" y="24.4" width="133.16" height="99.7"/><rect class="cls-2" x="10.77" y="29.04" width="124.35" height="90.97"/><path class="cls-1" d="M38.23,68.78s.13,15.28.91,19.93l19.15-.9s-1.68-15-1-19Z"/><path class="cls-5" d="M47.67,70.94h.27a5,5,0,0,1,.8,0,4.4,4.4,0,0,1,1.22.36,3.82,3.82,0,0,1,1.32,1A4.1,4.1,0,0,1,52,76.59a6.24,6.24,0,0,1-.54,1.18c-.21.39-.43.78-.61,1.2a10,10,0,0,0-.77,2.72v.06H50l-1.9,0-2,0h-.07v-.07a5.72,5.72,0,0,0-.92-2.62c-.23-.39-.48-.76-.72-1.13a9.49,9.49,0,0,1-.67-1.1,3.69,3.69,0,0,1-.3-2.33,4.86,4.86,0,0,1,.74-1.91,3.69,3.69,0,0,1,1.24-1.12,4.8,4.8,0,0,1,1.18-.45,3.87,3.87,0,0,1,.78-.13h.28s0,0-.07,0l-.21,0a7.67,7.67,0,0,0-.77.16,4.16,4.16,0,0,0-1.15.47,3.56,3.56,0,0,0-1.2,1.11,4.8,4.8,0,0,0-.71,1.87,3.61,3.61,0,0,0,.3,2.26,12.68,12.68,0,0,0,.67,1.08c.24.37.49.74.73,1.13a5.86,5.86,0,0,1,.94,2.69l-.07-.07,2,0,1.89,0-.07.06a10.63,10.63,0,0,1,.79-2.76c.19-.42.41-.82.63-1.2a7.06,7.06,0,0,0,.53-1.16,4.29,4.29,0,0,0,.21-2.3,4.44,4.44,0,0,0-.88-1.81,3.89,3.89,0,0,0-1.28-1,4.45,4.45,0,0,0-2-.44h-.2C47.69,71,47.67,71,47.67,70.94Z"/><path class="cls-5" d="M48.65,81.58a.15.15,0,0,1,0-.06l0-.17c0-.16-.06-.39-.11-.69-.08-.59-.21-1.45-.3-2.52,0-.27,0-.55,0-.85s0-.6,0-.91a2.53,2.53,0,0,1,.22-1,1.41,1.41,0,0,1,.73-.73,1,1,0,0,1,1,.2.67.67,0,0,1,.22.52.92.92,0,0,1-.19.55,1.37,1.37,0,0,1-.46.37,2.39,2.39,0,0,1-.57.19,7.43,7.43,0,0,1-2.43.08,2.38,2.38,0,0,1-.58-.16,1.65,1.65,0,0,1-.48-.35,1.22,1.22,0,0,1-.28-.51.94.94,0,0,1,.07-.57.84.84,0,0,1,.4-.39.7.7,0,0,1,.55,0,1,1,0,0,1,.4.34,1.35,1.35,0,0,1,.21.48,6.65,6.65,0,0,1,.1,1l.09,1.75c.05,1.07.09,1.94.12,2.54,0,.3,0,.53,0,.69v.18l0-.18,0-.69c0-.6-.08-1.46-.15-2.53,0-.54-.06-1.13-.09-1.76a8.4,8.4,0,0,0-.1-1,1.22,1.22,0,0,0-.2-.45,1,1,0,0,0-.38-.33.65.65,0,0,0-.51,0,.72.72,0,0,0-.37.36.87.87,0,0,0-.06.53,1,1,0,0,0,.27.48,1.64,1.64,0,0,0,1,.49,6.91,6.91,0,0,0,1.21.06,6.67,6.67,0,0,0,1.19-.14,2,2,0,0,0,.56-.18,1.19,1.19,0,0,0,.44-.36.88.88,0,0,0,.18-.51.62.62,0,0,0-.2-.48.92.92,0,0,0-1-.19,1.42,1.42,0,0,0-.71.7,2.61,2.61,0,0,0-.21.94c0,.31,0,.62,0,.91s0,.57,0,.84c.08,1.07.2,1.93.28,2.53,0,.29.07.52.09.68l0,.18A.28.28,0,0,1,48.65,81.58Z"/><path class="cls-5" d="M46.13,81.68s0,.24,0,.64,0,1,.08,1.66v0l1.29,1.49-.07,0L49,85.31l-.06,0,.74-.9L50,84,50,84c0-.87,0-1.7-.05-2.45l.08.08-2.79,0h-.8l-.3,0,.26,0,.79,0L50,81.51h.08v.08c0,.76,0,1.59.07,2.46v0l0,0-.37.45-.75.91,0,0h0l-1.49.07h0l0,0L46.15,84h0v0c0-.66,0-1.22,0-1.7A5.55,5.55,0,0,1,46.13,81.68Z"/><path class="cls-5" d="M50,83.84s-.06,0-.15-.06l-.38-.15a3.86,3.86,0,0,0-1.35-.21,4,4,0,0,0-1.33.29l-.38.18c-.08,0-.13.07-.14.06l.13-.08a2,2,0,0,1,.37-.2,3.79,3.79,0,0,1,1.35-.31,3.66,3.66,0,0,1,1.36.23,2,2,0,0,1,.38.17Z"/><path class="cls-5" d="M50,83.24s0,0-.14,0a3.11,3.11,0,0,0-.38-.16,3.88,3.88,0,0,0-1.35-.2,3.77,3.77,0,0,0-1.33.28l-.38.18-.14.07.13-.09a3,3,0,0,1,.37-.19,3.4,3.4,0,0,1,1.35-.31,3.68,3.68,0,0,1,1.36.22l.38.17Z"/><path class="cls-5" d="M49.94,82.68l-.14-.06a3,3,0,0,0-.39-.15,3.62,3.62,0,0,0-1.34-.21,3.87,3.87,0,0,0-1.34.29,3.55,3.55,0,0,0-.37.17l-.14.07.13-.09a2.41,2.41,0,0,1,.37-.19,3.58,3.58,0,0,1,1.34-.31,3.52,3.52,0,0,1,1.37.23,2.93,2.93,0,0,1,.38.17C49.9,82.64,49.94,82.67,49.94,82.68Z"/><path class="cls-3" d="M16.9,43.82s.13,15.27.91,19.93L37,62.84s-1.68-15-1-19Z"/><path class="cls-5" d="M33,50.23a52.35,52.35,0,0,1-6.42.58,57.31,57.31,0,0,1-6.43.2,54.2,54.2,0,0,1,6.41-.58A57.45,57.45,0,0,1,33,50.23Z"/><path class="cls-5" d="M33,53.47a55.62,55.62,0,0,1-6.41.57,52.24,52.24,0,0,1-6.44.2,56,56,0,0,1,6.42-.57A57.31,57.31,0,0,1,33,53.47Z"/><path class="cls-5" d="M29.79,56.65a18.72,18.72,0,0,1-3.65.4,18.86,18.86,0,0,1-3.67,0,17.16,17.16,0,0,1,3.65-.41A17.53,17.53,0,0,1,29.79,56.65Z"/><path class="cls-3" d="M16,88.75s.13,15.27.91,19.93l19.15-.91s-1.68-15-1-19Z"/><path class="cls-5" d="M32.13,95.16a54.2,54.2,0,0,1-6.41.58,57.45,57.45,0,0,1-6.44.2,54.2,54.2,0,0,1,6.41-.58A57.47,57.47,0,0,1,32.13,95.16Z"/><path class="cls-5" d="M32.14,98.4a56.27,56.27,0,0,1-6.42.57,54.72,54.72,0,0,1-6.44.2,56.27,56.27,0,0,1,6.42-.57A52.24,52.24,0,0,1,32.14,98.4Z"/><path class="cls-5" d="M28.88,101.57a17.29,17.29,0,0,1-3.65.41,17.5,17.5,0,0,1-3.67,0,18.58,18.58,0,0,1,3.65-.4A18,18,0,0,1,28.88,101.57Z"/><polygon class="cls-3" points="68.34 47.87 70.23 91.91 125.22 92.58 122.75 48.45 68.34 47.87"/><rect class="cls-4" x="67.7" y="47.55" width="54.62" height="41.24"/><path class="cls-1" d="M122.32,88.8s0-.27,0-.77,0-1.24,0-2.2c0-1.93,0-4.75,0-8.35,0-7.19,0-17.48-.08-29.93l.15.16-54.61,0h0l.19-.19c0,14.84,0,28.88,0,41.25l-.17-.17,39.4.08,11.2.05,3,0h0l-2.94,0-11.17,0L67.7,89h-.17V88.8c0-12.37,0-26.41,0-41.25v-.19h.2l54.61,0h.15v.15c0,12.49-.06,22.82-.08,30,0,3.58,0,6.39,0,8.31,0,.94,0,1.67,0,2.17S122.32,88.8,122.32,88.8Z"/><rect class="cls-4" x="74.29" y="56.29" width="22.14" height="27.87"/><path class="cls-1" d="M96.43,84.16a1.19,1.19,0,0,1,0-.15v-.39c0-.37,0-.88,0-1.53,0-1.34,0-3.27,0-5.71,0-4.91,0-11.85-.09-20.09l.17.17-22.14,0,.19-.19h0v7.58c0,2.47,0,4.89,0,7.23,0,4.68,0,9.06,0,13L74.29,84l16,.08,4.5,0,1.19,0a3.53,3.53,0,0,1,.42,0H96l-1.16,0-4.46,0-16.13.08h-.16v-.15c0-4,0-8.37,0-13,0-2.34,0-4.76,0-7.23V56.3h0l.19-.19,22.14,0h.17v.17c0,8.29-.06,15.26-.08,20.2l0,5.68c0,.63,0,1.13,0,1.49V84A.6.6,0,0,1,96.43,84.16Z"/><rect class="cls-4" x="75.14" y="49.91" width="42.43" height="4.01"/><path class="cls-1" d="M117.57,53.93s0-.1,0-.28,0-.45,0-.78c0-.69,0-1.68-.05-3l.08.08c-7.16.07-23.47.11-42.43.11h0l.19-.19h0v2c0,.67,0,1.33,0,2l-.18-.19,30.08.08,9,.06,2.46,0,.64,0h-.59l-2.41,0-9,.06-30.21.08H75V49.94h0c.08-.08-.19.19.19-.18h0c19,0,35.27,0,42.43.11h.08v.07c0,1.3,0,2.3-.05,3v.76A1.15,1.15,0,0,1,117.57,53.93Z"/><rect class="cls-4" x="99.14" y="56.29" width="18.43" height="16.79"/><path class="cls-1" d="M117.57,73.08a2,2,0,0,1,0-.32l0-.91c0-.82,0-2,0-3.43,0-3,0-7.12-.08-12.13l.16.16-18.43,0,.19-.19h0V60.8c0,1.48,0,2.92,0,4.33,0,2.82,0,5.49,0,8l-.17-.16,13.29.08,3.78,0,1,0h.36a1,1,0,0,1-.32,0l-1,0-3.73,0-13.4.08H99v-.17c0-2.46,0-5.13,0-8V60.8c0-.74,0-1.48,0-2.24V56.32h0c-.16.17.23-.23.19-.19l18.43,0h.16v.16c0,5.05-.06,9.26-.08,12.24,0,1.43,0,2.57,0,3.38,0,.37,0,.66,0,.88A1.38,1.38,0,0,1,117.57,73.08Z"/><rect class="cls-4" x="99.14" y="75.72" width="18.43" height="8.44"/><path class="cls-1" d="M117.57,84.16a5.53,5.53,0,0,1,0-.62l0-1.69c0-1.49-.05-3.57-.08-6.13l.14.13-18.43.05.19-.18h0v4.34c0,1.41,0,2.78,0,4.09L99.14,84l13.18.08,3.84,0,1,0,.37,0-.33,0-1,0-3.8,0-13.3.08H99v-8.6h0l.19-.19,18.43,0h.14v.14c0,2.59-.06,4.7-.08,6.21,0,.7,0,1.25,0,1.67A4,4,0,0,1,117.57,84.16Z"/><path class="cls-5" d="M95.88,56.34C89,65.81,81.14,74.69,74.29,84.16"/><path class="cls-1" d="M74.29,84.16a1.21,1.21,0,0,1,.18-.32l.58-.84c.51-.74,1.26-1.78,2.22-3.06,1.9-2.56,4.62-6,7.67-9.81s5.8-7.22,7.76-9.74l2.31-3,.63-.81c.15-.18.23-.27.24-.26a1.27,1.27,0,0,1-.18.31c-.15.23-.35.51-.58.85-.5.73-1.26,1.78-2.21,3-1.9,2.56-4.63,6-7.68,9.81s-5.8,7.22-7.75,9.74l-2.31,3-.64.81A2.27,2.27,0,0,1,74.29,84.16Z"/><line class="cls-5" x1="74.29" y1="56.29" x2="96.43" y2="84.16"/><path class="cls-1" d="M96.43,84.16c-.08.06-5.1-6.13-11.22-13.82s-11-14-10.92-14.05,5.1,6.12,11.22,13.82S96.51,84.09,96.43,84.16Z"/><path class="cls-1" d="M70.23,56.35a3.46,3.46,0,1,1-3.46-3.46A3.46,3.46,0,0,1,70.23,56.35Z"/><path class="cls-1" d="M126.89,47.94a3.47,3.47,0,1,1-3.47-3.46A3.46,3.46,0,0,1,126.89,47.94Z"/><rect class="cls-1" x="222.47" y="72.07" width="39.92" height="57.86"/><rect class="cls-4" x="220.47" y="72.07" width="39.92" height="57.86"/><rect class="cls-5" x="225.43" y="78.33" width="30" height="45.32"/><path class="cls-1" d="M255.42,123.66v-.22c0-.15,0-.37,0-.65,0-.57,0-1.4,0-2.48,0-2.17,0-5.34,0-9.34,0-8,0-19.31,0-32.64l.09.1h-30l.11-.11c0,17.1,0,32.87,0,45.33l-.08-.09,21.83.05,6,0h0l-6,0-21.89,0h-.09v-.09c0-12.46,0-28.23,0-45.33v-.1h30.2v.1c0,13.36,0,24.7,0,32.71,0,4,0,7.14,0,9.31,0,1.07,0,1.9,0,2.47,0,.27,0,.48,0,.63A1.66,1.66,0,0,1,255.42,123.66Z"/><path class="cls-1" d="M260.5,72.07a7.18,7.18,0,0,1-.72,1c-.46.62-1.12,1.46-1.87,2.38s-1.45,1.72-2,2.29a7.59,7.59,0,0,1-.88.9,7.54,7.54,0,0,1,.76-1l1.92-2.33L259.66,73A6.67,6.67,0,0,1,260.5,72.07Z"/><path class="cls-5" d="M255.58,123.51a37.51,37.51,0,0,0,5.23,6.55"/><path class="cls-1" d="M260.81,130.06a5.71,5.71,0,0,1-.91-.83,28.35,28.35,0,0,1-2-2.23,29,29,0,0,1-1.73-2.42,5.32,5.32,0,0,1-.61-1.07,11.09,11.09,0,0,1,.73,1c.44.62,1.06,1.46,1.78,2.36s1.41,1.7,1.92,2.26A7.49,7.49,0,0,1,260.81,130.06Z"/><path class="cls-5" d="M220.46,129.88l5.23-6.45"/><path class="cls-1" d="M225.69,123.43a39.55,39.55,0,0,1-2.53,3.29,38.11,38.11,0,0,1-2.7,3.16s1.09-1.51,2.53-3.29A38.35,38.35,0,0,1,225.69,123.43Z"/><path class="cls-1" d="M220.47,72.07a38.31,38.31,0,0,1,2.54,3,34.39,34.39,0,0,1,2.36,3.17,38.31,38.31,0,0,1-2.54-3A37.88,37.88,0,0,1,220.47,72.07Z"/><rect class="cls-1" x="236.03" y="87.54" width="10.04" height="28.52"/><rect class="cls-1" x="247.54" y="10.62" width="5.71" height="28.43" transform="matrix(1, -0.01, 0.01, 1, -0.13, 1.34)"/><rect class="cls-3" x="198.01" y="10.72" width="14.8" height="15.7" transform="translate(-0.1 1.1) rotate(-0.31)"/><rect class="cls-4" x="212.73" y="10.64" width="14.8" height="15.7" transform="translate(-0.1 1.18) rotate(-0.31)"/><path class="cls-1" d="M198,15.09c9.83.08,19.69,0,29.52-.14a.16.16,0,0,0,0-.31c-9.83-.05-19.69,0-29.52.18a.14.14,0,0,0,0,.27Z"/><rect class="cls-3" x="188.77" y="26.18" width="26.88" height="12.79" transform="translate(-0.17 1.08) rotate(-0.31)"/><rect class="cls-4" x="215.53" y="26.04" width="26.88" height="12.79" transform="matrix(1, -0.01, 0.01, 1, -0.17, 1.23)"/><path class="cls-1" d="M188.76,29.81c17.86.2,35.78,0,53.64-.26a.16.16,0,0,0,0-.32c-17.86-.09-35.79-.08-53.64.31a.14.14,0,0,0,0,.27Z"/><rect class="cls-1" x="178.71" y="39.05" width="104.15" height="4.58"/><rect class="cls-1" x="195.76" y="41.25" width="4.23" height="15.64"/><rect class="cls-1" x="258.88" y="41.25" width="4.23" height="15.64"/><rect class="cls-3" x="253.15" y="0.02" width="5.71" height="39.1" transform="translate(-0.1 1.37) rotate(-0.31)"/><rect class="cls-4" x="258.89" y="7.3" width="8.88" height="31.69" transform="matrix(1, -0.01, 0.01, 1, -0.12, 1.41)"/><path class="cls-1" d="M267.63,13.38a30.68,30.68,0,0,1-4.44.16,30.57,30.57,0,0,1-4.44-.16,65.79,65.79,0,0,1,8.88,0Z"/><path class="cls-1" d="M267.63,12.05a30.68,30.68,0,0,1-4.44.16,30.57,30.57,0,0,1-4.44-.16,65.79,65.79,0,0,1,8.88,0Z"/><path class="cls-1" d="M267.63,34.2a31.65,31.65,0,0,1-4.44.15,31.54,31.54,0,0,1-4.44-.15,65.79,65.79,0,0,1,8.88,0Z"/><path class="cls-1" d="M267.63,32.87a33.59,33.59,0,0,1-4.44.15,33.46,33.46,0,0,1-4.44-.15,65.79,65.79,0,0,1,8.88,0Z"/><path class="cls-1" d="M263.33,30c-.09,0-.15-3.19-.15-7.14s.06-7.14.15-7.14.15,3.2.15,7.14S263.41,30,263.33,30Z"/><rect class="cls-3" x="267.72" y="15.06" width="9.66" height="23.92"/><path class="cls-2" d="M272.83,32.78a2.08,2.08,0,0,1-2.16-2.15,1.88,1.88,0,0,1,.78-1.62l.22.3a1.58,1.58,0,0,0-.64,1.32,1.8,1.8,0,0,0,3.59,0,1.55,1.55,0,0,0-.64-1.32l.22-.3a1.88,1.88,0,0,1,.79,1.62A2.08,2.08,0,0,1,272.83,32.78Z"/><path class="cls-2" d="M274.44,28.42l-.33-.19a2.46,2.46,0,0,0,.52-1.53c0-.9-.32-1.26-.8-1.26-1.24,0-.33,2.82-2,2.82-.64,0-1.16-.53-1.16-1.61a2.65,2.65,0,0,1,.41-1.46l.33.19a2.19,2.19,0,0,0-.38,1.28c0,.83.34,1.2.79,1.2,1.28,0,.38-2.82,2-2.82.69,0,1.17.59,1.17,1.67A2.68,2.68,0,0,1,274.44,28.42Z"/><path class="cls-2" d="M274.44,24.52l-.33-.18a2.49,2.49,0,0,0,.52-1.54c0-.89-.32-1.25-.8-1.25-1.24,0-.33,2.82-2,2.82-.64,0-1.16-.54-1.16-1.61a2.62,2.62,0,0,1,.41-1.46l.33.18a2.21,2.21,0,0,0-.38,1.28c0,.83.34,1.2.79,1.2,1.28,0,.38-2.82,2-2.82.69,0,1.17.6,1.17,1.68A2.65,2.65,0,0,1,274.44,24.52Z"/><circle class="cls-1" cx="255.82" cy="6.68" r="1.64"/><rect class="cls-1" x="255.31" y="11.19" width="1.02" height="23.26"/><path class="cls-6" d="M294.84,281.82c0,.1-65.85.18-147.07.18S.67,281.92.67,281.82s65.85-.17,147.1-.17S294.84,281.73,294.84,281.82Z"/><path class="cls-2" d="M80.32,47.42C69.38,64.63,70.09,88.5,82.05,105c8,11,19.92,18.4,29.42,28.13s16.7,24.08,11.69,36.72c-5.1,12.86-20,18.1-31.22,26.25A59,59,0,0,0,77.7,276.73H193.9s20.41-38.9-5.83-68.55-40.34-30.13-39.37-49.57,14.58-25.76,22.36-33.05,45.68-24.3,23.33-78.14Z"/><path class="cls-6" d="M80.32,47.42h2l5.89,0,22.68,0,83.5-.06h.08l0,.08A108.17,108.17,0,0,1,198.83,60a73.33,73.33,0,0,1,2.47,13.67,54.09,54.09,0,0,1-.74,14.43,46.38,46.38,0,0,1-5.25,14,51,51,0,0,1-4.38,6.36,60,60,0,0,1-5.35,5.72c-1.91,1.81-4,3.51-6.07,5.15s-4.33,3.18-6.48,4.81c-1.08.81-2.07,1.73-3.09,2.64s-2.1,1.76-3.18,2.62c-2.14,1.72-4.31,3.44-6.36,5.32a34,34,0,0,0-9.54,13.68,33.11,33.11,0,0,0-1.82,8.37c-.06.72-.15,1.44-.18,2.16s-.06,1.44,0,2.17a25.1,25.1,0,0,0,.43,4.32,19.81,19.81,0,0,0,3.49,8,44.78,44.78,0,0,0,6,6.53c4.41,4,9.09,7.88,13.57,12s8.88,8.5,13.09,13.08a79,79,0,0,1,6.05,7.19,50.77,50.77,0,0,1,4.87,8.12,53.41,53.41,0,0,1,5,18.43,67.55,67.55,0,0,1-1.13,19.37,81,81,0,0,1-2.49,9.5,71,71,0,0,1-3.69,9.18l-.05.09H77.61l0-.08a59.9,59.9,0,0,1-9.73-27.43,57.86,57.86,0,0,1,4-27.68,60.16,60.16,0,0,1,15.36-21.94,69.39,69.39,0,0,1,10.49-7.65c3.62-2.25,7.28-4.34,10.74-6.62a48.94,48.94,0,0,0,9.46-7.69,25.85,25.85,0,0,0,5.85-10.15,25.1,25.1,0,0,0,.46-11.32,36.58,36.58,0,0,0-3.59-10.41,51.16,51.16,0,0,0-5.85-8.89,70.83,70.83,0,0,0-7.07-7.38c-4.92-4.53-10-8.49-14.49-12.56-2.27-2-4.42-4.08-6.4-6.19a57,57,0,0,1-5.3-6.53A49.93,49.93,0,0,1,74.86,90.6,51.65,51.65,0,0,1,72.6,77.54c-.1-1-.06-2-.06-3s0-1.92.09-2.84.14-1.82.2-2.7.25-1.71.37-2.54A48.35,48.35,0,0,1,77.76,52a17.71,17.71,0,0,1,1-2c.33-.57.61-1,.83-1.43l.68-1.14-.66,1.17c-.22.38-.49.86-.82,1.42s-.66,1.25-1,2a48.92,48.92,0,0,0-4.5,14.46c-.11.82-.25,1.67-.36,2.54s-.13,1.77-.2,2.69-.06,1.86-.07,2.83,0,2,.06,3a51.44,51.44,0,0,0,2.28,13,49.86,49.86,0,0,0,6.64,13.72,57.67,57.67,0,0,0,5.3,6.51c2,2.09,4.13,4.14,6.39,6.16,4.53,4.06,9.57,8,14.51,12.55a71.35,71.35,0,0,1,7.1,7.4,50.85,50.85,0,0,1,5.89,8.92,37.08,37.08,0,0,1,3.62,10.48,25.39,25.39,0,0,1-.46,11.45,26.18,26.18,0,0,1-5.9,10.26,49.78,49.78,0,0,1-9.51,7.75c-3.47,2.28-7.13,4.37-10.75,6.62A70.16,70.16,0,0,0,87.41,200a60.1,60.1,0,0,0-15.27,21.84,57.6,57.6,0,0,0-4,27.53,59.57,59.57,0,0,0,9.68,27.27l-.14-.07H193.9l-.16.09a68.39,68.39,0,0,0,3.67-9.12,80.27,80.27,0,0,0,2.48-9.46A67.24,67.24,0,0,0,201,238.79a53,53,0,0,0-5-18.31,49.85,49.85,0,0,0-4.84-8.07,77.58,77.58,0,0,0-6-7.15q-6.31-6.87-13.07-13.07c-4.48-4.15-9.15-8-13.57-12a45,45,0,0,1-6.07-6.58,20,20,0,0,1-3.54-8.09,24.92,24.92,0,0,1-.44-4.38c0-.74,0-1.47,0-2.19s.12-1.46.18-2.18a33.65,33.65,0,0,1,1.84-8.45,34.38,34.38,0,0,1,9.63-13.81c2.06-1.89,4.24-3.61,6.39-5.32,1.07-.86,2.13-1.72,3.16-2.62s2-1.83,3.11-2.65c2.16-1.64,4.37-3.18,6.48-4.81a76.73,76.73,0,0,0,6.05-5.12,58.22,58.22,0,0,0,5.33-5.69,51.4,51.4,0,0,0,4.36-6.31A45.89,45.89,0,0,0,200.28,88,54,54,0,0,0,201,73.65,73.61,73.61,0,0,0,198.58,60a108.44,108.44,0,0,0-4.31-12.56l.12.08-83.45-.06-22.7,0-5.9,0Z"/><path class="cls-7" d="M189.75,79c17.11,2.81-9.87,33.12-25.15,45.08-8.84,6.93-18.34,14.44-22.54,24.86-4.76,11.82-1.23,25.11-3.54,37a1.65,1.65,0,0,1-3.27-.35,129.39,129.39,0,0,0-1.39-23.29c-1.84-10.9-6-21.68-13.66-29.67-6.24-6.52-14.41-10.85-21.06-16.94-9.71-8.9-19.69-20.38-20.66-33.51,0,0,18.64-15,29-13.12,12.09,2.21,24,20.87,42.74,18.74C163.29,86.29,169.9,75.73,189.75,79Z"/><path class="cls-7" d="M191.27,241.23c-.43-4.28-1.58-9.13-5.37-11.14a10.61,10.61,0,0,0-7.63-.43c-2.52.66-4.89,1.81-7.38,2.55a24.21,24.21,0,0,1-15.12-.48c-4.64-1.7-8.63-4.79-12.94-7.21s-9.36-4.23-14.16-3c-8.27,2.06-12.58,12-20.77,14.43-3.63,1.07-7.54.47-11.24-.36s-7.41-1.92-11.19-1.78A12.45,12.45,0,0,0,77.33,237l0,0-.06.06a9,9,0,0,0-.94,1.1c-2.54,3.39-2.94,7.94-2.16,12.07.87,4.63,3,8.9,5.35,13C82.28,268,85.38,272.78,89.9,276c5.57,4,12.58,1.23,19.4,1.77,15.9,1.25,33,2.11,48.93.87,8.41-.65,16.28.26,23-4.89a27.1,27.1,0,0,0,9.22-14.84A51,51,0,0,0,191.27,241.23Z"/><g class="cls-8"><path d="M161.24,233a4.38,4.38,0,0,0-.41,4.61c.86,1.4,2,2.67,2.41,4.27.59,2.51-.92,5-2.05,7.29a23.22,23.22,0,0,0-2.26,13.45,18.31,18.31,0,0,0,6.68,11.75c1.62,1.25,3.72,2.21,5.66,1.6a5.47,5.47,0,0,0,3.39-4.32,18.46,18.46,0,0,0-.18-5.74,89.47,89.47,0,0,1,.67-26.64c.26-1.47.51-3.14-.42-4.31a5,5,0,0,0-2.44-1.39c-3.55-1.18-7.38.13-11-.57"/></g><path class="cls-6" d="M69.17,282s-.32-5.33,6.64-8.3H198s6.37,3.23,7.15,8.19Z"/><path class="cls-6" d="M195.44,48.07l-.2.09L80.32,47.42s-.41-.26-1-.74A4.35,4.35,0,0,1,82,38.9l111.54.9A4.35,4.35,0,0,1,195.44,48.07Z"/><g class="cls-8"><path d="M177,91.91c.24.45-.63,1.4-2.28,2.87s-4.06,3.47-7.13,5.94a93.11,93.11,0,0,1-11.58,8.17,46.46,46.46,0,0,1-7.94,3.64,35.88,35.88,0,0,1-4.56,1.26,29.14,29.14,0,0,1-4.93.64,26.33,26.33,0,0,1-9.91-1.35,36,36,0,0,1-8-4.06c-2.29-1.52-4.26-3-6.12-4.46s-3.55-2.82-5.06-4.13c-6-5.23-9.21-9.07-8.6-9.82s4.91,1.68,11.57,5.77L118,99.72c2,1.19,4,2.5,6.19,3.72a34.88,34.88,0,0,0,6.72,3,21.3,21.3,0,0,0,7.38.87A39.27,39.27,0,0,0,153,103.11c4.42-2.17,8.38-4.62,11.83-6.55a59.12,59.12,0,0,1,8.54-4.16C175.51,91.63,176.82,91.49,177,91.91Z"/></g><path class="cls-7" d="M135.33,200.17a1.94,1.94,0,1,1-.1,0"/><path class="cls-6" d="M94.23,110.93a3,3,0,0,1-.41-.41l-1.11-1.22c-.47-.54-1.09-1.17-1.72-2s-1.37-1.7-2.17-2.7-1.59-2.17-2.43-3.42c-.41-.64-.82-1.31-1.25-2-.21-.34-.44-.68-.64-1s-.4-.73-.6-1.11a46.14,46.14,0,0,1-4.24-10.19A42.68,42.68,0,0,1,78.06,76c0-.85,0-1.68.06-2.49,0-.4,0-.8,0-1.19s.08-.77.12-1.14c.09-.75.15-1.48.25-2.18s.25-1.35.36-2c.2-1.27.53-2.39.77-3.38.13-.49.24-1,.37-1.37l.37-1.14c.22-.65.39-1.18.52-1.57a3.87,3.87,0,0,1,.21-.53,4.9,4.9,0,0,1-.14.56c-.11.39-.27.92-.46,1.58-.1.35-.22.73-.34,1.14s-.21.89-.33,1.38c-.23,1-.54,2.11-.72,3.37-.11.64-.22,1.3-.34,2s-.14,1.42-.22,2.17l-.11,1.14c0,.38,0,.78,0,1.18,0,.8-.05,1.62-.05,2.46A43.4,43.4,0,0,0,80,86.78a46.26,46.26,0,0,0,4.18,10.14c.19.37.39.74.59,1.1s.42.7.63,1l1.22,2c.83,1.26,1.66,2.39,2.39,3.44l2.12,2.73c.62.81,1.22,1.45,1.67,2l1.06,1.26A4.76,4.76,0,0,1,94.23,110.93Z"/><path class="cls-6" d="M87.76,212.23s0-.08.12-.23l.41-.64c.18-.29.41-.63.67-1l.43-.66L90,209l1.34-1.63c.52-.57,1.13-1.15,1.76-1.8a48.39,48.39,0,0,1,4.68-3.94c3.62-2.74,8.29-5.46,13.35-8.65a76.5,76.5,0,0,0,7.65-5.39,36,36,0,0,0,6.87-7.26A34.4,34.4,0,0,0,131.16,162a43.36,43.36,0,0,0-2.62-15.54,57.86,57.86,0,0,0-4.51-9.69c-.64-1.09-1.15-1.93-1.51-2.49l-.4-.64a1.3,1.3,0,0,1-.13-.23l.16.21.43.62c.37.55.91,1.37,1.56,2.46a55.17,55.17,0,0,1,4.64,9.67,43.29,43.29,0,0,1,2.7,15.64,36.6,36.6,0,0,1-1.37,9.3,32.33,32.33,0,0,1-4.21,9.18,36,36,0,0,1-7,7.33,75.06,75.06,0,0,1-7.7,5.4c-5.08,3.17-9.75,5.87-13.37,8.58a47.22,47.22,0,0,0-4.7,3.88c-.63.63-1.24,1.21-1.76,1.76l-1.36,1.61c-.2.24-.4.46-.57.69l-.44.64-.7,1-.44.62Z"/><path class="cls-6" d="M81.41,224.27a1.3,1.3,0,0,1-.14.32l-.49.87c-.22.37-.48.83-.74,1.38s-.61,1.16-.9,1.88l-.48,1.1c-.16.39-.3.81-.46,1.23-.33.84-.59,1.77-.88,2.75a37.14,37.14,0,0,0-1.21,13.1c.12,1,.2,2,.38,2.87.08.44.13.88.22,1.29l.27,1.17c.16.76.38,1.42.54,2s.33,1.09.48,1.49.24.69.32,1a1.36,1.36,0,0,1,.09.33,1.24,1.24,0,0,1-.15-.31l-.39-.92a14.74,14.74,0,0,1-.54-1.48c-.18-.59-.42-1.25-.59-2l-.29-1.18c-.1-.41-.17-.85-.25-1.29-.19-.9-.29-1.87-.41-2.89a38.94,38.94,0,0,1,0-6.67A38.52,38.52,0,0,1,77,233.71c.31-1,.58-1.92.93-2.76.16-.43.31-.84.48-1.23l.5-1.11c.31-.71.66-1.32,1-1.86a13.33,13.33,0,0,1,.8-1.36c.22-.34.4-.61.54-.84A1.75,1.75,0,0,1,81.41,224.27Z"/><path class="cls-6" d="M165.71,240.66s0,0-.13.1l-.43.27-1.65,1-1.2.71c-.45.25-1,.48-1.49.75-1.07.52-2.26,1.18-3.66,1.71l-2.18.89c-.76.31-1.58.54-2.42.83-1.66.61-3.49,1-5.41,1.54a63.69,63.69,0,0,1-25.65.67c-1.94-.4-3.8-.74-5.49-1.26-.84-.24-1.68-.43-2.45-.7l-2.22-.78c-1.43-.45-2.66-1-3.76-1.51-.54-.24-1.06-.45-1.51-.67l-1.24-.65-1.7-.9-.44-.25-.15-.09s.06,0,.17.06l.45.21,1.73.85,1.25.62c.46.21,1,.41,1.52.64,1.1.44,2.33,1,3.76,1.46l2.22.75c.77.26,1.6.44,2.45.68,1.68.5,3.53.83,5.47,1.22a65,65,0,0,0,25.51-.67c1.92-.49,3.75-.91,5.4-1.5.83-.28,1.65-.51,2.41-.81l2.18-.86c1.41-.52,2.6-1.16,3.68-1.66.53-.26,1-.48,1.49-.72l1.21-.68,1.68-.93.45-.24Z"/><path class="cls-6" d="M172.83,96.36l-.15.13-.45.37-1.74,1.39c-1.51,1.2-3.71,2.94-6.48,5A95.37,95.37,0,0,1,153.87,110a46.68,46.68,0,0,1-6.53,3,29.89,29.89,0,0,1-7.54,1.68,28.76,28.76,0,0,1-14.49-3,49.72,49.72,0,0,1-5.59-3.33c-1.67-1.18-3.19-2.31-4.53-3.4-2.7-2.17-4.82-4-6.29-5.26l-1.68-1.46-.43-.38c-.1-.09-.15-.14-.14-.14s.06,0,.16.11l.46.36,1.72,1.4c1.5,1.23,3.64,3,6.35,5.17,1.36,1.08,2.88,2.2,4.54,3.35a49.74,49.74,0,0,0,5.58,3.28,28.46,28.46,0,0,0,14.31,3,29.27,29.27,0,0,0,7.45-1.65,46.59,46.59,0,0,0,6.49-3,98.24,98.24,0,0,0,10.15-6.62c2.79-2,5-3.75,6.55-4.92l1.78-1.34.47-.34C172.77,96.39,172.82,96.35,172.83,96.36Z"/><g class="cls-8"><path d="M111.33,246.39c3.23-2.5,7.77-1.89,11.77-1s8,2.2,12.06,1.64c3-.43,5.84-1.93,8.85-2.58s6.65-.17,8.32,2.42a64.84,64.84,0,0,1-41-.43"/></g><path class="cls-7" d="M224.09,227.89,209.4,211.44l-.15,20,4.42,12.82-43.92,7.62-1.86-34.66-3.17-26.62a7.23,7.23,0,0,1,4.53-7.57l12.09-4.77,17,3.13,6.84,2.6a18.83,18.83,0,0,1,7.47,5.19l20.61,23.58"/><path class="cls-5" d="M208.37,207.51a24.39,24.39,0,0,0,2.48-.17,10.45,10.45,0,0,0,5.29-2.55,10.33,10.33,0,0,0,3-5.07,22.17,22.17,0,0,0,.37-2.45,2,2,0,0,1,.07.67,9.1,9.1,0,0,1-.2,1.84,9.85,9.85,0,0,1-8.46,7.81,9.16,9.16,0,0,1-1.85,0A2.16,2.16,0,0,1,208.37,207.51Z"/><path class="cls-6" d="M209.66,230.58c.1,0,.13-6.93.06-15.46s-.21-15.47-.32-15.46-.13,6.92-.06,15.46S209.55,230.58,209.66,230.58Z"/><path class="cls-7" d="M208.05,235.66,181.51,225a6,6,0,0,1-3.78-5.16l-1.95-25.45s.23-10.82-6.53-11.34l-3.84,1.51c-5,2.64-6.2,9.88-5.53,15.46,1,7.94,1.36,19.17,2.44,26.06.88,5.64,4.11,10.6,9.62,12l32.69,7.08Z"/><path class="cls-6" d="M176.16,198.25a2.87,2.87,0,0,1,.09.58c0,.41.1,1,.17,1.68.13,1.49.32,3.59.56,6.17s.49,5.71.79,9.15c.07.86.14,1.75.22,2.65a19.44,19.44,0,0,0,.34,2.72,4.49,4.49,0,0,0,1.32,2.39,9,9,0,0,0,2.45,1.52c7.31,3.17,14.06,5.78,19,7.61l5.82,2.15,1.58.58a4.41,4.41,0,0,1,.54.22,2.77,2.77,0,0,1-.57-.15l-1.6-.52c-1.39-.46-3.39-1.15-5.85-2-4.93-1.78-11.68-4.35-19-7.53a9.11,9.11,0,0,1-2.55-1.59,4.87,4.87,0,0,1-1.41-2.56,20.93,20.93,0,0,1-.34-2.77c-.07-.9-.14-1.79-.21-2.65-.27-3.44-.51-6.54-.71-9.16s-.34-4.69-.45-6.18c0-.71-.08-1.27-.1-1.69A5,5,0,0,1,176.16,198.25Z"/><path class="cls-6" d="M161,212.08a1.38,1.38,0,0,1,0,.34l.09,1c.08.91.18,2.13.31,3.61s.33,3.34.6,5.34a49.41,49.41,0,0,0,1.2,6.45,9.47,9.47,0,0,0,1.29,3.07,17.39,17.39,0,0,0,2,2.44,17.14,17.14,0,0,0,4.25,3.18,15.64,15.64,0,0,0,4.66,1.53,1.26,1.26,0,0,1-.34,0,7.13,7.13,0,0,1-1-.12,13.22,13.22,0,0,1-3.44-1.17,16.45,16.45,0,0,1-4.37-3.18,18,18,0,0,1-2-2.47,10.24,10.24,0,0,1-1.35-3.18,48.82,48.82,0,0,1-1.18-6.5c-.24-2-.4-3.83-.52-5.36s-.17-2.76-.2-3.62l0-1A1.3,1.3,0,0,1,161,212.08Z"/><path class="cls-6" d="M172.31,229.89a3.7,3.7,0,0,1,.48-1.42,9.18,9.18,0,0,1,2.23-2.84,9.06,9.06,0,0,1,3.15-1.76,3.77,3.77,0,0,1,1.48-.25c0,.06-.55.17-1.39.49a10.52,10.52,0,0,0-3,1.79,10.63,10.63,0,0,0-2.24,2.69C172.56,229.37,172.36,229.9,172.31,229.89Z"/><path class="cls-5" d="M177.53,210.53l.17.08.47.25a17.85,17.85,0,0,0,1.89.8,15,15,0,0,0,7.44.64,14.7,14.7,0,0,0,9.25-5.75,12.25,12.25,0,0,0,2.42-6,8.19,8.19,0,0,0-.35-3.4,6.88,6.88,0,0,0-1.92-2.93,5.73,5.73,0,0,0-3.11-1.51,3.72,3.72,0,0,0-3.12.87,2,2,0,0,0-.61,1.42,2.44,2.44,0,0,0,.51,1.46,4,4,0,0,0,2.7,1.4,10.9,10.9,0,0,0,11.91-7.66,11.76,11.76,0,0,0,.51-3.19,12.48,12.48,0,0,0-.15-2.05l-.1-.53c0-.11,0-.18,0-.18a8.72,8.72,0,0,1,.4,2.76,11.21,11.21,0,0,1-12.6,11.18,4.3,4.3,0,0,1-2.92-1.53,2.82,2.82,0,0,1-.59-1.66,2.36,2.36,0,0,1,.71-1.66,4,4,0,0,1,3.42-1,6,6,0,0,1,3.3,1.6,7.18,7.18,0,0,1,2,3.07,8.61,8.61,0,0,1,.37,3.55,12.48,12.48,0,0,1-2.51,6.18,14.68,14.68,0,0,1-17,5A10.43,10.43,0,0,1,177.53,210.53Z"/><path class="cls-5" d="M160.14,203.75a2.31,2.31,0,0,1,.44-.55A10.11,10.11,0,0,1,162,202a12,12,0,0,1,5.87-2.08,10.93,10.93,0,0,1,3.46.14A10.63,10.63,0,0,1,174,201a11.64,11.64,0,0,1,1.62,1c.36.27.55.43.53.45s-.83-.54-2.26-1.21a11.17,11.17,0,0,0-6-1,12.71,12.71,0,0,0-5.77,1.93C160.84,203,160.19,203.8,160.14,203.75Z"/><path class="cls-5" d="M164.39,185.55a10.55,10.55,0,0,0,2.14,1.56,7.7,7.7,0,0,0,2.74.8,7,7,0,0,0,3.42-.47,7.25,7.25,0,0,0,2.76-2.08,7.81,7.81,0,0,0,1.37-2.5,10.86,10.86,0,0,0,.41-2.63,2.09,2.09,0,0,1,.09.73,6.39,6.39,0,0,1-.26,2,7.62,7.62,0,0,1-1.36,2.63,7,7,0,0,1-6.47,2.68,7.44,7.44,0,0,1-2.81-.91,6.33,6.33,0,0,1-1.58-1.2A2,2,0,0,1,164.39,185.55Z"/><path class="cls-5" d="M187.51,227.39a3.14,3.14,0,0,1,.06-.5,5.68,5.68,0,0,1,.47-1.37,7.56,7.56,0,0,1,4-3.45,11.67,11.67,0,0,1,7.81-.28,7.45,7.45,0,0,1,4.06,2.3,2.47,2.47,0,0,1,.3,2.5,3.89,3.89,0,0,1-1.89,1.78,5.85,5.85,0,0,1-2.51.62,3.67,3.67,0,0,1-2.42-.74,3.14,3.14,0,0,1-1.08-2.19,5.51,5.51,0,0,1,.37-2.3,10.31,10.31,0,0,1,5.47-5.54,10.63,10.63,0,0,1,5.22-.89,6.93,6.93,0,0,1,1.9.4s-.67-.18-1.91-.27a11.07,11.07,0,0,0-5.11,1,10.77,10.77,0,0,0-3,2,9.58,9.58,0,0,0-2.29,3.4,5.26,5.26,0,0,0-.33,2.16,2.75,2.75,0,0,0,1,1.95,3.29,3.29,0,0,0,2.18.66,5.49,5.49,0,0,0,2.36-.59,3.62,3.62,0,0,0,1.73-1.61,2.14,2.14,0,0,0-.26-2.15,5.11,5.11,0,0,0-1.78-1.41,12.56,12.56,0,0,0-2.09-.78,11.47,11.47,0,0,0-7.62.2,7.52,7.52,0,0,0-4,3.28A8.6,8.6,0,0,0,187.51,227.39Z"/><path class="cls-5" d="M169.84,237c0-.07,1-.16,2.55-.7a12.69,12.69,0,0,0,8.14-9c.39-1.58.37-2.61.44-2.6a2.33,2.33,0,0,1,0,.71,11.6,11.6,0,0,1-.23,1.94,12.56,12.56,0,0,1-2.91,5.73,12.42,12.42,0,0,1-5.4,3.46,10.24,10.24,0,0,1-1.91.43A2.47,2.47,0,0,1,169.84,237Z"/><path class="cls-5" d="M161.24,217.2s.11-.06.32-.13.53-.17.95-.28a11.42,11.42,0,0,1,3.62-.36,7.5,7.5,0,0,1,2.45.6,5.71,5.71,0,0,1,2.3,1.8,4.79,4.79,0,0,1,.89,3.1,3.77,3.77,0,0,1-.53,1.66,2.66,2.66,0,0,1-1.39,1.16,1.85,1.85,0,0,1-1.79-.35,2.42,2.42,0,0,1-.62-1.66,7.13,7.13,0,0,1,.62-3.15,6.91,6.91,0,0,1,3.88-3.68,7.07,7.07,0,0,1,3.6-.36,5.77,5.77,0,0,1,1,.25,1.08,1.08,0,0,1,.32.14s-.45-.14-1.29-.25a7.13,7.13,0,0,0-3.5.46,6.7,6.7,0,0,0-3.67,3.57,6.81,6.81,0,0,0-.57,3,2.06,2.06,0,0,0,.51,1.42,1.48,1.48,0,0,0,1.44.27,2.24,2.24,0,0,0,1.2-1,3.4,3.4,0,0,0,.48-1.5,4.43,4.43,0,0,0-.81-2.88,5.44,5.44,0,0,0-2.15-1.72,7.45,7.45,0,0,0-2.36-.62,12.1,12.1,0,0,0-3.56.25C161.71,217.1,161.25,217.22,161.24,217.2Z"/><g class="cls-9"><path d="M200.42,232.63c-2.84-1.61-5.61-2.84-8.58-4.19a19.49,19.49,0,0,1-7.82-5.7c-3.66-4.93-3.24-12.06-7-16.93.24,3.28.49,6.55.73,9.83.23,3-.23,6,1.7,8,1.63,1.72,4.81,3,7.06,3.78,4.51,1.49,9.38,3.7,13.9,5.2"/></g><path class="cls-7" d="M246.54,270s22.21,6.15,23.1,6.46c1.33.48,1.11,5.38-1,5.3-1,0-17.06.6-19.09.47s-8.16-2.54-8.16-2.54Z"/><path class="cls-6" d="M255.79,278.5a19.9,19.9,0,0,1,1-2.39,21.83,21.83,0,0,1,1.57-2,5,5,0,0,0-2.55,4.43Z"/><path class="cls-6" d="M253.47,277.45c.11,0,.34-1,.93-2.19s1.29-2,1.21-2.05a4.18,4.18,0,0,0-1.54,1.88A4.3,4.3,0,0,0,253.47,277.45Z"/><path class="cls-6" d="M251.3,276.87a7.82,7.82,0,0,1,1.73-4.43,3.43,3.43,0,0,0-1.55,1.95A3.39,3.39,0,0,0,251.3,276.87Z"/><path class="cls-6" d="M251.7,274a4,4,0,0,0,.23-1.65,7.86,7.86,0,0,0-.22-1.81,7.33,7.33,0,0,0-.33-1A1.22,1.22,0,0,0,251,269a.58.58,0,0,0-.76,0,1,1,0,0,0-.29.63,2.86,2.86,0,0,0,0,.58,4.79,4.79,0,0,0,.13,1.09,6.6,6.6,0,0,0,.69,1.7,4.26,4.26,0,0,0,1,1.33c.06,0-.32-.55-.76-1.45a7,7,0,0,1-.58-1.66,4.74,4.74,0,0,1-.11-1c0-.34,0-.77.2-.93a.22.22,0,0,1,.3,0,.93.93,0,0,1,.24.39,8.16,8.16,0,0,1,.34,1,8.87,8.87,0,0,1,.29,1.74C251.74,273.36,251.64,274,251.7,274Z"/><path class="cls-6" d="M251.67,273.77a3.21,3.21,0,0,0-1.43-.23,6.83,6.83,0,0,0-1.58.19,3.64,3.64,0,0,0-.91.34.94.94,0,0,0-.5,1,1.12,1.12,0,0,0,.8.8,2.1,2.1,0,0,0,1,0,3.8,3.8,0,0,0,1.44-.71,3.75,3.75,0,0,0,1-1,9.45,9.45,0,0,0-1.18.8,4.05,4.05,0,0,1-1.36.59,1.79,1.79,0,0,1-.83,0,.78.78,0,0,1-.54-.53.58.58,0,0,1,.33-.62,3.31,3.31,0,0,1,.81-.31,7.84,7.84,0,0,1,1.5-.27C251.11,273.74,251.66,273.83,251.67,273.77Z"/><path class="cls-6" d="M259.2,278.74a11.52,11.52,0,0,1,.44-2,12.62,12.62,0,0,1,1.09-1.74,2.56,2.56,0,0,0-1.43,1.6A2.6,2.6,0,0,0,259.2,278.74Z"/><path class="cls-6" d="M243.71,279.76a4.54,4.54,0,0,0,.86.41,20.07,20.07,0,0,0,2.47.76,34.77,34.77,0,0,0,8.48.8c3.32,0,6.32-.18,8.5-.27l2.57-.14a4.21,4.21,0,0,0,.94-.1,5,5,0,0,0-.94,0l-2.58,0-8.5.16a39,39,0,0,1-8.42-.69C245,280.24,243.73,279.69,243.71,279.76Z"/><path class="cls-6" d="M243.05,280.27c0,.05.64-.31,1.66-.76a7.89,7.89,0,0,1,4.21-.7,6.69,6.69,0,0,1,3.63,2.17,12.71,12.71,0,0,0,1.28,1.3,7.64,7.64,0,0,0-1.09-1.48,8.64,8.64,0,0,0-1.47-1.38,5.26,5.26,0,0,0-2.3-1,7.25,7.25,0,0,0-4.37.83A5.75,5.75,0,0,0,243.05,280.27Z"/><path class="cls-7" d="M223,263.89s-21,13.76-21.77,14.33c-1.13.86.17,4.93,2.13,4.22.92-.33,18.56-5.24,20.45-6s7-4.9,7-4.9Z"/><path class="cls-6" d="M216.73,274.78a3.94,3.94,0,0,0-1.41-2.25,4,4,0,0,0-2.37-1.2,22.47,22.47,0,0,1,2.12,1.47A22.29,22.29,0,0,1,216.73,274.78Z"/><path class="cls-6" d="M218.61,273.07a5.6,5.6,0,0,0-3.32-3.39c0,.1.87.65,1.78,1.59S218.52,273.12,218.61,273.07Z"/><path class="cls-6" d="M220.51,271.86a4.18,4.18,0,0,0-3-3.69,15.11,15.11,0,0,1,1.78,1.61A15.81,15.81,0,0,1,220.51,271.86Z"/><path class="cls-6" d="M219.26,269.25c.05,0-.23-.6-.48-1.58a8.4,8.4,0,0,1-.24-1.74,7.14,7.14,0,0,1,0-1,.93.93,0,0,1,.11-.45.22.22,0,0,1,.29-.06c.24.09.37.5.48.82a5.41,5.41,0,0,1,.21,1,7.56,7.56,0,0,1-.06,1.75c-.15,1-.34,1.6-.28,1.62a4.67,4.67,0,0,0,.54-1.57,6.45,6.45,0,0,0,.14-1.83,5.37,5.37,0,0,0-.2-1.08c-.06-.18-.13-.36-.21-.55a1,1,0,0,0-.47-.5.58.58,0,0,0-.74.19,1.22,1.22,0,0,0-.17.63,7.83,7.83,0,0,0,0,1.08,7.6,7.6,0,0,0,.34,1.79A3.89,3.89,0,0,0,219.26,269.25Z"/><path class="cls-6" d="M219.22,269c0,.06.52-.19,1.36-.4a7.85,7.85,0,0,1,1.51-.21,3.53,3.53,0,0,1,.86.06.55.55,0,0,1,.5.49.75.75,0,0,1-.35.67,2,2,0,0,1-.78.26,4.07,4.07,0,0,1-1.48-.15,9.24,9.24,0,0,0-1.37-.4,4.12,4.12,0,0,0,1.29.65,3.83,3.83,0,0,0,1.59.24,2,2,0,0,0,1-.3,1.09,1.09,0,0,0,.52-1,.92.92,0,0,0-.78-.81,3.61,3.61,0,0,0-1-.05,6.45,6.45,0,0,0-1.56.3A3.2,3.2,0,0,0,219.22,269Z"/><path class="cls-6" d="M206,281.68s.36-.22.52-.82a3.13,3.13,0,0,0-.4-2.28,9.11,9.11,0,0,0-.7-1.05,4,4,0,0,0-.71-.76,1.22,1.22,0,0,0-.67-.28c-.18,0-.27,0-.27.05s.38,0,.77.43a4.79,4.79,0,0,1,.6.76c.22.32.45.66.66,1a3.29,3.29,0,0,1,.46,2.05C206.18,281.35,206,281.64,206,281.68Z"/><path class="cls-6" d="M213.55,276a2.58,2.58,0,0,0-.74-2,2.55,2.55,0,0,0-1.85-1.09,11.42,11.42,0,0,1,1.56,1.32A12.48,12.48,0,0,1,213.55,276Z"/><path class="cls-6" d="M228.62,272.31a8.38,8.38,0,0,0-.92.63,25.07,25.07,0,0,1-2.59,1.59,32.93,32.93,0,0,1-4.12,1.83c-1.59.6-3.37,1.16-5.26,1.7-3.78,1.09-7.2,2.09-9.67,2.83l-2.92.9a7.68,7.68,0,0,0-1.06.37,6,6,0,0,0,1.1-.23l2.95-.79c2.49-.68,5.92-1.63,9.7-2.72,1.89-.55,3.69-1.12,5.28-1.74a29.85,29.85,0,0,0,4.12-1.92,19.44,19.44,0,0,0,2.55-1.7A5,5,0,0,0,228.62,272.31Z"/><path class="cls-6" d="M229.4,272.59a6.11,6.11,0,0,0-1.78-.47,7.28,7.28,0,0,0-4.42.54,5.3,5.3,0,0,0-1.89,1.62,9.4,9.4,0,0,0-1,1.76,7.17,7.17,0,0,0-.59,1.75,12.32,12.32,0,0,0,.83-1.64,6.66,6.66,0,0,1,2.8-3.16,7.73,7.73,0,0,1,4.22-.61A16.82,16.82,0,0,0,229.4,272.59Z"/><path class="cls-6" d="M266.64,230.34a10.07,10.07,0,0,1,6.33,9.32c0,13.54-27.36,28.46-27.36,28.46L209.13,244l-2.28-.93S256.09,224.54,266.64,230.34Z"/><path class="cls-10" d="M227.61,256.16a6.87,6.87,0,0,0,.95-.64c.6-.44,1.45-1.08,2.5-1.89,2.08-1.61,4.93-3.9,8-6.52s5.75-5.09,7.66-6.91c1-.91,1.72-1.66,2.24-2.18a6.9,6.9,0,0,0,.78-.84,6.2,6.2,0,0,0-.88.73l-2.32,2.1c-2,1.77-4.67,4.2-7.72,6.82s-5.86,4.93-7.91,6.6l-2.42,2A7.23,7.23,0,0,0,227.61,256.16Z"/><path class="cls-10" d="M256.34,235.4a9.07,9.07,0,0,0-6.64,2c.06.1,1.39-.75,3.23-1.29S256.34,235.51,256.34,235.4Z"/><path class="cls-10" d="M253.2,233.27a5.54,5.54,0,0,0-3.3,4.08c.11,0,.51-1.1,1.42-2.22S253.26,233.36,253.2,233.27Z"/><path class="cls-6" d="M268.64,276.14s-.43-.13-.94.28a3.42,3.42,0,0,0-1.05,2.12,4.14,4.14,0,0,0,.33,2.33c.26.56.54.82.57.79s-.15-.34-.33-.88a4.79,4.79,0,0,1-.2-2.19,3.61,3.61,0,0,1,.86-2C268.27,276.21,268.65,276.2,268.64,276.14Z"/><polygon class="cls-10" points="258.25 208.22 245.26 241.15 189.32 242.06 188.28 239.03 207.89 238.32 217.31 209.11 258.25 208.22"/><path class="cls-3" d="M232.13,222.47a2.5,2.5,0,0,1,2.69.29,2.18,2.18,0,0,1,.52,2.38,2.35,2.35,0,0,1-2,1.42,2.11,2.11,0,0,1-2.13-1.41,2.38,2.38,0,0,1,.94-2.68"/><path class="cls-6" d="M249.06,269.77s-51.53-33.8-53.64-34.51-7.21-4-12.31-2.64-9.67,6-12,12.67c-1.3,3.81-1.92,10.33-2.21,15.21a22.58,22.58,0,0,0,5.28,16.1,14.43,14.43,0,0,0,6.43,4.56c.53.16,1.09.31,1.66.43A24.22,24.22,0,0,0,207.54,271l1.21-1.83s33.71,12.38,34.24,12.21Z"/><path class="cls-10" d="M185.31,260.46l.28.13.84.33,3.27,1.26,12.14,4.58c5.16,1.92,11.34,4.21,18.27,6.73s14.61,5.29,22.82,8.06l.15.05.07-.14,4-7.68,2-3.93.08-.15-.15-.09-39.31-25-11.8-7.45-3.21-2-.84-.51-.29-.17.27.2.82.54,3.17,2.06,11.75,7.54L249,269.92l-.06-.24-2.05,3.92-4,7.69.22-.09c-8.2-2.77-15.88-5.52-22.82-8l-18.29-6.66-12.18-4.46-3.29-1.2-.86-.3Z"/><path class="cls-6" d="M190.66,140.42c.87-2.37,2.82-3.4,5.28-4a7.93,7.93,0,0,1,7.07,1.82c1.24,1.15,2.16,2.73,3.7,3.43,2.54,1.15,5.8-.53,8.21.87a3.6,3.6,0,0,1-2.32,6.67c1.65.78,2,3.28.82,4.71a4.8,4.8,0,0,1-5,1.32,10.17,10.17,0,0,1-4.47-3.07c-1.24-1.34-2.33-2.83-3.68-4.07a7.85,7.85,0,0,0-4.86-2.31,7.2,7.2,0,0,0-6.06,3.68,18.41,18.41,0,0,0-2.14,7.07,31.08,31.08,0,0,1-1.58,7.24c-.12.27-.27.57-.56.63s-.71-.37-.88-.76a36.39,36.39,0,0,1-2.9-13.84c0-2.76.28-5.34,2-7.5s5.66-3.51,7.39-1.89"/><path class="cls-11" d="M184.84,151.42,181.06,179a8.27,8.27,0,0,0,7.46,9.37h0a8.28,8.28,0,0,0,8.92-7.12c.28-2.08.52-3.8.56-4,0,0,7.1.31,8.56-6.56.71-3.32,1.61-10.27,2.34-16.57a13.07,13.07,0,0,0-10.43-14.34l-.66-.13C190.56,138.57,185.66,144.15,184.84,151.42Z"/><path class="cls-12" d="M198,177.09a16.33,16.33,0,0,1-8.46-4.35s1.13,5.38,8.12,6.13Z"/><path class="cls-6" d="M206,158.26a1,1,0,0,1-1.15.8A1,1,0,0,1,204,158a1,1,0,0,1,1.14-.8A1,1,0,0,1,206,158.26Z"/><path class="cls-6" d="M206.75,157.13c-.15.11-.78-.59-1.84-.8s-1.94.16-2,0,.13-.27.51-.45a2.72,2.72,0,0,1,1.66-.17,2.61,2.61,0,0,1,1.43.8C206.76,156.83,206.82,157.09,206.75,157.13Z"/><path class="cls-6" d="M195.53,156.55a1,1,0,0,1-1.15.8,1,1,0,0,1-.83-1.09,1,1,0,0,1,1.14-.8A1,1,0,0,1,195.53,156.55Z"/><path class="cls-6" d="M196.31,155.25c-.15.11-.78-.59-1.84-.8s-1.94.16-2,0,.13-.27.52-.45a2.68,2.68,0,0,1,1.65-.17,2.57,2.57,0,0,1,1.43.8C196.32,155,196.38,155.21,196.31,155.25Z"/><path class="cls-6" d="M198.58,163.87a6.39,6.39,0,0,1,1.78,0c.28,0,.55,0,.63-.15a1.42,1.42,0,0,0,0-.84c-.13-.7-.25-1.44-.39-2.22a36.24,36.24,0,0,1-.72-5.73,34.93,34.93,0,0,1,1.18,5.66c.12.78.24,1.52.35,2.22a1.59,1.59,0,0,1-.07,1.09.68.68,0,0,1-.52.31,1.68,1.68,0,0,1-.47,0A7.66,7.66,0,0,1,198.58,163.87Z"/><path class="cls-6" d="M195.32,164c.18,0,0,1.17.77,2.18s2.07,1.13,2,1.29-.32.17-.84.08a2.88,2.88,0,0,1-1.72-1,2.57,2.57,0,0,1-.57-1.82C195.06,164.21,195.25,164,195.32,164Z"/><path class="cls-6" d="M197.41,151.16c-.16.27-1.19-.08-2.46-.18s-2.34,0-2.45-.25c-.05-.14.18-.37.64-.57a4.14,4.14,0,0,1,1.91-.27,4,4,0,0,1,1.83.6C197.3,150.76,197.49,151,197.41,151.16Z"/><path class="cls-6" d="M207,154c-.23.21-.91-.19-1.78-.37s-1.65-.17-1.78-.45.12-.36.49-.52a2.66,2.66,0,0,1,2.87.67C207,153.63,207.08,153.89,207,154Z"/><path class="cls-11" d="M184.39,156.63c-.11-.07-4.45-2.34-5.24,2.4s4.13,4.55,4.16,4.41S184.39,156.63,184.39,156.63Z"/><path class="cls-12" d="M182.16,161.41s-.09,0-.24.08a.8.8,0,0,1-.62-.09,2.06,2.06,0,0,1-.64-2,2.79,2.79,0,0,1,.43-1.14,1,1,0,0,1,.72-.53.43.43,0,0,1,.45.31c0,.14,0,.23,0,.24s.12-.06.11-.26a.5.5,0,0,0-.14-.33.65.65,0,0,0-.43-.2,1.2,1.2,0,0,0-1,.6,2.72,2.72,0,0,0-.5,1.27,2.16,2.16,0,0,0,.86,2.24.85.85,0,0,0,.77,0C182.13,161.52,182.17,161.42,182.16,161.41Z"/><path class="cls-6" d="M210.65,152.91a10.14,10.14,0,0,1-8.44-3.75c-1.39-1.76-2.27-4.06-4.24-5.12a5.67,5.67,0,0,0-4.39-.27,11.07,11.07,0,0,0-3.84,2.33c.63,3.77-1,7.49-2.68,10.94a1.92,1.92,0,0,1-.76,1c-.64.32-1.41-.19-1.79-.79a5.91,5.91,0,0,1-.67-3.32,19.73,19.73,0,0,1,1.57-7.63,13.41,13.41,0,0,1,5-5.93,12.7,12.7,0,0,1,9.41-1.56,15.62,15.62,0,0,1,8.26,5,9.08,9.08,0,0,1,2.23,3.91"/><path class="cls-6" d="M19.83,264a1.23,1.23,0,0,1,.12-.29l.38-.82a20.45,20.45,0,0,0,1.14-3.3,29.11,29.11,0,0,0-.1-12.73A66.21,66.21,0,0,0,19,238.29c-1-3-2.16-6.26-3.11-9.74a37.44,37.44,0,0,1-1.53-11.2A43.71,43.71,0,0,1,17,205.5c1.29-3.94,2.62-7.79,3-11.67a17.8,17.8,0,0,0-2.14-10.77c-1.71-3.15-3.86-5.83-5.46-8.62a29.72,29.72,0,0,1-3.28-8.29,30.72,30.72,0,0,1-.21-12.83,23.73,23.73,0,0,1,1.34-4.54,2.74,2.74,0,0,1-.08.3l-.27.87a32.19,32.19,0,0,0-.84,3.4,31.25,31.25,0,0,0,.34,12.74,29.77,29.77,0,0,0,3.29,8.18c1.6,2.75,3.76,5.43,5.5,8.61a18.22,18.22,0,0,1,2.21,11c-.4,3.94-1.75,7.81-3,11.75a43.35,43.35,0,0,0-2.59,11.74,37.47,37.47,0,0,0,1.49,11.08c.94,3.46,2.08,6.69,3.07,9.73a68.09,68.09,0,0,1,2.33,8.6,28.71,28.71,0,0,1,0,12.83,18.91,18.91,0,0,1-1.21,3.29c-.18.35-.32.61-.43.81A2.77,2.77,0,0,1,19.83,264Z"/><path class="cls-7" d="M14.57,177.19s-3.26-10.44,2.59-16.55a.36.36,0,0,1,.62.18C18.09,162.55,18.48,167.79,14.57,177.19Z"/><path class="cls-6" d="M16.53,164.12a10.37,10.37,0,0,1-.22,1.93c-.22,1.32-.47,2.88-.75,4.6s-.52,3.27-.73,4.6a12,12,0,0,1-.34,1.9,7.66,7.66,0,0,1,0-1.94c.11-1.19.32-2.83.62-4.63s.61-3.42.86-4.59A8.43,8.43,0,0,1,16.53,164.12Z"/><path class="cls-7" d="M18.4,201.8s2-10.75,10-13.41a.35.35,0,0,1,.46.44C28.37,190.5,26.26,195.33,18.4,201.8Z"/><path class="cls-6" d="M26.24,191.16a9,9,0,0,1-1.09,1.6l-2.81,3.72-2.8,3.73a11.12,11.12,0,0,1-1.2,1.52,8.59,8.59,0,0,1,1-1.69c.66-1,1.61-2.35,2.71-3.81s2.14-2.74,2.91-3.65A9.42,9.42,0,0,1,26.24,191.16Z"/><path class="cls-7" d="M16.23,228.76S15,217.9,21.93,213a.37.37,0,0,1,.58.29C22.49,215.06,21.87,220.29,16.23,228.76Z"/><path class="cls-6" d="M20.65,216.31a9.81,9.81,0,0,1-.59,1.85c-.46,1.26-1,2.74-1.61,4.37s-1.13,3.12-1.59,4.38a12.27,12.27,0,0,1-.7,1.81,7.33,7.33,0,0,1,.42-1.9c.34-1.15.86-2.72,1.49-4.43s1.25-3.24,1.72-4.34A8.3,8.3,0,0,1,20.65,216.31Z"/><path class="cls-7" d="M22.28,255.89s-.82-10.9,6.26-15.53a.36.36,0,0,1,.57.31C29,242.42,28.22,247.62,22.28,255.89Z"/><path class="cls-6" d="M27.14,243.6a10.25,10.25,0,0,1-.65,1.83l-1.77,4.31c-.65,1.61-1.24,3.08-1.75,4.32a12.18,12.18,0,0,1-.76,1.78A8,8,0,0,1,22.7,254c.38-1.14.95-2.69,1.65-4.37s1.36-3.2,1.87-4.28A9.27,9.27,0,0,1,27.14,243.6Z"/><path class="cls-7" d="M9.88,168S.19,163,0,154.5a.36.36,0,0,1,.57-.31C2,155.18,6,158.61,9.88,168Z"/><path class="cls-6" d="M2,157.41a8.93,8.93,0,0,1,1.21,1.51L6,162.7l2.74,3.77a11.24,11.24,0,0,1,1.11,1.59,8.71,8.71,0,0,1-1.33-1.41c-.77-.92-1.78-2.23-2.85-3.71s-2-2.85-2.64-3.86A9,9,0,0,1,2,157.41Z"/><path class="cls-7" d="M20.29,190.43s-10-4.46-10.69-12.9a.36.36,0,0,1,.55-.34C11.65,178.09,15.84,181.28,20.29,190.43Z"/><path class="cls-6" d="M11.79,180.31a10.45,10.45,0,0,1,1.3,1.44L16,185.36,19,189a12,12,0,0,1,1.2,1.52,7.64,7.64,0,0,1-1.42-1.33c-.82-.87-1.91-2.11-3.06-3.52s-2.17-2.73-2.87-3.69A7.84,7.84,0,0,1,11.79,180.31Z"/><path class="cls-7" d="M14.54,215.43s-6.85-8.52-3.63-16.35a.36.36,0,0,1,.64-.06C12.47,200.51,14.75,205.25,14.54,215.43Z"/><path class="cls-6" d="M11.59,202.55a11,11,0,0,1,.5,1.87c.28,1.31.62,2.85,1,4.56s.71,3.24,1,4.55a10.3,10.3,0,0,1,.37,1.9,8.66,8.66,0,0,1-.65-1.83c-.34-1.15-.74-2.75-1.12-4.54s-.69-3.4-.88-4.59A8.1,8.1,0,0,1,11.59,202.55Z"/><path class="cls-7" d="M21.33,244.84s-9.9-4.63-10.46-13.07a.36.36,0,0,1,.55-.34C12.9,232.36,17,235.61,21.33,244.84Z"/><path class="cls-6" d="M13,234.58A9.36,9.36,0,0,1,14.28,236l2.89,3.66,2.91,3.64a10.87,10.87,0,0,1,1.17,1.54,8,8,0,0,1-1.39-1.35c-.81-.88-1.88-2.15-3-3.58s-2.11-2.76-2.8-3.73A9.3,9.3,0,0,1,13,234.58Z"/><path class="cls-6" d="M41.06,201.86a.87.87,0,0,1,0,.24c0,.19,0,.42,0,.7,0,.65-.06,1.54-.11,2.65-.13,2.33-.31,5.58-.52,9.46h0v0A36.88,36.88,0,0,1,35,227.53c-2,3.14-4.07,6-5.86,8.64a62.36,62.36,0,0,0-4.4,7.27,30.19,30.19,0,0,0-2.05,5.33c-.18.65-.31,1.16-.38,1.51a1.75,1.75,0,0,1-.15.52,3.19,3.19,0,0,1,.07-.54c.05-.35.15-.87.3-1.53a28.64,28.64,0,0,1,1.95-5.42A58.76,58.76,0,0,1,28.81,236c1.79-2.67,3.86-5.52,5.83-8.64a37.3,37.3,0,0,0,5.43-12.45v0c.27-3.88.5-7.13.66-9.46.09-1.1.16-2,.22-2.64,0-.28,0-.51.07-.7A.89.89,0,0,1,41.06,201.86Z"/><path class="cls-7" d="M35.16,226.72s4.2-10.1-1.08-16.71a.36.36,0,0,0-.63.12C33,211.82,32.12,217,35.16,226.72Z"/><path class="cls-6" d="M34.4,213.53a9.32,9.32,0,0,1,.33,1.91c.15,1.19.32,2.83.45,4.65s.19,3.47.19,4.67a8,8,0,0,1-.12,1.94,10.63,10.63,0,0,1-.17-1.93c-.09-1.34-.2-2.91-.31-4.65s-.23-3.31-.33-4.65A9.43,9.43,0,0,1,34.4,213.53Z"/><g class="cls-9"><path d="M35.16,226.72s4.2-10.1-1.08-16.71a.36.36,0,0,0-.63.12C33,211.82,32.12,217,35.16,226.72Z"/></g><path class="cls-7" d="M22.17,251.05s3.36-10.4-2.43-16.57a.36.36,0,0,0-.62.18C18.79,236.38,18.35,241.62,22.17,251.05Z"/><path class="cls-6" d="M20.34,238a8.32,8.32,0,0,1,.49,1.87c.24,1.17.54,2.8.82,4.6s.47,3.44.57,4.64a8.62,8.62,0,0,1,0,1.94,10.74,10.74,0,0,1-.33-1.91c-.2-1.33-.43-2.89-.69-4.61s-.5-3.28-.7-4.61A9.12,9.12,0,0,1,20.34,238Z"/><g class="cls-9"><path d="M22.17,251.05s3.36-10.4-2.43-16.57a.36.36,0,0,0-.62.18C18.79,236.38,18.35,241.62,22.17,251.05Z"/></g><path class="cls-7" d="M40.5,214.38s9-6.27,8.06-14.68a.36.36,0,0,0-.6-.24C46.66,200.64,43.14,204.55,40.5,214.38Z"/><g class="cls-9"><path d="M40.5,214.38s9-6.27,8.06-14.68a.36.36,0,0,0-.6-.24C46.66,200.64,43.14,204.55,40.5,214.38Z"/></g><path class="cls-6" d="M46.94,202.84a9,9,0,0,1-.75,1.79c-.51,1.08-1.25,2.56-2.12,4.16s-1.7,3-2.34,4.05a7.45,7.45,0,0,1-1.14,1.57,9.93,9.93,0,0,1,.89-1.72l2.23-4.09,2.22-4.1A9.64,9.64,0,0,1,46.94,202.84Z"/><path class="cls-7" d="M25.78,240.74s10.8-1.69,13.7-9.64a.37.37,0,0,0-.44-.48C37.36,231.11,32.48,233.07,25.78,240.74Z"/><g class="cls-9"><path d="M25.78,240.74s10.8-1.69,13.7-9.64a.37.37,0,0,0-.44-.48C37.36,231.11,32.48,233.07,25.78,240.74Z"/></g><path class="cls-6" d="M36.64,233.21a9.39,9.39,0,0,1-1.46,1.28c-.93.74-2.25,1.74-3.73,2.8s-2.86,2-3.89,2.6a8.44,8.44,0,0,1-1.71.91,10.74,10.74,0,0,1,1.56-1.15l3.8-2.69,3.8-2.7A9.17,9.17,0,0,1,36.64,233.21Z"/><polygon class="cls-10" points="15.48 260.62 12.33 281.82 31.96 281.82 29.42 260.62 15.48 260.62"/><path class="cls-6" d="M30.2,267.19a78.65,78.65,0,0,1-7.92.2,78.52,78.52,0,0,1-7.91-.2,76.62,76.62,0,0,1,7.91-.21A76.74,76.74,0,0,1,30.2,267.19Z"/><path class="cls-6" d="M30.59,268.88c0,.11-3.66.2-8.18.2s-8.17-.09-8.17-.2a78.33,78.33,0,0,1,8.17-.21A78.45,78.45,0,0,1,30.59,268.88Z"/><path class="cls-13" d="M1.24,288.41H2.29A2.17,2.17,0,0,1,4,289a3.45,3.45,0,0,1,.56,1.94,6.78,6.78,0,0,1-.22,2.2c-.37,1-1,1.2-2,1.2H1.24Zm.51,5.43h.61a2.31,2.31,0,0,0,.91-.12c.78-.36.82-1.66.82-2.37s0-1.93-.76-2.35a2.43,2.43,0,0,0-1.14-.14H1.75Z"/><path class="cls-13" d="M7.81,292.11h-2c0,.56-.08,1.9.82,1.9.64,0,.72-.61.76-1.12h.44c0,.79-.32,1.52-1.21,1.52-1.21,0-1.26-1.37-1.26-2.26s0-2.3,1.25-2.3c1,0,1.24,1,1.24,1.82Zm-.46-.4c0-.55,0-1.46-.79-1.46s-.79.95-.79,1.46Z"/><path class="cls-13" d="M9.56,289.85a1.11,1.11,0,0,1,1.18,1.22h-.45a.76.76,0,0,0-.75-.82.6.6,0,0,0-.64.69.7.7,0,0,0,.52.66c.77.36,1.43.69,1.43,1.62a1.11,1.11,0,0,1-1.24,1.19,1.14,1.14,0,0,1-1.26-1.29h.46c0,.54.28.89.83.89a.74.74,0,0,0,.75-.82c0-1.15-1.89-.92-2-2.09A1,1,0,0,1,9.56,289.85Z"/><path class="cls-13" d="M11.76,289.15v-.74h.53v.74Zm0,5.15V290h.45v4.34Z"/><path class="cls-13" d="M15.44,290h.46v4.25c0,.94-.33,1.58-1.35,1.58a1.06,1.06,0,0,1-1.2-1h.46c0,.4.39.57.75.58.94,0,.86-.78.88-1.39h0a1.1,1.1,0,0,1-.91.42c-1.18,0-1.24-1.33-1.24-2.23s0-2.33,1.21-2.33a1,1,0,0,1,.95.51h0Zm-1.73,2.22c0,.61,0,1.83.89,1.83s.84-1.2.84-1.77.09-2-.9-2C13.73,290.25,13.71,291.66,13.71,292.18Z"/><path class="cls-13" d="M17.35,294.3h-.46V290h.46v.43h0a1.16,1.16,0,0,1,1-.54,1,1,0,0,1,1,1v3.44H18.9v-3.15c0-.5,0-.9-.63-.9a.9.9,0,0,0-.92.85Z"/><path class="cls-13" d="M22.63,292.11h-2c0,.56-.08,1.9.82,1.9.64,0,.72-.61.76-1.12h.44c0,.79-.32,1.52-1.21,1.52-1.21,0-1.27-1.37-1.27-2.26s.06-2.3,1.25-2.3c1,0,1.24,1,1.24,1.82Zm-.45-.4c0-.55-.06-1.46-.8-1.46s-.78.95-.78,1.46Z"/><path class="cls-13" d="M25.47,288.41h.45v5.89h-.45v-.41h0a1,1,0,0,1-.93.52c-1.17,0-1.25-1.42-1.25-2.29s.1-2.27,1.26-2.27a1.2,1.2,0,0,1,.92.47h0Zm-1.75,3.79c0,.61,0,1.81.9,1.81s.85-1.47.85-2.07,0-1.69-.87-1.69S23.72,291.61,23.72,292.2Z"/><path class="cls-13" d="M29.11,294.3h-.45v-5.89h.45v1.91h0a1.23,1.23,0,0,1,1-.47c1.1,0,1.21,1.44,1.21,2.27s-.08,2.29-1.25,2.29a1,1,0,0,1-.93-.52h0Zm1.75-2.15c0-.59,0-1.9-.88-1.9s-.87,1.22-.87,1.8-.05,2,.84,2S30.86,292.77,30.86,292.15Z"/><path class="cls-13" d="M31.86,295.38c.28,0,.64,0,.78-.27a5.61,5.61,0,0,0,.26-.79L31.77,290h.48l.9,3.51h0l1-3.51h.46l-1.18,4.28c-.12.46-.27,1.18-.68,1.45a1.47,1.47,0,0,1-.85.09Z"/><path class="cls-13" d="M37.9,289.85a1.1,1.1,0,0,1,1.18,1.22h-.45a.76.76,0,0,0-.75-.82.6.6,0,0,0-.64.69.69.69,0,0,0,.53.66c.77.36,1.42.69,1.42,1.62A1.11,1.11,0,0,1,38,294.41a1.14,1.14,0,0,1-1.26-1.29h.46c0,.54.28.89.83.89a.74.74,0,0,0,.75-.82c0-1.15-1.88-.92-1.95-2.09A1,1,0,0,1,37.9,289.85Z"/><path class="cls-13" d="M40.14,294.3v-5.89h.45v5.89Z"/><path class="cls-13" d="M41.85,289.15v-.74h.52v.74Zm0,5.15V290h.45v4.34Z"/><path class="cls-13" d="M45.52,288.41H46v5.89h-.46v-.41h0a1,1,0,0,1-.94.52c-1.17,0-1.25-1.42-1.25-2.29s.11-2.27,1.27-2.27a1.2,1.2,0,0,1,.92.47h0Zm-1.74,3.79c0,.61,0,1.81.9,1.81s.84-1.47.84-2.07,0-1.69-.87-1.69S43.78,291.61,43.78,292.2Z"/><path class="cls-13" d="M49.23,292.11h-2c0,.56-.08,1.9.81,1.9.65,0,.73-.61.77-1.12h.44c0,.79-.33,1.52-1.22,1.52-1.21,0-1.26-1.37-1.26-2.26s0-2.3,1.25-2.3c1,0,1.24,1,1.24,1.82Zm-.45-.4c0-.55-.06-1.46-.8-1.46s-.78.95-.78,1.46Z"/><path class="cls-13" d="M51,289.85a1.1,1.1,0,0,1,1.18,1.22h-.45a.75.75,0,0,0-.74-.82.61.61,0,0,0-.65.69.69.69,0,0,0,.53.66c.77.36,1.42.69,1.42,1.62A1.11,1.11,0,0,1,51,294.41a1.14,1.14,0,0,1-1.27-1.29h.46c0,.54.28.89.84.89a.74.74,0,0,0,.74-.82c0-1.15-1.88-.92-1.94-2.09A1,1,0,0,1,51,289.85Z"/><path class="cls-13" d="M55.12,290h.46v4.25c0,.94-.33,1.58-1.35,1.58a1.06,1.06,0,0,1-1.2-1h.46c0,.4.39.57.75.58.94,0,.86-.78.88-1.39h0a1.1,1.1,0,0,1-.91.42c-1.18,0-1.24-1.33-1.24-2.23s0-2.33,1.21-2.33a1,1,0,0,1,1,.51h0Zm-1.73,2.22c0,.61,0,1.83.89,1.83s.84-1.2.84-1.77.09-2-.9-2C53.41,290.25,53.39,291.66,53.39,292.18Z"/><path class="cls-13" d="M56.45,292c0-1,.18-2.18,1.37-2.18s1.35,1.31,1.35,2.27-.12,2.29-1.37,2.29S56.45,293,56.45,292Zm2.27.09c0-.67,0-1.87-.95-1.87s-.87,1.19-.87,1.79,0,2,.89,2S58.72,292.78,58.72,292.12Z"/><path class="cls-13" d="M63.13,288.41h.43L61.64,295h-.43Z"/><path class="cls-13" d="M65.76,294.3v-5.89h2.71v.45h-2.2V291h2v.46h-2v2.86Z"/><path class="cls-13" d="M69.68,290.47h0a1,1,0,0,1,1-.62v.48c-.7,0-1,.44-1,1.13v2.84h-.45V290h.43Z"/><path class="cls-13" d="M73.65,292.11h-2c0,.56-.08,1.9.82,1.9.64,0,.72-.61.76-1.12h.44c0,.79-.32,1.52-1.21,1.52-1.21,0-1.27-1.37-1.27-2.26s.06-2.3,1.25-2.3c1,0,1.24,1,1.24,1.82Zm-.45-.4c0-.55-.06-1.46-.8-1.46s-.78.95-.78,1.46Z"/><path class="cls-13" d="M76.71,292.11h-2c0,.56-.08,1.9.82,1.9.64,0,.72-.61.76-1.12h.44c0,.79-.32,1.52-1.21,1.52-1.21,0-1.26-1.37-1.26-2.26s0-2.3,1.25-2.3c1,0,1.24,1,1.24,1.82Zm-.46-.4c0-.55,0-1.46-.79-1.46s-.79.95-.79,1.46Z"/><path class="cls-13" d="M77.92,295.79h-.47V290h.46v.4h0a1,1,0,0,1,.87-.51c1.19,0,1.3,1.24,1.3,2.17s0,2.39-1.26,2.39a1,1,0,0,1-.89-.46h0Zm.87-1.78c.86,0,.85-1.27.85-1.84s0-1.92-.84-1.92-.89,1.2-.89,1.86S77.86,294,78.79,294Z"/><path class="cls-13" d="M81.1,289.15v-.74h.52v.74Zm0,5.15V290h.45v4.34Z"/><path class="cls-13" d="M82.71,294.3v-5.89h.46V292h0L84.58,290h.57L84,291.58l1.2,2.72h-.48l-1-2.26-.48.67v1.59Z"/></g></g></svg>