<?xml version="1.0" encoding="utf-8"?>
<!-- Generator: Adobe Illustrator 23.0.4, SVG Export Plug-In . SVG Version: 6.00 Build 0)  -->
<svg version="1.1" id="Capa_1" xmlns="http://www.w3.org/2000/svg" xmlns:xlink="http://www.w3.org/1999/xlink" x="0px" y="0px"
	 viewBox="0 0 155.9 72.8" style="enable-background:new 0 0 155.9 72.8;" xml:space="preserve">
<style type="text/css">
	.st0{fill:#462F90;}
	.st1{fill:#FFFFFF;}
</style>
<title>logoValores</title>
<g>
	<g id="Layer_1">
		<path class="st0" d="M10.6,46.5c-0.7,0-1.4-0.1-2-0.4c-0.8-0.3-1.5-0.7-2.1-1.4c-0.6-0.8-1-1.8-0.9-2.9c0.1-1.5,0.3-3,0.7-4.4
			c0.5-1.8,1.1-3.8,1.8-6.1s1.5-4.6,2.2-7.1s1.3-5,1.8-7.5c0.5-2.4,0.7-4.8,0.8-7.2c0-1.4,0-2.7-0.1-4c0-1.1-0.3-2.1-0.9-3
			c-0.6-0.8-1.5-1.2-2.5-1.1c-1,0-2,0.3-2.7,1C6,3.3,5.4,4.1,4.9,5c-0.5,1-0.8,2.1-1,3.2c-0.2,1-0.3,2.1-0.3,3.1
			c0,0.6,0,1.2,0.1,1.7c0.1,0.5,0.2,1,0.4,1.4c-1.2,0.1-2.4-0.3-3.2-1.3C0.3,12.3,0,11.3,0,10.3C0,9,0.3,7.8,0.8,6.7
			c0.6-1.2,1.4-2.3,2.3-3.3c1-1,2.1-1.8,3.4-2.4C7.7,0.3,9.1,0,10.5,0c2.2-0.1,4.2,1,5.3,2.8c1.3,2.3,1.9,4.9,1.8,7.5
			c0,2.4-0.3,4.7-0.8,7c-0.5,2.4-1.1,4.9-1.8,7.3s-1.5,4.7-2.2,7s-1.4,4.3-1.9,6.2c-0.5,1.6-0.7,3.2-0.8,4.8c0,0.5,0.1,1.1,0.3,1.5
			c0.3,0.5,0.8,0.7,1.3,0.6c1.4-0.1,2.7-0.7,3.7-1.6c1.6-1.3,3.1-2.8,4.4-4.5c1.6-2,3.1-4.2,4.4-6.4c1.4-2.4,2.7-4.9,3.9-7.5
			c1.1-2.5,2-5,2.7-7.6c0.6-2.2,1-4.6,1-6.9c0.1-1.4-0.2-2.9-0.8-4.2c-0.5-0.9-1.3-1.5-2.3-1.8c0.4-0.8,1-1.5,1.7-2
			c0.5-0.4,1-0.6,1.6-0.6c1,0.1,1.9,0.7,2.4,1.6c0.9,1.5,1.3,3.1,1.2,4.8c-0.1,2.4-0.4,4.9-1.2,7.2c-0.9,2.9-1.9,5.7-3.2,8.4
			c-1.4,2.9-2.9,5.7-4.6,8.4c-1.6,2.6-3.4,5-5.4,7.4c-1.6,2-3.5,3.7-5.6,5.2C14.3,45.7,12.5,46.3,10.6,46.5z"/>
		<path class="st0" d="M36,44.2c-1.1,0-2.2-0.4-3-1.2c-0.9-1-1.3-2.3-1.2-3.6c0-1.5,0.3-3,0.9-4.5c0.6-1.7,1.5-3.3,2.5-4.7
			c1.1-1.5,2.3-3,3.7-4.3c1.3-1.2,2.7-2.3,4.3-3.1c1.4-0.7,2.9-1.1,4.5-1.1c1.3,0,2.7,0.4,3.7,1.2c0.9,0.7,1.5,1.9,1.5,3.1
			c0.1,0.8-0.2,1.5-0.8,2c-0.6,0.4-1.3,0.5-2,0.5c0.1-0.3,0.1-0.6,0.2-1c0-0.3,0.1-0.7,0.1-1c0-0.8-0.2-1.6-0.6-2.3
			c-0.5-0.7-1.3-1-2.2-1c-1.2,0-2.3,0.4-3.3,1.1c-1.2,0.8-2.3,1.8-3.2,3c-1,1.3-2,2.6-2.8,4.1c-0.8,1.4-1.4,2.8-1.9,4.3
			c-0.4,1.2-0.7,2.5-0.7,3.8c0,1.5,0.5,2.2,1.5,2.2c1.1-0.1,2.1-0.5,2.9-1.2c1.2-1,2.2-2,3.2-3.2c1.1-1.3,2.1-2.6,3.1-4
			s1.9-2.6,2.7-3.8c0.2-0.2,0.2-0.4,0.3-0.4c0.3,0.1,0.6,0.1,0.9,0.2c0.3,0.1,0.7,0.3,1,0.5c0.3,0.2,0.4,0.4,0.4,0.8
			c-0.1,0.5-0.2,1-0.5,1.4c-0.3,0.6-0.7,1.3-1.2,2s-0.8,1.5-1.2,2.3c-0.3,0.7-0.5,1.5-0.5,2.2c0,0.6,0.2,1.2,0.5,1.7
			c0.3,0.5,0.9,0.9,1.5,0.8c1,0,2.4-0.8,4.1-2.3c2-2,3.8-4.3,5.1-6.8l0.6,0.6c-0.7,2-1.8,3.8-3.1,5.5c-1.1,1.5-2.5,2.7-4.1,3.7
			c-1.3,0.8-2.7,1.3-4.2,1.3c-1.2,0.1-2.4-0.4-3.2-1.3c-0.6-0.8-1-1.8-1-2.8c0-0.3,0-0.5,0.1-0.8c0-0.3,0.1-0.6,0.1-0.9
			c-1.3,1.8-2.8,3.5-4.5,5C39,43.5,37.5,44.1,36,44.2z"/>
		<path class="st0" d="M63.1,43.2c-1.4,0.1-2.8-0.5-3.5-1.7c-0.7-1.3-1.1-2.7-1.1-4.2c0-2.2,0.4-4.4,1-6.6c0.8-2.7,1.7-5.4,2.7-8
			c1.1-2.8,2.4-5.5,3.7-8.2s2.7-5.1,4-7.3C71,5.4,72.3,3.6,73.7,2c1.1-1.3,2-2,2.7-2c0.4,0,0.8,0.3,1,0.7c0.3,0.5,0.5,1.1,0.6,1.7
			c0.1,0.6,0.2,1.2,0.2,1.8c-0.1,1.4-0.3,2.8-0.8,4.1c-0.6,1.9-1.3,3.8-2.2,5.6c-1,2.1-2.1,4.2-3.3,6.2c-1.3,2.1-2.7,4.1-4.2,6
			c-1.4,1.8-3,3.5-4.8,5c-0.2,1-0.4,2.1-0.5,3c-0.1,0.9-0.2,1.9-0.2,2.8c-0.1,1.1,0.1,2.3,0.6,3.3c0.4,0.7,1.1,1.1,1.9,1.1
			c1.1,0,2.2-0.5,3.1-1.3c1.1-1,2.1-2.2,2.9-3.5c0.9-1.4,1.6-2.9,2.3-4.4l0.9,0.5c-1.2,2.8-2.9,5.4-5,7.7
			C67.4,42,65.3,43.1,63.1,43.2z M63.5,29.2c1.4-1.4,2.7-3,3.9-4.6c1.3-1.8,2.5-3.6,3.5-5.4c1.1-1.9,2.1-3.7,2.9-5.5
			c0.8-1.5,1.4-3.1,2-4.7c0.4-1,0.6-2.1,0.7-3.3c0-0.3,0-0.5-0.1-0.7c-0.1-0.1-0.2-0.2-0.3-0.2c-0.3,0-0.8,0.5-1.6,1.5
			c-0.9,1.3-1.8,2.6-2.6,3.9c-1,1.6-2,3.5-3,5.6s-2,4.3-3,6.6C65,24.6,64.2,26.8,63.5,29.2L63.5,29.2z"/>
		<path class="st0" d="M75.8,43.3c-1.3,0.1-2.5-0.4-3.4-1.4c-0.8-1-1.3-2.3-1.2-3.6c0-1.4,0.3-2.8,0.8-4.1c0.5-1.6,1.3-3.1,2.2-4.6
			c0.9-1.5,2-2.9,3.1-4.2c1.1-1.2,2.3-2.2,3.7-3.1c1.2-0.8,2.6-1.2,4.1-1.2c0.6,0,1.2,0.1,1.7,0.4c0.3,0.2,0.6,0.5,0.8,0.9
			c0.1,0,0.1-0.1,0.2-0.1H88c0.6,0,1.2,0.3,1.5,0.9c0.3,0.4,0.4,0.9,0.5,1.4c-0.1,0.6-0.2,1.3-0.6,1.8c-0.4,0.8-0.8,1.6-1.1,2.5
			c-0.4,0.9-0.6,1.9-0.6,2.9c-0.1,0.9,0.2,1.7,0.8,2.4c0.7,0.6,1.7,0.9,2.6,0.8c0.9-0.1,1.8-0.5,2.4-1.1c0.9-0.9,1.8-1.8,2.5-2.9
			c0.9-1.2,1.6-2.5,2.3-3.8c0.6-1.3,1.1-2.6,1.5-4c-0.4-0.4-0.6-0.9-0.6-1.4c0-0.7,0.1-1.4,0.5-2c0.3-0.5,0.6-1,1.1-1.4
			c0.2-0.2,0.6-0.4,0.9-0.5c0.3-0.1,0.7,0.2,0.7,0.5c0,0,0,0,0,0c0.1,0.3,0.1,0.6,0.1,0.8c-0.1,0.4-0.2,0.8-0.3,1.1
			c-0.1,0.3-0.2,0.7-0.3,1c0,0.6,0.4,1.2,0.9,1.5l2,1.5c0.8,0.6,1.4,1.2,2,2c0.6,0.9,0.9,1.9,0.9,3c0,1.2-0.3,2.4-0.7,3.5
			c-0.5,1.2-1,2.3-1.4,3.4c-0.4,0.9-0.7,1.8-0.7,2.8c-0.1,0.5,0.1,1,0.5,1.4c0.4,0.2,0.8,0.4,1.2,0.3c1,0,2-0.3,2.9-0.8
			c1-0.6,2-1.3,2.8-2.2c0.9-0.9,1.7-1.8,2.5-2.8c0.6-0.8,1.2-1.8,1.6-2.7l0.8,0.6c-0.8,1.7-1.8,3.3-3,4.7c-1.2,1.5-2.6,2.8-4.2,3.8
			c-1.4,1-3.1,1.5-4.8,1.5c-1.1,0.1-2.2-0.3-3.1-1c-0.8-0.7-1.2-1.7-1.1-2.7c0-1.3,0.3-2.5,0.8-3.6c0.5-1.3,1.1-2.5,1.6-3.8
			c0.5-1.1,0.7-2.2,0.8-3.4c0.1-1-0.3-2-1.1-2.7c-0.7-0.6-1.4-1.1-2.2-1.6c-0.5,1.4-1,2.8-1.7,4.1c-0.7,1.4-1.5,2.7-2.4,4
			c-0.8,1.1-1.8,2.2-2.8,3c-0.9,0.7-2,1.1-3.2,1.2c-1,0-2-0.2-2.9-0.7c-0.9-0.4-1.6-1.1-2-2c-1,2.5-2.5,4.9-4.4,6.9
			C80.1,42.2,78,43.2,75.8,43.3z M77.1,40.8c1-0.1,2-0.5,2.8-1.2c1.1-0.9,2.1-2,2.9-3.2c1-1.4,1.8-2.9,2.5-4.5
			c-0.2-1.1-0.3-2.2-0.3-3.3c0-0.8,0-1.5,0.1-2.3c0.1-0.6,0.2-1.2,0.4-1.7c0.1-0.4,0.3-0.8,0.6-1.2c-1.3,0-2.6,0.4-3.7,1.1
			c-1.2,0.7-2.2,1.7-3.1,2.8c-0.9,1.1-1.7,2.4-2.3,3.7c-0.6,1.2-1.1,2.5-1.5,3.8c-0.3,1-0.5,2.1-0.6,3.2c-0.1,0.7,0.1,1.5,0.5,2.1
			C75.8,40.5,76.4,40.8,77.1,40.8z"/>
		<path class="st0" d="M121.4,44c-3.5,0.4-6.6-2.2-7-5.6c0-0.3,0-0.7,0-1c0-1.9,0.5-3.8,1.3-5.5c0.9-2,2-3.8,3.4-5.4
			c1.4-1.6,3-3,4.8-4.1c1.5-1,3.3-1.5,5.1-1.6c0.9,0,1.7,0.2,2.4,0.7c0.8,0.5,1.1,1.4,1.1,2.8c0,1.5-0.5,2.9-1.3,4.1
			c-0.9,1.3-2.1,2.5-3.4,3.4c-1.4,1-3,1.8-4.6,2.5c-1.6,0.6-3.3,1-5,1.2c-0.1,0.4-0.1,0.7-0.2,1.1c0,0.3-0.1,0.7-0.1,1
			c0,0.6,0.1,1.2,0.2,1.7c0.1,0.6,0.4,1.1,0.7,1.6c0.4,0.5,0.8,0.9,1.4,1.1c0.7,0.3,1.5,0.4,2.2,0.4c1.7,0,3.4-0.5,4.9-1.4
			c1.7-1,3.2-2.3,4.4-3.8c1.4-1.5,2.6-3.2,3.5-5.1l0.7,0.5c-1,2.2-2.3,4.2-3.9,6c-1.5,1.6-3.2,2.9-5.2,3.9
			C125.3,43.5,123.4,44,121.4,44z M118.6,34.3c1.2-0.4,2.4-0.9,3.5-1.5c1.3-0.7,2.6-1.5,3.8-2.4c1.1-0.9,2.2-1.9,3-3
			c0.8-1,1.2-2.2,1.2-3.5c0-0.3-0.1-0.7-0.2-1c-0.1-0.2-0.5-0.3-1-0.3c-1.1,0-2.1,0.4-2.9,1.1c-1.1,0.8-2.1,1.7-3,2.8
			c-1,1.2-1.8,2.5-2.6,3.8C119.6,31.5,119,32.9,118.6,34.3L118.6,34.3z"/>
		<path class="st0" d="M140.4,44.4c-1.5,0.1-3-0.3-4.3-1.2c-1-0.7-1.8-1.7-2.2-2.9c-0.4-1.1-0.7-2.3-0.7-3.5c0-0.9,0.1-1.8,0.5-2.7
			c0.3-0.5,0.6-1,1.1-1.4c0.4-0.3,0.8-0.5,1.3-0.7c0.3-0.1,0.6-0.3,0.8-0.5c1.1-1.3,2.2-2.6,3.2-4c1-1.4,1.8-2.9,2.5-4.4v-0.7
			c-0.1-1.1,0.2-2.1,0.7-3c0.3-0.5,0.9-0.8,1.5-0.9c0.3,0,0.5,0.1,0.7,0.2c0.1,0.1,0.2,0.3,0.2,0.5c0,0.3-0.1,0.6-0.2,0.9
			c-0.1,0.5-0.2,1.1-0.2,1.6c0,1.4,0.3,2.8,0.8,4.1c0.5,1.5,1,3,1.5,4.7c0.5,1.6,0.8,3.4,0.8,5.1c0,0.5,0,1-0.1,1.5
			c-0.1,0.5-0.1,0.9-0.3,1.3c1.4-0.3,2.7-0.9,3.8-1.8c1.4-1.3,2.6-2.9,3.4-4.7l0.5,0.6c-0.6,1.9-1.7,3.6-3.3,4.8
			c-1.4,1.1-3,1.7-4.8,2c-0.5,1.5-1.5,2.8-2.9,3.6C143.5,44,142,44.4,140.4,44.4z M140.6,42.4c0.6,0,1.3-0.2,1.8-0.5
			c0.9-0.5,1.6-1.3,1.8-2.4c-1.6-0.3-3-0.9-4.3-1.9c-1.1-0.8-2-1.8-2.8-2.9c-0.8,0-1.3,0.7-1.3,2c0,1.4,0.4,2.7,1.2,3.8
			C137.9,41.8,139.2,42.4,140.6,42.4L140.6,42.4z M144.5,38.6c0.1-0.4,0.1-0.8,0.2-1.2c0-0.4,0.1-0.9,0.1-1.5c0-1.8-0.2-3.6-0.7-5.4
			c-0.4-1.8-0.8-3.5-1.1-5c-0.9,1.5-1.8,2.9-2.8,4.2c-0.8,1.2-1.8,2.3-2.8,3.3c0.6,1.3,1.6,2.5,2.7,3.4
			C141.3,37.5,142.8,38.3,144.5,38.6L144.5,38.6z"/>
		<path class="st1" d="M13.1,69c0.1,1.1-0.2,2.2-0.7,3.1c-0.5,0.5-1.1,0.8-1.8,0.7c-0.2,0-0.4,0-0.6-0.1v-1h0.4
			c0.4,0,0.8-0.2,1.1-0.6c0.3-0.6,0.4-1.3,0.3-2v-2.8L11.3,67c-0.2,0-0.3,0-0.5,0c-1.5,0-2.3-1.1-2.3-3.3v-7h1.4v7.6
			c0,1.1,0.3,1.6,1,1.6s1-0.6,1-1.6v-7.6h1.4L13.1,69z"/>
		<path class="st1" d="M26.4,63.5c0.1,1.4-0.2,2.9-0.8,4.2c-0.3,0.7-1.1,1.2-1.9,1.2h-0.3l-0.7-0.7v0.6h-1.2v-18h1.4v6
			c0.8,0.2,1.5,0.7,2,1.4C26,59.7,26.5,61.6,26.4,63.5z M25,64.1c0-3.6-0.7-5.7-2.1-6.3v9.3c0,0.2,0.2,0.4,0.3,0.5
			c0.1,0.2,0.3,0.2,0.5,0.3c0.4,0,0.7-0.3,0.9-1C24.9,65.9,25,65,25,64.1L25,64.1z"/>
		<path class="st1" d="M34.3,65.6c0,2.2-0.8,3.3-2.3,3.3s-2.3-1.1-2.3-3.3v-8.9H31v9.5c0,0.4,0.1,0.8,0.3,1.1
			c0.1,0.4,0.5,0.6,0.9,0.5c0.2-0.1,0.4-0.2,0.5-0.5c0.2-0.4,0.3-0.7,0.3-1.1v-9.5h1.3L34.3,65.6z"/>
		<path class="st1" d="M42.2,59.8c0,1.2-0.4,2.3-1.2,3.2c-0.5,0.6-1.3,1.1-2.1,1.2c0.1,2.5,0.8,3.7,1.9,3.7h0.4v1
			c-0.2,0-0.3,0-0.5,0c-2.2,0-3.2-2.1-3.2-6.2c0-4.1,0.9-6.1,2.6-6.1c0.6,0,1.1,0.3,1.4,0.7C42.1,58,42.3,58.9,42.2,59.8z
			 M40.9,59.7c0-1.4-0.2-2.1-0.8-2.1c-0.8,0-1.2,1.7-1.2,5.1c0,0.1,0,0.2,0,0.3c0.6-0.1,1.1-0.5,1.3-1
			C40.8,61.3,40.9,60.5,40.9,59.7z"/>
		<path class="st1" d="M49.9,68.8h-1.4v-9.5c0-0.4-0.1-0.8-0.3-1.2c-0.1-0.3-0.4-0.5-0.7-0.5c-0.3,0-0.6,0.2-0.7,0.5
			c-0.2,0.4-0.3,0.7-0.3,1.2v9.5h-1.4v-12h1.2v0.6l0.6-0.6c0.2,0,0.3,0,0.5,0c1.5,0,2.3,1.1,2.3,3.3V68.8z"/>
		<path class="st1" d="M57.5,68.8h-1.2v-0.6l-0.6,0.6c-0.1,0-0.2,0-0.3,0c-0.7-0.1-1.4-0.5-1.7-1.2c-0.5-0.8-0.7-1.8-0.6-2.7
			c-0.1-1.5,0.4-3,1.3-4.3c0.5-0.7,1.1-1.2,1.9-1.5v-0.4c0-0.8-0.3-1.2-1-1.2c-0.4,0-0.8,0.1-1.2,0.2v-1.1c0.4-0.1,0.9-0.2,1.3-0.2
			c1.5,0,2.2,0.8,2.2,2.5L57.5,68.8z M56.2,67v-6.7c-0.4,0.1-0.7,0.5-1.1,1.2c-0.5,1.1-0.8,2.3-0.7,3.5c0,0.8,0.1,1.5,0.3,2.2
			c0.2,0.4,0.4,0.7,0.7,0.7S56,67.6,56.2,67z"/>
		<path class="st1" d="M64,57.1c-0.9,0.7-1.4,1.7-1.5,2.8c0,0.8,0.3,1.6,0.6,2.3c0.4,0.8,0.7,1.7,0.7,2.6c0,0.9-0.2,1.8-0.6,2.7
			c-0.4,0.7-0.9,1.3-1.5,1.8L61,68.4c0.9-0.8,1.5-2,1.5-3.3c-0.1-0.9-0.3-1.7-0.8-2.5c-0.4-0.8-0.6-1.6-0.6-2.5
			c0-1.2,0.7-2.5,2.2-3.8L64,57.1z"/>
		<path class="st1" d="M75.8,68.8c-0.3,0.1-0.5,0.1-0.8,0.1c-0.8,0-1.5-0.4-1.9-1c-0.8-1-1.3-2.7-1.3-5.1s0.4-4,1.3-5.1
			c0.4-0.6,1.2-1,1.9-1c0.3,0,0.5,0,0.8,0.1v0.9h-0.6c-0.5,0-1,0.4-1.2,0.9c-0.6,1.3-0.9,2.8-0.8,4.2c-0.1,1.4,0.1,2.9,0.7,4.2
			c0.2,0.5,0.7,0.8,1.2,0.9h0.6L75.8,68.8z"/>
		<path class="st1" d="M83.8,62.7c0,4.1-0.9,6.1-2.6,6.1s-2.6-2-2.6-6.1s0.9-6.1,2.6-6.1S83.8,58.6,83.8,62.7z M82.4,62.7
			c0-3.4-0.4-5.1-1.2-5.1S80,59.3,80,62.7s0.4,5.1,1.2,5.1S82.4,66.1,82.4,62.7z"/>
		<path class="st1" d="M90.1,57.1c-0.9,0.7-1.4,1.7-1.5,2.8c0,0.8,0.3,1.6,0.6,2.3c0.4,0.8,0.7,1.7,0.8,2.6c0,0.9-0.2,1.8-0.6,2.7
			c-0.4,0.7-0.9,1.3-1.5,1.8l-0.8-0.8c0.9-0.8,1.4-2,1.5-3.3c-0.1-0.9-0.3-1.7-0.8-2.5c-0.4-0.8-0.6-1.6-0.6-2.5
			c0-1.2,0.7-2.5,2.2-3.8L90.1,57.1z"/>
		<path class="st1" d="M97,68.7c-0.2,0-0.4,0.1-0.6,0.1c-1.7,0-2.6-1.3-2.6-3.9v-7.2h-0.6v-1h0.6v-2.4h1.4v2.3h1.6v1h-1.6v7.5
			c0,1.7,0.4,2.5,1.3,2.5H97V68.7z"/>
		<path class="st1" d="M104.4,65.6c0,2.2-0.8,3.3-2.3,3.3s-2.3-1.1-2.3-3.3v-8.9h1.4v9.5c0,0.4,0.1,0.8,0.3,1.1
			c0.1,0.4,0.5,0.6,0.9,0.5c0.2-0.1,0.4-0.2,0.5-0.5c0.2-0.4,0.3-0.7,0.3-1.1v-9.5h1.3V65.6z"/>
		<path class="st1" d="M115.8,68.8h-1.3v-9.5c0-0.4-0.1-0.8-0.3-1.2c-0.1-0.4-0.5-0.6-0.9-0.5c-0.2,0.1-0.4,0.2-0.5,0.5
			c-0.2,0.4-0.3,0.8-0.3,1.2v9.5h-1.4v-9.5c0-0.4-0.1-0.8-0.3-1.2c-0.1-0.3-0.4-0.5-0.7-0.5c-0.3,0-0.6,0.2-0.7,0.5
			c-0.2,0.4-0.3,0.7-0.3,1.2v9.5h-1.4v-12h1.2v0.6l0.6-0.6c0.2,0,0.3,0,0.5,0c0.6,0,1.2,0.3,1.6,0.8c0.4-0.5,1-0.8,1.6-0.8
			c1.5,0,2.3,1.1,2.3,3.3V68.8z"/>
		<path class="st1" d="M124.4,63.5c0.1,1.4-0.2,2.9-0.8,4.2c-0.3,0.7-1.1,1.2-1.9,1.2h-0.3l-0.7-0.7v0.6h-1.2v-18h1.3v6
			c0.8,0.2,1.5,0.7,2,1.4C124,59.7,124.5,61.6,124.4,63.5z M123,64.1c0-3.6-0.7-5.7-2.1-6.3v9.3c0.1,0.2,0.2,0.4,0.3,0.5
			c0.1,0.2,0.3,0.2,0.5,0.3c0.4,0,0.7-0.3,0.9-1C122.9,65.9,123,65,123,64.1L123,64.1z"/>
		<path class="st1" d="M131,57.7h-0.4c-1.1,0-1.6,0.7-1.6,2.1v8.9h-1.4v-12h1.3v0.7c0.4-0.5,0.9-0.7,1.5-0.7h0.5V57.7z"/>
		<path class="st1" d="M138.1,59.8c0,1.2-0.4,2.3-1.2,3.2c-0.5,0.6-1.3,1.1-2.1,1.2c0.1,2.5,0.8,3.7,1.9,3.7h0.4v1
			c-0.2,0-0.3,0-0.5,0c-2.2,0-3.2-2.1-3.2-6.2c0-4.1,0.9-6.1,2.6-6.1c0.6,0,1.1,0.3,1.4,0.7C137.9,58,138.2,58.9,138.1,59.8z
			 M136.8,59.7c0-1.4-0.2-2.1-0.8-2.1c-0.8,0-1.2,1.7-1.2,5.1c0,0.1,0,0.2,0,0.3c0.6-0.1,1.1-0.5,1.4-1
			C136.6,61.3,136.8,60.5,136.8,59.7z"/>
		<path class="st1" d="M144.2,57.1c-0.9,0.7-1.4,1.7-1.5,2.8c0,0.8,0.3,1.6,0.6,2.3c0.4,0.8,0.7,1.7,0.7,2.6c0,0.9-0.2,1.8-0.6,2.7
			c-0.4,0.7-0.9,1.3-1.5,1.8l-0.8-0.8c0.9-0.8,1.4-2,1.5-3.3c-0.1-0.9-0.3-1.7-0.7-2.5c-0.4-0.8-0.6-1.6-0.6-2.5
			c0-1.2,0.7-2.5,2.2-3.8L144.2,57.1z"/>
	</g>
</g>
</svg>
