<?xml version="1.0" encoding="utf-8"?>
<!-- Generator: Adobe Illustrator 23.0.4, SVG Export Plug-In . SVG Version: 6.00 Build 0)  -->
<svg version="1.1" id="Capa_1" xmlns="http://www.w3.org/2000/svg" xmlns:xlink="http://www.w3.org/1999/xlink" x="0px" y="0px"
	 viewBox="0 0 251.72 153.49" style="enable-background:new 0 0 251.72 153.49;" xml:space="preserve">
<style type="text/css">
	.st0{fill:#FCEA10;}
	.st1{fill:#EA6844;}
</style>
<g>
	<path class="st0" d="M164.61,56.82c0,11.6-1.56,15.91-9.36,15.91c-8.32,0-8.79-5.56-8.79-13.62V46.88c0-4.63,0.78-7.28,2.08-8.94
		c1.14-1.46,3.28-3.02,7.44-3.02c6.97,0,8.63,4.32,8.63,11.49V56.82z"/>
	<path class="st0" d="M185.78,99.45c0,11.6-1.56,15.91-9.36,15.91c-8.32,0-8.79-5.56-8.79-13.62V89.52c0-4.63,0.78-7.28,2.08-8.94
		c1.14-1.46,3.28-3.02,7.44-3.02c6.97,0,8.63,4.32,8.63,11.49V99.45z"/>
	<path class="st1" d="M52.86,44.3v-2.34c0-2.5-0.42-5.15-3.95-5.15c-2.18,0-3.85,1.04-3.85,4.42c0,3.12,1.87,4.68,3.64,6.55
		l5.77,6.14c0.88,0.94,3.17,3.28,3.17,7.96c0,4.37-1.77,6.24-3.33,7.28c-2.29,1.56-4.84,1.56-5.72,1.56c-5.62,0-8.84-3.02-8.84-9.15
		v-4.06h4.32v3.38c0,3.07,0.62,5.93,4.52,5.93c2.86,0,4.63-1.77,4.63-4.58c0-3.02-1.4-4.42-3.43-6.5l-4.94-5.1
		c-2.86-2.96-4.21-4.94-4.21-9.2c0-4.94,2.24-8.53,8.53-8.53c1.25,0,6.19,0.05,7.44,4.78c0.31,1.25,0.31,2.96,0.31,4.26v2.34H52.86z
		"/>
	<path class="st1" d="M62.64,70.2V33.49h16.17v4.11h-11.6v10.92h10.14v4.16H67.21v13.42h11.96v4.11H62.64z"/>
	<path class="st1" d="M98.88,70.2l-6.24-16.12h-3.8V70.2h-4.52V33.49h8.01c5.98,0,9.72,1.56,9.72,10.19c0,4.58-0.88,9-4.94,9.88
		l6.55,16.64H98.88z M88.84,50.49h3.22c4.68,0,5.41-1.56,5.41-6.97c0-4.94-1.61-5.88-5.36-5.88h-3.28V50.49z"/>
	<path class="st1" d="M122.23,70.2v-2.55c-1.04,1.14-3.17,3.07-6.55,3.07c-1.46,0-5.67-0.31-7.12-5.04
		c-0.52-1.77-0.73-4.58-0.73-8.68v-11.8c0-7.07,1.35-12.27,9.26-12.27c7.8,0,8.68,4.16,8.68,8.27v3.54h-4.32v-3.33
		c0-1.66-0.31-4.63-4.16-4.63c-4.73,0-4.89,3.17-4.89,11.96v5.93c0,3.74,0.1,8.84,0.68,10.14c0.73,1.51,2.18,2.18,3.69,2.18
		c0.57,0,2.03-0.1,3.33-1.2c0.94-0.78,1.72-1.87,1.72-6.86v-3.74h-5.41v-3.95h9.67V70.2H122.23z"/>
	<path class="st1" d="M133.04,70.2V33.49h4.52V70.2H133.04z"/>
	<path class="st1" d="M162.79,54.81c0,11.6-1.56,15.91-9.36,15.91c-8.32,0-8.79-5.56-8.79-13.62V44.88c0-4.63,0.78-7.28,2.08-8.94
		c1.14-1.46,3.28-3.02,7.44-3.02c6.97,0,8.63,4.32,8.63,11.49V54.81z M149.32,58.92c0,2.65,0.1,4.21,0.47,5.36
		c0.36,1.09,1.2,2.65,3.9,2.65c3.8,0,4.42-2.76,4.42-10.24V44.62c0-4.06,0-7.85-4.26-7.85c-3.69,0-4.52,2.76-4.52,7.85V58.92z"/>
	<g>
		<path class="st1" d="M93.73,76.71c3.59,0,5.04,1.04,6.19,2.44c1.87,2.29,1.92,4.94,1.92,8.58c0,2.55-0.16,6.19-1.92,8.32
			c-1.72,2.08-4.84,2.29-7.28,2.29h-3.85v15.08h-4.58V76.71H93.73z M88.79,94.34h3.9c4.63,0,4.68-2.39,4.68-7.02
			c0-5.2-0.78-6.45-6.19-6.45h-2.39V94.34z"/>
		<path class="st1" d="M118.07,113.42l-1.3-7.07h-8.53l-1.25,7.07h-4.73l7.9-36.71h4.58l8.11,36.71H118.07z M112.4,83.52
			l-3.38,18.88h6.97L112.4,83.52z"/>
		<path class="st1" d="M138.46,87.53v-2.34c0-2.5-0.42-5.15-3.95-5.15c-2.18,0-3.85,1.04-3.85,4.42c0,3.12,1.87,4.68,3.64,6.55
			l5.77,6.14c0.88,0.94,3.17,3.28,3.17,7.96c0,4.37-1.77,6.24-3.33,7.28c-2.29,1.56-4.84,1.56-5.72,1.56
			c-5.62,0-8.84-3.02-8.84-9.15v-4.06h4.32v3.38c0,3.07,0.62,5.93,4.52,5.93c2.86,0,4.63-1.77,4.63-4.58c0-3.02-1.4-4.42-3.43-6.5
			l-4.94-5.1c-2.86-2.96-4.21-4.94-4.21-9.2c0-4.94,2.24-8.53,8.53-8.53c1.25,0,6.19,0.05,7.44,4.78c0.31,1.25,0.31,2.96,0.31,4.26
			v2.34H138.46z"/>
		<path class="st1" d="M156.55,80.82v32.6h-4.52v-32.6h-6.97v-4.11h18.46v4.11H156.55z"/>
		<path class="st1" d="M205.64,113.42L199.4,97.3h-3.8v16.12h-4.52V76.71h8.01c5.98,0,9.72,1.56,9.72,10.19c0,4.58-0.88,9-4.94,9.88
			l6.55,16.64H205.64z M195.6,93.72h3.22c4.68,0,5.41-1.56,5.41-6.97c0-4.94-1.61-5.88-5.36-5.88h-3.28V93.72z"/>
	</g>
	<path class="st0" d="M44.11,104.71V76.49h-4.36v32.58l0,0c0,2.41,1.95,4.36,4.36,4.36h0h32.58v-4.36H48.47
		C46.07,109.06,44.11,107.11,44.11,104.71z"/>
	<path class="st0" d="M203.12,42.09v28.22h4.36V37.74v0c0-2.41-1.95-4.36-4.36-4.36l0,0h-32.58v4.36h28.22
		C201.16,37.74,203.12,39.69,203.12,42.09z"/>
	<g>
		<path class="st1" d="M173.82,88.85v-4.62c0-0.82,0.66-1.48,1.48-1.48h2.81c0.82,0,1.48,0.66,1.48,1.48v4.62
			c0,0.82-0.66,1.48-1.48,1.48h-2.81C174.48,90.33,173.82,89.67,173.82,88.85z M178.04,95.79c0.82,0,1.48,0.66,1.48,1.48v6.7
			c0,3.8-0.65,6.76-3.63,8.22c-0.95,0.47-2.07-0.29-2.07-1.35v-0.42c0-0.58,0.35-1.06,0.86-1.34c1.49-0.82,1.69-2.64,1.69-4.37v-1
			h-1.07c-0.82,0-1.48-0.66-1.48-1.48v-4.95c0-0.82,0.66-1.48,1.48-1.48H178.04z"/>
	</g>
</g>
</svg>
