<svg xmlns="http://www.w3.org/2000/svg" viewBox="0 0 27.17 27.17"><defs><style>.cls-1{fill:#fff;}</style></defs><title>fb_1</title><g id="Capa_2" data-name="Capa 2"><g id="Capa_1-2" data-name="Capa 1"><path class="cls-1" d="M13.59,27.17A13.59,13.59,0,1,1,27.17,13.59,13.6,13.6,0,0,1,13.59,27.17Zm0-26.23A12.65,12.65,0,1,0,26.24,13.59,12.66,12.66,0,0,0,13.59.94Z"/><path class="cls-1" d="M16.55,13.53l.29-2.28H14.58V9.79c0-.66.18-1.11,1.13-1.11h1.2v-2a15.65,15.65,0,0,0-1.76-.09,2.74,2.74,0,0,0-2.92,3v1.68h-2v2.28h2v7.09c.81,0,2.35,0,2.35,0V13.53Z"/></g></g></svg>