<svg xmlns="http://www.w3.org/2000/svg" viewBox="0 0 55.3 60"><defs><style>.cls-1{fill:#ea5b13;}</style></defs><title>Recurso 23</title><g id="Capa_2" data-name="Capa 2"><g id="Capa_1-2" data-name="Capa 1"><path class="cls-1" d="M13.09,9.39a13.1,13.1,0,1,0,13.1,13.09A13.1,13.1,0,0,0,13.09,9.39Zm0,24.42A11.33,11.33,0,1,1,24.42,22.48,11.34,11.34,0,0,1,13.09,33.81Z"/><path class="cls-1" d="M17,20.54a.88.88,0,0,0,.88-.88v-.94A3.7,3.7,0,0,0,14.2,15h-.06V13.09a.88.88,0,1,0-1.76,0v2a4.16,4.16,0,0,0,.41,8.31h.94a2.41,2.41,0,0,1,0,4.82H12.32a1.94,1.94,0,0,1-1.94-1.94.88.88,0,0,0-1.76,0,3.7,3.7,0,0,0,3.7,3.7h.06v1.94a.88.88,0,1,0,1.76,0v-2a4.17,4.17,0,0,0-.41-8.32h-.94a2.41,2.41,0,1,1,0-4.81H14.2a1.93,1.93,0,0,1,1.93,1.93v.94A.88.88,0,0,0,17,20.54Z"/><path class="cls-1" d="M27.18,43.09a.87.87,0,0,0,.88-.88V36.57a.88.88,0,0,0-.88-.88H2.76a.88.88,0,0,0-.88.88v4.76h-1a.87.87,0,0,0-.88.88v5.64a.88.88,0,0,0,.88.88h1V52.6h-1a.88.88,0,0,0-.88.88v5.64A.87.87,0,0,0,.88,60H25.31a.88.88,0,0,0,.88-.88V54.36h1a.87.87,0,0,0,.88-.88V47.85a.87.87,0,0,0-.88-.88h-1V43.09ZM1.76,47V43.09H24.42V47ZM24.42,58.24H1.76V54.36H24.42Zm1.88-9.51V52.6H3.64V48.73ZM3.64,41.33V37.45H26.3v3.88Z"/><path class="cls-1" d="M55.11,16.29,42,.32a.88.88,0,0,0-1.36,0l-13.16,16a.89.89,0,0,0,.68,1.44h5.7V45a.88.88,0,0,0,.88.88H47.85a.88.88,0,0,0,.88-.88v-3.7a.88.88,0,0,0-1.76,0v2.82H35.58V16.85A.87.87,0,0,0,34.7,16H30L41.28,2.26,52.56,16H47.85a.88.88,0,0,0-.88.88V37.16a.88.88,0,0,0,1.76,0V17.73h5.7A.89.89,0,0,0,55.11,16.29Z"/><path class="cls-1" d="M47.85,48.84H34.7a.89.89,0,0,0,0,1.77H47.85a.89.89,0,0,0,0-1.77Z"/><path class="cls-1" d="M47.85,53.54H34.7a.88.88,0,1,0,0,1.76H47.85a.88.88,0,1,0,0-1.76Z"/><path class="cls-1" d="M47.85,58.24H34.7a.88.88,0,0,0,0,1.76H47.85a.88.88,0,1,0,0-1.76Z"/></g></g></svg>