<svg xmlns="http://www.w3.org/2000/svg" viewBox="0 0 64.28 60"><defs><style>.cls-1{fill:#ea5b13;}.cls-2{fill:#6e02d7;}</style></defs><title>Recurso 25</title><g id="Capa_2" data-name="Capa 2"><g id="Capa_1-2" data-name="Capa 1"><path class="cls-1" d="M34.73,8a22.53,22.53,0,0,0-4.49-.49H30a22.5,22.5,0,0,0-.24,45H30A22.82,22.82,0,0,0,35,52l.67-.17A22.5,22.5,0,0,0,34.73,8ZM35,49.63l-.55.13a19.94,19.94,0,0,1-4.35.49h-.33a20.25,20.25,0,0,1,.1-40.5l.17,0h.16A20.25,20.25,0,0,1,35,49.63Z"/><path class="cls-1" d="M30,5.75a1.1,1.1,0,0,0,.4-.08,1.69,1.69,0,0,0,.36-.23,1.2,1.2,0,0,0,.31-.76A1,1,0,0,0,31,4.27a1.15,1.15,0,0,0-.22-.35,1.38,1.38,0,0,0-.36-.23,1.08,1.08,0,0,0-1.17.23,1.21,1.21,0,0,0-.31.76,1.08,1.08,0,0,0,.31.76A1.11,1.11,0,0,0,30,5.75Z"/><path class="cls-1" d="M30.76,54.69a1.69,1.69,0,0,0-.36-.23,1.1,1.1,0,0,0-1.17.23,1.21,1.21,0,0,0-.31.76,1.07,1.07,0,0,0,.31.76,1.09,1.09,0,0,0,1.17.23,1.38,1.38,0,0,0,.36-.23,1.18,1.18,0,0,0,.31-.76A1,1,0,0,0,31,55,1.15,1.15,0,0,0,30.76,54.69Z"/><path class="cls-1" d="M22.86,6.28a1.08,1.08,0,0,0,.76.31,1.08,1.08,0,0,0,1.07-1.08,1.5,1.5,0,0,0,0-.2,1.17,1.17,0,0,0-.06-.2.77.77,0,0,0-.1-.18,1.15,1.15,0,0,0-.14-.17,1.1,1.1,0,0,0-1.51,0,1.06,1.06,0,0,0-.31.75,1.16,1.16,0,0,0,.07.42A1.21,1.21,0,0,0,22.86,6.28Z"/><path class="cls-1" d="M36.38,53.53a1.07,1.07,0,0,0-.76.32,1.09,1.09,0,0,0-.32.76,1,1,0,0,0,.32.75.88.88,0,0,0,.34.24,1,1,0,0,0,1.17-.24h0a.42.42,0,0,0,.13-.16.78.78,0,0,0,.11-.18,1.17,1.17,0,0,0,.05-.2.75.75,0,0,0,0-.21,1.1,1.1,0,0,0-.31-.76A1.07,1.07,0,0,0,36.38,53.53Z"/><path class="cls-1" d="M16.69,8.39a.82.82,0,0,0,.09.19l.13.16.16.13.2.11.19,0a.75.75,0,0,0,.21,0A1.14,1.14,0,0,0,18.08,9a1.8,1.8,0,0,0,.35-.24A1.14,1.14,0,0,0,18.75,8a1.11,1.11,0,0,0-.67-1,1.09,1.09,0,0,0-.62-.06.6.6,0,0,0-.19.06,1.24,1.24,0,0,0-.2.1l-.16.13a1.15,1.15,0,0,0-.22.35A1,1,0,0,0,16.6,8a1.49,1.49,0,0,0,0,.21A1.18,1.18,0,0,0,16.69,8.39Z"/><path class="cls-1" d="M43.08,51.39a1.1,1.1,0,0,0-1-.29.6.6,0,0,0-.19.06,1,1,0,0,0-.58.58,1.15,1.15,0,0,0-.08.41,1.08,1.08,0,0,0,.31.76l.16.13.19.1a.6.6,0,0,0,.19.06l.22,0a1,1,0,0,0,.76-.31,1.07,1.07,0,0,0,.31-.76,1,1,0,0,0-.09-.41A1,1,0,0,0,43.08,51.39Z"/><path class="cls-1" d="M18.08,51.15a1.1,1.1,0,0,0-1.17.24,1.2,1.2,0,0,0-.31.76,1,1,0,0,0,.09.41,1.15,1.15,0,0,0,.22.35,1.1,1.1,0,0,0,.76.31,1.15,1.15,0,0,0,.41-.08,1.11,1.11,0,0,0,.67-1,1.14,1.14,0,0,0-.32-.76A1.8,1.8,0,0,0,18.08,51.15Z"/><path class="cls-1" d="M41.72,8.87l.19.1A.7.7,0,0,0,42.1,9a.78.78,0,0,0,.22,0,1.07,1.07,0,1,0-.22-2.12.7.7,0,0,0-.19.06l-.19.1-.16.13a1.07,1.07,0,0,0,0,1.52Z"/><path class="cls-1" d="M24.37,53.85a1.06,1.06,0,0,0-1.82.76,1,1,0,0,0,.31.75,1.08,1.08,0,0,0,.76.33,1.1,1.1,0,0,0,1.07-1.08,1.15,1.15,0,0,0-.08-.41A1.21,1.21,0,0,0,24.37,53.85Z"/><path class="cls-1" d="M35.38,5.93a.77.77,0,0,0,.1.18,2.09,2.09,0,0,0,.14.17,1,1,0,0,0,.34.23,1,1,0,0,0,1.3-.4.78.78,0,0,0,.11-.18,1.17,1.17,0,0,0,.05-.2.78.78,0,0,0,0-.22,1.06,1.06,0,0,0-.31-.75A1.1,1.1,0,0,0,36,4.53a1,1,0,0,0-.34.23,1.07,1.07,0,0,0-.32.75,1.5,1.5,0,0,0,0,.22A.66.66,0,0,0,35.38,5.93Z"/><path class="cls-1" d="M62.92,21.06s0,0,0-.07a30.07,30.07,0,0,0-4.52-8.84s0,0,0-.05A30,30,0,0,0,34.28,0c-.81,0-1.52,0-2.18.09S31,0,30.41,0A2.88,2.88,0,0,0,30,0a30,30,0,0,0-.42,60A3,3,0,0,0,30,60c.71,0,1.43,0,2.14-.08s1.34.08,2.14.08A30,30,0,0,0,58.34,47.9s0,0,0,0A30.07,30.07,0,0,0,62.9,39s0,0,0-.07A30.12,30.12,0,0,0,62.92,21.06ZM57,13.93a27.71,27.71,0,0,1,3.41,6.43H58.37a30,30,0,0,0-3.11-6.43Zm-1.68-2.14H53.76a30.36,30.36,0,0,0-7.38-6.88A28,28,0,0,1,55.33,11.79Zm-19.2,45.4a28.78,28.78,0,0,1-6.13.67h-.3A27.86,27.86,0,0,1,30,2.14h.29A27.86,27.86,0,0,1,36.92,57Zm10.58-2.27a29.88,29.88,0,0,0,7.12-6.71h1.5A27.92,27.92,0,0,1,46.71,54.92ZM57,46.07H55.32a29.94,29.94,0,0,0,3.08-6.43h2A27.71,27.71,0,0,1,57,46.07ZM61.1,37.5H59.05a30.29,30.29,0,0,0,.9-6.43h2.16A27.45,27.45,0,0,1,61.1,37.5ZM60,28.93A29.1,29.1,0,0,0,59,22.5H61.1a27.45,27.45,0,0,1,1,6.43Z"/><circle class="cls-1" cx="30" cy="30" r="22.74"/><line class="cls-1" x1="34.78" y1="40.68" x2="34.78" y2="40.82"/><polygon class="cls-1" points="13.55 18.71 13.55 18.71 13.55 18.71 13.55 18.71"/><path class="cls-2" d="M30.76,10.06,30,10h0a19.93,19.93,0,0,0-16.43,8.67H27.84v7.07H43.4V35.93H38.73l-2,2,3.67,4.89,4,1a20,20,0,0,0-13.6-33.78Z"/><path class="cls-2" d="M14.58,28.86H11.84s0-.93,0-5.67V21.66a19.94,19.94,0,0,0,2.71,21V28.86Z"/><path class="cls-2" d="M26.64,45.83h-.5a1.17,1.17,0,0,1-1.29-1.29V21.71h-10v4.15h1.41a1.17,1.17,0,0,1,1.29,1.29V44.54a1.42,1.42,0,0,1-.25.86,19.9,19.9,0,0,0,9.32,4.26Z"/><path class="cls-2" d="M41.36,46.39v-.56h-.87c-1.75,0-2.12-.71-2.83-1.62l-4.95-6.62,3.41-3.28c.79-.75,1.12-1.37,2.79-1.37H40.4V28.78H27.3v4.16h3.58c.79,0,1,.45.46,1l-5.58,5.45,3.79,5.28c.66.92.25,1.21-.67,1.21H28.3v4q.46,0,.93.06A19.81,19.81,0,0,0,41.36,46.39Z"/></g></g></svg>