<svg xmlns="http://www.w3.org/2000/svg" viewBox="0 0 60 60"><defs><style>.cls-1{fill:#ea5b13;}</style></defs><title>Recurso 24</title><g id="Capa_2" data-name="Capa 2"><g id="Capa_1-2" data-name="Capa 1"><path class="cls-1" d="M13.59,48.28a3.52,3.52,0,1,0,3.52,3.52A3.52,3.52,0,0,0,13.59,48.28Zm0,4.69a1.17,1.17,0,1,1,1.18-1.17A1.18,1.18,0,0,1,13.59,53Z"/><path class="cls-1" d="M56.48,48.28H54.61V23a1.17,1.17,0,0,0-1.17-1.17H47.58V5.86a1.17,1.17,0,0,0-1.17-1.17H23A1.17,1.17,0,0,0,21.8,5.86V48.28H21a8.21,8.21,0,0,0-3.9-3.9V3.52A3.53,3.53,0,0,0,13.59,0H3.52a3.52,3.52,0,1,0,0,7h6.56V44.38A8.21,8.21,0,1,0,21,55.31H56.48a3.52,3.52,0,1,0,0-7Zm-4.21,0H24.14V24.14h8.2V36.56a1.18,1.18,0,0,0,1.88.94l4-3,4,3a1.15,1.15,0,0,0,1.22.11,1.17,1.17,0,0,0,.65-1V24.14h8.21ZM34.69,24.14h7V34.22l-2.81-2.11a1.2,1.2,0,0,0-1.41,0l-2.81,2.11ZM32.34,7H37v6.72l-1.69-1.13a1.21,1.21,0,0,0-.65-.2,1.16,1.16,0,0,0-.65.2l-1.7,1.13ZM30,7v8.91a1.17,1.17,0,0,0,1.82,1L34.69,15l2.86,1.91a1.19,1.19,0,0,0,1.21.06,1.17,1.17,0,0,0,.62-1V7h5.85V21.8H24.14V7ZM3.52,4.69a1.18,1.18,0,1,1,0-2.35H13.59a1.18,1.18,0,0,1,1.18,1.18V43.68a7.72,7.72,0,0,0-2.35,0V5.86a1.17,1.17,0,0,0-1.17-1.17Zm10.07,53a5.86,5.86,0,1,1,5.86-5.86A5.87,5.87,0,0,1,13.59,57.66ZM56.48,53H21.71a7.68,7.68,0,0,0,.09-1.17,7.49,7.49,0,0,0-.09-1.17H56.48a1.17,1.17,0,1,1,0,2.34Z"/><path class="cls-1" d="M48.75,45.94a1.17,1.17,0,0,0,1.17-1.17V42.42a1.17,1.17,0,0,0-2.34,0v2.35A1.17,1.17,0,0,0,48.75,45.94Z"/><path class="cls-1" d="M48.75,36.56a1.18,1.18,0,1,1-1.17,1.17A1.17,1.17,0,0,1,48.75,36.56Z"/><path class="cls-1" d="M44.06,41.25a1.17,1.17,0,0,0-1.17,1.17v2.35a1.17,1.17,0,1,0,2.34,0V42.42A1.17,1.17,0,0,0,44.06,41.25Z"/></g></g></svg>