<svg xmlns="http://www.w3.org/2000/svg" viewBox="0 0 27.17 27.17"><defs><style>.cls-1{fill:#fff;}</style></defs><title>ig_1</title><g id="Capa_2" data-name="Capa 2"><g id="Capa_1-2" data-name="Capa 1"><path class="cls-1" d="M13.59,27.17A13.59,13.59,0,1,1,27.17,13.59,13.6,13.6,0,0,1,13.59,27.17Zm0-26.23A12.65,12.65,0,1,0,26.24,13.59,12.66,12.66,0,0,0,13.59.94Z"/><circle class="cls-1" cx="13.59" cy="13.59" r="2.45"/><path class="cls-1" d="M10.86,19h5.46A2.71,2.71,0,0,0,19,16.32V10.86a2.71,2.71,0,0,0-2.71-2.72H10.86a2.72,2.72,0,0,0-2.72,2.72v5.46A2.72,2.72,0,0,0,10.86,19Zm6.29-9.72a.72.72,0,1,1-.72.72A.72.72,0,0,1,17.15,9.31ZM13.59,10A3.56,3.56,0,1,1,10,13.59,3.56,3.56,0,0,1,13.59,10Z"/><path class="cls-1" d="M10.86,20.15h5.46a3.84,3.84,0,0,0,3.83-3.83V10.86A3.84,3.84,0,0,0,16.32,7H10.86A3.84,3.84,0,0,0,7,10.86v5.46A3.84,3.84,0,0,0,10.86,20.15ZM8.14,10.86a2.72,2.72,0,0,1,2.72-2.72h5.46A2.71,2.71,0,0,1,19,10.86v5.46A2.71,2.71,0,0,1,16.32,19H10.86a2.72,2.72,0,0,1-2.72-2.71Z"/></g></g></svg>