<svg xmlns="http://www.w3.org/2000/svg" viewBox="0 0 126.62 19.54"><defs><style>.cls-1{fill:#fff;}</style></defs><title>kerosocietyBlanco</title><g id="Capa_2" data-name="Capa 2"><g id="Capa_1-2" data-name="Capa 1"><path class="cls-1" d="M6.19,13.24h.27v2.29H0V13.24H.78a.64.64,0,0,0,.7-.71V3a.64.64,0,0,0-.7-.71H0V0H5.48V12.53A.64.64,0,0,0,6.19,13.24Zm8.35,0v2.29H7.37V13.24h.32c.51,0,.73-.16.37-.66L6,9.68,9,6.69c.28-.27.18-.53-.25-.53h-2V3.88H14V6.16H13.2a1.75,1.75,0,0,0-1.53.76L9.79,8.72l2.72,3.63a1.62,1.62,0,0,0,1.55.89Z"/><path class="cls-1" d="M21.76,13.68a3,3,0,0,0,3-2.49l1.81.32c-.71,2.69-2.29,4.24-5.48,4.24-4,0-6.46-2.37-6.46-6a5.91,5.91,0,0,1,6.25-6.16c3.72,0,5.94,2.49,5.94,5.59a4.68,4.68,0,0,1-.14,1.19h-7.6C19.31,12.51,20.07,13.68,21.76,13.68Zm-2.7-4.87h3.79c0-2.81-.7-3.47-1.82-3.47S19.13,6.12,19.06,8.81Z"/><path class="cls-1" d="M39.27,5.73a2.1,2.1,0,0,1-2.1,2.17c-1.17,0-2-.62-2-1.76v0c-.89.38-1.53,1.55-1.67,4.59v1.84a.64.64,0,0,0,.71.71H36v2.29H28V13.24h.78a.64.64,0,0,0,.7-.71V6.87a.64.64,0,0,0-.7-.71H28V3.88h5.48V6.16a3.79,3.79,0,0,1,3.68-2.53A2,2,0,0,1,39.27,5.73Z"/><path class="cls-1" d="M52.31,9.63c0,3.5-2.4,6.12-6.33,6.12s-6.32-2.62-6.32-6.12,2.39-6,6.32-6S52.31,6.21,52.31,9.63ZM48,9.63c0-3.21-.46-4.29-2-4.29s-2,1.08-2,4.29S44.45,14,46,14,48,13,48,9.63Z"/><path class="cls-1" d="M65.55,4.29A1.6,1.6,0,0,1,63.9,6a1.45,1.45,0,0,1-1.56-1.41,1.48,1.48,0,0,1,1.2-1.42,3.59,3.59,0,0,0-2.49-.88c-1.71,0-2.89.95-2.89,2.19,0,2.71,5.7,2.68,5.7,6.57,0,2.58-2.56,4.65-5.68,4.65-2.73,0-5.16-1.59-5.16-3.83a1.83,1.83,0,0,1,1.76-2,1.5,1.5,0,1,1,.08,3,3.11,3.11,0,0,0,2.89,1.5c1.69,0,2.88-1,2.88-2.34,0-3-5.54-2.77-5.54-6.53C55.09,3,57.52,1,60.63,1,63.14,1,65.55,2.24,65.55,4.29Z"/><path class="cls-1" d="M65.42,11.43c0-3.21,2.3-6.76,6.06-6.76a3.93,3.93,0,0,1,4.2,4.24c0,3.24-2.38,6.83-6.08,6.83A4,4,0,0,1,65.42,11.43ZM73.13,7.9c0-1.33-.64-2-1.54-2-2.52,0-3.61,4.9-3.64,6.52,0,1.38.66,2,1.55,2C72,14.45,73.11,9.53,73.13,7.9Z"/><path class="cls-1" d="M85.29,6.93a1.92,1.92,0,0,0-1.67-.76c-2.53,0-3.9,3.19-3.9,5.45,0,1.84.9,2.57,2,2.57s2.16-.57,3.11-2.47H86.1c-1.36,3-3.19,4-5,4a4.13,4.13,0,0,1-4.2-4.4C76.89,8,79.57,4.69,83,4.69c2.35,0,3.76,1.44,3.76,3.19,0,1.16-.67,1.92-1.6,1.92a1.38,1.38,0,0,1-1.44-1.37A1.55,1.55,0,0,1,85.29,6.93Z"/><path class="cls-1" d="M94.86,11.49c-1.06,2.89-2.35,4.25-4,4.25S88.42,14.53,89,12.8L91,7c.17-.47-.12-.68-.4-.68-.46,0-1,.57-1.79,2.55H87.57c1.12-3,2.41-4.24,4-4.24s2.47,1.22,1.83,3L91.5,13.27c-.19.54.09.76.38.76.44,0,1-.53,1.75-2.54ZM92,1.9A1.69,1.69,0,0,1,93.72.17a1.64,1.64,0,0,1,1.69,1.71,1.65,1.65,0,0,1-1.69,1.71A1.67,1.67,0,0,1,92,1.9Z"/><path class="cls-1" d="M103.94,11.51h1.29c-1.25,3.17-3.17,4.23-5.22,4.23-2.68,0-3.93-1.78-3.93-4.06,0-3.23,2.43-7,6.44-7,2,0,3.3,1,3.3,2.43,0,2.49-3.78,3.76-6.95,4.18,0,.23,0,.46,0,.68,0,1.37.59,2.3,1.84,2.3C101.62,14.26,103,13.71,103.94,11.51ZM99,10.44c2.74-.72,4.48-1.84,4.48-3.3A1.05,1.05,0,0,0,102.36,6C100.64,6,99.44,8.39,99,10.44Z"/><path class="cls-1" d="M109.73,13c-.19.72.16,1,.59,1s1.22-.51,2-2.54h1.23c-1.08,2.94-2.56,4.23-4.2,4.23s-2.71-1.25-2.2-3.05l1.79-6.25h-1.58l.46-1.58h1.67l2.16-2.32h1.1l-.68,2.32H115l-.44,1.58h-2.91Z"/><path class="cls-1" d="M126.62,7.31c0,4.24-5,12.23-9.5,12.23-1.71,0-3.23-.91-3.23-2.39a1.55,1.55,0,0,1,1.54-1.65,1.26,1.26,0,0,1,1.31,1.29,1.44,1.44,0,0,1-1,1.35,3.5,3.5,0,0,0,1.5.32,3.86,3.86,0,0,0,1.73-.46c.93-8.07.53-11.64-1.29-11.64-.73,0-1.41.57-2.09,2.53h-1.22c.8-2.81,2-4.22,4-4.22,4.16,0,3.91,6.25,3.19,11a17.23,17.23,0,0,0,3.53-8,1.34,1.34,0,0,1-.74.21,1.58,1.58,0,0,1-1.56-1.63,1.64,1.64,0,0,1,1.77-1.6C125.61,4.67,126.62,5.39,126.62,7.31Z"/></g></g></svg>