<svg xmlns="http://www.w3.org/2000/svg" viewBox="0 0 122.95 22.01"><defs><style>.cls-1{fill:#ea5b13;}.cls-2{fill:#fff;}</style></defs><title>Recurso 29</title><g id="Capa_2" data-name="Capa 2"><g id="Capa_1-2" data-name="Capa 1"><path class="cls-1" d="M8.64,18.5H9v3.19H0V18.5H1.08a.89.89,0,0,0,1-1V4.18a.89.89,0,0,0-1-1H0V0H7.66V17.51A.89.89,0,0,0,8.64,18.5Zm11.68,0v3.19h-10V18.5h.45c.7,0,1-.22.51-.92l-2.9-4,4.27-4.18c.38-.39.26-.74-.35-.74H9.54V5.42H19.59V8.61H18.44A2.46,2.46,0,0,0,16.3,9.67l-2.62,2.52,3.8,5.07a2.24,2.24,0,0,0,2.17,1.24Z"/><path class="cls-1" d="M30.4,19.11a4.14,4.14,0,0,0,4.24-3.48l2.52.45C36.17,19.84,34,22,29.51,22c-5.55,0-9-3.32-9-8.33s3.38-8.61,8.74-8.61c5.2,0,8.29,3.48,8.29,7.82a7,7,0,0,1-.19,1.66H26.7C27,17.48,28,19.11,30.4,19.11Zm-3.77-6.8h5.3c0-3.92-1-4.85-2.55-4.85S26.73,8.55,26.63,12.31Z"/><path class="cls-1" d="M54.86,8a2.93,2.93,0,0,1-2.93,3c-1.63,0-2.84-.86-2.84-2.46V8.52c-1.24.54-2.14,2.17-2.33,6.41v2.58a.89.89,0,0,0,1,1h2.52v3.19H39.11V18.5h1.08a.89.89,0,0,0,1-1V9.6a.89.89,0,0,0-1-1H39.11V5.42h7.65V8.61A5.31,5.31,0,0,1,51.9,5.07,2.86,2.86,0,0,1,54.86,8Z"/><path class="cls-1" d="M73.08,13.46c0,4.88-3.35,8.55-8.84,8.55s-8.83-3.67-8.83-8.55,3.35-8.39,8.83-8.39S73.08,8.68,73.08,13.46Zm-6.06,0c0-4.5-.64-6-2.78-6s-2.77,1.5-2.77,6c0,4.66.64,6.16,2.77,6.16S67,18.12,67,13.46Z"/><path class="cls-2" d="M96.54,12.54l-.62,2.22H94.59a1.17,1.17,0,0,0-1.18.91l-1.71,6H90.58L89.28,20a7.67,7.67,0,0,1-5.34,2c-4.87,0-8.12-3.31-8.12-8.33,0-6.19,5.05-12.33,11.92-12.33,4.19,0,7.41,2.24,7.41,5.64,0,1.89-1,3-2.51,3a2.25,2.25,0,0,1-2.42-2.22,2.19,2.19,0,0,1,2.25-2.15,4.4,4.4,0,0,0-4.11-2.13c-5,0-8.14,6.26-8.14,10.86,0,3.13,1.45,5.29,4.57,5.29a5.62,5.62,0,0,0,3.93-1.57l.71-2.42c.17-.59-.06-.91-.65-.91H85.15l.59-2.22Z"/><path class="cls-2" d="M97.89,16c0-4.49,3.22-9.45,8.47-9.45,3.37,0,5.87,2.07,5.87,5.94,0,4.51-3.33,9.53-8.49,9.53C100.4,22,97.89,19.86,97.89,16ZM108.66,11c0-1.86-.88-2.75-2.15-2.75-3.51,0-5.05,6.85-5.08,9.12,0,1.92.92,2.78,2.16,2.78C107,20.19,108.63,13.31,108.66,11Z"/><path class="cls-2" d="M118.44,19.51a2.29,2.29,0,0,1-2.36,2.39,2.37,2.37,0,0,1-2.42-2.42,2.31,2.31,0,0,1,2.42-2.36A2.27,2.27,0,0,1,118.44,19.51Zm-.23-16.08a2.47,2.47,0,0,1,3-2,2.46,2.46,0,0,1,1.56,3.27,93.59,93.59,0,0,1-4.48,9.36h-1.45C117.26,10.51,117.85,4.67,118.21,3.43Z"/></g></g></svg>