<svg xmlns="http://www.w3.org/2000/svg" viewBox="0 0 201.67 72"><defs><style>.cls-1{fill:#6e02d7;}.cls-2{fill:#ea5b13;}.cls-3{fill:#fff;}</style></defs><title>Recurso 1</title><g id="Capa_2" data-name="Capa 2"><g id="Capa_1-2" data-name="Capa 1"><rect class="cls-1" width="201.67" height="72"/><path class="cls-2" d="M32.93,45.66h.5v4.11H21.8V45.66h1.4a1.15,1.15,0,0,0,1.27-1.28V27.21a1.15,1.15,0,0,0-1.27-1.28H21.8V21.82h9.86V44.38A1.15,1.15,0,0,0,32.93,45.66Zm15,0v4.11H35.07V45.66h.58c.9,0,1.31-.29.65-1.19l-3.74-5.22,5.51-5.39c.49-.49.33-.94-.45-.94H34.09V28.81H47v4.11H45.55c-1.64,0-2,.61-2.75,1.35l-3.37,3.25,4.89,6.53c.7.91,1.07,1.61,2.79,1.61Z"/><path class="cls-2" d="M61,46.44A5.34,5.34,0,0,0,66.43,42l3.24.57c-1.27,4.85-4.11,7.65-9.86,7.65-7.15,0-11.63-4.28-11.63-10.73s4.36-11.09,11.26-11.09c6.7,0,10.69,4.48,10.69,10.06a9.24,9.24,0,0,1-.25,2.14H56.19C56.56,44.34,57.92,46.44,61,46.44Zm-4.85-8.76h6.82c0-5-1.27-6.24-3.28-6.24S56.24,32.84,56.11,37.68Z"/><path class="cls-2" d="M92.48,32.14A3.77,3.77,0,0,1,88.7,36C86.6,36,85,34.93,85,32.88v-.09c-1.6.7-2.75,2.8-3,8.27v3.32a1.15,1.15,0,0,0,1.28,1.28h3.24v4.11H72.18V45.66h1.4a1.15,1.15,0,0,0,1.27-1.28V34.19a1.14,1.14,0,0,0-1.27-1.27h-1.4V28.81H82v4.11c1.36-3,3.54-4.56,6.62-4.56A3.68,3.68,0,0,1,92.48,32.14Z"/><path class="cls-2" d="M116,39.16c0,6.29-4.32,11-11.39,11s-11.38-4.73-11.38-11,4.31-10.8,11.38-10.8S116,33,116,39.16Zm-7.81,0c0-5.79-.82-7.72-3.58-7.72S101,33.37,101,39.16c0,6,.82,7.94,3.57,7.94S108.14,45.16,108.14,39.16Z"/><path class="cls-3" d="M146.17,38l-.8,2.85h-1.71A1.51,1.51,0,0,0,142.14,42l-2.21,7.76h-1.44l-1.67-2.21a9.9,9.9,0,0,1-6.88,2.59c-6.28,0-10.46-4.26-10.46-10.72,0-8,6.5-15.89,15.36-15.89,5.4,0,9.54,2.89,9.54,7.26,0,2.43-1.33,3.91-3.23,3.91A2.89,2.89,0,0,1,138,31.86a2.81,2.81,0,0,1,2.89-2.77c-.87-1.87-3.11-2.74-5.28-2.74-6.46,0-10.49,8.06-10.49,14,0,4,1.86,6.8,5.89,6.8a7.17,7.17,0,0,0,5.05-2L137,42c.23-.76-.08-1.18-.84-1.18h-4.68l.77-2.85Z"/><path class="cls-3" d="M147.92,42.39c0-5.78,4.14-12.16,10.91-12.16,4.33,0,7.56,2.66,7.56,7.64,0,5.81-4.3,12.28-10.95,12.28C151.15,50.15,147.92,47.41,147.92,42.39ZM161.79,36c0-2.39-1.14-3.53-2.77-3.53-4.53,0-6.51,8.82-6.54,11.74,0,2.48,1.18,3.58,2.77,3.58C159.7,47.83,161.75,39,161.79,36Z"/><path class="cls-3" d="M174.39,47a2.94,2.94,0,0,1-3,3.08,3,3,0,0,1-3.12-3.11,3,3,0,0,1,3.12-3.05A2.92,2.92,0,0,1,174.39,47Zm-.3-20.71A3.17,3.17,0,0,1,178,23.69c1.75.49,2.59,2.24,2,4.22A122.31,122.31,0,0,1,174.24,40h-1.86C172.87,35.36,173.63,27.83,174.09,26.24Z"/></g></g></svg>