<?xml version="1.0" encoding="utf-8"?>
<!-- Generator: Adobe Illustrator 23.0.4, SVG Export Plug-In . SVG Version: 6.00 Build 0)  -->
<svg version="1.1" id="Capa_1" xmlns="http://www.w3.org/2000/svg" xmlns:xlink="http://www.w3.org/1999/xlink" x="0px" y="0px"
	 viewBox="0 0 1280.1 272.2" style="enable-background:new 0 0 1280.1 272.2;" xml:space="preserve">
<style type="text/css">
	.st0{clip-path:url(#SVGID_2_);}
	.st1{fill:none;stroke:#EA5B13;stroke-width:0.75;stroke-miterlimit:10;}
</style>
<title>trama4</title>
<g>
	<g id="Capa_1-2">
		<g>
			<g>
				<defs>
					<rect id="SVGID_1_" y="4" width="1280" height="268.1"/>
				</defs>
				<clipPath id="SVGID_2_">
					<use xlink:href="#SVGID_1_"  style="overflow:visible;"/>
				</clipPath>
				<g class="st0">
					<path class="st1" d="M251.6,440.5c0,0,43.2-29.6,132.9-37.4s126.8-14.3,177.5-75.2s80.8-106.1,153.9-115.6
						s95.9,13.2,125.3,47.1c26.7,30.8,63.5,28.2,90.3,30.9c26.8,2.7,191.4-3,254.5,80.2c12.8,16.9,72.2,64.8,94.1,58.2"/>
					<path class="st1" d="M0.1,332.9c0,0,26.6,8,118.2-23.9s5.3-66.4,66.4-78.4s101-58.5,101-58.5c8.5-8.8,119-91.8,222.3-118.1
						c60.1-15.3,127.9-36.4,200-38c201.3-4.5,430.2,56.6,572,155.9"/>
				</g>
			</g>
		</g>
	</g>
</g>
</svg>
