<svg xmlns="http://www.w3.org/2000/svg" viewBox="0 0 27.17 27.17"><defs><style>.cls-1{fill:#fff;}</style></defs><title>yt_1</title><g id="Capa_2" data-name="Capa 2"><g id="Capa_1-2" data-name="Capa 1"><path class="cls-1" d="M20.05,11h0a2.92,2.92,0,0,0-.58-1.52,2.16,2.16,0,0,0-1.41-.67H18c-1.74-.12-4.35-.14-4.38-.14h0s-2.64,0-4.39.14H9.1a2.09,2.09,0,0,0-1.4.69A3,3,0,0,0,7.13,11h0S7,12.05,7,13.1v1c0,1.05.09,2.09.09,2.14h0a3.13,3.13,0,0,0,.58,1.51,2.19,2.19,0,0,0,1.46.65l.13,0h0c1,.1,4.14.14,4.28.15h0s2.64,0,4.37-.15h.1a2,2,0,0,0,1.39-.67,3.08,3.08,0,0,0,.58-1.49h0c0-.05.1-1.09.1-2.14v-1C20.15,12.05,20.05,11,20.05,11Zm-4.45,3-2.9,1.55a.43.43,0,0,1-.25.07.53.53,0,0,1-.27-.08.51.51,0,0,1-.26-.45V11.88a.54.54,0,0,1,.26-.46.55.55,0,0,1,.53,0L15.61,13a.52.52,0,0,1,.27.47A.56.56,0,0,1,15.6,13.94Z"/><path class="cls-1" d="M13.59,27.17A13.59,13.59,0,1,1,27.17,13.59,13.6,13.6,0,0,1,13.59,27.17Zm0-26.23A12.65,12.65,0,1,0,26.24,13.59,12.66,12.66,0,0,0,13.59.94Z"/></g></g></svg>