<?xml version="1.0" encoding="utf-8"?>
<!-- Generator: Adobe Illustrator 23.0.4, SVG Export Plug-In . SVG Version: 6.00 Build 0)  -->
<svg version="1.1" id="Capa_1" xmlns="http://www.w3.org/2000/svg" xmlns:xlink="http://www.w3.org/1999/xlink" x="0px" y="0px"
	 viewBox="0 0 106.24 34.16" style="enable-background:new 0 0 106.24 34.16;" xml:space="preserve">
<style type="text/css">
	.st0{fill:#587180;}
	.st1{fill:#62BAEA;}
</style>
<g>
	<path class="st0" d="M33.66,5.74c2.4,0,3.14,0.86,3.14,2.58c0,0.5-0.06,1.07-0.16,1.71c-0.45,2.85-1.24,4.28-4.33,4.28
		c-1.02,0-1.98-0.1-2.7-0.25l1.28-8.06C31.63,5.85,32.66,5.74,33.66,5.74z M31.76,12.64c0.15,0.02,0.35,0.04,0.58,0.04
		c1.93,0,2.13-1.15,2.37-2.66c0.07-0.46,0.14-0.9,0.14-1.27c0-0.84-0.33-1.39-1.67-1.39c-0.23,0-0.44,0.03-0.59,0.05L31.76,12.64z"
		/>
	<path class="st0" d="M43.67,7.41h-2.34c-0.81,0-0.98,0.18-1.1,0.96L40.1,9.16h3.14l-0.25,1.58h-3.14l-0.14,0.92
		c-0.03,0.17-0.04,0.32-0.04,0.44c0,0.42,0.21,0.53,0.84,0.53h2.34l-0.24,1.54c-0.56,0.03-1.79,0.07-2.32,0.07
		c-1.36,0-2.61-0.07-2.61-1.57c0-0.17,0.01-0.35,0.05-0.55l0.67-4.2C38.7,5.88,40.1,5.8,41.61,5.8c0.62,0,1.77,0.04,2.3,0.06
		L43.67,7.41z"/>
	<path class="st0" d="M49.64,11.54l0.9-5.71h1.74l-1.11,6.97c-0.17,1.05-0.65,1.5-1.39,1.5c-0.69,0-1.04-0.29-1.37-1.28l-1.51-4.54
		L46,14.22h-1.74l1.11-6.98c0.17-1.05,0.67-1.5,1.39-1.5c0.64,0,1.05,0.33,1.37,1.28L49.64,11.54z"/>
	<path class="st0" d="M58.99,7.43h-1.95l-1.07,6.79h-1.93l1.08-6.79h-1.93l0.26-1.61h5.8L58.99,7.43z"/>
	<path class="st0" d="M57.69,14.22l3.52-7.13c0.48-0.96,0.99-1.35,1.69-1.35c0.67,0,1.09,0.43,1.25,1.35l1.22,7.13h-2.04l-0.25-1.92
		h-2.57l-0.85,1.92H57.69z M62.88,10.78l-0.39-2.96l-1.31,2.96H62.88z"/>
	<path class="st0" d="M67.68,5.82h1.92l-0.93,5.83c-0.03,0.17-0.04,0.31-0.04,0.43c0,0.43,0.21,0.54,0.84,0.54h2.21l-0.25,1.55
		c-0.56,0.03-1.69,0.07-2.18,0.07c-1.36,0-2.62-0.08-2.62-1.57c0-0.17,0.01-0.35,0.05-0.55L67.68,5.82z"/>
</g>
<g>
	<path class="st1" d="M31.65,21.67c-1.03-0.34-1.67-0.71-1.67-1.69c0-0.14,0.01-0.29,0.04-0.45c0.25-1.56,1.21-2.06,2.82-2.06
		c0.77,0,1.53,0.13,2,0.24l-0.34,1.25c-0.44-0.08-1.01-0.17-1.54-0.17c-0.52,0-1.22,0.02-1.32,0.61c-0.01,0.06-0.01,0.11-0.01,0.15
		c0,0.43,0.37,0.53,1.01,0.71c1.12,0.32,1.59,0.77,1.59,1.66c0,0.16-0.02,0.34-0.05,0.54c-0.25,1.58-1.28,2.15-2.93,2.15
		c-0.81,0-1.47-0.11-2.02-0.23l0.36-1.29c0.48,0.08,1.27,0.17,1.8,0.17c0.66,0,1.03-0.17,1.12-0.73c0.01-0.05,0.01-0.1,0.01-0.14
		C32.54,21.99,32.19,21.85,31.65,21.67z"/>
	<path class="st1" d="M36.57,24.55h-1.6l1.09-6.87c0.65-0.12,1.46-0.2,2.31-0.2c1.38,0,2.47,0.25,2.47,1.69
		c0,0.17-0.02,0.37-0.05,0.58c-0.3,1.89-1.48,2.3-3.08,2.3c-0.24,0-0.53-0.01-0.74-0.02L36.57,24.55z M37.87,20.74
		c0.76,0,1.22-0.2,1.34-1c0.02-0.1,0.02-0.2,0.02-0.28c0-0.49-0.28-0.69-1.03-0.69c-0.22,0-0.48,0.01-0.72,0.05l-0.3,1.89
		C37.4,20.74,37.63,20.74,37.87,20.74z"/>
	<path class="st1" d="M40.07,24.55l2.94-5.95c0.4-0.8,0.83-1.13,1.41-1.13c0.56,0,0.91,0.36,1.04,1.13l1.02,5.95h-1.7l-0.21-1.6
		h-2.14l-0.71,1.6H40.07z M44.4,21.68l-0.32-2.47l-1.09,2.47H44.4z"/>
</g>
<g>
	<path class="st1" d="M53.1,17.41c0.08,0.04,0.1,0.09,0.06,0.13c-0.24,0.24-0.55,0.49-0.92,0.76c-0.38,0.26-0.72,0.46-1.03,0.59
		c-0.4,0.18-0.74,0.25-1.01,0.2c-0.08-0.01-0.13-0.04-0.15-0.09c-0.02-0.04-0.01-0.07,0.03-0.09c0.05-0.04,0.09-0.08,0.13-0.11
		l0.22-0.21c0.18-0.18,0.34-0.36,0.48-0.55l0.12-0.17c0.1-0.18,0.15-0.29,0.14-0.33c0-0.03-0.03-0.05-0.08-0.05
		c-0.21,0-0.41,0.11-0.61,0.34c-0.07,0.06-0.13,0.12-0.19,0.19c-0.14,0.16-0.24,0.29-0.29,0.38c-0.06,0.09-0.11,0.15-0.13,0.2
		l-0.17,0.25l-0.13,0.2c-0.04,0.12-0.13,0.35-0.26,0.68c-0.13,0.33-0.23,0.59-0.3,0.77c-0.18,0.44-0.27,0.67-0.28,0.7
		c-0.13,0.26-0.26,0.45-0.41,0.58c-0.04,0.04-0.09,0.05-0.15,0.04c-0.06-0.01-0.1-0.04-0.13-0.09c-0.06-0.14-0.07-0.32-0.02-0.54
		c0.04-0.19,0.12-0.39,0.22-0.59c0.04-0.08,0.14-0.26,0.3-0.55c0.2-0.31,0.35-0.55,0.46-0.71l0.33-0.49l0.02-0.06
		c0.03-0.08,0.08-0.21,0.15-0.38c0.07-0.17,0.12-0.3,0.15-0.39c0.11-0.28,0.18-0.51,0.21-0.68c-0.01-0.01-0.02-0.02-0.03-0.04
		c-0.01-0.02-0.01-0.04,0-0.05c0.02-0.04,0.08-0.06,0.17-0.06c0.09,0,0.13,0.04,0.13,0.11c-0.01,0.14-0.05,0.34-0.12,0.6
		c0.06-0.07,0.15-0.16,0.27-0.27c0.17-0.15,0.33-0.25,0.47-0.3c0.2-0.06,0.37-0.07,0.5-0.02c0.15,0.06,0.23,0.15,0.23,0.26
		c0,0.08-0.04,0.18-0.11,0.32c-0.09,0.17-0.28,0.4-0.55,0.7c-0.03,0.04-0.13,0.14-0.28,0.29c0.14-0.02,0.33-0.09,0.57-0.21
		l0.15-0.08c0.33-0.17,0.66-0.38,1-0.64c0.08-0.04,0.15-0.1,0.22-0.16l0.1-0.08l0.08-0.06c0.09-0.08,0.19-0.16,0.27-0.25
		C52.97,17.37,53.03,17.37,53.1,17.41z M48.7,20.48l0.1-0.25c-0.08,0.13-0.14,0.25-0.21,0.36c-0.12,0.23-0.2,0.44-0.25,0.61
		c-0.01,0.03-0.02,0.08-0.03,0.16C48.39,21.22,48.52,20.93,48.7,20.48z"/>
	<path class="st1" d="M55.13,17.31c0.06-0.04,0.12-0.02,0.2,0.04c0.04,0.04,0.04,0.08,0,0.11c-0.13,0.11-0.32,0.21-0.58,0.32
		c-0.24,0.1-0.46,0.17-0.65,0.21c-0.02,0-0.07,0.01-0.14,0.02c-0.08,0.01-0.14,0.02-0.18,0.03c-0.06,0.09-0.11,0.15-0.15,0.2
		c-0.09,0.13-0.19,0.24-0.29,0.35c-0.16,0.17-0.3,0.28-0.43,0.33C52.69,19,52.52,19,52.39,18.92c-0.08-0.05-0.13-0.12-0.15-0.21
		c-0.02-0.06-0.02-0.14,0.01-0.24c0.05-0.2,0.16-0.42,0.33-0.67c0.18-0.23,0.37-0.41,0.57-0.53c0.06-0.03,0.13-0.02,0.19,0.03
		c0.04,0.03,0.05,0.07,0.04,0.1s-0.04,0.06-0.08,0.06c-0.15,0.13-0.3,0.28-0.43,0.45c-0.16,0.21-0.26,0.4-0.31,0.58
		c-0.02,0.11-0.02,0.18,0,0.21c0.02,0.03,0.07,0.03,0.17,0c0.1-0.05,0.23-0.15,0.38-0.3c0.18-0.21,0.28-0.34,0.31-0.38
		c0.01-0.01,0.02-0.03,0.04-0.05c0.02-0.02,0.03-0.03,0.04-0.05l-0.03-0.03c-0.05-0.06-0.08-0.13-0.08-0.24
		c0-0.09,0.01-0.15,0.03-0.19c0.03-0.09,0.09-0.17,0.17-0.22c0.14-0.08,0.26-0.05,0.35,0.08c0.08,0.1,0.08,0.24,0,0.42v0.01h0.02
		c0.18-0.04,0.4-0.11,0.66-0.21l0.28-0.13C55.03,17.37,55.11,17.33,55.13,17.31z"/>
	<path class="st1" d="M55.1,17.35c0.08-0.03,0.15-0.02,0.21,0.04c0.04,0.04-0.02,0.21-0.21,0.5c0.35-0.24,0.62-0.41,0.82-0.52
		l0.06-0.03l0.08-0.04c0.15-0.06,0.29-0.1,0.4-0.12c0.01,0,0.03,0,0.08-0.01c0.08,0,0.13,0,0.14,0.01c0.14,0.03,0.19,0.1,0.17,0.2
		c-0.03,0.06-0.12,0.07-0.25,0.02c-0.06,0-0.15,0.02-0.26,0.07c-0.1,0.04-0.19,0.09-0.28,0.14l-0.09,0.05l-0.18,0.1l-0.1,0.07
		l-0.23,0.13l-0.17,0.13l-0.24,0.23l-0.22,0.2l-0.22,0.25c-0.03,0.06-0.08,0.13-0.13,0.21c-0.01,0.02-0.02,0.04-0.03,0.05
		c-0.01,0.02-0.07,0.02-0.17,0c-0.02-0.01-0.05-0.03-0.07-0.07c-0.02-0.03-0.02-0.06-0.02-0.08l0.11-0.17
		c0.15-0.23,0.24-0.38,0.28-0.45l0.06-0.11l0.2-0.36C54.94,17.55,55.02,17.41,55.1,17.35z"/>
	<path class="st1" d="M59.81,16.48c0.18-0.25,0.32-0.45,0.43-0.59c0.11-0.14,0.26-0.32,0.45-0.52c0.19-0.2,0.38-0.37,0.56-0.51
		c0.19-0.16,0.36-0.17,0.49-0.03c0,0.04,0,0.08,0.01,0.09c0.01,0.02,0,0.06-0.02,0.11s-0.04,0.1-0.05,0.13
		c-0.01,0.03-0.03,0.07-0.07,0.13c-0.03,0.06-0.06,0.1-0.08,0.12c-0.02,0.02-0.05,0.06-0.08,0.11c-0.03,0.05-0.06,0.08-0.06,0.09
		l-0.06,0.08c-0.29,0.4-0.58,0.76-0.88,1.07c-0.17,0.18-0.41,0.4-0.72,0.67l-0.08,0.08c-0.13,0.11-0.23,0.2-0.32,0.25v-0.01
		l-0.12,0.26c-0.14,0.29-0.21,0.54-0.23,0.74v0.04c0,0.01,0.01,0.02,0.02,0.02c0.01,0,0.03,0,0.05,0c0.02,0,0.05-0.01,0.07-0.01
		c0.03-0.01,0.05-0.02,0.08-0.03c0.03-0.01,0.06-0.02,0.08-0.03c0.02-0.01,0.04-0.02,0.07-0.03c0.02-0.01,0.04-0.02,0.04-0.02
		c0.19-0.1,0.46-0.26,0.78-0.49c0.02-0.02,0.06-0.05,0.12-0.08s0.09-0.07,0.12-0.08c0.15-0.11,0.32-0.24,0.5-0.41
		c0.01-0.01,0.13-0.11,0.35-0.29c0.03-0.01,0.07-0.01,0.1,0s0.07,0.03,0.09,0.07c0.02,0.03,0.03,0.06,0.01,0.09
		c-0.02,0.02-0.07,0.06-0.15,0.12s-0.13,0.11-0.16,0.14l-0.17,0.13c-0.01,0.01-0.05,0.04-0.1,0.08c-0.05,0.04-0.09,0.07-0.11,0.09
		l-0.14,0.1c-0.28,0.21-0.53,0.39-0.74,0.53l-0.09,0.06c-0.14,0.08-0.27,0.15-0.39,0.2c-0.12,0.05-0.23,0.08-0.33,0.1
		c-0.1,0.02-0.19,0-0.27-0.04c-0.08-0.05-0.12-0.14-0.11-0.29c0.01-0.1,0.02-0.15,0.02-0.16c0.03-0.15,0.1-0.36,0.22-0.64
		C59.19,17.46,59.46,16.98,59.81,16.48z M60.33,16.55c0.58-0.68,0.96-1.19,1.13-1.53l-0.1,0.08c-0.26,0.23-0.54,0.52-0.82,0.88
		c-0.33,0.42-0.61,0.81-0.83,1.17l0.02-0.01C59.96,16.93,60.16,16.73,60.33,16.55z"/>
	<path class="st1" d="M64.11,17.46c0.03,0.01,0.06,0.03,0.08,0.06c0.02,0.03,0.02,0.05,0,0.07c-0.41,0.36-0.73,0.62-0.94,0.75
		c-0.21,0.13-0.33,0.21-0.36,0.23c-0.31,0.17-0.52,0.27-0.65,0.29c-0.32,0.04-0.53-0.03-0.64-0.21c-0.06-0.09-0.07-0.23-0.02-0.4
		c-0.06,0.07-0.15,0.16-0.28,0.28c-0.02,0.02-0.06,0.06-0.12,0.13c-0.06,0.07-0.11,0.11-0.15,0.14c-0.07,0.06-0.16,0.11-0.26,0.15
		c-0.13,0.06-0.25,0.04-0.37-0.04c-0.08-0.06-0.12-0.16-0.12-0.28c0.01-0.16,0.1-0.36,0.28-0.6c0.16-0.2,0.34-0.37,0.52-0.5
		c0.13-0.09,0.3-0.18,0.5-0.24c0.09-0.03,0.17-0.03,0.24-0.03c0.14,0.05,0.2,0.12,0.16,0.2c-0.03,0.06-0.08,0.08-0.16,0.04
		c-0.03-0.02-0.07-0.02-0.13,0c-0.14,0.06-0.28,0.14-0.42,0.24c-0.16,0.14-0.29,0.26-0.37,0.36c-0.16,0.18-0.25,0.33-0.29,0.45
		c-0.04,0.09-0.04,0.17-0.02,0.24c0.01,0,0.02,0,0.03-0.01c0.18-0.09,0.36-0.25,0.54-0.45l0.55-0.58l0.29-0.26l0.01-0.01
		c0.02-0.02,0.05-0.06,0.1-0.12s0.08-0.1,0.1-0.13c0.03-0.04,0.09-0.04,0.16-0.02s0.12,0.06,0.12,0.11v0.01
		c0,0.02-0.02,0.07-0.08,0.14s-0.11,0.14-0.17,0.21c-0.07,0.08-0.11,0.13-0.13,0.15l-0.08,0.14c-0.07,0.14-0.12,0.26-0.14,0.34
		c-0.04,0.13-0.04,0.23,0.02,0.3c0.06,0.07,0.14,0.08,0.25,0.05c0.09-0.03,0.28-0.12,0.55-0.25c0.28-0.14,0.69-0.46,1.23-0.94
		C63.99,17.43,64.05,17.43,64.11,17.46z"/>
</g>
<g>
	<g>
		<path class="st0" d="M10.84,20.48c0.48,0.69,0.88,1.01,1.27,1.01c0.15,0,0.51-0.06,0.69-0.57c0.15-0.42,0.29-0.91,0.44-1.42
			c0.35-1.25,0.84-2.96,1.52-2.96h0.05c0.29,0,0.57,0.27,0.83,0.83c0.28,0.59,0.5,1.38,0.7,2.14c0.14,0.51,0.27,0.99,0.42,1.41
			c0.18,0.51,0.54,0.57,0.68,0.57c0.39,0,0.79-0.32,1.27-1.02c0.38-0.55,0.78-1.3,1.16-2.17c0.84-1.95,1.35-3.92,1.35-5.28
			c0-1-0.35-1.95-1-2.66c-0.68-0.76-1.61-1.18-2.63-1.18c-0.8,0-1.64,0.47-2.26,0.81c-0.16,0.09-0.46,0.26-0.56,0.28
			c-0.09-0.03-0.39-0.19-0.56-0.28c-0.62-0.34-1.46-0.81-2.26-0.81c-1.02,0-1.95,0.42-2.63,1.18c-0.64,0.72-1,1.67-1,2.66
			c0,1.4,0.5,3.39,1.34,5.32C10.06,19.19,10.46,19.93,10.84,20.48L10.84,20.48z M11.96,9.9c0.47,0,1.08,0.22,1.65,0.58
			c0.08,0.05,0.2,0.14,0.32,0.23c0.05,0.04,0.09,0.07,0.14,0.1c0.14,0.1,0.33,0.24,0.55,0.37c0.12,0.07,0.22,0.13,0.34,0.18
			c0.48,0.2,0.99,0.31,1.52,0.31c0.54,0,0.81-0.06,0.91-0.08c0.19-0.05,0.64-0.17,0.63-0.23c-0.01-0.06-0.5-0.03-0.67-0.04
			c-0.19-0.02-0.79-0.05-1.5-0.24c-0.21-0.06-0.5-0.17-0.52-0.23c-0.01-0.05,0.2-0.18,0.35-0.28c0.55-0.34,1.29-0.66,1.9-0.66
			c1.8,0,2.88,1.58,2.88,3.1c0,1.25-0.49,3.16-1.29,4.99c-0.35,0.81-0.74,1.54-1.09,2.05c-0.34,0.49-0.53,0.71-0.62,0.68
			c-0.02-0.01-0.04-0.03-0.05-0.05c-0.14-0.39-0.24-0.86-0.38-1.36c-0.22-0.79-0.44-1.61-0.75-2.26c-0.4-0.84-0.89-1.25-1.5-1.25
			h-0.05c-0.59,0-1.07,0.41-1.47,1.24c-0.31,0.64-0.54,1.46-0.77,2.26c-0.14,0.5-0.25,0.97-0.39,1.37
			c-0.01,0.03-0.04,0.07-0.06,0.07c-0.08,0.03-0.28-0.18-0.63-0.67c-0.35-0.5-0.73-1.22-1.08-2.03C9.57,16.22,9.08,14.29,9.08,13
			C9.08,11.48,10.16,9.9,11.96,9.9L11.96,9.9z M11.96,9.9"/>
		<path class="st1" d="M24.73,12.18c0,0-0.57,0.16-0.76,0.21c-0.09,0.03-0.09-0.02-0.09-0.02c-0.42-1.83-1.37-3.45-2.77-4.75
			c-1.75-1.62-4.02-2.51-6.4-2.51c-2.38,0-4.66,0.89-6.4,2.51c-1.74,1.61-2.8,3.8-2.98,6.15c-0.02,0.28,0.19,0.52,0.47,0.55
			c0.01,0,0.03,0,0.04,0c0.26,0,0.48-0.2,0.51-0.47c0.34-4.33,4.02-7.73,8.38-7.73c3.95,0,7.34,2.75,8.19,6.51
			c0,0,0.02,0.04-0.02,0.06c-0.26,0.08-1.03,0.29-1.03,0.29c-0.23,0.06-0.26,0.24-0.08,0.39l1.94,1.61
			c0.18,0.15,0.39,0.09,0.47-0.13L25,12.47C25.08,12.24,24.95,12.11,24.73,12.18L24.73,12.18z M24.73,12.18"/>
		<path class="st1" d="M23.81,16.06c-0.28-0.02-0.52,0.19-0.55,0.47c-0.34,4.33-4.02,7.73-8.38,7.73c-3.95,0-7.34-2.75-8.19-6.51
			c0,0-0.01-0.05,0.03-0.06c0.29-0.08,0.98-0.28,0.98-0.28c0.23-0.06,0.26-0.24,0.08-0.39l-1.94-1.61
			c-0.18-0.15-0.39-0.09-0.47,0.13l-0.82,2.38c-0.08,0.22,0.05,0.35,0.27,0.29c0,0,0.55-0.16,0.84-0.24
			c0.03-0.01,0.05,0.05,0.05,0.05c0.42,1.83,1.37,3.44,2.77,4.73c1.75,1.62,4.02,2.51,6.4,2.51c2.38,0,4.66-0.89,6.4-2.51
			c1.74-1.61,2.8-3.8,2.98-6.15C24.3,16.33,24.09,16.08,23.81,16.06L23.81,16.06z M23.81,16.06"/>
	</g>
</g>
<g>
	<path class="st1" d="M50.95,23.1l-0.01-0.04c-0.08,0.02-0.13,0.05-0.15,0.07c-0.13,0.12-0.24,0.23-0.31,0.33
		c-0.13,0.14-0.23,0.29-0.32,0.44c-0.12,0.18-0.17,0.35-0.15,0.52c0.01,0.01,0.02,0.02,0.03,0.02c0.13,0,0.37-0.18,0.73-0.55
		c0.26-0.25,0.6-0.61,1-1.08c0.47-0.55,0.82-1,1.05-1.35c0.06-0.1,0.14-0.2,0.22-0.3c0.01-0.02,0.03-0.06,0.07-0.11
		c0.03-0.05,0.06-0.08,0.08-0.11c0.05-0.08,0.09-0.15,0.11-0.21c0.05-0.09,0.08-0.17,0.08-0.24c0-0.03-0.04-0.01-0.11,0.07
		l-0.04,0.04l-0.02,0.02c-0.01,0.01-0.02,0.02-0.04,0.03s-0.02,0.03-0.04,0.03c-0.11,0.11-0.21,0.22-0.3,0.33
		c-0.26,0.29-0.53,0.67-0.82,1.12c-0.11,0.18-0.25,0.43-0.42,0.77c-0.24,0.48-0.36,0.86-0.35,1.14c0.01,0.32,0.25,0.35,0.73,0.08
		c0.25-0.14,0.54-0.34,0.88-0.59c0.04-0.02,0.09-0.07,0.17-0.13s0.14-0.11,0.18-0.14c0.01-0.01,0.04-0.03,0.1-0.08
		c0.06-0.05,0.1-0.08,0.12-0.1c0.04-0.04,0.1-0.04,0.17,0c0.03,0.01,0.05,0.02,0.06,0.05c0.02,0.02,0.01,0.05,0,0.08
		c-0.04,0.04-0.14,0.12-0.3,0.25c-0.15,0.13-0.27,0.22-0.34,0.28c-0.08,0.06-0.18,0.13-0.31,0.23s-0.26,0.18-0.38,0.24
		c-0.14,0.09-0.29,0.17-0.44,0.24c-0.13,0.06-0.26,0.09-0.38,0.09c-0.16,0-0.29-0.05-0.39-0.15c-0.09-0.09-0.13-0.19-0.13-0.32
		c-0.02-0.23,0.05-0.53,0.21-0.9c0.1-0.26,0.25-0.56,0.45-0.9c0.13-0.21,0.22-0.37,0.29-0.47c0.18-0.27,0.33-0.48,0.45-0.62
		c0.23-0.3,0.43-0.52,0.6-0.67c0.11-0.09,0.2-0.16,0.29-0.19c0.15-0.04,0.26-0.01,0.34,0.09c0.06,0.08,0.06,0.2-0.01,0.36
		c-0.05,0.13-0.14,0.28-0.25,0.45c-0.41,0.6-0.89,1.22-1.44,1.86c-0.45,0.53-0.83,0.93-1.16,1.2c-0.27,0.23-0.48,0.35-0.63,0.37
		c-0.14,0.01-0.24-0.02-0.31-0.11c-0.08-0.11-0.08-0.24-0.03-0.4c0.06-0.16,0.15-0.33,0.27-0.49c0.08-0.12,0.18-0.25,0.32-0.4
		c0.16-0.16,0.3-0.28,0.43-0.34c0.05-0.02,0.11-0.03,0.18-0.04c0.07-0.01,0.13,0,0.18,0.03s0.06,0.08,0.04,0.15l-0.02,0.04
		c-0.01,0.02-0.05,0.04-0.12,0.05S50.96,23.12,50.95,23.1z"/>
	<path class="st1" d="M53.51,22.98c0.08-0.03,0.15-0.02,0.21,0.04c0.04,0.04-0.02,0.21-0.21,0.5c0.35-0.24,0.62-0.41,0.82-0.52
		l0.06-0.03l0.08-0.04c0.15-0.06,0.29-0.1,0.4-0.12c0.01,0,0.03,0,0.08-0.01c0.08,0,0.13,0,0.14,0.01c0.14,0.03,0.19,0.1,0.17,0.2
		c-0.03,0.06-0.12,0.07-0.25,0.02c-0.06,0-0.15,0.02-0.26,0.07c-0.1,0.04-0.19,0.09-0.28,0.14l-0.09,0.05l-0.18,0.1l-0.1,0.07
		l-0.23,0.13l-0.17,0.13l-0.24,0.23l-0.22,0.2l-0.22,0.25c-0.03,0.06-0.08,0.13-0.13,0.21c-0.01,0.02-0.02,0.04-0.03,0.05
		c-0.01,0.02-0.07,0.02-0.17,0c-0.02-0.01-0.05-0.03-0.07-0.07c-0.02-0.03-0.02-0.06-0.02-0.08l0.11-0.17
		c0.15-0.23,0.24-0.38,0.28-0.45l0.06-0.11l0.2-0.36C53.35,23.18,53.43,23.04,53.51,22.98z"/>
	<path class="st1" d="M58.15,23.09c0.03,0.01,0.06,0.03,0.08,0.06c0.02,0.03,0.02,0.05,0,0.07c-0.41,0.36-0.73,0.62-0.94,0.75
		c-0.21,0.13-0.33,0.21-0.36,0.23c-0.31,0.17-0.52,0.27-0.65,0.29c-0.32,0.04-0.53-0.03-0.64-0.21c-0.06-0.09-0.07-0.23-0.02-0.4
		c-0.06,0.07-0.15,0.16-0.28,0.28c-0.02,0.02-0.06,0.06-0.12,0.13c-0.06,0.07-0.11,0.11-0.15,0.14c-0.07,0.06-0.16,0.11-0.26,0.15
		c-0.13,0.06-0.25,0.04-0.37-0.04c-0.08-0.06-0.12-0.16-0.12-0.28c0.01-0.16,0.1-0.36,0.28-0.6c0.16-0.2,0.34-0.37,0.52-0.5
		c0.13-0.09,0.3-0.18,0.5-0.24c0.09-0.03,0.17-0.03,0.24-0.03c0.14,0.05,0.2,0.12,0.16,0.2c-0.03,0.06-0.08,0.08-0.16,0.04
		c-0.03-0.02-0.07-0.02-0.13,0c-0.14,0.06-0.28,0.14-0.42,0.24c-0.16,0.14-0.29,0.26-0.37,0.36c-0.16,0.18-0.25,0.33-0.29,0.45
		c-0.04,0.09-0.04,0.17-0.02,0.24c0.01,0,0.02,0,0.03-0.01c0.18-0.09,0.36-0.25,0.54-0.45l0.55-0.58l0.29-0.26l0.01-0.01
		c0.02-0.02,0.05-0.06,0.1-0.12s0.08-0.1,0.1-0.13c0.03-0.04,0.09-0.04,0.16-0.02s0.12,0.06,0.12,0.11v0.01
		c0,0.02-0.02,0.07-0.08,0.14s-0.11,0.14-0.17,0.21c-0.07,0.08-0.11,0.13-0.13,0.15l-0.08,0.14c-0.07,0.14-0.12,0.26-0.14,0.34
		c-0.04,0.13-0.04,0.23,0.02,0.3c0.06,0.07,0.14,0.08,0.25,0.05c0.09-0.03,0.28-0.12,0.55-0.25c0.28-0.14,0.69-0.46,1.23-0.94
		C58.02,23.05,58.08,23.05,58.15,23.09z"/>
	<path class="st1" d="M57.98,24.2c0.04-0.02,0.1-0.02,0.18,0.01c0.08,0.03,0.1,0.08,0.07,0.15c-0.01,0.01-0.03,0.03-0.04,0.04
		c-0.01,0.02-0.03,0.03-0.05,0.05c-0.02,0.02-0.03,0.03-0.04,0.03c-0.03,0.02-0.06,0.03-0.08,0.03c-0.04,0.01-0.08,0-0.12-0.02
		c-0.09-0.05-0.11-0.1-0.07-0.15L57.98,24.2z"/>
	<path class="st1" d="M64.82,19.85c0.07-0.05,0.15-0.04,0.24,0.04c0.06,0.05,0.06,0.1,0,0.14c-0.03,0.02-0.06,0.06-0.12,0.1
		c-0.05,0.04-0.1,0.08-0.13,0.09c-0.4,0.33-0.79,0.73-1.18,1.2c-0.4,0.47-0.73,0.9-0.99,1.3c-0.27,0.4-0.55,0.87-0.83,1.39
		c-0.17,0.33-0.3,0.68-0.39,1.05c-0.05,0.22-0.08,0.42-0.08,0.6c0,0.13,0.01,0.23,0.02,0.29c0.06,0.25,0.18,0.44,0.37,0.56
		s0.41,0.17,0.65,0.16c0.25-0.01,0.48-0.04,0.72-0.1s0.45-0.14,0.64-0.23c0.21-0.12,0.41-0.24,0.57-0.35
		c0.78-0.51,1.5-1.17,2.16-1.98c0.32-0.4,0.62-0.83,0.9-1.29c0.13-0.22,0.26-0.46,0.39-0.71c0.18-0.34,0.3-0.65,0.39-0.94
		c0.13-0.43,0.14-0.76,0.03-0.99s-0.28-0.37-0.53-0.42c-0.24-0.05-0.52-0.04-0.82,0.03s-0.58,0.2-0.85,0.38
		c-0.62,0.43-1.19,1.07-1.72,1.94c-0.04,0.06-0.12,0.07-0.22,0.01c-0.09-0.04-0.11-0.09-0.08-0.16c0.13-0.21,0.29-0.44,0.48-0.7
		c0.32-0.4,0.63-0.73,0.92-0.99c0.4-0.34,0.79-0.57,1.16-0.69c0.19-0.07,0.41-0.11,0.65-0.12c0.25-0.01,0.47,0.02,0.65,0.08
		c0.21,0.08,0.36,0.18,0.45,0.3c0.1,0.11,0.17,0.25,0.21,0.41c0.06,0.26,0.05,0.58-0.03,0.96c-0.08,0.31-0.2,0.62-0.36,0.94
		c-0.48,0.98-1.08,1.85-1.8,2.61c-0.68,0.75-1.43,1.35-2.24,1.8c-0.32,0.17-0.66,0.29-1.02,0.37c-0.51,0.09-0.93,0.08-1.25-0.04
		c-0.23-0.09-0.4-0.21-0.52-0.36c-0.11-0.14-0.19-0.32-0.24-0.54c-0.06-0.35-0.01-0.75,0.14-1.22c0.05-0.18,0.12-0.36,0.2-0.55
		c0.04-0.1,0.14-0.29,0.29-0.58c0.26-0.46,0.55-0.92,0.87-1.37c0.34-0.48,0.68-0.91,1.03-1.29C64,20.54,64.41,20.15,64.82,19.85z"/>
	<path class="st1" d="M68.69,22.11c0.18-0.25,0.32-0.45,0.43-0.59c0.11-0.14,0.26-0.32,0.45-0.52c0.19-0.2,0.38-0.37,0.56-0.51
		c0.19-0.16,0.36-0.17,0.49-0.03c0,0.04,0,0.08,0.01,0.09c0.01,0.02,0,0.06-0.02,0.11s-0.04,0.1-0.05,0.13
		c-0.01,0.03-0.03,0.07-0.07,0.13c-0.03,0.06-0.06,0.1-0.08,0.12c-0.02,0.02-0.05,0.06-0.08,0.11c-0.03,0.05-0.06,0.08-0.06,0.09
		l-0.06,0.08c-0.29,0.4-0.58,0.76-0.88,1.07c-0.17,0.18-0.41,0.4-0.72,0.67l-0.08,0.08c-0.13,0.11-0.23,0.2-0.32,0.25V23.4
		l-0.12,0.26c-0.14,0.29-0.21,0.54-0.23,0.74v0.04c0,0.01,0.01,0.02,0.02,0.02c0.01,0,0.03,0,0.05,0c0.02,0,0.05-0.01,0.07-0.01
		c0.03-0.01,0.05-0.02,0.08-0.03c0.03-0.01,0.06-0.02,0.08-0.03c0.02-0.01,0.04-0.02,0.07-0.03c0.02-0.01,0.04-0.02,0.04-0.02
		c0.19-0.1,0.46-0.26,0.78-0.49c0.02-0.02,0.06-0.05,0.12-0.08s0.09-0.07,0.12-0.08c0.15-0.11,0.32-0.24,0.5-0.41
		c0.01-0.01,0.13-0.11,0.35-0.29c0.03-0.01,0.07-0.01,0.1,0s0.07,0.03,0.09,0.07c0.02,0.03,0.03,0.06,0.01,0.09
		c-0.02,0.02-0.07,0.06-0.15,0.12s-0.13,0.11-0.16,0.14l-0.17,0.13c-0.01,0.01-0.05,0.04-0.1,0.08c-0.05,0.04-0.09,0.07-0.11,0.09
		l-0.14,0.1c-0.28,0.21-0.53,0.39-0.74,0.53l-0.09,0.06c-0.14,0.08-0.27,0.15-0.39,0.2c-0.12,0.05-0.23,0.08-0.33,0.1
		c-0.1,0.02-0.19,0-0.27-0.04c-0.08-0.05-0.12-0.14-0.11-0.29c0.01-0.1,0.02-0.15,0.02-0.16c0.03-0.15,0.1-0.36,0.22-0.64
		C68.07,23.09,68.35,22.61,68.69,22.11z M69.21,22.18c0.58-0.68,0.96-1.19,1.13-1.53l-0.1,0.08c-0.26,0.23-0.54,0.52-0.82,0.88
		c-0.33,0.42-0.61,0.81-0.83,1.17l0.02-0.01C68.85,22.56,69.05,22.36,69.21,22.18z"/>
	<path class="st1" d="M77.13,24.78c0.08,0.01,0.15,0.01,0.21,0.02s0.16,0.02,0.3,0.05c0.14,0.02,0.25,0.05,0.34,0.08
		c0.09,0.03,0.19,0.08,0.28,0.13c0.1,0.05,0.17,0.11,0.21,0.19c0.04,0.08,0.05,0.16,0.02,0.25c-0.03,0.07-0.09,0.09-0.2,0.06
		c-0.11-0.03-0.15-0.08-0.13-0.15c0.02-0.08-0.01-0.15-0.12-0.21s-0.25-0.1-0.42-0.13s-0.33-0.05-0.45-0.06
		c-0.12-0.01-0.23-0.02-0.33-0.03c-0.6-0.04-1.21-0.04-1.82,0c-0.35,0.02-0.62,0.05-0.79,0.07c-0.19,0.02-0.46,0.05-0.83,0.1
		c-0.89,0.13-2.01,0.35-3.36,0.69c-0.03,0.08-0.13,0.25-0.28,0.53c-0.26,0.43-0.45,0.73-0.57,0.89c-0.23,0.31-0.45,0.51-0.67,0.59
		c-0.25,0.1-0.47,0.08-0.66-0.06c-0.16-0.11-0.22-0.28-0.19-0.51c0.04-0.19,0.13-0.39,0.26-0.58c0.11-0.16,0.25-0.3,0.42-0.44
		c0.29-0.23,0.77-0.43,1.43-0.62c0.24-0.45,0.41-0.79,0.53-1.02c0.02-0.03,0.05-0.1,0.1-0.19c0.05-0.1,0.09-0.17,0.12-0.22
		l0.02-0.04c-0.14,0.15-0.29,0.28-0.43,0.38c-0.1,0.08-0.24,0.11-0.42,0.08c-0.18-0.02-0.28-0.12-0.3-0.28
		c-0.01-0.11,0.03-0.24,0.09-0.39c0.06-0.13,0.14-0.27,0.24-0.43c0.17-0.26,0.34-0.46,0.5-0.6c0.17-0.14,0.32-0.21,0.44-0.2
		c0.11,0.01,0.19,0.06,0.22,0.15c0.01,0.06,0.02,0.11,0.01,0.14c-0.01,0.04-0.03,0.09-0.06,0.15c-0.01,0.01-0.03,0.02-0.06,0.02
		c-0.03,0-0.05,0-0.06,0c-0.06-0.03-0.08-0.06-0.08-0.08c-0.01-0.03-0.01-0.08-0.01-0.13v-0.01c-0.26,0.14-0.55,0.51-0.85,1.08
		c-0.09,0.18-0.11,0.3-0.08,0.36c0.03,0.03,0.07,0.03,0.13-0.01c0.09-0.04,0.21-0.13,0.37-0.29c0.13-0.13,0.25-0.26,0.38-0.4
		c0.08-0.09,0.18-0.2,0.3-0.35c0.02-0.03,0.06-0.06,0.09-0.09c0.03-0.03,0.07-0.07,0.11-0.11c0.04-0.04,0.07-0.07,0.1-0.1
		c0.06-0.1,0.13-0.16,0.21-0.19c0.08-0.01,0.13,0,0.18,0.04c0.06,0.04,0.08,0.09,0.04,0.13c-0.02,0.02-0.05,0.05-0.08,0.08
		c-0.04,0.03-0.07,0.06-0.08,0.08c-0.02,0.04-0.05,0.09-0.08,0.15c-0.01,0.03-0.03,0.06-0.06,0.11c-0.03,0.05-0.05,0.08-0.07,0.11
		c-0.25,0.41-0.42,0.71-0.51,0.91c-0.07,0.13-0.16,0.32-0.28,0.57c-0.12,0.24-0.2,0.41-0.24,0.5c0.62-0.15,1.2-0.28,1.74-0.39
		c0.62-0.11,1.16-0.2,1.65-0.27c0.55-0.06,1.1-0.11,1.66-0.14C75.92,24.69,76.55,24.71,77.13,24.78z M68.16,26.91
		c-0.22,0.37-0.25,0.6-0.09,0.7c0.14,0.09,0.31,0.04,0.53-0.14c0.08-0.06,0.15-0.14,0.22-0.23c0.2-0.27,0.39-0.55,0.56-0.84
		c0.03-0.06,0.08-0.14,0.14-0.24c0.06-0.11,0.11-0.19,0.14-0.24c-0.22,0.06-0.42,0.13-0.59,0.23
		C68.65,26.35,68.36,26.61,68.16,26.91z"/>
	<path class="st1" d="M75.05,23.09c0.03,0.01,0.06,0.03,0.08,0.06c0.02,0.03,0.02,0.05,0,0.07c-0.41,0.36-0.73,0.62-0.94,0.75
		c-0.21,0.13-0.33,0.21-0.36,0.23c-0.31,0.17-0.52,0.27-0.65,0.29c-0.32,0.04-0.53-0.03-0.64-0.21c-0.06-0.09-0.07-0.23-0.02-0.4
		c-0.06,0.07-0.15,0.16-0.28,0.28c-0.02,0.02-0.06,0.06-0.12,0.13c-0.06,0.07-0.11,0.11-0.15,0.14c-0.07,0.06-0.16,0.11-0.26,0.15
		c-0.13,0.06-0.25,0.04-0.37-0.04c-0.08-0.06-0.12-0.16-0.12-0.28c0.01-0.16,0.1-0.36,0.28-0.6c0.16-0.2,0.34-0.37,0.52-0.5
		c0.13-0.09,0.3-0.18,0.5-0.24c0.09-0.03,0.17-0.03,0.24-0.03c0.14,0.05,0.2,0.12,0.16,0.2c-0.03,0.06-0.08,0.08-0.16,0.04
		c-0.03-0.02-0.07-0.02-0.13,0c-0.14,0.06-0.28,0.14-0.42,0.24c-0.16,0.14-0.29,0.26-0.37,0.36c-0.16,0.18-0.25,0.33-0.29,0.45
		c-0.04,0.09-0.04,0.17-0.02,0.24c0.01,0,0.02,0,0.03-0.01c0.18-0.09,0.36-0.25,0.54-0.45l0.55-0.58l0.29-0.26l0.01-0.01
		c0.02-0.02,0.05-0.06,0.1-0.12s0.08-0.1,0.1-0.13c0.03-0.04,0.09-0.04,0.16-0.02s0.12,0.06,0.12,0.11v0.01
		c0,0.02-0.02,0.07-0.08,0.14s-0.11,0.14-0.17,0.21c-0.07,0.08-0.11,0.13-0.13,0.15l-0.08,0.14c-0.07,0.14-0.12,0.26-0.14,0.34
		c-0.04,0.13-0.04,0.23,0.02,0.3c0.06,0.07,0.14,0.08,0.25,0.05c0.09-0.03,0.28-0.12,0.55-0.25c0.28-0.14,0.69-0.46,1.23-0.94
		C74.92,23.05,74.99,23.05,75.05,23.09z"/>
	<path class="st1" d="M85.49,19.75c0.09,0.36-0.05,0.77-0.4,1.21c-0.24,0.31-0.53,0.59-0.88,0.84c-0.23,0.17-0.57,0.37-1.03,0.6
		c-0.37,0.19-0.8,0.38-1.28,0.58c-0.4,0.17-0.84,0.33-1.31,0.49c-0.23,0.08-0.44,0.14-0.61,0.19c-0.14,0.05-0.24,0.08-0.28,0.08
		l-0.14,0.03l-0.07,0.02c-0.06,0.09-0.11,0.16-0.14,0.21c-0.33,0.49-0.65,0.99-0.96,1.5c-0.17,0.26-0.32,0.51-0.44,0.75l-0.2,0.4
		c-0.03,0.08-0.06,0.14-0.08,0.21c-0.03,0.08-0.04,0.13-0.05,0.18c0,0.04-0.02,0.07-0.07,0.09c-0.05,0.02-0.1,0.01-0.15-0.01
		c-0.05-0.02-0.08-0.05-0.09-0.09v-0.01L77.31,27v-0.02c-0.01-0.04,0-0.09,0.01-0.15c0.01-0.05,0.02-0.1,0.04-0.13
		c0.01-0.03,0.04-0.08,0.07-0.14c0.03-0.06,0.05-0.1,0.06-0.12l0.33-0.73c0.14-0.29,0.26-0.55,0.36-0.78
		c0.26-0.61,0.4-1.13,0.42-1.54c0.02-0.23,0.01-0.46-0.03-0.69s-0.1-0.42-0.18-0.59c-0.05-0.13-0.14-0.25-0.26-0.36
		s-0.23-0.17-0.33-0.17h-0.02c-0.09,0-0.15-0.02-0.2-0.08c-0.04-0.05-0.03-0.09,0.01-0.13c0.75-0.58,1.54-1.05,2.34-1.43
		c1.07-0.51,2.1-0.82,3.09-0.92c0.58-0.07,1.07-0.07,1.45,0.01C85.06,19.13,85.4,19.38,85.49,19.75z M84.81,20.79
		c0.25-0.32,0.38-0.61,0.38-0.86c0-0.19-0.06-0.34-0.17-0.46c-0.11-0.12-0.25-0.19-0.42-0.23c-0.17-0.03-0.34-0.06-0.53-0.08
		c-0.19-0.02-0.35-0.01-0.48,0c-0.98,0.06-1.99,0.31-3.03,0.75c-0.86,0.36-1.7,0.85-2.53,1.46c0.13,0.05,0.23,0.12,0.32,0.2
		c0.28,0.26,0.46,0.63,0.54,1.11c0.08,0.48,0.05,0.97-0.08,1.47c-0.01,0.02-0.01,0.05-0.02,0.08c-0.01,0.03-0.02,0.06-0.02,0.08
		c0.06-0.09,0.12-0.18,0.18-0.28c0.07-0.1,0.14-0.21,0.22-0.32c0.08-0.12,0.14-0.21,0.19-0.27c0.21-0.31,0.52-0.74,0.93-1.3
		c0.41-0.56,0.69-0.96,0.86-1.19c0.03-0.03,0.07-0.04,0.13-0.04s0.1,0.03,0.14,0.07s0.04,0.08,0.02,0.11l-0.1,0.15
		c-0.18,0.25-0.44,0.62-0.81,1.12c-0.36,0.49-0.63,0.87-0.81,1.12l0.4-0.11c0.28-0.09,0.6-0.2,0.94-0.33c1-0.37,1.82-0.74,2.46-1.12
		c0.28-0.18,0.43-0.28,0.47-0.31c0.17-0.13,0.27-0.2,0.29-0.23l0.1-0.09C84.54,21.12,84.69,20.96,84.81,20.79z"/>
	<path class="st1" d="M86.72,23.09c0.03,0.01,0.06,0.03,0.08,0.06c0.02,0.03,0.02,0.05,0,0.07c-0.41,0.36-0.73,0.62-0.94,0.75
		c-0.21,0.13-0.33,0.21-0.36,0.23c-0.31,0.17-0.52,0.27-0.65,0.29c-0.32,0.04-0.53-0.03-0.64-0.21c-0.06-0.09-0.07-0.23-0.02-0.4
		c-0.06,0.07-0.15,0.16-0.28,0.28c-0.02,0.02-0.06,0.06-0.12,0.13c-0.06,0.07-0.11,0.11-0.15,0.14c-0.07,0.06-0.16,0.11-0.26,0.15
		c-0.13,0.06-0.25,0.04-0.37-0.04c-0.08-0.06-0.12-0.16-0.12-0.28c0.01-0.16,0.1-0.36,0.28-0.6c0.16-0.2,0.34-0.37,0.52-0.5
		c0.13-0.09,0.3-0.18,0.5-0.24c0.09-0.03,0.17-0.03,0.24-0.03c0.14,0.05,0.2,0.12,0.16,0.2c-0.03,0.06-0.08,0.08-0.16,0.04
		c-0.03-0.02-0.07-0.02-0.13,0c-0.14,0.06-0.28,0.14-0.42,0.24c-0.16,0.14-0.29,0.26-0.37,0.36c-0.16,0.18-0.25,0.33-0.29,0.45
		c-0.04,0.09-0.04,0.17-0.02,0.24c0.01,0,0.02,0,0.03-0.01c0.18-0.09,0.36-0.25,0.54-0.45l0.55-0.58l0.29-0.26l0.01-0.01
		c0.02-0.02,0.05-0.06,0.1-0.12s0.08-0.1,0.1-0.13c0.03-0.04,0.09-0.04,0.16-0.02s0.12,0.06,0.12,0.11v0.01
		c0,0.02-0.02,0.07-0.08,0.14s-0.11,0.14-0.17,0.21c-0.07,0.08-0.11,0.13-0.13,0.15l-0.08,0.14c-0.07,0.14-0.12,0.26-0.14,0.34
		c-0.04,0.13-0.04,0.23,0.02,0.3c0.06,0.07,0.14,0.08,0.25,0.05c0.09-0.03,0.28-0.12,0.55-0.25c0.28-0.14,0.69-0.46,1.23-0.94
		C86.59,23.05,86.65,23.05,86.72,23.09z"/>
	<path class="st1" d="M88.99,23.09c0.04,0.03,0.04,0.07,0.02,0.11c-0.02,0.03-0.09,0.09-0.21,0.2c-0.01,0.01-0.03,0.03-0.08,0.08
		c-0.05,0.04-0.09,0.08-0.12,0.1c-0.04,0.03-0.1,0.08-0.17,0.14c-0.08,0.06-0.15,0.11-0.2,0.16c-0.24,0.17-0.48,0.32-0.72,0.45
		c-0.35,0.19-0.66,0.3-0.93,0.34c-0.1,0.01-0.18,0.02-0.24,0.02l-0.03,0.08c-0.03,0.14-0.14,0.18-0.33,0.1
		c-0.06-0.03-0.11-0.08-0.17-0.15c-0.07-0.08-0.15-0.16-0.25-0.24s-0.16-0.15-0.2-0.2s-0.07-0.09-0.08-0.14
		c-0.01-0.01-0.01-0.02-0.01-0.04c0-0.01,0-0.02,0.01-0.04c0.01-0.01,0.02-0.02,0.04-0.03c0.02-0.01,0.04-0.01,0.05-0.01
		s0.03,0,0.04,0c0.01,0,0.02,0,0.03,0.01c0.01,0.01,0.02,0.01,0.03,0.02c0.01,0.01,0.02,0.01,0.03,0.02s0.02,0.02,0.03,0.03
		s0.02,0.02,0.03,0.03c0.01,0.01,0.02,0.02,0.03,0.03c0.16,0.16,0.31,0.25,0.47,0.29c0.14-0.51,0.24-0.86,0.32-1.04
		c0.18-0.4,0.43-0.66,0.74-0.76c0.11-0.03,0.19,0.01,0.24,0.09c0,0.02,0,0.03,0,0.04c0,0.01-0.01,0.02-0.03,0.04
		c-0.02,0.02-0.05,0.03-0.06,0.04c-0.02,0.01-0.04,0.02-0.08,0.05c-0.04,0.02-0.08,0.04-0.11,0.06c-0.12,0.08-0.23,0.23-0.34,0.43
		l-0.03,0.06l-0.06,0.12l-0.09,0.26c-0.03,0.08-0.09,0.28-0.18,0.6c0.09,0,0.27-0.04,0.53-0.12c0.11-0.04,0.19-0.07,0.25-0.09
		c0.11-0.06,0.25-0.14,0.42-0.25c0.12-0.08,0.3-0.2,0.55-0.39l0.31-0.25c0.03-0.02,0.09-0.07,0.17-0.15
		c0.08-0.07,0.14-0.12,0.19-0.16C88.86,23.03,88.93,23.04,88.99,23.09z"/>
	<path class="st1" d="M91.67,23.03c0.07,0.05,0.08,0.09,0.04,0.13c-0.06,0.05-0.12,0.1-0.2,0.16s-0.17,0.12-0.26,0.18
		c-0.09,0.07-0.17,0.12-0.22,0.16c-0.16,0.12-0.4,0.27-0.7,0.45c-0.42,0.26-0.77,0.44-1.05,0.56c-0.36,0.14-0.63,0.16-0.81,0.07
		c-0.12-0.06-0.18-0.15-0.19-0.27c-0.01-0.09,0.02-0.23,0.09-0.42c0.11-0.31,0.29-0.7,0.56-1.19c0.13-0.25,0.28-0.52,0.45-0.8h-0.18
		c-0.72,0-1.26,0-1.62,0.01c-0.17,0-0.43,0-0.77,0c-0.35,0-0.61,0-0.78,0c-0.13,0-0.32,0-0.58,0c-0.26,0-0.46,0-0.59,0h-0.29h-0.04
		c-0.18,0.01-0.29-0.03-0.31-0.12c-0.01-0.02,0.01-0.04,0.04-0.08c0.01-0.01,0.04-0.02,0.08-0.02h-0.02h0.01h0.03
		c0.2-0.01,0.51-0.01,0.91-0.01c0.21,0,0.96-0.01,2.26-0.02h1.61c0.16,0,0.29,0,0.37-0.01c0.01-0.02,0.03-0.05,0.06-0.09
		c0.03-0.04,0.04-0.07,0.05-0.08c0.01-0.03,0.04-0.08,0.08-0.14l0.06-0.1c0.04-0.07,0.1-0.17,0.19-0.31l0.23-0.34l0.13-0.17
		l0.07-0.08c0.02-0.03,0.06-0.05,0.11-0.06c0.07,0,0.12,0.02,0.14,0.06c0.02,0.03,0.03,0.06,0.01,0.1
		c-0.04,0.05-0.19,0.27-0.44,0.66c-0.01,0.02-0.03,0.05-0.06,0.08s-0.04,0.06-0.05,0.08l-0.06,0.11c-0.05,0.1-0.1,0.19-0.15,0.26
		l-0.01,0.02c0.06,0,0.16,0,0.3,0c0.14,0,0.24,0,0.31,0c0.39,0,0.64,0.01,0.74,0.02c0.08,0.01,0.14,0.05,0.16,0.1
		c0.02,0.06,0,0.1-0.07,0.11c-0.05,0.01-0.13,0.02-0.24,0.05s-0.19,0.05-0.24,0.06c-0.09,0.01-0.16-0.01-0.21-0.07
		c-0.02-0.02-0.03-0.04-0.03-0.07h-0.06h-0.81c-0.06,0.1-0.14,0.26-0.26,0.47s-0.21,0.37-0.26,0.48c-0.28,0.55-0.46,0.95-0.55,1.19
		c-0.04,0.11-0.06,0.2-0.07,0.27v0.01c0,0.08,0.03,0.11,0.09,0.11c0.06,0,0.12-0.01,0.17-0.04c0.14-0.04,0.28-0.1,0.41-0.16
		c0.72-0.35,1.44-0.8,2.17-1.38C91.51,22.95,91.58,22.96,91.67,23.03z"/>
	<path class="st1" d="M93.65,22.94c0.06-0.04,0.12-0.02,0.2,0.04c0.04,0.04,0.04,0.08,0,0.11c-0.13,0.11-0.32,0.21-0.58,0.32
		c-0.24,0.1-0.46,0.17-0.65,0.21c-0.02,0-0.07,0.01-0.14,0.02c-0.08,0.01-0.14,0.02-0.18,0.03c-0.06,0.09-0.11,0.15-0.15,0.2
		c-0.09,0.13-0.19,0.24-0.29,0.35c-0.16,0.17-0.3,0.28-0.43,0.33c-0.21,0.08-0.38,0.08-0.51,0.01c-0.08-0.05-0.13-0.12-0.15-0.21
		c-0.02-0.06-0.02-0.14,0.01-0.24c0.05-0.2,0.16-0.42,0.33-0.67c0.18-0.23,0.37-0.41,0.57-0.53c0.06-0.03,0.13-0.02,0.19,0.03
		c0.04,0.03,0.05,0.07,0.04,0.1s-0.04,0.06-0.08,0.06c-0.15,0.13-0.3,0.28-0.43,0.45c-0.16,0.21-0.26,0.4-0.31,0.58
		c-0.02,0.11-0.02,0.18,0,0.21c0.02,0.03,0.07,0.03,0.17,0c0.1-0.05,0.23-0.15,0.38-0.3c0.18-0.21,0.28-0.34,0.31-0.38
		c0.01-0.01,0.02-0.03,0.04-0.05c0.02-0.02,0.03-0.03,0.04-0.05l-0.03-0.03c-0.05-0.06-0.08-0.13-0.08-0.24
		c0-0.09,0.01-0.15,0.03-0.19c0.03-0.09,0.09-0.17,0.17-0.22c0.14-0.08,0.26-0.05,0.35,0.08c0.08,0.1,0.08,0.24,0,0.42v0.01h0.02
		c0.18-0.04,0.4-0.11,0.66-0.21l0.28-0.13C93.55,23,93.63,22.95,93.65,22.94z"/>
	<path class="st1" d="M93.62,22.98c0.08-0.03,0.15-0.02,0.21,0.04c0.04,0.04-0.02,0.21-0.21,0.5c0.35-0.24,0.62-0.41,0.82-0.52
		l0.06-0.03l0.08-0.04c0.15-0.06,0.29-0.1,0.4-0.12c0.01,0,0.03,0,0.08-0.01c0.08,0,0.13,0,0.14,0.01c0.14,0.03,0.19,0.1,0.17,0.2
		c-0.03,0.06-0.12,0.07-0.25,0.02c-0.06,0-0.15,0.02-0.26,0.07c-0.1,0.04-0.19,0.09-0.28,0.14l-0.09,0.05l-0.18,0.1l-0.1,0.07
		l-0.23,0.13l-0.17,0.13l-0.24,0.23l-0.22,0.2l-0.22,0.25c-0.03,0.06-0.08,0.13-0.13,0.21c-0.01,0.02-0.02,0.04-0.03,0.05
		c-0.01,0.02-0.07,0.02-0.17,0c-0.02-0.01-0.05-0.03-0.07-0.07c-0.02-0.03-0.02-0.06-0.02-0.08l0.11-0.17
		c0.15-0.23,0.24-0.38,0.28-0.45l0.06-0.11l0.2-0.36C93.45,23.18,93.54,23.04,93.62,22.98z"/>
</g>
</svg>
