<?xml version="1.0" encoding="utf-8"?>
<!-- Generator: Adobe Illustrator 23.0.4, SVG Export Plug-In . SVG Version: 6.00 Build 0)  -->
<svg version="1.1" id="Capa_1" xmlns="http://www.w3.org/2000/svg" xmlns:xlink="http://www.w3.org/1999/xlink" x="0px" y="0px"
	 viewBox="0 0 1041.4 502.6" style="enable-background:new 0 0 1041.4 502.6;" xml:space="preserve">
<style type="text/css">
	.st0{fill:#6E02D7;stroke:#FFFFFF;stroke-width:0.7;stroke-miterlimit:10;}
	.st1{fill:#7C0CC1;stroke:#FFFFFF;stroke-width:0.7;stroke-miterlimit:10;}
	.st2{fill:none;stroke:#FFFFFF;stroke-width:1.05;stroke-miterlimit:10;}
	.st3{fill:#972096;stroke:#FFFFFF;stroke-width:0.7;stroke-miterlimit:10;}
	.st4{fill:#8916AC;stroke:#FFFFFF;stroke-width:0.7;stroke-miterlimit:10;}
	.st5{fill:#EA5B13;stroke:#FFFFFF;stroke-width:1.05;stroke-miterlimit:10;}
	.st6{fill:none;stroke:#FFFFFF;stroke-width:3.52;stroke-miterlimit:10;}
	.st7{fill:#EA5B13;}
	.st8{enable-background:new    ;}
	.st9{fill:#7C0CC1;}
	.st10{fill:#FFFFFF;}
	.st11{fill:#8916AC;}
	.st12{fill:#972096;}
	.st13{fill:#6E02D7;}
</style>
<title>Recurso 4</title>
<g>
	<g id="Capa_1-2">
		<polygon class="st0" points="1024.6,468.1 786.1,468.2 786.1,201.7 1024.6,21.8 		"/>
		<polygon class="st1" points="710.2,286.5 710.2,468.2 629.9,468.2 629.9,304.7 		"/>
		<line class="st2" x1="371.8" y1="371" x2="371.8" y2="371"/>
		<line class="st2" x1="629.9" y1="304.7" x2="629.9" y2="304.7"/>
		<polygon class="st3" points="90.2,413.9 90.2,468 24.6,468 24.6,424 		"/>
		<polygon class="st3" points="161.9,396.6 161.9,468 90.2,468 90.2,413.9 102.2,412.1 		"/>
		<polygon class="st3" points="237.3,377 237.3,468.1 161.9,468 161.9,396.6 		"/>
		<polygon class="st4" points="306.4,372.5 306.4,468.1 237.3,468.1 237.3,377 249.9,373.8 		"/>
		<polygon class="st4" points="371.8,371 371.8,468.1 306.4,468.1 306.4,372.5 		"/>
		<polygon class="st4" points="439.9,369.4 439.9,468.1 371.8,468.1 371.8,371 		"/>
		<polygon class="st4" points="529,348.7 529,468.2 439.9,468.1 439.9,369.4 476.8,368.6 		"/>
		<polygon class="st4" points="629.9,304.7 629.9,468.2 529,468.2 529,348.7 552.3,339.9 626.9,305.4 		"/>
		<polyline class="st5" points="629.9,304.7 629.9,304.7 710.2,286.5 		"/>
		<polygon class="st1" points="786.1,201.7 786.1,468.2 710.2,468.2 710.2,286.5 		"/>
		<polyline class="st6" points="24.6,424 102.2,412.1 249.9,373.8 476.8,368.6 552.3,339.9 626.9,305.4 710.2,286.5 786.1,201.7 
			1024.6,21.8 		"/>
		<path class="st7" d="M920.7,0h64c9.9,0,18,8.1,18,18l0,0c0,9.9-8.1,18-18,18h-64c-9.9,0-18-8.1-18-18l0,0
			C902.7,8.1,910.8,0,920.7,0z"/>
		<g class="st8">
			<path class="st9" d="M687.7,248.5c-0.7-0.2-1.3-0.5-1.7-0.8l0.8-1.7c0.4,0.3,0.9,0.6,1.5,0.7s1.2,0.3,1.7,0.3
				c0.6,0,1.1-0.1,1.4-0.3c0.3-0.2,0.5-0.4,0.5-0.8c0-0.2-0.1-0.4-0.3-0.6c-0.2-0.2-0.4-0.3-0.7-0.4c-0.3-0.1-0.7-0.2-1.2-0.3
				c-0.7-0.2-1.4-0.4-1.8-0.5c-0.5-0.2-0.9-0.5-1.2-0.9c-0.3-0.4-0.5-0.9-0.5-1.6c0-0.6,0.2-1.1,0.5-1.5c0.3-0.5,0.8-0.8,1.4-1.1
				c0.6-0.3,1.4-0.4,2.3-0.4c0.6,0,1.2,0.1,1.8,0.2c0.6,0.1,1.1,0.4,1.6,0.6l-0.7,1.7c-0.9-0.5-1.8-0.8-2.7-0.8
				c-0.6,0-1.1,0.1-1.4,0.3c-0.3,0.2-0.5,0.5-0.5,0.8s0.2,0.6,0.5,0.7c0.3,0.2,0.9,0.3,1.6,0.5c0.7,0.2,1.4,0.4,1.8,0.5
				c0.5,0.2,0.9,0.5,1.2,0.8s0.5,0.9,0.5,1.6c0,0.6-0.2,1.1-0.5,1.5s-0.8,0.8-1.4,1.1s-1.4,0.4-2.3,0.4
				C689.2,248.8,688.5,248.7,687.7,248.5z"/>
			<path class="st9" d="M698.7,236.9h1.9l-4.6,13.2h-1.9L698.7,236.9z"/>
		</g>
		<g class="st8">
			<path class="st9" d="M706.6,248.2c-0.6-0.4-1.1-1-1.5-1.7s-0.5-1.7-0.5-2.7c0-1.1,0.2-2,0.5-2.7s0.9-1.3,1.5-1.7
				c0.6-0.4,1.4-0.6,2.2-0.6c0.8,0,1.5,0.2,2.2,0.6s1.1,1,1.5,1.7s0.5,1.7,0.5,2.7c0,1.1-0.2,2-0.5,2.7s-0.9,1.3-1.5,1.7
				s-1.4,0.6-2.2,0.6C707.9,248.8,707.2,248.6,706.6,248.2z M710.1,246.2c0.3-0.5,0.5-1.3,0.5-2.4c0-1.1-0.2-1.9-0.5-2.4
				c-0.3-0.5-0.8-0.8-1.4-0.8c-0.6,0-1.1,0.3-1.4,0.8c-0.3,0.5-0.5,1.3-0.5,2.4c0,1.1,0.2,1.9,0.5,2.4c0.3,0.5,0.8,0.8,1.4,0.8
				C709.3,246.9,709.8,246.7,710.1,246.2z"/>
		</g>
		<g class="st8">
			<path class="st9" d="M714.2,248.4c-0.3-0.3-0.4-0.6-0.4-1c0-0.4,0.1-0.7,0.4-1c0.3-0.2,0.6-0.4,1-0.4s0.7,0.1,1,0.4
				c0.3,0.2,0.4,0.6,0.4,1c0,0.4-0.1,0.7-0.4,1c-0.3,0.3-0.6,0.4-1,0.4S714.4,248.7,714.2,248.4z"/>
		</g>
		<g class="st8">
			<path class="st9" d="M725.5,244.5c0.3,0.4,0.4,0.8,0.4,1.4c0,0.6-0.2,1.1-0.5,1.6c-0.3,0.5-0.8,0.8-1.5,1
				c-0.6,0.2-1.3,0.4-2.2,0.4s-1.5-0.1-2.2-0.4c-0.6-0.2-1.1-0.6-1.4-1s-0.5-1-0.5-1.6c0-0.5,0.1-1,0.4-1.4c0.3-0.4,0.6-0.7,1.1-1
				c-0.4-0.2-0.6-0.5-0.8-0.8s-0.3-0.7-0.3-1.2c0-0.6,0.2-1.1,0.5-1.5s0.8-0.7,1.3-1s1.2-0.3,2-0.3c0.7,0,1.4,0.1,2,0.3s1,0.6,1.3,1
				s0.5,0.9,0.5,1.5c0,0.4-0.1,0.8-0.3,1.2c-0.2,0.3-0.5,0.6-0.9,0.8C724.8,243.8,725.2,244.1,725.5,244.5z M723.1,246.8
				c0.3-0.3,0.5-0.6,0.5-1c0-0.4-0.2-0.8-0.5-1c-0.3-0.3-0.8-0.4-1.4-0.4c-0.6,0-1,0.1-1.3,0.4c-0.3,0.3-0.5,0.6-0.5,1
				c0,0.4,0.2,0.8,0.5,1c0.3,0.3,0.8,0.4,1.3,0.4C722.3,247.2,722.7,247,723.1,246.8z M720.6,240.7c-0.3,0.2-0.4,0.5-0.4,0.9
				c0,0.4,0.1,0.7,0.4,0.9c0.3,0.2,0.6,0.3,1.1,0.3s0.8-0.1,1.1-0.3c0.3-0.2,0.4-0.5,0.4-0.9c0-0.4-0.1-0.7-0.4-0.9
				c-0.3-0.2-0.7-0.3-1.1-0.3C721.3,240.4,720.9,240.5,720.6,240.7z"/>
			<path class="st9" d="M734.2,246.8v1.8h-7.4v-1.5l3.8-3.6c0.4-0.4,0.7-0.7,0.8-1c0.1-0.3,0.2-0.5,0.2-0.8c0-0.4-0.1-0.7-0.4-0.9
				s-0.7-0.3-1.2-0.3c-0.4,0-0.8,0.1-1.2,0.2c-0.3,0.2-0.6,0.4-0.9,0.7l-1.7-1.1c0.4-0.6,0.9-1,1.6-1.3c0.7-0.3,1.4-0.5,2.3-0.5
				c0.7,0,1.4,0.1,1.9,0.4c0.5,0.2,1,0.6,1.3,1c0.3,0.4,0.5,0.9,0.5,1.5c0,0.5-0.1,1-0.3,1.5c-0.2,0.5-0.7,1-1.3,1.6l-2.3,2.1H734.2
				z"/>
		</g>
		<g class="st8">
			<path class="st9" d="M767.5,176.8c-0.7-0.2-1.3-0.5-1.7-0.8l0.8-1.7c0.4,0.3,0.9,0.6,1.5,0.7s1.2,0.3,1.7,0.3
				c0.6,0,1.1-0.1,1.4-0.3c0.3-0.2,0.5-0.4,0.5-0.8c0-0.2-0.1-0.4-0.3-0.6c-0.2-0.2-0.4-0.3-0.7-0.4c-0.3-0.1-0.7-0.2-1.2-0.3
				c-0.7-0.2-1.4-0.4-1.8-0.5c-0.5-0.2-0.9-0.5-1.2-0.9c-0.3-0.4-0.5-0.9-0.5-1.6c0-0.6,0.2-1.1,0.5-1.5c0.3-0.5,0.8-0.8,1.4-1.1
				c0.6-0.3,1.4-0.4,2.3-0.4c0.6,0,1.2,0.1,1.8,0.2c0.6,0.1,1.1,0.4,1.6,0.6l-0.7,1.7c-0.9-0.5-1.8-0.8-2.7-0.8
				c-0.6,0-1.1,0.1-1.4,0.3c-0.3,0.2-0.5,0.5-0.5,0.8s0.2,0.6,0.5,0.7c0.3,0.2,0.9,0.3,1.6,0.5c0.7,0.2,1.4,0.4,1.8,0.5
				c0.5,0.2,0.9,0.5,1.2,0.8s0.5,0.9,0.5,1.6c0,0.6-0.2,1.1-0.5,1.5s-0.8,0.8-1.4,1.1s-1.4,0.4-2.3,0.4
				C769,177.2,768.2,177.1,767.5,176.8z"/>
			<path class="st9" d="M778.5,165.2h1.9l-4.6,13.2h-1.9L778.5,165.2z"/>
			<path class="st9" d="M788.1,167.2v9.8h-2.3v-8h-2v-1.8H788.1z"/>
		</g>
		<g class="st8">
			<path class="st9" d="M790.1,176.7c-0.3-0.3-0.4-0.6-0.4-1c0-0.4,0.1-0.7,0.4-1c0.3-0.2,0.6-0.4,1-0.4s0.7,0.1,1,0.4
				c0.3,0.2,0.4,0.6,0.4,1c0,0.4-0.1,0.7-0.4,1c-0.3,0.3-0.6,0.4-1,0.4S790.4,177,790.1,176.7z"/>
		</g>
		<g class="st8">
			<path class="st9" d="M800.9,175.1v1.8h-7.4v-1.5l3.8-3.6c0.4-0.4,0.7-0.7,0.8-1c0.1-0.3,0.2-0.5,0.2-0.8c0-0.4-0.1-0.7-0.4-0.9
				s-0.7-0.3-1.2-0.3c-0.4,0-0.8,0.1-1.2,0.2c-0.3,0.2-0.6,0.4-0.9,0.7l-1.7-1.1c0.4-0.6,0.9-1,1.6-1.3c0.7-0.3,1.4-0.5,2.3-0.5
				c0.7,0,1.4,0.1,1.9,0.4c0.5,0.2,1,0.6,1.3,1c0.3,0.4,0.5,0.9,0.5,1.5c0,0.5-0.1,1-0.3,1.5c-0.2,0.5-0.7,1-1.3,1.6l-2.3,2.1H800.9
				z"/>
			<path class="st9" d="M805.6,167.2v9.8h-2.3v-8h-2v-1.8H805.6z"/>
		</g>
		<g class="st8">
			<path class="st10" d="M920,25.4c-1-0.3-1.9-0.7-2.5-1.2l1.1-2.4c0.6,0.4,1.3,0.8,2.1,1.1c0.8,0.3,1.7,0.4,2.5,0.4
				c0.9,0,1.6-0.1,2-0.4s0.7-0.6,0.7-1.1c0-0.3-0.1-0.6-0.4-0.8c-0.3-0.2-0.6-0.4-1-0.5c-0.4-0.1-1-0.3-1.7-0.4
				c-1.1-0.3-1.9-0.5-2.6-0.8c-0.7-0.3-1.3-0.7-1.8-1.2c-0.5-0.6-0.7-1.3-0.7-2.2c0-0.8,0.2-1.5,0.7-2.2c0.4-0.7,1.1-1.2,2-1.6
				c0.9-0.4,2-0.6,3.2-0.6c0.9,0,1.8,0.1,2.6,0.3s1.6,0.5,2.2,0.9l-1,2.5c-1.3-0.7-2.6-1.1-3.9-1.1c-0.9,0-1.6,0.1-2,0.4
				c-0.4,0.3-0.6,0.7-0.6,1.2c0,0.5,0.2,0.8,0.8,1.1s1.3,0.5,2.3,0.7c1.1,0.3,1.9,0.5,2.6,0.8c0.7,0.3,1.3,0.7,1.8,1.2
				c0.5,0.5,0.7,1.3,0.7,2.2c0,0.8-0.2,1.5-0.7,2.2s-1.1,1.2-2,1.6c-0.9,0.4-2,0.6-3.3,0.6C922.1,25.8,921.1,25.7,920,25.4z"/>
			<path class="st10" d="M935.7,8.8h2.8l-6.6,18.8h-2.8L935.7,8.8z"/>
		</g>
		<g class="st8">
			<path class="st10" d="M954.5,23v2.6h-10.6v-2.1l5.4-5.1c0.6-0.5,1-1,1.2-1.4c0.2-0.4,0.3-0.8,0.3-1.2c0-0.6-0.2-1-0.6-1.3
				c-0.4-0.3-0.9-0.4-1.7-0.4c-0.6,0-1.2,0.1-1.7,0.3c-0.5,0.2-0.9,0.6-1.2,1l-2.4-1.5c0.5-0.8,1.3-1.5,2.3-1.9
				c1-0.5,2.1-0.7,3.3-0.7c1,0,1.9,0.2,2.7,0.5c0.8,0.3,1.4,0.8,1.8,1.4c0.4,0.6,0.6,1.3,0.6,2.2c0,0.8-0.2,1.5-0.5,2.1
				s-0.9,1.4-1.9,2.3l-3.2,3H954.5z"/>
		</g>
		<g class="st8">
			<path class="st10" d="M956.5,25.2c-0.4-0.4-0.6-0.8-0.6-1.4c0-0.6,0.2-1,0.6-1.4c0.4-0.4,0.8-0.5,1.4-0.5c0.5,0,1,0.2,1.4,0.5
				c0.4,0.4,0.6,0.8,0.6,1.4c0,0.6-0.2,1-0.6,1.4c-0.4,0.4-0.8,0.6-1.4,0.6C957.3,25.8,956.9,25.6,956.5,25.2z"/>
		</g>
		<g class="st8">
			<path class="st10" d="M966.3,11.6v14h-3.2V14.2h-2.8v-2.6H966.3z"/>
		</g>
		<g class="st8">
			<path class="st10" d="M979.7,11.6v2.1l-5.2,11.9H971l5-11.4h-4.6v2.3h-2.9v-4.9H979.7z"/>
		</g>
		<g class="st8">
			<path class="st10" d="M986.8,11.6v14h-3.2V14.2h-2.8v-2.6H986.8z"/>
		</g>
		<g class="st8">
			<path class="st11" d="M608.1,284.6c-0.7-0.2-1.3-0.5-1.7-0.8l0.8-1.7c0.4,0.3,0.9,0.6,1.5,0.7s1.2,0.3,1.7,0.3
				c0.6,0,1.1-0.1,1.4-0.3c0.3-0.2,0.5-0.4,0.5-0.8c0-0.2-0.1-0.4-0.3-0.6c-0.2-0.2-0.4-0.3-0.7-0.4c-0.3-0.1-0.7-0.2-1.2-0.3
				c-0.7-0.2-1.4-0.4-1.8-0.5c-0.5-0.2-0.9-0.5-1.2-0.9c-0.3-0.4-0.5-0.9-0.5-1.6c0-0.6,0.2-1.1,0.5-1.5c0.3-0.5,0.8-0.8,1.4-1.1
				c0.6-0.3,1.4-0.4,2.3-0.4c0.6,0,1.2,0.1,1.8,0.2c0.6,0.1,1.1,0.4,1.6,0.6l-0.7,1.7c-0.9-0.5-1.8-0.8-2.7-0.8
				c-0.6,0-1.1,0.1-1.4,0.3c-0.3,0.2-0.5,0.5-0.5,0.8s0.2,0.6,0.5,0.7c0.3,0.2,0.9,0.3,1.6,0.5c0.7,0.2,1.4,0.4,1.8,0.5
				c0.5,0.2,0.9,0.5,1.2,0.8s0.5,0.9,0.5,1.6c0,0.6-0.2,1.1-0.5,1.5s-0.8,0.8-1.4,1.1s-1.4,0.4-2.3,0.4
				C609.5,284.9,608.8,284.8,608.1,284.6z"/>
			<path class="st11" d="M619,272.9h1.9l-4.6,13.2h-1.9L619,272.9z"/>
		</g>
		<g class="st8">
			<path class="st11" d="M626.9,284.3c-0.6-0.4-1.1-1-1.5-1.7s-0.5-1.7-0.5-2.7c0-1.1,0.2-2,0.5-2.7s0.9-1.3,1.5-1.7
				s1.4-0.6,2.2-0.6c0.8,0,1.5,0.2,2.2,0.6s1.1,1,1.5,1.7s0.5,1.7,0.5,2.7c0,1.1-0.2,2-0.5,2.7s-0.9,1.3-1.5,1.7s-1.4,0.6-2.2,0.6
				C628.2,284.9,627.5,284.7,626.9,284.3z M630.5,282.2c0.3-0.5,0.5-1.3,0.5-2.4c0-1.1-0.2-1.9-0.5-2.4c-0.3-0.5-0.8-0.8-1.4-0.8
				c-0.6,0-1.1,0.3-1.4,0.8c-0.3,0.5-0.5,1.3-0.5,2.4c0,1.1,0.2,1.9,0.5,2.4c0.3,0.5,0.8,0.8,1.4,0.8
				C629.7,283,630.1,282.7,630.5,282.2z"/>
		</g>
		<g class="st8">
			<path class="st11" d="M634.5,284.5c-0.3-0.3-0.4-0.6-0.4-1c0-0.4,0.1-0.7,0.4-1c0.3-0.2,0.6-0.4,1-0.4s0.7,0.1,1,0.4
				c0.3,0.2,0.4,0.6,0.4,1c0,0.4-0.1,0.7-0.4,1c-0.3,0.3-0.6,0.4-1,0.4S634.8,284.7,634.5,284.5z"/>
		</g>
		<g class="st8">
			<path class="st11" d="M645.3,274.9v1.5l-3.6,8.3h-2.5l3.5-8h-3.2v1.6h-2v-3.4H645.3z"/>
		</g>
		<g class="st8">
			<path class="st11" d="M652.8,279.9c0.5,0.5,0.7,1.1,0.7,1.9c0,0.6-0.1,1.1-0.4,1.6s-0.8,0.9-1.4,1.2c-0.6,0.3-1.4,0.4-2.2,0.4
				c-0.7,0-1.4-0.1-2-0.3c-0.7-0.2-1.2-0.4-1.7-0.8l0.9-1.7c0.4,0.3,0.8,0.5,1.3,0.7c0.5,0.2,1,0.2,1.5,0.2c0.6,0,1-0.1,1.3-0.3
				c0.3-0.2,0.5-0.5,0.5-0.9c0-0.8-0.6-1.2-1.8-1.2h-1V279l2-2.3h-4.2v-1.8h6.9v1.5l-2.2,2.5C651.6,279.1,652.3,279.4,652.8,279.9z"
				/>
		</g>
		<g class="st8">
			<path class="st11" d="M506.6,327.4c-0.7-0.2-1.3-0.5-1.7-0.8l0.8-1.7c0.4,0.3,0.9,0.6,1.5,0.7c0.6,0.2,1.2,0.3,1.7,0.3
				c0.6,0,1.1-0.1,1.4-0.3c0.3-0.2,0.5-0.4,0.5-0.8c0-0.2-0.1-0.4-0.3-0.6c-0.2-0.2-0.4-0.3-0.7-0.4c-0.3-0.1-0.7-0.2-1.2-0.3
				c-0.7-0.2-1.4-0.4-1.8-0.5c-0.5-0.2-0.9-0.5-1.2-0.9c-0.3-0.4-0.5-0.9-0.5-1.6c0-0.6,0.2-1.1,0.5-1.5c0.3-0.5,0.8-0.8,1.4-1.1
				c0.6-0.3,1.4-0.4,2.3-0.4c0.6,0,1.2,0.1,1.8,0.2c0.6,0.1,1.1,0.4,1.6,0.6l-0.7,1.7c-0.9-0.5-1.8-0.8-2.7-0.8
				c-0.6,0-1.1,0.1-1.4,0.3s-0.5,0.5-0.5,0.8s0.2,0.6,0.5,0.7c0.3,0.2,0.9,0.3,1.6,0.5c0.7,0.2,1.4,0.4,1.8,0.5
				c0.5,0.2,0.9,0.5,1.2,0.8s0.5,0.9,0.5,1.6c0,0.6-0.2,1.1-0.5,1.5c-0.3,0.5-0.8,0.8-1.4,1.1c-0.6,0.3-1.4,0.4-2.3,0.4
				C508.1,327.7,507.4,327.6,506.6,327.4z"/>
			<path class="st11" d="M517.6,315.8h1.9l-4.6,13.2H513L517.6,315.8z"/>
		</g>
		<g class="st8">
			<path class="st11" d="M525.5,327.1c-0.6-0.4-1.1-1-1.5-1.7s-0.5-1.7-0.5-2.7c0-1.1,0.2-2,0.5-2.7s0.9-1.3,1.5-1.7
				s1.4-0.6,2.2-0.6c0.8,0,1.5,0.2,2.2,0.6s1.1,1,1.5,1.7s0.5,1.7,0.5,2.7c0,1.1-0.2,2-0.5,2.7s-0.9,1.3-1.5,1.7s-1.4,0.6-2.2,0.6
				C526.8,327.7,526.1,327.5,525.5,327.1z M529,325.1c0.3-0.5,0.5-1.3,0.5-2.4c0-1.1-0.2-1.9-0.5-2.4c-0.3-0.5-0.8-0.8-1.4-0.8
				c-0.6,0-1.1,0.3-1.4,0.8c-0.3,0.5-0.5,1.3-0.5,2.4c0,1.1,0.2,1.9,0.5,2.4c0.3,0.5,0.8,0.8,1.4,0.8
				C528.2,325.8,528.7,325.6,529,325.1z"/>
		</g>
		<g class="st8">
			<path class="st11" d="M533.1,327.3c-0.3-0.3-0.4-0.6-0.4-1c0-0.4,0.1-0.7,0.4-1c0.3-0.2,0.6-0.4,1-0.4s0.7,0.1,1,0.4
				c0.3,0.2,0.4,0.6,0.4,1c0,0.4-0.1,0.7-0.4,1c-0.3,0.3-0.6,0.4-1,0.4S533.3,327.6,533.1,327.3z"/>
			<path class="st11" d="M542.8,322.3c0.7,0.6,1,1.3,1,2.2c0,0.6-0.1,1.1-0.4,1.6s-0.8,0.9-1.4,1.2c-0.6,0.3-1.4,0.4-2.3,0.4
				c-0.7,0-1.4-0.1-2-0.3c-0.7-0.2-1.2-0.4-1.7-0.8l0.9-1.7c0.4,0.3,0.8,0.5,1.3,0.7c0.5,0.2,1,0.2,1.5,0.2c0.6,0,1-0.1,1.3-0.3
				c0.3-0.2,0.5-0.5,0.5-0.9c0-0.4-0.2-0.7-0.5-1c-0.3-0.2-0.9-0.3-1.8-0.3h-2.5l0.5-5.5h6v1.8h-4.1l-0.2,1.9h0.8
				C541.2,321.5,542.2,321.7,542.8,322.3z"/>
			<path class="st11" d="M552.6,323.4c0.3,0.4,0.4,0.8,0.4,1.4c0,0.6-0.2,1.1-0.5,1.6c-0.3,0.5-0.8,0.8-1.5,1
				c-0.6,0.2-1.3,0.4-2.2,0.4s-1.5-0.1-2.2-0.4c-0.6-0.2-1.1-0.6-1.4-1s-0.5-1-0.5-1.6c0-0.5,0.1-1,0.4-1.4c0.3-0.4,0.6-0.7,1.1-1
				c-0.4-0.2-0.6-0.5-0.8-0.8s-0.3-0.7-0.3-1.2c0-0.6,0.2-1.1,0.5-1.5s0.8-0.7,1.3-1s1.2-0.3,2-0.3c0.7,0,1.4,0.1,2,0.3s1,0.6,1.3,1
				s0.5,0.9,0.5,1.5c0,0.4-0.1,0.8-0.3,1.2c-0.2,0.3-0.5,0.6-0.9,0.8C551.9,322.7,552.3,323,552.6,323.4z M550.2,325.7
				c0.3-0.3,0.5-0.6,0.5-1c0-0.4-0.2-0.8-0.5-1c-0.3-0.3-0.8-0.4-1.4-0.4c-0.6,0-1,0.1-1.3,0.4c-0.3,0.3-0.5,0.6-0.5,1
				c0,0.4,0.2,0.8,0.5,1c0.3,0.3,0.8,0.4,1.3,0.4C549.4,326.1,549.8,326,550.2,325.7z M547.7,319.6c-0.3,0.2-0.4,0.5-0.4,0.9
				c0,0.4,0.1,0.7,0.4,0.9c0.3,0.2,0.6,0.3,1.1,0.3s0.8-0.1,1.1-0.3c0.3-0.2,0.4-0.5,0.4-0.9c0-0.4-0.1-0.7-0.4-0.9
				c-0.3-0.2-0.7-0.3-1.1-0.3C548.4,319.3,548,319.4,547.7,319.6z"/>
		</g>
		<g class="st8">
			<path class="st11" d="M348.5,352.3c-0.7-0.2-1.3-0.5-1.7-0.8l0.8-1.7c0.4,0.3,0.9,0.6,1.5,0.7c0.6,0.2,1.2,0.3,1.7,0.3
				c0.6,0,1.1-0.1,1.4-0.3c0.3-0.2,0.5-0.4,0.5-0.8c0-0.2-0.1-0.4-0.3-0.6c-0.2-0.2-0.4-0.3-0.7-0.4c-0.3-0.1-0.7-0.2-1.2-0.3
				c-0.7-0.2-1.4-0.4-1.8-0.5c-0.5-0.2-0.9-0.5-1.2-0.9c-0.3-0.4-0.5-0.9-0.5-1.6c0-0.6,0.2-1.1,0.5-1.5c0.3-0.5,0.8-0.8,1.4-1.1
				c0.6-0.3,1.4-0.4,2.3-0.4c0.6,0,1.2,0.1,1.8,0.2c0.6,0.1,1.1,0.4,1.6,0.6l-0.7,1.7c-0.9-0.5-1.8-0.8-2.7-0.8
				c-0.6,0-1.1,0.1-1.4,0.3s-0.5,0.5-0.5,0.8s0.2,0.6,0.5,0.7c0.3,0.2,0.9,0.3,1.6,0.5c0.7,0.2,1.4,0.4,1.8,0.5
				c0.5,0.2,0.9,0.5,1.2,0.8s0.5,0.9,0.5,1.6c0,0.6-0.2,1.1-0.5,1.5c-0.3,0.5-0.8,0.8-1.4,1.1c-0.6,0.3-1.4,0.4-2.3,0.4
				C350,352.6,349.3,352.5,348.5,352.3z"/>
			<path class="st11" d="M359.5,340.7h1.9l-4.6,13.2h-1.9L359.5,340.7z"/>
		</g>
		<g class="st8">
			<path class="st11" d="M367.4,352c-0.6-0.4-1.1-1-1.5-1.7s-0.5-1.7-0.5-2.7c0-1.1,0.2-2,0.5-2.7s0.9-1.3,1.5-1.7
				c0.6-0.4,1.4-0.6,2.2-0.6s1.5,0.2,2.2,0.6s1.1,1,1.5,1.7c0.4,0.8,0.5,1.7,0.5,2.7c0,1.1-0.2,2-0.5,2.7c-0.4,0.8-0.9,1.3-1.5,1.7
				s-1.4,0.6-2.2,0.6S368,352.4,367.4,352z M370.9,350c0.3-0.5,0.5-1.3,0.5-2.4c0-1.1-0.2-1.9-0.5-2.4c-0.3-0.5-0.8-0.8-1.4-0.8
				c-0.6,0-1.1,0.3-1.4,0.8c-0.3,0.5-0.5,1.3-0.5,2.4c0,1.1,0.2,1.9,0.5,2.4c0.3,0.5,0.8,0.8,1.4,0.8
				C370.1,350.7,370.6,350.5,370.9,350z"/>
		</g>
		<g class="st8">
			<path class="st11" d="M375,352.2c-0.3-0.3-0.4-0.6-0.4-1c0-0.4,0.1-0.7,0.4-1c0.3-0.2,0.6-0.4,1-0.4s0.7,0.1,1,0.4
				c0.3,0.2,0.4,0.6,0.4,1c0,0.4-0.1,0.7-0.4,1c-0.3,0.3-0.6,0.4-1,0.4S375.2,352.5,375,352.2z"/>
			<path class="st11" d="M387.3,350.4h-1.6v2.1h-2.2v-2.1h-5.3v-1.5l4.6-6.2h2.4l-4.3,5.9h2.6v-1.8h2.1v1.8h1.6V350.4z"/>
			<path class="st11" d="M397,350.4h-1.6v2.1h-2.2v-2.1h-5.3v-1.5l4.6-6.2h2.4l-4.3,5.9h2.6v-1.8h2.1v1.8h1.6V350.4z"/>
		</g>
		<g class="st8">
			<path class="st11" d="M283.9,357.3c-0.7-0.2-1.3-0.5-1.7-0.8l0.8-1.7c0.4,0.3,0.9,0.6,1.5,0.7c0.6,0.2,1.2,0.3,1.7,0.3
				c0.6,0,1.1-0.1,1.4-0.3c0.3-0.2,0.5-0.4,0.5-0.8c0-0.2-0.1-0.4-0.3-0.6c-0.2-0.2-0.4-0.3-0.7-0.4c-0.3-0.1-0.7-0.2-1.2-0.3
				c-0.7-0.2-1.4-0.4-1.8-0.5c-0.5-0.2-0.9-0.5-1.2-0.9c-0.3-0.4-0.5-0.9-0.5-1.6c0-0.6,0.2-1.1,0.5-1.5s0.8-0.8,1.4-1.1
				c0.6-0.3,1.4-0.4,2.3-0.4c0.6,0,1.2,0.1,1.8,0.2s1.1,0.4,1.6,0.6l-0.7,1.7c-0.9-0.5-1.8-0.8-2.7-0.8c-0.6,0-1.1,0.1-1.4,0.3
				c-0.3,0.2-0.5,0.5-0.5,0.8s0.2,0.6,0.5,0.7c0.3,0.2,0.9,0.3,1.6,0.5c0.7,0.2,1.4,0.4,1.8,0.5c0.5,0.2,0.9,0.5,1.2,0.8
				s0.5,0.9,0.5,1.6c0,0.6-0.2,1.1-0.5,1.5c-0.3,0.5-0.8,0.8-1.4,1.1c-0.6,0.3-1.4,0.4-2.3,0.4C285.3,357.6,284.6,357.5,283.9,357.3
				z"/>
			<path class="st11" d="M294.8,345.6h1.9l-4.6,13.2h-1.9L294.8,345.6z"/>
		</g>
		<g class="st8">
			<path class="st11" d="M302.7,357c-0.6-0.4-1.1-1-1.5-1.7s-0.5-1.7-0.5-2.7c0-1.1,0.2-2,0.5-2.7s0.9-1.3,1.5-1.7
				c0.6-0.4,1.4-0.6,2.2-0.6s1.5,0.2,2.2,0.6s1.1,1,1.5,1.7c0.4,0.8,0.5,1.7,0.5,2.7c0,1.1-0.2,2-0.5,2.7c-0.4,0.8-0.9,1.3-1.5,1.7
				s-1.4,0.6-2.2,0.6S303.3,357.4,302.7,357z M306.3,354.9c0.3-0.5,0.5-1.3,0.5-2.4c0-1.1-0.2-1.9-0.5-2.4c-0.3-0.5-0.8-0.8-1.4-0.8
				c-0.6,0-1.1,0.3-1.4,0.8c-0.3,0.5-0.5,1.3-0.5,2.4c0,1.1,0.2,1.9,0.5,2.4c0.3,0.5,0.8,0.8,1.4,0.8
				C305.5,355.7,305.9,355.4,306.3,354.9z"/>
		</g>
		<g class="st8">
			<path class="st11" d="M310.3,357.1c-0.3-0.3-0.4-0.6-0.4-1c0-0.4,0.1-0.7,0.4-1c0.3-0.2,0.6-0.4,1-0.4s0.7,0.1,1,0.4
				c0.3,0.2,0.4,0.6,0.4,1c0,0.4-0.1,0.7-0.4,1c-0.3,0.3-0.6,0.4-1,0.4S310.6,357.4,310.3,357.1z"/>
		</g>
		<g class="st8">
			<path class="st11" d="M322.6,355.4H321v2.1h-2.2v-2.1h-5.3v-1.5l4.6-6.2h2.4l-4.3,5.9h2.6v-1.8h2.1v1.8h1.6V355.4z"/>
		</g>
		<g class="st8">
			<path class="st11" d="M329.8,352.6c0.5,0.5,0.7,1.1,0.7,1.9c0,0.6-0.1,1.1-0.4,1.6s-0.8,0.9-1.4,1.2c-0.6,0.3-1.4,0.4-2.2,0.4
				c-0.7,0-1.4-0.1-2-0.3c-0.7-0.2-1.2-0.4-1.7-0.8l0.9-1.7c0.4,0.3,0.8,0.5,1.3,0.7c0.5,0.2,1,0.2,1.5,0.2c0.6,0,1-0.1,1.3-0.3
				c0.3-0.2,0.5-0.5,0.5-0.9c0-0.8-0.6-1.2-1.8-1.2h-1v-1.5l2-2.3h-4.2v-1.8h6.9v1.5l-2.2,2.5C328.6,351.7,329.3,352.1,329.8,352.6z
				"/>
		</g>
		<g class="st8">
			<path class="st11" d="M214.8,362.4c-0.7-0.2-1.3-0.5-1.7-0.8l0.8-1.7c0.4,0.3,0.9,0.6,1.5,0.7c0.6,0.2,1.2,0.3,1.7,0.3
				c0.6,0,1.1-0.1,1.4-0.3c0.3-0.2,0.5-0.4,0.5-0.8c0-0.2-0.1-0.4-0.3-0.6c-0.2-0.2-0.4-0.3-0.7-0.4c-0.3-0.1-0.7-0.2-1.2-0.3
				c-0.7-0.2-1.4-0.4-1.8-0.5c-0.5-0.2-0.9-0.5-1.2-0.9c-0.3-0.4-0.5-0.9-0.5-1.6c0-0.6,0.2-1.1,0.5-1.5c0.3-0.5,0.8-0.8,1.4-1.1
				c0.6-0.3,1.4-0.4,2.3-0.4c0.6,0,1.2,0.1,1.8,0.2c0.6,0.1,1.1,0.4,1.6,0.6l-0.7,1.7c-0.9-0.5-1.8-0.8-2.7-0.8
				c-0.6,0-1.1,0.1-1.4,0.3s-0.5,0.5-0.5,0.8s0.2,0.6,0.5,0.7c0.3,0.2,0.9,0.3,1.6,0.5c0.7,0.2,1.4,0.4,1.8,0.5
				c0.5,0.2,0.9,0.5,1.2,0.8s0.5,0.9,0.5,1.6c0,0.6-0.2,1.1-0.5,1.5c-0.3,0.5-0.8,0.8-1.4,1.1c-0.6,0.3-1.4,0.4-2.3,0.4
				C216.3,362.7,215.6,362.6,214.8,362.4z"/>
			<path class="st11" d="M225.8,350.7h1.9l-4.6,13.2h-1.9L225.8,350.7z"/>
		</g>
		<g class="st8">
			<path class="st11" d="M233.7,362.1c-0.6-0.4-1.1-1-1.5-1.7s-0.5-1.7-0.5-2.7c0-1.1,0.2-2,0.5-2.7s0.9-1.3,1.5-1.7
				c0.6-0.4,1.4-0.6,2.2-0.6s1.5,0.2,2.2,0.6s1.1,1,1.5,1.7c0.4,0.8,0.5,1.7,0.5,2.7c0,1.1-0.2,2-0.5,2.7c-0.4,0.8-0.9,1.3-1.5,1.7
				s-1.4,0.6-2.2,0.6S234.3,362.5,233.7,362.1z M237.2,360c0.3-0.5,0.5-1.3,0.5-2.4c0-1.1-0.2-1.9-0.5-2.4c-0.3-0.5-0.8-0.8-1.4-0.8
				c-0.6,0-1.1,0.3-1.4,0.8c-0.3,0.5-0.5,1.3-0.5,2.4c0,1.1,0.2,1.9,0.5,2.4c0.3,0.5,0.8,0.8,1.4,0.8
				C236.4,360.8,236.9,360.5,237.2,360z"/>
		</g>
		<g class="st8">
			<path class="st11" d="M241.3,362.2c-0.3-0.3-0.4-0.6-0.4-1c0-0.4,0.1-0.7,0.4-1c0.3-0.2,0.6-0.4,1-0.4s0.7,0.1,1,0.4
				c0.3,0.2,0.4,0.6,0.4,1c0,0.4-0.1,0.7-0.4,1c-0.3,0.3-0.6,0.4-1,0.4S241.5,362.5,241.3,362.2z"/>
		</g>
		<g class="st8">
			<path class="st11" d="M253.6,360.5H252v2.1h-2.2v-2.1h-5.3v-1.5l4.6-6.2h2.4l-4.3,5.9h2.6v-1.8h2.1v1.8h1.6V360.5z"/>
		</g>
		<g class="st8">
			<path class="st11" d="M261.6,360.7v1.8h-7.4v-1.5l3.8-3.6c0.4-0.4,0.7-0.7,0.8-1c0.1-0.3,0.2-0.5,0.2-0.8c0-0.4-0.1-0.7-0.4-0.9
				c-0.3-0.2-0.7-0.3-1.2-0.3c-0.4,0-0.8,0.1-1.2,0.2c-0.3,0.2-0.6,0.4-0.9,0.7l-1.7-1.1c0.4-0.6,0.9-1,1.6-1.3
				c0.7-0.3,1.4-0.5,2.3-0.5c0.7,0,1.4,0.1,1.9,0.4c0.5,0.2,1,0.6,1.3,1c0.3,0.4,0.5,0.9,0.5,1.5c0,0.5-0.1,1-0.3,1.5
				s-0.7,1-1.3,1.6l-2.3,2.1H261.6z"/>
		</g>
		<g class="st8">
			<path class="st12" d="M139.4,375.4c-0.7-0.2-1.3-0.5-1.7-0.8l0.8-1.7c0.4,0.3,0.9,0.6,1.5,0.7c0.6,0.2,1.2,0.3,1.7,0.3
				c0.6,0,1.1-0.1,1.4-0.3c0.3-0.2,0.5-0.4,0.5-0.8c0-0.2-0.1-0.4-0.3-0.6c-0.2-0.2-0.4-0.3-0.7-0.4c-0.3-0.1-0.7-0.2-1.2-0.3
				c-0.7-0.2-1.4-0.4-1.8-0.5c-0.5-0.2-0.9-0.5-1.2-0.9c-0.3-0.4-0.5-0.9-0.5-1.6c0-0.6,0.2-1.1,0.5-1.5c0.3-0.5,0.8-0.8,1.4-1.1
				c0.6-0.3,1.4-0.4,2.3-0.4c0.6,0,1.2,0.1,1.8,0.2c0.6,0.1,1.1,0.4,1.6,0.6l-0.7,1.7c-0.9-0.5-1.8-0.8-2.7-0.8
				c-0.6,0-1.1,0.1-1.4,0.3s-0.5,0.5-0.5,0.8s0.2,0.6,0.5,0.7c0.3,0.2,0.9,0.3,1.6,0.5c0.7,0.2,1.4,0.4,1.8,0.5
				c0.5,0.2,0.9,0.5,1.2,0.8s0.5,0.9,0.5,1.6c0,0.6-0.2,1.1-0.5,1.5c-0.3,0.5-0.8,0.8-1.4,1.1c-0.6,0.3-1.4,0.4-2.3,0.4
				C140.8,375.7,140.1,375.6,139.4,375.4z"/>
			<path class="st12" d="M150.3,363.8h1.9l-4.6,13.2h-1.9L150.3,363.8z"/>
		</g>
		<g class="st8">
			<path class="st12" d="M158.2,375.1c-0.6-0.4-1.1-1-1.5-1.7s-0.5-1.7-0.5-2.7c0-1.1,0.2-2,0.5-2.7s0.9-1.3,1.5-1.7
				c0.6-0.4,1.4-0.6,2.2-0.6s1.5,0.2,2.2,0.6s1.1,1,1.5,1.7c0.4,0.8,0.5,1.7,0.5,2.7c0,1.1-0.2,2-0.5,2.7c-0.4,0.8-0.9,1.3-1.5,1.7
				s-1.4,0.6-2.2,0.6S158.8,375.5,158.2,375.1z M161.8,373.1c0.3-0.5,0.5-1.3,0.5-2.4c0-1.1-0.2-1.9-0.5-2.4
				c-0.3-0.5-0.8-0.8-1.4-0.8c-0.6,0-1.1,0.3-1.4,0.8c-0.3,0.5-0.5,1.3-0.5,2.4c0,1.1,0.2,1.9,0.5,2.4c0.3,0.5,0.8,0.8,1.4,0.8
				C161,373.8,161.4,373.6,161.8,373.1z"/>
		</g>
		<g class="st8">
			<path class="st12" d="M165.8,375.3c-0.3-0.3-0.4-0.6-0.4-1c0-0.4,0.1-0.7,0.4-1c0.3-0.2,0.6-0.4,1-0.4s0.7,0.1,1,0.4
				c0.3,0.2,0.4,0.6,0.4,1c0,0.4-0.1,0.7-0.4,1c-0.3,0.3-0.6,0.4-1,0.4S166.1,375.6,165.8,375.3z"/>
		</g>
		<g class="st8">
			<path class="st12" d="M175.8,370.7c0.5,0.5,0.7,1.1,0.7,1.9c0,0.6-0.1,1.1-0.4,1.6s-0.8,0.9-1.4,1.2c-0.6,0.3-1.4,0.4-2.2,0.4
				c-0.7,0-1.4-0.1-2-0.3c-0.7-0.2-1.2-0.4-1.7-0.8l0.9-1.7c0.4,0.3,0.8,0.5,1.3,0.7c0.5,0.2,1,0.2,1.5,0.2c0.6,0,1-0.1,1.3-0.3
				c0.3-0.2,0.5-0.5,0.5-0.9c0-0.8-0.6-1.2-1.8-1.2h-1v-1.5l2-2.3h-4.2v-1.8h6.9v1.5l-2.2,2.5C174.7,369.9,175.4,370.2,175.8,370.7z
				"/>
			<path class="st12" d="M186.5,373.5H185v2.1h-2.2v-2.1h-5.3V372l4.6-6.2h2.4l-4.3,5.9h2.6v-1.8h2.1v1.8h1.6V373.5z"/>
		</g>
		<g class="st8">
			<path class="st12" d="M2.1,413c-0.7-0.2-1.3-0.5-1.7-0.8l0.8-1.7c0.4,0.3,0.9,0.6,1.5,0.7c0.6,0.2,1.2,0.3,1.7,0.3
				c0.6,0,1.1-0.1,1.4-0.3c0.3-0.2,0.5-0.4,0.5-0.8c0-0.2-0.1-0.4-0.3-0.6c-0.2-0.2-0.4-0.3-0.7-0.4c-0.3-0.1-0.7-0.2-1.2-0.3
				c-0.7-0.2-1.4-0.4-1.8-0.5c-0.5-0.2-0.9-0.5-1.2-0.9c-0.3-0.4-0.5-0.9-0.5-1.6c0-0.6,0.2-1.1,0.5-1.5c0.3-0.5,0.8-0.8,1.4-1.1
				c0.6-0.3,1.4-0.4,2.3-0.4c0.6,0,1.2,0.1,1.8,0.2c0.6,0.1,1.1,0.4,1.6,0.6l-0.7,1.7c-0.9-0.5-1.8-0.8-2.7-0.8
				c-0.6,0-1.1,0.1-1.4,0.3s-0.5,0.5-0.5,0.8s0.2,0.6,0.5,0.7c0.3,0.2,0.9,0.3,1.6,0.5c0.7,0.2,1.4,0.4,1.8,0.5
				c0.5,0.2,0.9,0.5,1.2,0.8s0.5,0.9,0.5,1.6c0,0.6-0.2,1.1-0.5,1.5c-0.3,0.5-0.8,0.8-1.4,1.1c-0.6,0.3-1.4,0.4-2.3,0.4
				C3.6,413.3,2.9,413.2,2.1,413z"/>
			<path class="st12" d="M13.1,401.4H15l-4.6,13.2H8.5L13.1,401.4z"/>
		</g>
		<g class="st8">
			<path class="st12" d="M21,412.7c-0.6-0.4-1.1-1-1.5-1.7s-0.5-1.7-0.5-2.7c0-1.1,0.2-2,0.5-2.7s0.9-1.3,1.5-1.7
				c0.6-0.4,1.4-0.6,2.2-0.6s1.5,0.2,2.2,0.6s1.1,1,1.5,1.7c0.4,0.8,0.5,1.7,0.5,2.7c0,1.1-0.2,2-0.5,2.7c-0.4,0.8-0.9,1.3-1.5,1.7
				s-1.4,0.6-2.2,0.6S21.6,413.1,21,412.7z M24.5,410.6c0.3-0.5,0.5-1.3,0.5-2.4c0-1.1-0.2-1.9-0.5-2.4c-0.3-0.5-0.8-0.8-1.4-0.8
				c-0.6,0-1.1,0.3-1.4,0.8c-0.3,0.5-0.5,1.3-0.5,2.4c0,1.1,0.2,1.9,0.5,2.4c0.3,0.5,0.8,0.8,1.4,0.8
				C23.7,411.4,24.2,411.1,24.5,410.6z"/>
		</g>
		<g class="st8">
			<path class="st12" d="M28.6,412.9c-0.3-0.3-0.4-0.6-0.4-1c0-0.4,0.1-0.7,0.4-1c0.3-0.2,0.6-0.4,1-0.4s0.7,0.1,1,0.4
				c0.3,0.2,0.4,0.6,0.4,1c0,0.4-0.1,0.7-0.4,1c-0.3,0.3-0.6,0.4-1,0.4S28.8,413.1,28.6,412.9z"/>
		</g>
		<g class="st8">
			<path class="st12" d="M39.4,411.3v1.8H32v-1.5l3.8-3.6c0.4-0.4,0.7-0.7,0.8-1c0.1-0.3,0.2-0.5,0.2-0.8c0-0.4-0.1-0.7-0.4-0.9
				s-0.7-0.3-1.2-0.3c-0.4,0-0.8,0.1-1.2,0.2c-0.3,0.2-0.6,0.4-0.9,0.7l-1.7-1.1c0.4-0.6,0.9-1,1.6-1.3c0.7-0.3,1.4-0.5,2.3-0.5
				c0.7,0,1.4,0.1,1.9,0.4c0.5,0.2,1,0.6,1.3,1c0.3,0.4,0.5,0.9,0.5,1.5c0,0.5-0.1,1-0.3,1.5c-0.2,0.5-0.7,1-1.3,1.6l-2.3,2.1H39.4z
				"/>
		</g>
		<g class="st8">
			<path class="st12" d="M42.3,412.7c-0.6-0.4-1.1-1-1.5-1.7s-0.5-1.7-0.5-2.7c0-1.1,0.2-2,0.5-2.7s0.9-1.3,1.5-1.7
				c0.6-0.4,1.4-0.6,2.2-0.6s1.5,0.2,2.2,0.6s1.1,1,1.5,1.7c0.4,0.8,0.5,1.7,0.5,2.7c0,1.1-0.2,2-0.5,2.7c-0.4,0.8-0.9,1.3-1.5,1.7
				s-1.4,0.6-2.2,0.6S43,413.1,42.3,412.7z M45.9,410.6c0.3-0.5,0.5-1.3,0.5-2.4c0-1.1-0.2-1.9-0.5-2.4c-0.3-0.5-0.8-0.8-1.4-0.8
				c-0.6,0-1.1,0.3-1.4,0.8c-0.3,0.5-0.5,1.3-0.5,2.4c0,1.1,0.2,1.9,0.5,2.4c0.3,0.5,0.8,0.8,1.4,0.8
				C45.1,411.4,45.6,411.1,45.9,410.6z"/>
		</g>
		<g class="st8">
			<path class="st12" d="M68.2,397.4c-0.7-0.2-1.3-0.5-1.7-0.8l0.8-1.7c0.4,0.3,0.9,0.6,1.5,0.7c0.6,0.2,1.2,0.3,1.7,0.3
				c0.6,0,1.1-0.1,1.4-0.3c0.3-0.2,0.5-0.4,0.5-0.8c0-0.2-0.1-0.4-0.3-0.6c-0.2-0.2-0.4-0.3-0.7-0.4c-0.3-0.1-0.7-0.2-1.2-0.3
				c-0.7-0.2-1.4-0.4-1.8-0.5c-0.5-0.2-0.9-0.5-1.2-0.9c-0.3-0.4-0.5-0.9-0.5-1.6c0-0.6,0.2-1.1,0.5-1.5c0.3-0.5,0.8-0.8,1.4-1.1
				c0.6-0.3,1.4-0.4,2.3-0.4c0.6,0,1.2,0.1,1.8,0.2c0.6,0.1,1.1,0.4,1.6,0.6l-0.7,1.7c-0.9-0.5-1.8-0.8-2.7-0.8
				c-0.6,0-1.1,0.1-1.4,0.3s-0.5,0.5-0.5,0.8s0.2,0.6,0.5,0.7c0.3,0.2,0.9,0.3,1.6,0.5c0.7,0.2,1.4,0.4,1.8,0.5
				c0.5,0.2,0.9,0.5,1.2,0.8s0.5,0.9,0.5,1.6c0,0.6-0.2,1.1-0.5,1.5c-0.3,0.5-0.8,0.8-1.4,1.1c-0.6,0.3-1.4,0.4-2.3,0.4
				C69.7,397.7,68.9,397.6,68.2,397.4z"/>
			<path class="st12" d="M79.2,385.8h1.9L76.5,399h-1.9L79.2,385.8z"/>
		</g>
		<g class="st8">
			<path class="st12" d="M87,397.1c-0.6-0.4-1.1-1-1.5-1.7s-0.5-1.7-0.5-2.7c0-1.1,0.2-2,0.5-2.7s0.9-1.3,1.5-1.7
				c0.6-0.4,1.4-0.6,2.2-0.6s1.5,0.2,2.2,0.6s1.1,1,1.5,1.7c0.4,0.8,0.5,1.7,0.5,2.7c0,1.1-0.2,2-0.5,2.7c-0.4,0.8-0.9,1.3-1.5,1.7
				s-1.4,0.6-2.2,0.6S87.7,397.5,87,397.1z M90.6,395.1c0.3-0.5,0.5-1.3,0.5-2.4c0-1.1-0.2-1.9-0.5-2.4c-0.3-0.5-0.8-0.8-1.4-0.8
				c-0.6,0-1.1,0.3-1.4,0.8c-0.3,0.5-0.5,1.3-0.5,2.4c0,1.1,0.2,1.9,0.5,2.4c0.3,0.5,0.8,0.8,1.4,0.8
				C89.8,395.8,90.3,395.6,90.6,395.1z"/>
		</g>
		<g class="st8">
			<path class="st12" d="M94.6,397.3c-0.3-0.3-0.4-0.6-0.4-1c0-0.4,0.1-0.7,0.4-1c0.3-0.2,0.6-0.4,1-0.4s0.7,0.1,1,0.4
				c0.3,0.2,0.4,0.6,0.4,1c0,0.4-0.1,0.7-0.4,1c-0.3,0.3-0.6,0.4-1,0.4S94.9,397.6,94.6,397.3z"/>
		</g>
		<g class="st8">
			<path class="st12" d="M105.4,395.7v1.8H98v-1.5l3.8-3.6c0.4-0.4,0.7-0.7,0.8-1c0.1-0.3,0.2-0.5,0.2-0.8c0-0.4-0.1-0.7-0.4-0.9
				c-0.3-0.2-0.7-0.3-1.2-0.3c-0.4,0-0.8,0.1-1.2,0.2c-0.3,0.2-0.6,0.4-0.9,0.7l-1.7-1.1c0.4-0.6,0.9-1,1.6-1.3
				c0.7-0.3,1.4-0.5,2.3-0.5c0.7,0,1.4,0.1,1.9,0.4c0.5,0.2,1,0.6,1.3,1c0.3,0.4,0.5,0.9,0.5,1.5c0,0.5-0.1,1-0.3,1.5
				s-0.7,1-1.3,1.6l-2.3,2.1H105.4z"/>
			<path class="st12" d="M112.8,392.3c0.7,0.6,1,1.3,1,2.2c0,0.6-0.1,1.1-0.4,1.6s-0.8,0.9-1.4,1.2c-0.6,0.3-1.4,0.4-2.3,0.4
				c-0.7,0-1.4-0.1-2-0.3c-0.7-0.2-1.2-0.4-1.7-0.8l0.9-1.7c0.4,0.3,0.8,0.5,1.3,0.7c0.5,0.2,1,0.2,1.5,0.2c0.6,0,1-0.1,1.3-0.3
				c0.3-0.2,0.5-0.5,0.5-0.9c0-0.4-0.2-0.7-0.5-1c-0.3-0.2-0.9-0.3-1.8-0.3h-2.5l0.5-5.5h6v1.8h-4.1l-0.2,1.9h0.8
				C111.1,391.5,112.1,391.7,112.8,392.3z"/>
		</g>
		<g class="st8">
			<path class="st12" d="M74.3,498.6c-0.5-0.2-1-0.6-1.3-1l1-1.2c0.5,0.7,1.2,1.1,1.9,1.1c1,0,1.5-0.6,1.5-1.8v-5.1H74v-1.5h5.3v6.5
				c0,1.1-0.3,2-0.8,2.6c-0.6,0.6-1.4,0.9-2.5,0.9C75.4,499,74.8,498.9,74.3,498.6z"/>
			<path class="st12" d="M89,491.4v7.5h-1.7v-1c-0.3,0.3-0.6,0.6-1.1,0.8c-0.4,0.2-0.9,0.3-1.4,0.3c-1,0-1.8-0.3-2.4-0.8
				c-0.6-0.6-0.9-1.4-0.9-2.5v-4.3h1.8v4c0,0.7,0.2,1.2,0.5,1.5c0.3,0.3,0.7,0.5,1.3,0.5c0.6,0,1.1-0.2,1.5-0.6
				c0.4-0.4,0.6-0.9,0.6-1.7v-3.8H89z"/>
			<path class="st12" d="M91.2,488.5H93v10.4h-1.8V488.5z"/>
			<path class="st12" d="M95.4,489.9c-0.2-0.2-0.3-0.5-0.3-0.7s0.1-0.5,0.3-0.7c0.2-0.2,0.5-0.3,0.8-0.3s0.6,0.1,0.8,0.3
				c0.2,0.2,0.3,0.4,0.3,0.7c0,0.3-0.1,0.6-0.3,0.8s-0.5,0.3-0.8,0.3C95.9,490.2,95.6,490.1,95.4,489.9z M95.3,491.4H97v7.5h-1.8
				V491.4z"/>
			<path class="st12" d="M100.7,498.5c-0.6-0.3-1.1-0.8-1.4-1.4s-0.5-1.2-0.5-2s0.2-1.4,0.5-2s0.8-1,1.4-1.4c0.6-0.3,1.3-0.5,2-0.5
				c0.8,0,1.5,0.2,2.1,0.5c0.6,0.3,1.1,0.8,1.4,1.4s0.5,1.2,0.5,2s-0.2,1.4-0.5,2s-0.8,1-1.4,1.4c-0.6,0.3-1.3,0.5-2.1,0.5
				C101.9,499,101.3,498.8,100.7,498.5z M104.3,496.8c0.4-0.4,0.6-1,0.6-1.7s-0.2-1.3-0.6-1.7c-0.4-0.4-1-0.6-1.6-0.6
				s-1.2,0.2-1.6,0.6c-0.4,0.4-0.6,1-0.6,1.7s0.2,1.3,0.6,1.7c0.4,0.4,0.9,0.6,1.6,0.6S103.9,497.3,104.3,496.8z"/>
		</g>
		<g class="st8">
			<path class="st12" d="M12.9,498.9l0-6.5l-3.2,5.4H8.8l-3.2-5.3v6.4H3.9v-9.8h1.5l3.9,6.5l3.8-6.5h1.5l0,9.8H12.9z"/>
			<path class="st12" d="M22.5,492.1c0.6,0.5,0.9,1.3,0.9,2.4v4.4h-1.7V498c-0.2,0.3-0.5,0.6-0.9,0.7s-0.9,0.3-1.4,0.3
				s-1-0.1-1.5-0.3c-0.4-0.2-0.7-0.5-1-0.8c-0.2-0.3-0.3-0.7-0.3-1.2c0-0.7,0.2-1.2,0.7-1.6c0.5-0.4,1.3-0.6,2.4-0.6h1.9v-0.1
				c0-0.5-0.2-0.9-0.5-1.2c-0.3-0.3-0.8-0.4-1.4-0.4c-0.4,0-0.8,0.1-1.2,0.2c-0.4,0.1-0.7,0.3-1,0.5l-0.7-1.3
				c0.4-0.3,0.9-0.5,1.4-0.7c0.6-0.2,1.1-0.2,1.8-0.2C21,491.3,21.9,491.6,22.5,492.1z M20.9,497.4c0.3-0.2,0.6-0.5,0.7-0.9v-0.9
				h-1.8c-1,0-1.5,0.3-1.5,1c0,0.3,0.1,0.6,0.4,0.8s0.6,0.3,1.1,0.3C20.1,497.7,20.5,497.6,20.9,497.4z"/>
			<path class="st12" d="M29.9,491.3v1.7c-0.1,0-0.3,0-0.4,0c-0.7,0-1.2,0.2-1.6,0.6c-0.4,0.4-0.6,1-0.6,1.7v3.6h-1.8v-7.5h1.7v1.1
				C27.8,491.7,28.6,491.3,29.9,491.3z"/>
		</g>
		<g class="st8">
			<path class="st12" d="M37.3,497.5v1.4h-6.5v-1.1l4.1-5h-4v-1.4h6.3v1.1l-4.1,5H37.3z"/>
		</g>
		<g class="st8">
			<path class="st12" d="M40.1,498.5c-0.6-0.3-1.1-0.8-1.4-1.4s-0.5-1.2-0.5-2s0.2-1.4,0.5-2s0.8-1,1.4-1.4c0.6-0.3,1.3-0.5,2-0.5
				c0.8,0,1.5,0.2,2.1,0.5c0.6,0.3,1.1,0.8,1.4,1.4s0.5,1.2,0.5,2s-0.2,1.4-0.5,2s-0.8,1-1.4,1.4c-0.6,0.3-1.3,0.5-2.1,0.5
				C41.4,499,40.7,498.8,40.1,498.5z M43.8,496.8c0.4-0.4,0.6-1,0.6-1.7s-0.2-1.3-0.6-1.7c-0.4-0.4-1-0.6-1.6-0.6s-1.2,0.2-1.6,0.6
				c-0.4,0.4-0.6,1-0.6,1.7s0.2,1.3,0.6,1.7c0.4,0.4,0.9,0.6,1.6,0.6S43.3,497.3,43.8,496.8z"/>
		</g>
		<g class="st8">
			<path class="st12" d="M135.4,498.4c-0.8-0.4-1.4-1-1.9-1.8c-0.5-0.8-0.7-1.6-0.7-2.6c0-1,0.2-1.8,0.7-2.6
				c0.5-0.8,1.1-1.4,1.9-1.8s1.7-0.7,2.7-0.7c1,0,1.9,0.2,2.7,0.7c0.8,0.4,1.4,1,1.9,1.8c0.5,0.8,0.7,1.6,0.7,2.6
				c0,1-0.2,1.8-0.7,2.6c-0.5,0.8-1.1,1.4-1.9,1.8c-0.8,0.4-1.7,0.7-2.7,0.7C137.1,499,136.2,498.8,135.4,498.4z M139.8,497
				c0.5-0.3,0.9-0.7,1.2-1.2c0.3-0.5,0.4-1.1,0.4-1.8c0-0.7-0.1-1.2-0.4-1.8c-0.3-0.5-0.7-0.9-1.2-1.2c-0.5-0.3-1.1-0.4-1.8-0.4
				s-1.2,0.1-1.8,0.4c-0.5,0.3-0.9,0.7-1.2,1.2s-0.4,1.1-0.4,1.8c0,0.7,0.1,1.2,0.4,1.8s0.7,0.9,1.2,1.2c0.5,0.3,1.1,0.4,1.8,0.4
				S139.3,497.3,139.8,497z"/>
		</g>
		<g class="st8">
			<path class="st12" d="M146.5,498.5c-0.6-0.3-1.1-0.8-1.4-1.4s-0.5-1.2-0.5-2s0.2-1.4,0.5-2s0.8-1,1.4-1.4
				c0.6-0.3,1.3-0.5,2.1-0.5c0.7,0,1.4,0.1,1.9,0.4c0.6,0.3,1,0.7,1.3,1.3l-1.3,0.8c-0.2-0.3-0.5-0.6-0.8-0.8
				c-0.3-0.2-0.7-0.3-1.1-0.3c-0.7,0-1.2,0.2-1.6,0.6c-0.4,0.4-0.6,1-0.6,1.7c0,0.7,0.2,1.3,0.6,1.7c0.4,0.4,1,0.6,1.6,0.6
				c0.4,0,0.7-0.1,1.1-0.3c0.3-0.2,0.6-0.4,0.8-0.8l1.3,0.8c-0.3,0.6-0.7,1-1.3,1.3c-0.6,0.3-1.2,0.5-1.9,0.5
				C147.8,499,147.1,498.8,146.5,498.5z"/>
		</g>
		<g class="st8">
			<path class="st12" d="M157.8,498.5c-0.2,0.2-0.5,0.3-0.7,0.4s-0.6,0.1-0.9,0.1c-0.8,0-1.5-0.2-1.9-0.6c-0.4-0.4-0.7-1.1-0.7-1.9
				v-3.6h-1.2v-1.4h1.2v-1.7h1.8v1.7h2v1.4h-2v3.6c0,0.4,0.1,0.6,0.3,0.8s0.4,0.3,0.8,0.3c0.4,0,0.7-0.1,1-0.3L157.8,498.5z"/>
			<path class="st12" d="M166.5,491.4v7.5h-1.7v-1c-0.3,0.3-0.6,0.6-1.1,0.8c-0.4,0.2-0.9,0.3-1.4,0.3c-1,0-1.8-0.3-2.4-0.8
				c-0.6-0.6-0.9-1.4-0.9-2.5v-4.3h1.8v4c0,0.7,0.2,1.2,0.5,1.5c0.3,0.3,0.7,0.5,1.3,0.5c0.6,0,1.1-0.2,1.5-0.6
				c0.4-0.4,0.6-0.9,0.6-1.7v-3.8H166.5z"/>
			<path class="st12" d="M174.9,491.8c0.6,0.3,1,0.8,1.4,1.3c0.3,0.6,0.5,1.2,0.5,2s-0.2,1.4-0.5,2c-0.3,0.6-0.8,1-1.4,1.4
				c-0.6,0.3-1.2,0.5-2,0.5c-0.5,0-1-0.1-1.4-0.3s-0.8-0.4-1.1-0.8v1h-1.7v-10.4h1.8v3.8c0.3-0.3,0.7-0.6,1.1-0.7
				c0.4-0.2,0.9-0.3,1.3-0.3C173.7,491.3,174.3,491.5,174.9,491.8z M174.4,496.8c0.4-0.4,0.6-1,0.6-1.7s-0.2-1.3-0.6-1.7
				c-0.4-0.4-0.9-0.6-1.6-0.6c-0.4,0-0.8,0.1-1.1,0.3s-0.6,0.5-0.8,0.8c-0.2,0.4-0.3,0.8-0.3,1.2s0.1,0.9,0.3,1.2
				c0.2,0.4,0.5,0.6,0.8,0.8s0.7,0.3,1.1,0.3C173.4,497.5,173.9,497.3,174.4,496.8z"/>
		</g>
		<g class="st8">
			<path class="st12" d="M182.7,491.3v1.7c-0.1,0-0.3,0-0.4,0c-0.7,0-1.2,0.2-1.6,0.6c-0.4,0.4-0.6,1-0.6,1.7v3.6h-1.8v-7.5h1.7v1.1
				C180.6,491.7,181.5,491.3,182.7,491.3z"/>
		</g>
		<g class="st8">
			<path class="st12" d="M191.2,495.7h-5.9c0.1,0.6,0.4,1,0.8,1.3s1,0.5,1.6,0.5c0.8,0,1.5-0.3,2-0.8l0.9,1.1
				c-0.3,0.4-0.8,0.7-1.3,0.9s-1.1,0.3-1.7,0.3c-0.8,0-1.5-0.2-2.2-0.5c-0.6-0.3-1.1-0.8-1.4-1.4s-0.5-1.2-0.5-2
				c0-0.7,0.2-1.4,0.5-2c0.3-0.6,0.8-1,1.4-1.4c0.6-0.3,1.3-0.5,2-0.5c0.7,0,1.4,0.2,2,0.5c0.6,0.3,1,0.8,1.3,1.4
				c0.3,0.6,0.5,1.3,0.5,2C191.2,495.3,191.2,495.5,191.2,495.7z M186,493.2c-0.4,0.3-0.6,0.8-0.7,1.3h4.2c-0.1-0.5-0.3-1-0.7-1.3
				c-0.4-0.3-0.9-0.5-1.4-0.5C186.8,492.7,186.4,492.9,186,493.2z"/>
		</g>
		<g class="st8">
			<path class="st11" d="M224.7,497.3v1.5h-7.4v-9.8h7.2v1.5h-5.3v2.5h4.7v1.5h-4.7v2.7H224.7z"/>
		</g>
		<g class="st8">
			<path class="st11" d="M233.1,492.1c0.6,0.6,0.9,1.4,0.9,2.5v4.3h-1.8v-4.1c0-0.7-0.2-1.1-0.5-1.5c-0.3-0.3-0.7-0.5-1.3-0.5
				c-0.6,0-1.2,0.2-1.5,0.6c-0.4,0.4-0.6,0.9-0.6,1.7v3.8h-1.8v-7.5h1.7v1c0.3-0.3,0.7-0.6,1.1-0.8c0.4-0.2,0.9-0.3,1.5-0.3
				C231.8,491.3,232.5,491.6,233.1,492.1z"/>
		</g>
		<g class="st8">
			<path class="st11" d="M243.3,495.7h-5.9c0.1,0.6,0.4,1,0.8,1.3s1,0.5,1.6,0.5c0.8,0,1.5-0.3,2-0.8l0.9,1.1
				c-0.3,0.4-0.8,0.7-1.3,0.9s-1.1,0.3-1.7,0.3c-0.8,0-1.5-0.2-2.2-0.5c-0.6-0.3-1.1-0.8-1.4-1.4s-0.5-1.2-0.5-2
				c0-0.7,0.2-1.4,0.5-2c0.3-0.6,0.8-1,1.4-1.4c0.6-0.3,1.3-0.5,2-0.5c0.7,0,1.4,0.2,2,0.5c0.6,0.3,1,0.8,1.3,1.4
				c0.3,0.6,0.5,1.3,0.5,2C243.3,495.3,243.3,495.5,243.3,495.7z M238.1,493.2c-0.4,0.3-0.6,0.8-0.7,1.3h4.2c-0.1-0.5-0.3-1-0.7-1.3
				c-0.4-0.3-0.9-0.5-1.4-0.5C238.9,492.7,238.5,492.9,238.1,493.2z"/>
		</g>
		<g class="st8">
			<path class="st11" d="M249.3,491.3v1.7c-0.1,0-0.3,0-0.4,0c-0.7,0-1.2,0.2-1.6,0.6c-0.4,0.4-0.6,1-0.6,1.7v3.6H245v-7.5h1.7v1.1
				C247.1,491.7,248,491.3,249.3,491.3z"/>
		</g>
		<g class="st8">
			<path class="st11" d="M252,498.5c-0.6-0.3-1.1-0.8-1.4-1.4s-0.5-1.2-0.5-2s0.2-1.4,0.5-2s0.8-1,1.4-1.4c0.6-0.3,1.3-0.5,2-0.5
				c0.8,0,1.5,0.2,2.1,0.5c0.6,0.3,1.1,0.8,1.4,1.4s0.5,1.2,0.5,2s-0.2,1.4-0.5,2s-0.8,1-1.4,1.4c-0.6,0.3-1.3,0.5-2.1,0.5
				C253.3,499,252.6,498.8,252,498.5z M255.7,496.8c0.4-0.4,0.6-1,0.6-1.7s-0.2-1.3-0.6-1.7c-0.4-0.4-1-0.6-1.6-0.6
				s-1.2,0.2-1.6,0.6c-0.4,0.4-0.6,1-0.6,1.7s0.2,1.3,0.6,1.7c0.4,0.4,0.9,0.6,1.6,0.6S255.2,497.3,255.7,496.8z"/>
		</g>
		<g class="st8">
			<path class="st11" d="M294.6,498.9l0-6.5l-3.2,5.4h-0.8l-3.2-5.3v6.4h-1.7v-9.8h1.5l3.9,6.5l3.8-6.5h1.5l0,9.8H294.6z"/>
			<path class="st11" d="M304.2,492.1c0.6,0.5,0.9,1.3,0.9,2.4v4.4h-1.7V498c-0.2,0.3-0.5,0.6-0.9,0.7s-0.9,0.3-1.4,0.3
				s-1-0.1-1.5-0.3c-0.4-0.2-0.7-0.5-1-0.8c-0.2-0.3-0.3-0.7-0.3-1.2c0-0.7,0.2-1.2,0.7-1.6c0.5-0.4,1.3-0.6,2.4-0.6h1.9v-0.1
				c0-0.5-0.2-0.9-0.5-1.2c-0.3-0.3-0.8-0.4-1.4-0.4c-0.4,0-0.8,0.1-1.2,0.2c-0.4,0.1-0.7,0.3-1,0.5l-0.7-1.3
				c0.4-0.3,0.9-0.5,1.4-0.7c0.6-0.2,1.1-0.2,1.8-0.2C302.8,491.3,303.6,491.6,304.2,492.1z M302.6,497.4c0.3-0.2,0.6-0.5,0.7-0.9
				v-0.9h-1.8c-1,0-1.5,0.3-1.5,1c0,0.3,0.1,0.6,0.4,0.8s0.6,0.3,1.1,0.3C301.9,497.7,302.3,497.6,302.6,497.4z"/>
			<path class="st11" d="M311.6,491.3v1.7c-0.1,0-0.3,0-0.4,0c-0.7,0-1.2,0.2-1.6,0.6c-0.4,0.4-0.6,1-0.6,1.7v3.6h-1.8v-7.5h1.7v1.1
				C309.5,491.7,310.4,491.3,311.6,491.3z"/>
		</g>
		<g class="st8">
			<path class="st11" d="M319,497.5v1.4h-6.5v-1.1l4.1-5h-4v-1.4h6.3v1.1l-4.1,5H319z"/>
		</g>
		<g class="st8">
			<path class="st11" d="M321.8,498.5c-0.6-0.3-1.1-0.8-1.4-1.4s-0.5-1.2-0.5-2s0.2-1.4,0.5-2s0.8-1,1.4-1.4c0.6-0.3,1.3-0.5,2-0.5
				c0.8,0,1.5,0.2,2.1,0.5c0.6,0.3,1.1,0.8,1.4,1.4s0.5,1.2,0.5,2s-0.2,1.4-0.5,2s-0.8,1-1.4,1.4c-0.6,0.3-1.3,0.5-2.1,0.5
				C323.1,499,322.4,498.8,321.8,498.5z M325.5,496.8c0.4-0.4,0.6-1,0.6-1.7s-0.2-1.3-0.6-1.7c-0.4-0.4-1-0.6-1.6-0.6
				s-1.2,0.2-1.6,0.6c-0.4,0.4-0.6,1-0.6,1.7s0.2,1.3,0.6,1.7c0.4,0.4,0.9,0.6,1.6,0.6S325.1,497.3,325.5,496.8z"/>
		</g>
		<g class="st8">
			<path class="st11" d="M362.5,496.6h-4.9l-1,2.3h-1.9l4.4-9.8h1.8l4.4,9.8h-1.9L362.5,496.6z M361.8,495.2l-1.8-4.3l-1.8,4.3
				H361.8z"/>
			<path class="st11" d="M372.5,491.8c0.6,0.3,1,0.8,1.4,1.3c0.3,0.6,0.5,1.2,0.5,2s-0.2,1.4-0.5,2c-0.3,0.6-0.8,1-1.4,1.4
				c-0.6,0.3-1.2,0.5-2,0.5c-0.5,0-1-0.1-1.4-0.3s-0.8-0.4-1.1-0.8v1h-1.7v-10.4h1.8v3.8c0.3-0.3,0.7-0.6,1.1-0.7
				c0.4-0.2,0.9-0.3,1.3-0.3C371.3,491.3,371.9,491.5,372.5,491.8z M372,496.8c0.4-0.4,0.6-1,0.6-1.7s-0.2-1.3-0.6-1.7
				c-0.4-0.4-0.9-0.6-1.6-0.6c-0.4,0-0.8,0.1-1.1,0.3s-0.6,0.5-0.8,0.8c-0.2,0.4-0.3,0.8-0.3,1.2s0.1,0.9,0.3,1.2
				c0.2,0.4,0.5,0.6,0.8,0.8s0.7,0.3,1.1,0.3C371,497.5,371.5,497.3,372,496.8z"/>
		</g>
		<g class="st8">
			<path class="st11" d="M380.3,491.3v1.7c-0.1,0-0.3,0-0.4,0c-0.7,0-1.2,0.2-1.6,0.6c-0.4,0.4-0.6,1-0.6,1.7v3.6H376v-7.5h1.7v1.1
				C378.2,491.7,379.1,491.3,380.3,491.3z"/>
		</g>
		<g class="st8">
			<path class="st11" d="M381.9,489.9c-0.2-0.2-0.3-0.5-0.3-0.7s0.1-0.5,0.3-0.7c0.2-0.2,0.5-0.3,0.8-0.3s0.6,0.1,0.8,0.3
				c0.2,0.2,0.3,0.4,0.3,0.7c0,0.3-0.1,0.6-0.3,0.8s-0.5,0.3-0.8,0.3C382.4,490.2,382.1,490.1,381.9,489.9z M381.8,491.4h1.8v7.5
				h-1.8V491.4z"/>
			<path class="st11" d="M385.9,488.5h1.8v10.4h-1.8V488.5z"/>
		</g>
		<g class="st8">
			<path class="st11" d="M422.1,496.6h-4.9l-1,2.3h-1.9l4.4-9.8h1.8l4.4,9.8H423L422.1,496.6z M421.5,495.2l-1.8-4.3l-1.8,4.3H421.5
				z"/>
		</g>
		<g class="st8">
			<path class="st11" d="M433.4,491.4v6.3c0,2.6-1.3,3.9-4,3.9c-0.7,0-1.4-0.1-2-0.3s-1.2-0.4-1.6-0.8l0.8-1.3
				c0.3,0.3,0.7,0.5,1.2,0.7c0.5,0.2,1,0.2,1.5,0.2c0.8,0,1.4-0.2,1.8-0.6c0.4-0.4,0.6-0.9,0.6-1.7v-0.4c-0.3,0.3-0.7,0.6-1.1,0.7
				c-0.4,0.2-0.9,0.3-1.4,0.3c-0.7,0-1.4-0.2-1.9-0.5c-0.6-0.3-1-0.7-1.4-1.3c-0.3-0.6-0.5-1.2-0.5-1.9s0.2-1.3,0.5-1.9
				c0.3-0.5,0.8-1,1.4-1.3c0.6-0.3,1.2-0.4,1.9-0.4c0.5,0,1,0.1,1.5,0.3c0.4,0.2,0.8,0.4,1.1,0.8v-1H433.4z M431,496.5
				c0.4-0.4,0.6-0.9,0.6-1.5c0-0.6-0.2-1.1-0.6-1.5c-0.4-0.4-1-0.6-1.6-0.6c-0.7,0-1.2,0.2-1.6,0.6c-0.4,0.4-0.6,0.9-0.6,1.5
				c0,0.6,0.2,1.2,0.6,1.5c0.4,0.4,1,0.6,1.6,0.6C430.1,497,430.6,496.9,431,496.5z"/>
			<path class="st11" d="M437,498.5c-0.6-0.3-1.1-0.8-1.4-1.4s-0.5-1.2-0.5-2s0.2-1.4,0.5-2s0.8-1,1.4-1.4c0.6-0.3,1.3-0.5,2-0.5
				c0.8,0,1.5,0.2,2.1,0.5c0.6,0.3,1.1,0.8,1.4,1.4s0.5,1.2,0.5,2s-0.2,1.4-0.5,2s-0.8,1-1.4,1.4c-0.6,0.3-1.3,0.5-2.1,0.5
				C438.3,499,437.6,498.8,437,498.5z M440.6,496.8c0.4-0.4,0.6-1,0.6-1.7s-0.2-1.3-0.6-1.7c-0.4-0.4-1-0.6-1.6-0.6
				s-1.2,0.2-1.6,0.6c-0.4,0.4-0.6,1-0.6,1.7s0.2,1.3,0.6,1.7c0.4,0.4,0.9,0.6,1.6,0.6S440.2,497.3,440.6,496.8z"/>
			<path class="st11" d="M445.2,498.7c-0.6-0.2-1-0.4-1.4-0.6l0.7-1.3c0.3,0.2,0.7,0.4,1.2,0.5c0.5,0.1,0.9,0.2,1.4,0.2
				c1,0,1.6-0.3,1.6-0.8c0-0.3-0.1-0.4-0.4-0.5c-0.3-0.1-0.7-0.2-1.3-0.3c-0.6-0.1-1.1-0.2-1.5-0.3c-0.4-0.1-0.7-0.3-1-0.6
				c-0.3-0.3-0.4-0.7-0.4-1.3c0-0.7,0.3-1.3,0.9-1.7c0.6-0.4,1.4-0.6,2.4-0.6c0.5,0,1,0.1,1.5,0.2c0.5,0.1,0.9,0.3,1.3,0.5l-0.7,1.3
				c-0.6-0.4-1.3-0.6-2.1-0.6c-0.5,0-0.9,0.1-1.2,0.2s-0.4,0.4-0.4,0.6c0,0.3,0.1,0.5,0.4,0.6c0.3,0.1,0.7,0.2,1.3,0.3
				c0.6,0.1,1.1,0.2,1.5,0.3c0.4,0.1,0.7,0.3,1,0.6c0.3,0.3,0.4,0.7,0.4,1.2c0,0.7-0.3,1.3-0.9,1.7c-0.6,0.4-1.4,0.6-2.5,0.6
				C446.4,499,445.8,498.9,445.2,498.7z"/>
		</g>
		<g class="st8">
			<path class="st11" d="M456.4,498.5c-0.2,0.2-0.5,0.3-0.7,0.4s-0.6,0.1-0.9,0.1c-0.8,0-1.5-0.2-1.9-0.6c-0.4-0.4-0.7-1.1-0.7-1.9
				v-3.6h-1.2v-1.4h1.2v-1.7h1.8v1.7h2v1.4h-2v3.6c0,0.4,0.1,0.6,0.3,0.8c0.2,0.2,0.4,0.3,0.8,0.3c0.4,0,0.7-0.1,1-0.3L456.4,498.5z
				"/>
		</g>
		<g class="st8">
			<path class="st11" d="M458.9,498.5c-0.6-0.3-1.1-0.8-1.4-1.4s-0.5-1.2-0.5-2s0.2-1.4,0.5-2s0.8-1,1.4-1.4c0.6-0.3,1.3-0.5,2-0.5
				c0.8,0,1.5,0.2,2.1,0.5c0.6,0.3,1.1,0.8,1.4,1.4s0.5,1.2,0.5,2s-0.2,1.4-0.5,2s-0.8,1-1.4,1.4c-0.6,0.3-1.3,0.5-2.1,0.5
				C460.2,499,459.5,498.8,458.9,498.5z M462.6,496.8c0.4-0.4,0.6-1,0.6-1.7s-0.2-1.3-0.6-1.7c-0.4-0.4-1-0.6-1.6-0.6
				s-1.2,0.2-1.6,0.6c-0.4,0.4-0.6,1-0.6,1.7s0.2,1.3,0.6,1.7c0.4,0.4,0.9,0.6,1.6,0.6S462.1,497.3,462.6,496.8z"/>
		</g>
		<g class="st8">
			<path class="st11" d="M488.8,498.7c-0.7-0.2-1.3-0.5-1.7-0.9l0.6-1.4c0.4,0.3,0.9,0.6,1.5,0.8c0.6,0.2,1.2,0.3,1.8,0.3
				c0.7,0,1.3-0.1,1.6-0.3s0.5-0.5,0.5-0.9c0-0.3-0.1-0.5-0.3-0.7c-0.2-0.2-0.5-0.3-0.8-0.4s-0.7-0.2-1.3-0.4
				c-0.7-0.2-1.4-0.4-1.8-0.5c-0.5-0.2-0.9-0.5-1.2-0.8c-0.3-0.4-0.5-0.9-0.5-1.5c0-0.5,0.1-1,0.4-1.5s0.7-0.8,1.3-1.1
				c0.6-0.3,1.3-0.4,2.2-0.4c0.6,0,1.2,0.1,1.8,0.2c0.6,0.1,1.1,0.4,1.5,0.6l-0.6,1.4c-0.4-0.3-0.9-0.4-1.3-0.6
				c-0.5-0.1-0.9-0.2-1.4-0.2c-0.7,0-1.3,0.1-1.6,0.4c-0.3,0.2-0.5,0.6-0.5,1c0,0.3,0.1,0.5,0.3,0.7c0.2,0.2,0.5,0.3,0.8,0.4
				c0.3,0.1,0.7,0.2,1.3,0.4c0.7,0.2,1.3,0.3,1.8,0.5c0.5,0.2,0.9,0.5,1.2,0.8c0.3,0.4,0.5,0.9,0.5,1.5c0,0.5-0.1,1-0.4,1.5
				s-0.7,0.8-1.3,1c-0.6,0.3-1.3,0.4-2.2,0.4C490.3,499,489.5,498.9,488.8,498.7z"/>
			<path class="st11" d="M503.6,495.7h-5.9c0.1,0.6,0.4,1,0.8,1.3s1,0.5,1.6,0.5c0.8,0,1.5-0.3,2-0.8l0.9,1.1
				c-0.3,0.4-0.8,0.7-1.3,0.9s-1.1,0.3-1.7,0.3c-0.8,0-1.5-0.2-2.2-0.5c-0.6-0.3-1.1-0.8-1.4-1.4s-0.5-1.2-0.5-2
				c0-0.7,0.2-1.4,0.5-2c0.3-0.6,0.8-1,1.4-1.4c0.6-0.3,1.3-0.5,2-0.5c0.7,0,1.4,0.2,2,0.5c0.6,0.3,1,0.8,1.3,1.4
				c0.3,0.6,0.5,1.3,0.5,2C503.7,495.3,503.6,495.5,503.6,495.7z M498.5,493.2c-0.4,0.3-0.6,0.8-0.7,1.3h4.2c-0.1-0.5-0.3-1-0.7-1.3
				c-0.4-0.3-0.9-0.5-1.4-0.5C499.3,492.7,498.8,492.9,498.5,493.2z"/>
			<path class="st11" d="M511.4,491.8c0.6,0.3,1,0.8,1.4,1.3c0.3,0.6,0.5,1.2,0.5,2s-0.2,1.4-0.5,2c-0.3,0.6-0.8,1-1.4,1.4
				c-0.6,0.3-1.2,0.5-2,0.5c-1,0-1.8-0.3-2.4-1v3.6h-1.8v-10.2h1.7v1c0.3-0.4,0.6-0.6,1.1-0.8c0.4-0.2,0.9-0.3,1.4-0.3
				C510.2,491.3,510.9,491.5,511.4,491.8z M510.9,496.8c0.4-0.4,0.6-1,0.6-1.7s-0.2-1.3-0.6-1.7c-0.4-0.4-0.9-0.6-1.6-0.6
				c-0.4,0-0.8,0.1-1.1,0.3s-0.6,0.5-0.8,0.8c-0.2,0.4-0.3,0.8-0.3,1.2s0.1,0.9,0.3,1.2c0.2,0.4,0.5,0.6,0.8,0.8s0.7,0.3,1.1,0.3
				C509.9,497.5,510.5,497.3,510.9,496.8z"/>
			<path class="st11" d="M519.4,498.5c-0.2,0.2-0.5,0.3-0.7,0.4s-0.6,0.1-0.9,0.1c-0.8,0-1.5-0.2-1.9-0.6c-0.4-0.4-0.7-1.1-0.7-1.9
				v-3.6h-1.2v-1.4h1.2v-1.7h1.8v1.7h2v1.4h-2v3.6c0,0.4,0.1,0.6,0.3,0.8s0.4,0.3,0.8,0.3c0.4,0,0.7-0.1,1-0.3L519.4,498.5z"/>
			<path class="st11" d="M521,489.9c-0.2-0.2-0.3-0.5-0.3-0.7s0.1-0.5,0.3-0.7c0.2-0.2,0.5-0.3,0.8-0.3s0.6,0.1,0.8,0.3
				c0.2,0.2,0.3,0.4,0.3,0.7c0,0.3-0.1,0.6-0.3,0.8s-0.5,0.3-0.8,0.3C521.4,490.2,521.2,490.1,521,489.9z M520.9,491.4h1.8v7.5h-1.8
				V491.4z"/>
			<path class="st11" d="M531.9,495.7h-5.9c0.1,0.6,0.4,1,0.8,1.3c0.4,0.3,1,0.5,1.6,0.5c0.8,0,1.5-0.3,2-0.8l0.9,1.1
				c-0.3,0.4-0.8,0.7-1.3,0.9c-0.5,0.2-1.1,0.3-1.7,0.3c-0.8,0-1.5-0.2-2.2-0.5c-0.6-0.3-1.1-0.8-1.4-1.4s-0.5-1.2-0.5-2
				c0-0.7,0.2-1.4,0.5-2s0.8-1,1.4-1.4c0.6-0.3,1.3-0.5,2-0.5c0.7,0,1.4,0.2,2,0.5c0.6,0.3,1,0.8,1.3,1.4s0.5,1.3,0.5,2
				C531.9,495.3,531.9,495.5,531.9,495.7z M526.7,493.2c-0.4,0.3-0.6,0.8-0.7,1.3h4.2c-0.1-0.5-0.3-1-0.7-1.3s-0.9-0.5-1.4-0.5
				C527.6,492.7,527.1,492.9,526.7,493.2z"/>
			<path class="st11" d="M545.3,492.1c0.6,0.5,0.8,1.4,0.8,2.5v4.3h-1.8v-4.1c0-0.7-0.1-1.1-0.4-1.5c-0.3-0.3-0.7-0.5-1.2-0.5
				c-0.6,0-1.1,0.2-1.4,0.6c-0.4,0.4-0.5,0.9-0.5,1.7v3.8H539v-4.1c0-0.7-0.1-1.1-0.4-1.5c-0.3-0.3-0.7-0.5-1.2-0.5
				c-0.6,0-1.1,0.2-1.4,0.6c-0.3,0.4-0.5,0.9-0.5,1.7v3.8h-1.8v-7.5h1.7v1c0.3-0.3,0.6-0.6,1-0.8c0.4-0.2,0.9-0.3,1.4-0.3
				c0.6,0,1.1,0.1,1.5,0.3c0.4,0.2,0.8,0.5,1,0.9c0.3-0.4,0.7-0.7,1.2-0.9c0.5-0.2,1-0.3,1.6-0.3C544,491.3,544.8,491.6,545.3,492.1
				z"/>
			<path class="st11" d="M554.5,491.8c0.6,0.3,1,0.8,1.4,1.3c0.3,0.6,0.5,1.2,0.5,2s-0.2,1.4-0.5,2c-0.3,0.6-0.8,1-1.4,1.4
				c-0.6,0.3-1.2,0.5-2,0.5c-0.5,0-1-0.1-1.4-0.3s-0.8-0.4-1.1-0.8v1h-1.7v-10.4h1.8v3.8c0.3-0.3,0.7-0.6,1.1-0.7
				c0.4-0.2,0.9-0.3,1.3-0.3C553.2,491.3,553.9,491.5,554.5,491.8z M553.9,496.8c0.4-0.4,0.6-1,0.6-1.7s-0.2-1.3-0.6-1.7
				c-0.4-0.4-0.9-0.6-1.6-0.6c-0.4,0-0.8,0.1-1.1,0.3s-0.6,0.5-0.8,0.8c-0.2,0.4-0.3,0.8-0.3,1.2s0.1,0.9,0.3,1.2
				c0.2,0.4,0.5,0.6,0.8,0.8s0.7,0.3,1.1,0.3C553,497.5,553.5,497.3,553.9,496.8z"/>
		</g>
		<g class="st8">
			<path class="st11" d="M562.3,491.3v1.7c-0.1,0-0.3,0-0.4,0c-0.7,0-1.2,0.2-1.6,0.6s-0.6,1-0.6,1.7v3.6H558v-7.5h1.7v1.1
				C560.1,491.7,561,491.3,562.3,491.3z"/>
		</g>
		<g class="st8">
			<path class="st11" d="M570.7,495.7h-5.9c0.1,0.6,0.4,1,0.8,1.3c0.4,0.3,1,0.5,1.6,0.5c0.8,0,1.5-0.3,2-0.8l0.9,1.1
				c-0.3,0.4-0.8,0.7-1.3,0.9c-0.5,0.2-1.1,0.3-1.7,0.3c-0.8,0-1.5-0.2-2.2-0.5c-0.6-0.3-1.1-0.8-1.4-1.4s-0.5-1.2-0.5-2
				c0-0.7,0.2-1.4,0.5-2s0.8-1,1.4-1.4c0.6-0.3,1.3-0.5,2-0.5c0.7,0,1.4,0.2,2,0.5c0.6,0.3,1,0.8,1.3,1.4s0.5,1.3,0.5,2
				C570.7,495.3,570.7,495.5,570.7,495.7z M565.5,493.2c-0.4,0.3-0.6,0.8-0.7,1.3h4.2c-0.1-0.5-0.3-1-0.7-1.3s-0.9-0.5-1.4-0.5
				C566.4,492.7,565.9,492.9,565.5,493.2z"/>
		</g>
		<g class="st8">
			<path class="st11" d="M600.1,489.1v9.8h-1.5l-5.4-6.6v6.6h-1.8v-9.8h1.5l5.4,6.6v-6.6H600.1z"/>
		</g>
		<g class="st8">
			<path class="st11" d="M603.8,498.5c-0.6-0.3-1.1-0.8-1.4-1.4s-0.5-1.2-0.5-2s0.2-1.4,0.5-2s0.8-1,1.4-1.4c0.6-0.3,1.3-0.5,2-0.5
				c0.8,0,1.5,0.2,2.1,0.5c0.6,0.3,1.1,0.8,1.4,1.4s0.5,1.2,0.5,2s-0.2,1.4-0.5,2s-0.8,1-1.4,1.4c-0.6,0.3-1.3,0.5-2.1,0.5
				C605.1,499,604.5,498.8,603.8,498.5z M607.5,496.8c0.4-0.4,0.6-1,0.6-1.7s-0.2-1.3-0.6-1.7c-0.4-0.4-1-0.6-1.6-0.6
				c-0.6,0-1.2,0.2-1.6,0.6c-0.4,0.4-0.6,1-0.6,1.7s0.2,1.3,0.6,1.7s0.9,0.6,1.6,0.6C606.5,497.5,607.1,497.3,607.5,496.8z"/>
		</g>
		<g class="st8">
			<path class="st11" d="M618.3,491.4l-3.2,7.5h-1.8l-3.2-7.5h1.8l2.3,5.5l2.4-5.5H618.3z"/>
			<path class="st11" d="M619.5,489.9c-0.2-0.2-0.3-0.5-0.3-0.7s0.1-0.5,0.3-0.7c0.2-0.2,0.5-0.3,0.8-0.3s0.6,0.1,0.8,0.3
				c0.2,0.2,0.3,0.4,0.3,0.7c0,0.3-0.1,0.6-0.3,0.8s-0.5,0.3-0.8,0.3C620,490.2,619.7,490.1,619.5,489.9z M619.4,491.4h1.8v7.5h-1.8
				V491.4z"/>
			<path class="st11" d="M630.5,495.7h-5.9c0.1,0.6,0.4,1,0.8,1.3c0.4,0.3,1,0.5,1.6,0.5c0.8,0,1.5-0.3,2-0.8l0.9,1.1
				c-0.3,0.4-0.8,0.7-1.3,0.9c-0.5,0.2-1.1,0.3-1.7,0.3c-0.8,0-1.5-0.2-2.2-0.5c-0.6-0.3-1.1-0.8-1.4-1.4s-0.5-1.2-0.5-2
				c0-0.7,0.2-1.4,0.5-2c0.3-0.6,0.8-1,1.4-1.4c0.6-0.3,1.2-0.5,2-0.5c0.7,0,1.4,0.2,2,0.5s1,0.8,1.3,1.4c0.3,0.6,0.5,1.3,0.5,2
				C630.5,495.3,630.5,495.5,630.5,495.7z M625.3,493.2c-0.4,0.3-0.6,0.8-0.7,1.3h4.2c-0.1-0.5-0.3-1-0.7-1.3
				c-0.4-0.3-0.9-0.5-1.4-0.5C626.2,492.7,625.7,492.9,625.3,493.2z"/>
			<path class="st11" d="M643.9,492.1c0.5,0.5,0.8,1.4,0.8,2.5v4.3h-1.8v-4.1c0-0.7-0.1-1.1-0.4-1.5s-0.7-0.5-1.2-0.5
				c-0.6,0-1.1,0.2-1.4,0.6c-0.4,0.4-0.5,0.9-0.5,1.7v3.8h-1.8v-4.1c0-0.7-0.1-1.1-0.4-1.5s-0.7-0.5-1.2-0.5c-0.6,0-1.1,0.2-1.4,0.6
				s-0.5,0.9-0.5,1.7v3.8h-1.8v-7.5h1.7v1c0.3-0.3,0.6-0.6,1-0.8c0.4-0.2,0.9-0.3,1.4-0.3c0.6,0,1.1,0.1,1.5,0.3
				c0.4,0.2,0.8,0.5,1,0.9c0.3-0.4,0.7-0.7,1.2-0.9c0.5-0.2,1-0.3,1.6-0.3C642.6,491.3,643.3,491.6,643.9,492.1z"/>
			<path class="st11" d="M653,491.8c0.6,0.3,1,0.8,1.4,1.3c0.3,0.6,0.5,1.2,0.5,2s-0.2,1.4-0.5,2c-0.3,0.6-0.8,1-1.4,1.4
				s-1.2,0.5-2,0.5c-0.5,0-1-0.1-1.4-0.3s-0.8-0.4-1.1-0.8v1h-1.7v-10.4h1.8v3.8c0.3-0.3,0.7-0.6,1.1-0.7s0.9-0.3,1.3-0.3
				C651.8,491.3,652.5,491.5,653,491.8z M652.5,496.8c0.4-0.4,0.6-1,0.6-1.7s-0.2-1.3-0.6-1.7c-0.4-0.4-0.9-0.6-1.6-0.6
				c-0.4,0-0.8,0.1-1.1,0.3s-0.6,0.5-0.8,0.8s-0.3,0.8-0.3,1.2s0.1,0.9,0.3,1.2s0.5,0.6,0.8,0.8s0.7,0.3,1.1,0.3
				C651.5,497.5,652.1,497.3,652.5,496.8z"/>
		</g>
		<g class="st8">
			<path class="st11" d="M660.9,491.3v1.7c-0.1,0-0.3,0-0.4,0c-0.7,0-1.2,0.2-1.6,0.6c-0.4,0.4-0.6,1-0.6,1.7v3.6h-1.8v-7.5h1.7v1.1
				C658.7,491.7,659.6,491.3,660.9,491.3z"/>
		</g>
		<g class="st8">
			<path class="st11" d="M669.3,495.7h-5.9c0.1,0.6,0.4,1,0.8,1.3c0.4,0.3,1,0.5,1.6,0.5c0.8,0,1.5-0.3,2-0.8l0.9,1.1
				c-0.3,0.4-0.8,0.7-1.3,0.9c-0.5,0.2-1.1,0.3-1.7,0.3c-0.8,0-1.5-0.2-2.2-0.5c-0.6-0.3-1.1-0.8-1.4-1.4s-0.5-1.2-0.5-2
				c0-0.7,0.2-1.4,0.5-2s0.8-1,1.4-1.4c0.6-0.3,1.3-0.5,2-0.5c0.7,0,1.4,0.2,2,0.5c0.6,0.3,1,0.8,1.3,1.4s0.5,1.3,0.5,2
				C669.3,495.3,669.3,495.5,669.3,495.7z M664.1,493.2c-0.4,0.3-0.6,0.8-0.7,1.3h4.2c-0.1-0.5-0.3-1-0.7-1.3s-0.9-0.5-1.4-0.5
				C665,492.7,664.5,492.9,664.1,493.2z"/>
		</g>
		<g class="st8">
			<path class="st9" d="M697.6,497.3v1.5h-7.4v-9.8h7.2v1.5h-5.3v2.5h4.7v1.5h-4.7v2.7H697.6z"/>
		</g>
		<g class="st8">
			<path class="st9" d="M706,492.1c0.6,0.6,0.9,1.4,0.9,2.5v4.3h-1.8v-4.1c0-0.7-0.2-1.1-0.5-1.5s-0.7-0.5-1.3-0.5
				c-0.6,0-1.2,0.2-1.5,0.6c-0.4,0.4-0.6,0.9-0.6,1.7v3.8h-1.8v-7.5h1.7v1c0.3-0.3,0.7-0.6,1.1-0.8c0.4-0.2,0.9-0.3,1.5-0.3
				C704.7,491.3,705.4,491.6,706,492.1z"/>
		</g>
		<g class="st8">
			<path class="st9" d="M716.1,495.7h-5.9c0.1,0.6,0.4,1,0.8,1.3c0.4,0.3,1,0.5,1.6,0.5c0.8,0,1.5-0.3,2-0.8l0.9,1.1
				c-0.3,0.4-0.8,0.7-1.3,0.9s-1.1,0.3-1.7,0.3c-0.8,0-1.5-0.2-2.2-0.5c-0.6-0.3-1.1-0.8-1.4-1.4c-0.3-0.6-0.5-1.2-0.5-2
				c0-0.7,0.2-1.4,0.5-2s0.8-1,1.4-1.4c0.6-0.3,1.2-0.5,2-0.5c0.7,0,1.4,0.2,2,0.5c0.6,0.3,1,0.8,1.3,1.4c0.3,0.6,0.5,1.3,0.5,2
				C716.2,495.3,716.1,495.5,716.1,495.7z M711,493.2c-0.4,0.3-0.6,0.8-0.7,1.3h4.2c-0.1-0.5-0.3-1-0.7-1.3
				c-0.4-0.3-0.9-0.5-1.4-0.5C711.8,492.7,711.3,492.9,711,493.2z"/>
		</g>
		<g class="st8">
			<path class="st9" d="M722.2,491.3v1.7c-0.1,0-0.3,0-0.4,0c-0.7,0-1.2,0.2-1.6,0.6s-0.6,1-0.6,1.7v3.6h-1.8v-7.5h1.7v1.1
				C720,491.7,720.9,491.3,722.2,491.3z"/>
		</g>
		<g class="st8">
			<path class="st9" d="M724.9,498.5c-0.6-0.3-1.1-0.8-1.4-1.4s-0.5-1.2-0.5-2s0.2-1.4,0.5-2s0.8-1,1.4-1.4c0.6-0.3,1.3-0.5,2-0.5
				c0.8,0,1.5,0.2,2.1,0.5c0.6,0.3,1.1,0.8,1.4,1.4s0.5,1.2,0.5,2s-0.2,1.4-0.5,2s-0.8,1-1.4,1.4c-0.6,0.3-1.3,0.5-2.1,0.5
				C726.2,499,725.5,498.8,724.9,498.5z M728.5,496.8c0.4-0.4,0.6-1,0.6-1.7s-0.2-1.3-0.6-1.7c-0.4-0.4-1-0.6-1.6-0.6
				c-0.6,0-1.2,0.2-1.6,0.6c-0.4,0.4-0.6,1-0.6,1.7s0.2,1.3,0.6,1.7s0.9,0.6,1.6,0.6C727.6,497.5,728.1,497.3,728.5,496.8z"/>
		</g>
		<g class="st8">
			<path class="st9" d="M768.3,496.6h-4.9l-1,2.3h-1.9l4.4-9.8h1.8l4.4,9.8h-1.9L768.3,496.6z M767.6,495.2l-1.8-4.3l-1.8,4.3H767.6
				z"/>
		</g>
		<g class="st8">
			<path class="st9" d="M779.6,491.4v6.3c0,2.6-1.3,3.9-4,3.9c-0.7,0-1.4-0.1-2-0.3s-1.2-0.4-1.6-0.8l0.8-1.3
				c0.3,0.3,0.7,0.5,1.2,0.7s1,0.2,1.5,0.2c0.8,0,1.4-0.2,1.8-0.6c0.4-0.4,0.6-0.9,0.6-1.7v-0.4c-0.3,0.3-0.7,0.6-1.1,0.7
				c-0.4,0.2-0.9,0.3-1.4,0.3c-0.7,0-1.4-0.2-1.9-0.5c-0.6-0.3-1-0.7-1.4-1.3c-0.3-0.6-0.5-1.2-0.5-1.9s0.2-1.3,0.5-1.9
				c0.3-0.5,0.8-1,1.4-1.3c0.6-0.3,1.2-0.4,1.9-0.4c0.5,0,1,0.1,1.5,0.3c0.4,0.2,0.8,0.4,1.1,0.8v-1H779.6z M777.2,496.5
				c0.4-0.4,0.6-0.9,0.6-1.5c0-0.6-0.2-1.1-0.6-1.5c-0.4-0.4-1-0.6-1.6-0.6c-0.7,0-1.2,0.2-1.6,0.6c-0.4,0.4-0.6,0.9-0.6,1.5
				c0,0.6,0.2,1.2,0.6,1.5c0.4,0.4,1,0.6,1.6,0.6C776.2,497,776.8,496.9,777.2,496.5z"/>
			<path class="st9" d="M783.2,498.5c-0.6-0.3-1.1-0.8-1.4-1.4s-0.5-1.2-0.5-2s0.2-1.4,0.5-2s0.8-1,1.4-1.4c0.6-0.3,1.3-0.5,2-0.5
				c0.8,0,1.5,0.2,2.1,0.5c0.6,0.3,1.1,0.8,1.4,1.4c0.3,0.6,0.5,1.2,0.5,2s-0.2,1.4-0.5,2c-0.3,0.6-0.8,1-1.4,1.4
				c-0.6,0.3-1.3,0.5-2.1,0.5C784.5,499,783.8,498.8,783.2,498.5z M786.8,496.8c0.4-0.4,0.6-1,0.6-1.7s-0.2-1.3-0.6-1.7
				c-0.4-0.4-1-0.6-1.6-0.6s-1.2,0.2-1.6,0.6c-0.4,0.4-0.6,1-0.6,1.7s0.2,1.3,0.6,1.7c0.4,0.4,0.9,0.6,1.6,0.6
				S786.4,497.3,786.8,496.8z"/>
			<path class="st9" d="M791.4,498.7c-0.6-0.2-1-0.4-1.4-0.6l0.7-1.3c0.3,0.2,0.7,0.4,1.2,0.5c0.5,0.1,0.9,0.2,1.4,0.2
				c1,0,1.6-0.3,1.6-0.8c0-0.3-0.1-0.4-0.4-0.5s-0.7-0.2-1.3-0.3c-0.6-0.1-1.1-0.2-1.5-0.3c-0.4-0.1-0.7-0.3-1-0.6
				c-0.3-0.3-0.4-0.7-0.4-1.3c0-0.7,0.3-1.3,0.9-1.7s1.4-0.6,2.4-0.6c0.5,0,1,0.1,1.5,0.2c0.5,0.1,0.9,0.3,1.3,0.5l-0.7,1.3
				c-0.6-0.4-1.3-0.6-2.1-0.6c-0.5,0-0.9,0.1-1.2,0.2c-0.3,0.2-0.4,0.4-0.4,0.6c0,0.3,0.1,0.5,0.4,0.6c0.3,0.1,0.7,0.2,1.3,0.3
				c0.6,0.1,1.1,0.2,1.5,0.3c0.4,0.1,0.7,0.3,1,0.6c0.3,0.3,0.4,0.7,0.4,1.2c0,0.7-0.3,1.3-0.9,1.7c-0.6,0.4-1.4,0.6-2.5,0.6
				C792.6,499,792,498.9,791.4,498.7z"/>
		</g>
		<g class="st8">
			<path class="st9" d="M802.6,498.5c-0.2,0.2-0.5,0.3-0.7,0.4s-0.6,0.1-0.9,0.1c-0.8,0-1.5-0.2-1.9-0.6s-0.7-1.1-0.7-1.9v-3.6h-1.2
				v-1.4h1.2v-1.7h1.8v1.7h2v1.4h-2v3.6c0,0.4,0.1,0.6,0.3,0.8c0.2,0.2,0.4,0.3,0.8,0.3c0.4,0,0.7-0.1,1-0.3L802.6,498.5z"/>
		</g>
		<g class="st8">
			<path class="st9" d="M805.1,498.5c-0.6-0.3-1.1-0.8-1.4-1.4s-0.5-1.2-0.5-2s0.2-1.4,0.5-2s0.8-1,1.4-1.4c0.6-0.3,1.3-0.5,2-0.5
				c0.8,0,1.5,0.2,2.1,0.5c0.6,0.3,1.1,0.8,1.4,1.4s0.5,1.2,0.5,2s-0.2,1.4-0.5,2s-0.8,1-1.4,1.4c-0.6,0.3-1.3,0.5-2.1,0.5
				C806.4,499,805.7,498.8,805.1,498.5z M808.7,496.8c0.4-0.4,0.6-1,0.6-1.7s-0.2-1.3-0.6-1.7c-0.4-0.4-1-0.6-1.6-0.6
				c-0.6,0-1.2,0.2-1.6,0.6c-0.4,0.4-0.6,1-0.6,1.7s0.2,1.3,0.6,1.7s0.9,0.6,1.6,0.6C807.8,497.5,808.3,497.3,808.7,496.8z"/>
		</g>
		<g class="st8">
			<path class="st13" d="M972.5,490.6v3h4.7v1.5h-4.7v3.8h-1.8v-9.8h7.2v1.5H972.5z"/>
		</g>
		<g class="st8">
			<path class="st13" d="M986.2,495.7h-5.9c0.1,0.6,0.4,1,0.8,1.3c0.4,0.3,1,0.5,1.6,0.5c0.8,0,1.5-0.3,2-0.8l0.9,1.1
				c-0.3,0.4-0.8,0.7-1.3,0.9c-0.5,0.2-1.1,0.3-1.7,0.3c-0.8,0-1.5-0.2-2.2-0.5c-0.6-0.3-1.1-0.8-1.4-1.4s-0.5-1.2-0.5-2
				c0-0.7,0.2-1.4,0.5-2s0.8-1,1.4-1.4c0.6-0.3,1.3-0.5,2-0.5c0.7,0,1.4,0.2,2,0.5c0.6,0.3,1,0.8,1.3,1.4s0.5,1.3,0.5,2
				C986.3,495.3,986.3,495.5,986.2,495.7z M981.1,493.2c-0.4,0.3-0.6,0.8-0.7,1.3h4.2c-0.1-0.5-0.3-1-0.7-1.3s-0.9-0.5-1.4-0.5
				C981.9,492.7,981.5,492.9,981.1,493.2z"/>
			<path class="st13" d="M994,491.8c0.6,0.3,1,0.8,1.4,1.3c0.3,0.6,0.5,1.2,0.5,2s-0.2,1.4-0.5,2c-0.3,0.6-0.8,1-1.4,1.4
				s-1.2,0.5-2,0.5c-0.5,0-1-0.1-1.4-0.3s-0.8-0.4-1.1-0.8v1h-1.7v-10.4h1.8v3.8c0.3-0.3,0.7-0.6,1.1-0.7s0.9-0.3,1.3-0.3
				C992.8,491.3,993.5,491.5,994,491.8z M993.5,496.8c0.4-0.4,0.6-1,0.6-1.7s-0.2-1.3-0.6-1.7c-0.4-0.4-0.9-0.6-1.6-0.6
				c-0.4,0-0.8,0.1-1.1,0.3s-0.6,0.5-0.8,0.8s-0.3,0.8-0.3,1.2s0.1,0.9,0.3,1.2s0.5,0.6,0.8,0.8s0.7,0.3,1.1,0.3
				C992.5,497.5,993.1,497.3,993.5,496.8z"/>
		</g>
		<g class="st8">
			<path class="st13" d="M1001.9,491.3v1.7c-0.1,0-0.3,0-0.4,0c-0.7,0-1.2,0.2-1.6,0.6s-0.6,1-0.6,1.7v3.6h-1.8v-7.5h1.7v1.1
				C999.7,491.7,1000.6,491.3,1001.9,491.3z"/>
		</g>
		<g class="st8">
			<path class="st13" d="M1010.3,495.7h-5.9c0.1,0.6,0.4,1,0.8,1.3c0.4,0.3,1,0.5,1.6,0.5c0.8,0,1.5-0.3,2-0.8l0.9,1.1
				c-0.3,0.4-0.8,0.7-1.3,0.9c-0.5,0.2-1.1,0.3-1.7,0.3c-0.8,0-1.5-0.2-2.2-0.5c-0.6-0.3-1.1-0.8-1.4-1.4s-0.5-1.2-0.5-2
				c0-0.7,0.2-1.4,0.5-2s0.8-1,1.4-1.4c0.6-0.3,1.3-0.5,2-0.5c0.7,0,1.4,0.2,2,0.5c0.6,0.3,1,0.8,1.3,1.4s0.5,1.3,0.5,2
				C1010.3,495.3,1010.3,495.5,1010.3,495.7z M1005.1,493.2c-0.4,0.3-0.6,0.8-0.7,1.3h4.2c-0.1-0.5-0.3-1-0.7-1.3s-0.9-0.5-1.4-0.5
				C1006,492.7,1005.5,492.9,1005.1,493.2z"/>
		</g>
		<g class="st8">
			<path class="st13" d="M1016.3,491.3v1.7c-0.1,0-0.3,0-0.4,0c-0.7,0-1.2,0.2-1.6,0.6c-0.4,0.4-0.6,1-0.6,1.7v3.6h-1.8v-7.5h1.7
				v1.1C1014.2,491.7,1015.1,491.3,1016.3,491.3z"/>
		</g>
		<g class="st8">
			<path class="st13" d="M1019.1,498.5c-0.6-0.3-1.1-0.8-1.4-1.4s-0.5-1.2-0.5-2s0.2-1.4,0.5-2s0.8-1,1.4-1.4c0.6-0.3,1.3-0.5,2-0.5
				c0.8,0,1.5,0.2,2.1,0.5c0.6,0.3,1.1,0.8,1.4,1.4s0.5,1.2,0.5,2s-0.2,1.4-0.5,2s-0.8,1-1.4,1.4c-0.6,0.3-1.3,0.5-2.1,0.5
				C1020.3,499,1019.7,498.8,1019.1,498.5z M1022.7,496.8c0.4-0.4,0.6-1,0.6-1.7s-0.2-1.3-0.6-1.7c-0.4-0.4-1-0.6-1.6-0.6
				c-0.6,0-1.2,0.2-1.6,0.6c-0.4,0.4-0.6,1-0.6,1.7s0.2,1.3,0.6,1.7s0.9,0.6,1.6,0.6C1021.7,497.5,1022.3,497.3,1022.7,496.8z"/>
		</g>
		<g class="st8">
			<path class="st11" d="M417.4,347.4c-0.7-0.2-1.3-0.5-1.7-0.8l0.8-1.7c0.4,0.3,0.9,0.6,1.5,0.7c0.6,0.2,1.2,0.3,1.7,0.3
				c0.6,0,1.1-0.1,1.4-0.3c0.3-0.2,0.5-0.4,0.5-0.8c0-0.2-0.1-0.4-0.3-0.6c-0.2-0.2-0.4-0.3-0.7-0.4c-0.3-0.1-0.7-0.2-1.2-0.3
				c-0.7-0.2-1.4-0.4-1.8-0.5c-0.5-0.2-0.9-0.5-1.2-0.9c-0.3-0.4-0.5-0.9-0.5-1.6c0-0.6,0.2-1.1,0.5-1.5s0.8-0.8,1.4-1.1
				c0.6-0.3,1.4-0.4,2.3-0.4c0.6,0,1.2,0.1,1.8,0.2s1.1,0.4,1.6,0.6l-0.7,1.7c-0.9-0.5-1.8-0.8-2.7-0.8c-0.6,0-1.1,0.1-1.4,0.3
				c-0.3,0.2-0.5,0.5-0.5,0.8s0.2,0.6,0.5,0.7c0.3,0.2,0.9,0.3,1.6,0.5c0.7,0.2,1.4,0.4,1.8,0.5c0.5,0.2,0.9,0.5,1.2,0.8
				s0.5,0.9,0.5,1.6c0,0.6-0.2,1.1-0.5,1.5c-0.3,0.5-0.8,0.8-1.4,1.1c-0.6,0.3-1.4,0.4-2.3,0.4C418.8,347.7,418.1,347.6,417.4,347.4
				z"/>
			<path class="st11" d="M428.3,335.7h1.9l-4.6,13.2h-1.9L428.3,335.7z"/>
		</g>
		<g class="st8">
			<path class="st11" d="M436.2,347.1c-0.6-0.4-1.1-1-1.5-1.7s-0.5-1.7-0.5-2.7c0-1.1,0.2-2,0.5-2.7s0.9-1.3,1.5-1.7
				c0.6-0.4,1.4-0.6,2.2-0.6s1.5,0.2,2.2,0.6s1.1,1,1.5,1.7c0.4,0.8,0.5,1.7,0.5,2.7c0,1.1-0.2,2-0.5,2.7c-0.4,0.8-0.9,1.3-1.5,1.7
				s-1.4,0.6-2.2,0.6S436.8,347.5,436.2,347.1z M439.8,345c0.3-0.5,0.5-1.3,0.5-2.4c0-1.1-0.2-1.9-0.5-2.4c-0.3-0.5-0.8-0.8-1.4-0.8
				c-0.6,0-1.1,0.3-1.4,0.8c-0.3,0.5-0.5,1.3-0.5,2.4c0,1.1,0.2,1.9,0.5,2.4c0.3,0.5,0.8,0.8,1.4,0.8
				C439,345.8,439.4,345.5,439.8,345z"/>
		</g>
		<g class="st8">
			<path class="st11" d="M443.8,347.2c-0.3-0.3-0.4-0.6-0.4-1c0-0.4,0.1-0.7,0.4-1c0.3-0.2,0.6-0.4,1-0.4s0.7,0.1,1,0.4
				c0.3,0.2,0.4,0.6,0.4,1c0,0.4-0.1,0.7-0.4,1c-0.3,0.3-0.6,0.4-1,0.4S444.1,347.5,443.8,347.2z"/>
		</g>
		<g class="st8">
			<path class="st11" d="M456.1,345.5h-1.6v2.1h-2.2v-2.1H447v-1.5l4.6-6.2h2.4l-4.3,5.9h2.6v-1.8h2.1v1.8h1.6V345.5z"/>
		</g>
		<g class="st8">
			<path class="st11" d="M463.2,342.2c0.7,0.6,1,1.3,1,2.2c0,0.6-0.1,1.1-0.4,1.6s-0.8,0.9-1.4,1.2c-0.6,0.3-1.4,0.4-2.3,0.4
				c-0.7,0-1.4-0.1-2-0.3c-0.7-0.2-1.2-0.4-1.7-0.8l0.9-1.7c0.4,0.3,0.8,0.5,1.3,0.7c0.5,0.2,1,0.2,1.5,0.2c0.6,0,1-0.1,1.3-0.3
				c0.3-0.2,0.5-0.5,0.5-0.9c0-0.4-0.2-0.7-0.5-1c-0.3-0.2-0.9-0.3-1.8-0.3h-2.5l0.5-5.5h6v1.8h-4.1l-0.2,1.9h0.8
				C461.5,341.4,462.5,341.7,463.2,342.2z"/>
		</g>
		<rect x="73" y="426.8" class="st12" width="105.4" height="31.8"/>
		<g class="st8">
			<path class="st10" d="M109.1,451.5v1.9H94.3v-1.5l8.7-8.5c1.1-1.1,1.8-2,2.2-2.8c0.4-0.8,0.6-1.6,0.6-2.4c0-1.2-0.4-2.2-1.3-2.9
				s-2.1-1-3.6-1c-2.5,0-4.4,0.8-5.7,2.3l-1.5-1.3c0.8-1,1.9-1.7,3.1-2.2c1.3-0.5,2.7-0.8,4.3-0.8c2.1,0,3.8,0.5,5.1,1.5
				c1.2,1,1.9,2.4,1.9,4.2c0,1.1-0.2,2.1-0.7,3.1s-1.4,2.1-2.7,3.4l-7.1,7H109.1z"/>
		</g>
		<g class="st8">
			<path class="st10" d="M115.7,452.3c-1.3-0.9-2.3-2.1-3-3.7c-0.7-1.6-1.1-3.5-1.1-5.7s0.4-4.1,1.1-5.7c0.7-1.6,1.7-2.8,3-3.7
				c1.3-0.9,2.7-1.3,4.3-1.3c1.6,0,3.1,0.4,4.3,1.3c1.3,0.9,2.3,2.1,3,3.7c0.7,1.6,1.1,3.5,1.1,5.7s-0.4,4.1-1.1,5.7
				c-0.7,1.6-1.7,2.8-3,3.7c-1.3,0.9-2.7,1.3-4.3,1.3C118.4,453.5,116.9,453.1,115.7,452.3z M123.2,450.5c0.9-0.7,1.7-1.7,2.2-3
				c0.5-1.3,0.8-2.9,0.8-4.7s-0.3-3.4-0.8-4.7c-0.5-1.3-1.2-2.3-2.2-3c-0.9-0.7-2-1-3.2-1c-1.2,0-2.3,0.3-3.2,1
				c-0.9,0.7-1.7,1.7-2.2,3s-0.8,2.9-0.8,4.7s0.3,3.4,0.8,4.7c0.5,1.3,1.2,2.3,2.2,3c0.9,0.7,2,1,3.2,1
				C121.2,451.6,122.3,451.2,123.2,450.5z"/>
		</g>
		<g class="st8">
			<path class="st10" d="M137.3,432.4v21h-2.2v-19.1h-5v-1.9H137.3z"/>
			<path class="st10" d="M157.3,444.3c0.7,0.9,1.1,1.9,1.1,3.2c0,1.2-0.3,2.3-1,3.2c-0.7,0.9-1.6,1.6-2.8,2.1s-2.7,0.7-4.3,0.7
				c-2.5,0-4.5-0.5-5.9-1.6c-1.4-1.1-2.2-2.5-2.2-4.4c0-1.3,0.3-2.3,1-3.2s1.7-1.5,3-2c-1.1-0.4-1.9-1-2.5-1.8s-0.8-1.7-0.8-2.8
				c0-1.7,0.7-3,2-4c1.3-1,3.1-1.5,5.4-1.5c1.5,0,2.8,0.2,3.9,0.7c1.1,0.5,2,1.1,2.6,1.9c0.6,0.8,0.9,1.8,0.9,2.9
				c0,1.1-0.3,2-0.9,2.8c-0.6,0.8-1.4,1.4-2.5,1.8C155.6,442.8,156.6,443.5,157.3,444.3z M154.6,450.6c1.1-0.8,1.6-1.8,1.6-3.1
				s-0.5-2.3-1.6-3.1c-1-0.8-2.5-1.1-4.4-1.1c-1.8,0-3.3,0.4-4.3,1.1c-1.1,0.8-1.6,1.8-1.6,3.1c0,1.3,0.5,2.4,1.6,3.1
				c1,0.8,2.5,1.1,4.4,1.1S153.6,451.3,154.6,450.6z M146.4,440.6c0.9,0.7,2.2,1,3.8,1s2.9-0.3,3.8-1c0.9-0.7,1.4-1.6,1.4-2.7
				c0-1.2-0.5-2.1-1.4-2.8c-1-0.7-2.2-1-3.8-1c-1.6,0-2.9,0.3-3.8,1c-0.9,0.7-1.4,1.6-1.4,2.8C145.1,439,145.5,439.9,146.4,440.6z"
				/>
		</g>
		<rect x="389.4" y="426.8" class="st11" width="105.4" height="31.8"/>
		<g class="st8">
			<path class="st10" d="M426,451.5v1.9h-14.9v-1.5l8.8-8.5c1.1-1.1,1.9-2,2.3-2.8c0.4-0.8,0.6-1.6,0.6-2.4c0-1.2-0.4-2.2-1.3-2.9
				c-0.9-0.7-2.1-1-3.7-1c-2.5,0-4.4,0.8-5.8,2.3l-1.5-1.3c0.8-1,1.9-1.7,3.2-2.2c1.3-0.5,2.7-0.8,4.3-0.8c2.2,0,3.9,0.5,5.1,1.5
				s1.9,2.4,1.9,4.2c0,1.1-0.2,2.1-0.7,3.1c-0.5,1-1.4,2.1-2.8,3.4l-7.2,7H426z"/>
		</g>
		<g class="st8">
			<path class="st10" d="M432.7,452.3c-1.3-0.9-2.3-2.1-3-3.7c-0.7-1.6-1.1-3.5-1.1-5.7s0.4-4.1,1.1-5.7c0.7-1.6,1.7-2.8,3-3.7
				c1.3-0.9,2.7-1.3,4.4-1.3s3.1,0.4,4.4,1.3c1.3,0.9,2.3,2.1,3,3.7c0.7,1.6,1.1,3.5,1.1,5.7s-0.4,4.1-1.1,5.7
				c-0.7,1.6-1.7,2.8-3,3.7c-1.3,0.9-2.7,1.3-4.4,1.3S434,453.1,432.7,452.3z M440.4,450.6c0.9-0.7,1.7-1.7,2.2-3
				c0.5-1.3,0.8-2.9,0.8-4.7s-0.3-3.4-0.8-4.7s-1.3-2.3-2.2-3c-0.9-0.7-2-1-3.3-1c-1.2,0-2.3,0.3-3.3,1c-0.9,0.7-1.7,1.7-2.2,3
				s-0.8,2.9-0.8,4.7s0.3,3.4,0.8,4.7c0.5,1.3,1.3,2.3,2.2,3c0.9,0.7,2,1,3.3,1C438.3,451.6,439.4,451.2,440.4,450.6z"/>
		</g>
		<g class="st8">
			<path class="st10" d="M454.5,432.4v21h-2.2v-19.1h-5v-1.9H454.5z"/>
			<path class="st10" d="M472.6,434.9c1.5,1.8,2.2,4.4,2.2,7.8c0,2.3-0.4,4.3-1.2,5.9s-1.9,2.8-3.4,3.7c-1.5,0.8-3.2,1.2-5.1,1.2
				c-2.1,0-3.8-0.4-5-1.1l0.9-1.7c1,0.7,2.4,1,4.1,1c2.3,0,4.2-0.7,5.5-2.2c1.3-1.5,2-3.6,2-6.4c0-0.5,0-1.1-0.1-1.7
				c-0.5,1.1-1.4,2-2.5,2.7s-2.5,0.9-4,0.9c-1.4,0-2.6-0.3-3.7-0.8c-1.1-0.5-1.9-1.3-2.5-2.2c-0.6-0.9-0.9-2.1-0.9-3.3
				c0-1.3,0.3-2.4,0.9-3.4c0.6-1,1.5-1.7,2.6-2.3c1.1-0.5,2.3-0.8,3.7-0.8C469,432.2,471.1,433.1,472.6,434.9z M469.3,442.5
				c0.8-0.4,1.5-0.9,1.9-1.6c0.5-0.7,0.7-1.5,0.7-2.3c0-0.8-0.2-1.5-0.7-2.2c-0.4-0.7-1.1-1.2-1.9-1.6s-1.9-0.6-3-0.6
				c-1.5,0-2.8,0.4-3.7,1.2c-1,0.8-1.4,1.9-1.4,3.3s0.5,2.5,1.4,3.3c1,0.8,2.3,1.2,3.9,1.2C467.5,443.1,468.4,442.9,469.3,442.5z"/>
		</g>
		<rect x="655.8" y="426.8" class="st9" width="105.4" height="31.8"/>
		<g class="st8">
			<path class="st10" d="M688.4,451.5v1.9h-14.7v-1.5l8.7-8.5c1.1-1.1,1.8-2,2.2-2.8c0.4-0.8,0.6-1.6,0.6-2.4c0-1.2-0.4-2.2-1.3-2.9
				c-0.9-0.7-2.1-1-3.6-1c-2.5,0-4.4,0.8-5.7,2.3l-1.5-1.3c0.8-1,1.9-1.7,3.1-2.2c1.3-0.5,2.7-0.8,4.3-0.8c2.1,0,3.8,0.5,5.1,1.5
				c1.2,1,1.9,2.4,1.9,4.2c0,1.1-0.2,2.1-0.7,3.1c-0.5,1-1.4,2.1-2.7,3.4l-7.1,7H688.4z"/>
		</g>
		<g class="st8">
			<path class="st10" d="M695,452.3c-1.3-0.9-2.3-2.1-3-3.7c-0.7-1.6-1.1-3.5-1.1-5.7s0.4-4.1,1.1-5.7c0.7-1.6,1.7-2.8,3-3.7
				c1.3-0.9,2.7-1.3,4.3-1.3c1.6,0,3.1,0.4,4.3,1.3c1.3,0.9,2.3,2.1,3,3.7c0.7,1.6,1.1,3.5,1.1,5.7s-0.4,4.1-1.1,5.7
				c-0.7,1.6-1.7,2.8-3,3.7c-1.3,0.9-2.7,1.3-4.3,1.3C697.7,453.6,696.3,453.1,695,452.3z M702.6,450.6c0.9-0.7,1.7-1.7,2.2-3
				c0.5-1.3,0.8-2.9,0.8-4.7s-0.3-3.4-0.8-4.7c-0.5-1.3-1.2-2.3-2.2-3s-2-1-3.2-1c-1.2,0-2.3,0.3-3.2,1s-1.7,1.7-2.2,3
				c-0.5,1.3-0.8,2.9-0.8,4.7s0.3,3.4,0.8,4.7c0.5,1.3,1.2,2.3,2.2,3c0.9,0.7,2,1,3.2,1C700.6,451.6,701.7,451.2,702.6,450.6z"/>
		</g>
		<g class="st8">
			<path class="st10" d="M725.1,451.5v1.9h-14.7v-1.5l8.7-8.5c1.1-1.1,1.8-2,2.2-2.8c0.4-0.8,0.6-1.6,0.6-2.4c0-1.2-0.4-2.2-1.3-2.9
				s-2.1-1-3.6-1c-2.5,0-4.4,0.8-5.7,2.3l-1.5-1.3c0.8-1,1.9-1.7,3.1-2.2c1.3-0.5,2.7-0.8,4.3-0.8c2.1,0,3.8,0.5,5.1,1.5
				s1.9,2.4,1.9,4.2c0,1.1-0.2,2.1-0.7,3.1s-1.4,2.1-2.7,3.4l-7.1,7H725.1z"/>
		</g>
		<g class="st8">
			<path class="st10" d="M731.7,452.3c-1.3-0.9-2.3-2.1-3-3.7c-0.7-1.6-1.1-3.5-1.1-5.7s0.4-4.1,1.1-5.7c0.7-1.6,1.7-2.8,3-3.7
				c1.3-0.9,2.7-1.3,4.3-1.3s3.1,0.4,4.3,1.3c1.3,0.9,2.3,2.1,3,3.7c0.7,1.6,1.1,3.5,1.1,5.7s-0.4,4.1-1.1,5.7
				c-0.7,1.6-1.7,2.8-3,3.7c-1.3,0.9-2.7,1.3-4.3,1.3S733,453.1,731.7,452.3z M739.3,450.6c0.9-0.7,1.7-1.7,2.2-3
				c0.5-1.3,0.8-2.9,0.8-4.7s-0.3-3.4-0.8-4.7c-0.5-1.3-1.2-2.3-2.2-3c-0.9-0.7-2-1-3.2-1s-2.3,0.3-3.2,1c-0.9,0.7-1.7,1.7-2.2,3
				c-0.5,1.3-0.8,2.9-0.8,4.7s0.3,3.4,0.8,4.7c0.5,1.3,1.2,2.3,2.2,3c0.9,0.7,2,1,3.2,1S738.4,451.2,739.3,450.6z"/>
		</g>
		<rect x="856.8" y="426.8" class="st13" width="105.4" height="31.8"/>
		<g class="st8">
			<path class="st10" d="M893.9,451.5v1.9h-14.7v-1.5l8.7-8.5c1.1-1.1,1.8-2,2.2-2.8s0.6-1.6,0.6-2.4c0-1.2-0.4-2.2-1.3-2.9
				c-0.8-0.7-2.1-1-3.6-1c-2.5,0-4.4,0.8-5.7,2.3l-1.5-1.3c0.8-1,1.9-1.7,3.1-2.2c1.3-0.5,2.7-0.8,4.3-0.8c2.1,0,3.8,0.5,5.1,1.5
				s1.9,2.4,1.9,4.2c0,1.1-0.2,2.1-0.7,3.1c-0.5,1-1.4,2.1-2.7,3.4l-7.1,7H893.9z"/>
		</g>
		<g class="st8">
			<path class="st10" d="M900.6,452.3c-1.3-0.9-2.3-2.1-3-3.7c-0.7-1.6-1.1-3.5-1.1-5.7s0.4-4.1,1.1-5.7c0.7-1.6,1.7-2.8,3-3.7
				c1.3-0.9,2.7-1.3,4.3-1.3c1.6,0,3.1,0.4,4.3,1.3c1.3,0.9,2.3,2.1,3,3.7c0.7,1.6,1.1,3.5,1.1,5.7s-0.4,4.1-1.1,5.7
				c-0.7,1.6-1.7,2.8-3,3.7c-1.3,0.9-2.7,1.3-4.3,1.3C903.3,453.6,901.8,453.1,900.6,452.3z M908.1,450.6c0.9-0.7,1.7-1.7,2.2-3
				c0.5-1.3,0.8-2.9,0.8-4.7s-0.3-3.4-0.8-4.7c-0.5-1.3-1.2-2.3-2.2-3s-2-1-3.2-1c-1.2,0-2.3,0.3-3.2,1c-0.9,0.7-1.7,1.7-2.2,3
				c-0.5,1.3-0.8,2.9-0.8,4.7s0.3,3.4,0.8,4.7c0.5,1.3,1.2,2.3,2.2,3c0.9,0.7,2,1,3.2,1C906.1,451.6,907.2,451.2,908.1,450.6z"/>
		</g>
		<g class="st8">
			<path class="st10" d="M930.7,451.5v1.9h-14.7v-1.5l8.7-8.5c1.1-1.1,1.8-2,2.2-2.8c0.4-0.8,0.6-1.6,0.6-2.4c0-1.2-0.4-2.2-1.3-2.9
				c-0.9-0.7-2.1-1-3.6-1c-2.5,0-4.4,0.8-5.7,2.3l-1.5-1.3c0.8-1,1.9-1.7,3.1-2.2c1.3-0.5,2.7-0.8,4.3-0.8c2.1,0,3.8,0.5,5.1,1.5
				c1.2,1,1.9,2.4,1.9,4.2c0,1.1-0.2,2.1-0.7,3.1c-0.5,1-1.4,2.1-2.7,3.4l-7.1,7H930.7z"/>
			<path class="st10" d="M939.2,432.4v21H937v-19.1h-5v-1.9H939.2z"/>
		</g>
		<circle class="st7" cx="1024.6" cy="27.6" r="16.7"/>
	</g>
</g>
</svg>
