<svg xmlns="http://www.w3.org/2000/svg" viewBox="0 0 1041.37 502.58"><defs><style>.cls-1,.cls-36,.cls-49{fill:#6e02d7;}.cls-1,.cls-2,.cls-3,.cls-4,.cls-5,.cls-6,.cls-7{stroke:#fff;stroke-miterlimit:10;}.cls-1,.cls-2,.cls-4,.cls-5{stroke-width:0.7px;}.cls-2,.cls-34,.cls-45,.cls-9{fill:#7c0cc1;}.cls-3,.cls-7{fill:none;}.cls-3,.cls-6{stroke-width:1.05px;}.cls-22,.cls-23,.cls-37,.cls-4{fill:#972096;}.cls-17,.cls-27,.cls-41,.cls-5{fill:#8916ac;}.cls-6,.cls-8{fill:#ea5b13;}.cls-7{stroke-width:3.52px;}.cls-17,.cls-22,.cls-23,.cls-27,.cls-34,.cls-36,.cls-9{font-size:14px;}.cls-14,.cls-17,.cls-22,.cls-9{font-family:Montserrat-Bold, Montserrat;font-weight:700;}.cls-10{letter-spacing:-0.01em;}.cls-11{letter-spacing:0.01em;}.cls-12{letter-spacing:0.01em;}.cls-13{letter-spacing:0em;}.cls-14{font-size:20px;}.cls-14,.cls-38,.cls-42,.cls-46{fill:#fff;}.cls-15{letter-spacing:0.01em;}.cls-16{letter-spacing:-0.02em;}.cls-18{letter-spacing:-0.02em;}.cls-19{letter-spacing:-0.01em;}.cls-20{letter-spacing:0em;}.cls-21{letter-spacing:0em;}.cls-23,.cls-27,.cls-34,.cls-36{font-family:Montserrat-SemiBold, Montserrat;font-weight:600;}.cls-24{letter-spacing:-0.01em;}.cls-25{letter-spacing:0.01em;}.cls-26{letter-spacing:-0.01em;}.cls-28{letter-spacing:0em;}.cls-29{letter-spacing:-0.01em;}.cls-30{letter-spacing:0em;}.cls-31{letter-spacing:-0.02em;}.cls-32{letter-spacing:-0.01em;}.cls-33{letter-spacing:-0.01em;}.cls-35{letter-spacing:0.01em;}.cls-38,.cls-42,.cls-46{font-size:30px;font-family:Montserrat-Regular, Montserrat;}.cls-39{letter-spacing:0em;}.cls-40{letter-spacing:0em;}.cls-42{letter-spacing:0em;}.cls-43{letter-spacing:0em;}.cls-44{letter-spacing:0em;}.cls-46{letter-spacing:0em;}.cls-47{letter-spacing:0em;}.cls-48{letter-spacing:0em;}.cls-50{letter-spacing:0em;}</style></defs><title>Recurso 4</title><g id="Capa_2" data-name="Capa 2"><g id="Capa_1-2" data-name="Capa 1"><polygon class="cls-1" points="1024.63 468.06 786.11 468.24 786.11 201.71 1024.63 21.79 1024.63 468.06"/><polygon class="cls-2" points="710.15 286.47 710.15 468.22 629.94 468.19 629.94 304.71 710.15 286.47"/><line class="cls-3" x1="371.76" y1="370.97" x2="371.76" y2="370.97"/><line class="cls-3" x1="629.94" y1="304.71" x2="629.94" y2="304.7"/><polygon class="cls-4" points="90.17 413.93 90.17 468.02 24.63 467.99 24.63 424.01 90.17 413.93"/><polygon class="cls-4" points="161.95 396.58 161.95 468.04 90.17 468.02 90.17 413.93 102.18 412.09 161.95 396.58"/><polygon class="cls-4" points="237.33 377.02 237.33 468.06 161.95 468.04 161.95 396.58 237.33 377.02"/><polygon class="cls-5" points="306.35 372.47 306.35 468.09 237.33 468.06 237.33 377.02 249.88 373.77 306.35 372.47"/><polygon class="cls-5" points="371.76 370.97 371.76 468.11 306.35 468.09 306.35 372.47 371.76 370.97"/><polygon class="cls-5" points="439.92 369.41 439.92 468.13 371.76 468.11 371.76 370.97 439.92 369.41"/><polygon class="cls-5" points="528.97 348.71 528.97 468.16 439.92 468.13 439.92 369.41 476.75 368.56 528.97 348.71"/><polygon class="cls-5" points="629.94 304.71 629.94 468.19 528.97 468.16 528.97 348.71 552.28 339.85 626.91 305.39 629.94 304.71"/><polyline class="cls-6" points="629.94 304.7 629.94 304.7 710.15 286.47"/><polygon class="cls-2" points="786.11 201.71 786.11 468.24 710.15 468.22 710.15 286.47 786.11 201.71"/><polyline class="cls-7" points="24.63 424.01 102.18 412.09 249.88 373.77 476.75 368.56 552.28 339.85 626.91 305.39 710.15 286.47 786.11 201.71 1024.63 21.79"/><rect class="cls-8" x="902.7" width="100" height="36" rx="18"/><text class="cls-9" transform="translate(685.6 248.67)">S/ <tspan class="cls-10" x="18.38" y="0">0</tspan><tspan class="cls-11" x="27.71" y="0">.</tspan><tspan x="31.51" y="0">82</tspan></text><text class="cls-9" transform="translate(765.38 176.99)">S/ 1<tspan class="cls-12" x="23.87" y="0">.</tspan><tspan class="cls-13" x="27.68" y="0">21</tspan></text><text class="cls-14" transform="translate(916.98 25.6)">S/ <tspan class="cls-15" x="26.26" y="0">2</tspan><tspan class="cls-16" x="38.26" y="0">.</tspan><tspan x="43.18" y="0">1</tspan><tspan class="cls-15" x="51.02" y="0">7</tspan><tspan x="63.62" y="0">1</tspan></text><text class="cls-17" transform="translate(605.93 284.73)">S/ <tspan class="cls-10" x="18.38" y="0">0</tspan><tspan class="cls-18" x="27.71" y="0">.</tspan><tspan class="cls-19" x="31.15" y="0">7</tspan><tspan class="cls-20" x="39.73" y="0">3</tspan></text><text class="cls-17" transform="translate(504.5 327.58)">S/ <tspan class="cls-10" x="18.38" y="0">0</tspan><tspan x="27.71" y="0">.58</tspan></text><text class="cls-17" transform="translate(346.41 352.48)">S/ <tspan class="cls-10" x="18.38" y="0">0</tspan><tspan x="27.71" y="0">.44</tspan></text><text class="cls-17" transform="translate(281.74 357.42)">S/ <tspan class="cls-10" x="18.38" y="0">0</tspan><tspan x="27.71" y="0">.</tspan><tspan class="cls-19" x="31.37" y="0">4</tspan><tspan class="cls-20" x="40.92" y="0">3</tspan></text><text class="cls-17" transform="translate(212.7 362.53)">S/ <tspan class="cls-10" x="18.38" y="0">0</tspan><tspan x="27.71" y="0">.</tspan><tspan class="cls-21" x="31.37" y="0">4</tspan><tspan x="40.99" y="0">2</tspan></text><text class="cls-22" transform="translate(137.23 375.58)">S/ <tspan class="cls-10" x="18.38" y="0">0</tspan><tspan class="cls-11" x="27.71" y="0">.</tspan><tspan class="cls-20" x="31.51" y="0">34</tspan></text><text class="cls-22" transform="translate(0 413.15)">S/ <tspan class="cls-10" x="18.38" y="0">0</tspan><tspan class="cls-11" x="27.71" y="0">.</tspan><tspan class="cls-21" x="31.51" y="0">2</tspan><tspan x="39.75" y="0">0</tspan></text><text class="cls-22" transform="translate(66.07 397.57)">S/ <tspan class="cls-10" x="18.38" y="0">0</tspan><tspan class="cls-11" x="27.71" y="0">.</tspan><tspan x="31.51" y="0">25</tspan></text><text class="cls-23" transform="translate(73.19 498.87)">Julio</text><text class="cls-23" transform="translate(2.57 498.87)">Mar<tspan class="cls-24" x="27.75" y="0">z</tspan><tspan x="35.08" y="0">o</tspan></text><text class="cls-23" transform="translate(132.18 498.87)">O<tspan class="cls-25" x="11.79" y="0">c</tspan><tspan x="20.02" y="0">tub</tspan><tspan class="cls-26" x="45.09" y="0">r</tspan><tspan x="50.83" y="0">e</tspan></text><text class="cls-27" transform="translate(216.07 498.87)">E<tspan class="cls-28" x="9.38" y="0">n</tspan><tspan x="19.04" y="0">e</tspan><tspan class="cls-26" x="27.75" y="0">r</tspan><tspan x="33.49" y="0">o</tspan></text><text class="cls-27" transform="translate(284.29 498.87)">Mar<tspan class="cls-29" x="27.75" y="0">z</tspan><tspan class="cls-13" x="35.08" y="0">o</tspan></text><text class="cls-27" transform="translate(354.78 498.87)">Ab<tspan class="cls-30" x="20.09" y="0">r</tspan><tspan x="25.9" y="0">il</tspan></text><text class="cls-27" transform="translate(414.39 498.87)"><tspan class="cls-30">A</tspan><tspan x="10.42" y="0">gos</tspan><tspan class="cls-31" x="36.37" y="0">t</tspan><tspan x="42.06" y="0">o</tspan></text><text class="cls-27" transform="translate(486.67 498.87)">Septiemb<tspan class="cls-32" x="70.15" y="0">r</tspan><tspan x="75.89" y="0">e</tspan></text><text class="cls-27" transform="translate(590.04 498.87)">N<tspan class="cls-33" x="11.34" y="0">o</tspan><tspan x="20.16" y="0">viemb</tspan><tspan class="cls-26" x="65.35" y="0">r</tspan><tspan x="71.09" y="0">e</tspan></text><text class="cls-34" transform="translate(688.94 498.87)">E<tspan class="cls-35" x="9.38" y="0">n</tspan><tspan class="cls-20" x="19.04" y="0">e</tspan><tspan class="cls-26" x="27.75" y="0">r</tspan><tspan x="33.49" y="0">o</tspan></text><text class="cls-34" transform="translate(760.58 498.87)"><tspan class="cls-30">A</tspan><tspan x="10.42" y="0">gos</tspan><tspan class="cls-31" x="36.37" y="0">t</tspan><tspan x="42.06" y="0">o</tspan></text><text class="cls-36" transform="translate(969.38 498.87)"><tspan class="cls-33">F</tspan><tspan x="8.71" y="0">eb</tspan><tspan class="cls-26" x="27.02" y="0">r</tspan><tspan x="32.76" y="0">e</tspan><tspan class="cls-32" x="41.47" y="0">r</tspan><tspan x="47.21" y="0">o</tspan></text><text class="cls-17" transform="translate(415.24 347.51)">S/ <tspan class="cls-10" x="18.38" y="0">0</tspan><tspan x="27.71" y="0">.</tspan><tspan class="cls-21" x="31.37" y="0">4</tspan><tspan x="40.99" y="0">5</tspan></text><rect class="cls-37" x="73.02" y="426.82" width="105.36" height="31.83"/><text class="cls-38" transform="translate(93.16 453.37)"><tspan class="cls-39">2</tspan><tspan class="cls-40" x="16.92" y="0">0</tspan><tspan x="36.72" y="0">18</tspan></text><rect class="cls-41" x="389.37" y="426.82" width="105.36" height="31.83"/><text class="cls-42" transform="translate(409.98 453.38) scale(1.01 1)">2<tspan class="cls-43" x="16.92" y="0">0</tspan><tspan class="cls-44" x="36.72" y="0">19</tspan></text><rect class="cls-45" x="655.77" y="426.82" width="105.36" height="31.83"/><text class="cls-46" transform="translate(672.51 453.38)">2<tspan class="cls-40" x="16.92" y="0">0</tspan><tspan class="cls-47" x="36.72" y="0">2</tspan><tspan class="cls-48" x="53.64" y="0">0</tspan></text><rect class="cls-49" x="856.85" y="426.82" width="105.36" height="31.83"/><text class="cls-46" transform="translate(878.04 453.38)">2<tspan class="cls-40" x="16.92" y="0">0</tspan><tspan class="cls-50" x="36.72" y="0">21</tspan></text><circle class="cls-8" cx="1024.63" cy="27.62" r="16.74"/></g></g></svg>