<?xml version="1.0" encoding="utf-8"?>
<!-- Generator: Adobe Illustrator 23.0.4, SVG Export Plug-In . SVG Version: 6.00 Build 0)  -->
<svg version="1.1" id="Capa_1" xmlns="http://www.w3.org/2000/svg" xmlns:xlink="http://www.w3.org/1999/xlink" x="0px" y="0px"
	 viewBox="0 0 1280.1 168.7" style="enable-background:new 0 0 1280.1 168.7;" xml:space="preserve">
<style type="text/css">
	.st0{clip-path:url(#SVGID_2_);}
	.st1{fill:#EA5B13;}
	.st2{fill:none;stroke:#EA5B13;stroke-width:0.75;stroke-miterlimit:10;}
</style>
<title>trama5</title>
<g>
	<g id="Capa_1-2">
		<g>
			<defs>
				<rect id="SVGID_1_" x="0" width="1280" height="168.4"/>
			</defs>
			<clipPath id="SVGID_2_">
				<use xlink:href="#SVGID_1_"  style="overflow:visible;"/>
			</clipPath>
			<g class="st0">
				<circle class="st1" cx="564.7" cy="51.9" r="19"/>
				<path class="st2" d="M251.6,168.4c0,0,43.2-29.6,132.9-37.4S511.3,116.7,562,55.8S642.8-50.4,715.9-59.9s95.9,13.1,125.3,47.1
					c26.7,30.8,63.5,28.2,90.3,30.9s191.4-3,254.5,80.2c12.8,16.9,72.2,64.8,94.1,58.2"/>
				<path class="st2" d="M0.1,60.8c0,0,26.6,8,118.2-23.9s5.3-66.4,66.4-78.4s101-58.5,101-58.5"/>
			</g>
		</g>
	</g>
</g>
</svg>
