<svg xmlns="http://www.w3.org/2000/svg" viewBox="0 0 65 65"><defs><style>.cls-1{fill:#6e02d7;}.cls-2{fill:#fff;}</style></defs><title>Recurso 9</title><g id="Capa_2" data-name="Capa 2"><g id="Capa_1-2" data-name="Capa 1"><circle class="cls-1" cx="32.5" cy="32.5" r="32.5"/><path class="cls-2" d="M42.4,36.58h0c-3.61-1.8-4-2-4.45-1.34-.33.48-1.27,1.58-1.55,1.91s-.58.34-1.06.12a13.19,13.19,0,0,1-4-2.44,14.52,14.52,0,0,1-2.72-3.4c-.48-.83.52-.95,1.44-2.68a.92.92,0,0,0,0-.86c-.13-.25-1.11-2.66-1.52-3.62s-.8-.84-1.1-.84a2.42,2.42,0,0,0-2.24.57c-2.65,2.91-2,5.91.28,9.11C30,38.94,32.32,40,36.66,41.5a6.86,6.86,0,0,0,3.09.2c.94-.15,2.9-1.18,3.31-2.34a3.42,3.42,0,0,0,.27-2.16,2,2,0,0,0-.93-.62Z"/><path class="cls-2" d="M47.36,18.63C34.74,6.43,13.85,15.28,13.84,32.49a19.4,19.4,0,0,0,2.62,9.76L15,47.48a2.93,2.93,0,0,0,3.56,3.61l5.5-1.44c13,7,29-2.29,29-17.15a19.38,19.38,0,0,0-5.73-13.81Zm2.43,13.82a16.34,16.34,0,0,1-24.64,14l-.59-.35-5,1.31a.67.67,0,0,1-.81-.83l1.34-4.87-.39-.61A16.29,16.29,0,0,1,45,21a16.05,16.05,0,0,1,4.77,11.48Z"/></g></g></svg>