<?xml version="1.0" encoding="utf-8"?>
<!-- Generator: Adobe Illustrator 23.0.4, SVG Export Plug-In . SVG Version: 6.00 Build 0)  -->
<svg version="1.1" id="Capa_1" xmlns="http://www.w3.org/2000/svg" xmlns:xlink="http://www.w3.org/1999/xlink" x="0px" y="0px"
	 viewBox="0 0 147.4 159.39" style="enable-background:new 0 0 147.4 159.39;" xml:space="preserve">
<style type="text/css">
	.st0{fill:#EA6844;}
	.st1{fill:#FCEA10;}
</style>
<g>
	<path class="st0" d="M54.44,50.72v-2.34c0-2.5-0.42-5.15-3.95-5.15c-2.18,0-3.85,1.04-3.85,4.42c0,3.12,1.87,4.68,3.64,6.55
		l5.77,6.14c0.88,0.94,3.17,3.28,3.17,7.96c0,4.37-1.77,6.24-3.33,7.28c-2.29,1.56-4.84,1.56-5.72,1.56c-5.62,0-8.84-3.02-8.84-9.15
		v-4.06h4.32v3.38c0,3.07,0.62,5.93,4.52,5.93c2.86,0,4.63-1.77,4.63-4.58c0-3.02-1.4-4.42-3.43-6.5l-4.94-5.1
		c-2.86-2.96-4.21-4.94-4.21-9.2c0-4.94,2.24-8.53,8.53-8.53c1.25,0,6.19,0.05,7.44,4.78c0.31,1.25,0.31,2.96,0.31,4.26v2.34H54.44z
		"/>
	<g>
		<path class="st0" d="M95.32,82.67c3.59,0,5.04,1.04,6.19,2.44c1.87,2.29,1.92,4.94,1.92,8.58c0,2.55-0.16,6.19-1.92,8.32
			c-1.72,2.08-4.84,2.29-7.28,2.29h-3.85v15.08H85.8V82.67H95.32z M90.38,100.3h3.9c4.63,0,4.68-2.39,4.68-7.02
			c0-5.2-0.78-6.45-6.19-6.45h-2.39V100.3z"/>
	</g>
	<path class="st1" d="M45.7,110.67V82.45h-4.36v32.58l0,0c0,2.41,1.95,4.36,4.36,4.36h0h32.58v-4.36H50.05
		C47.65,115.02,45.7,113.07,45.7,110.67z"/>
	<path class="st1" d="M99.07,48.05v28.22h4.36V43.69v0c0-2.41-1.95-4.36-4.36-4.36h0H66.49v4.36h28.22
		C97.12,43.69,99.07,45.65,99.07,48.05z"/>
</g>
</svg>
