<svg width="364" height="83" viewBox="0 0 364 83" fill="none" xmlns="http://www.w3.org/2000/svg">
<g clip-path="url(#clip0)">
<path d="M0.78125 66.4156V33.4803H16.7941V38.4635H6.87395V46.2106H16.2473V51.1938H6.87395V61.3157H17.2628V66.4156H0.78125Z" fill="white"/>
<path d="M24.41 58.0066V60.0699C24.41 61.16 24.4881 62.9118 26.5581 62.9118C26.9877 62.9118 28.7452 62.9118 28.7452 60.3035C28.7452 58.5905 28.4718 58.1623 27.1049 57.189L22.4572 53.9189C20.7778 52.7509 19.6061 50.9212 19.6061 48.1571C19.6061 43.4076 22.5744 42.045 26.8315 42.045C32.8461 42.045 33.6662 45.2373 33.6662 47.4953V50.1426H28.8624V48.4297C28.8624 47.0671 28.4718 45.8213 26.7924 45.8213C25.2302 45.8213 24.8787 46.7556 24.8787 47.9625C24.8787 49.1304 25.3864 49.8312 26.48 50.5708L31.6353 54.1524C33.5491 55.515 33.9396 57.1112 33.9396 59.4859C33.9396 64.6248 32.3774 66.8827 26.5971 66.8827C23.0431 66.8827 19.2937 65.9095 19.2937 60.576V58.0066H24.41Z" fill="white"/>
<path d="M63.7392 79.0681L52.9989 33.7529C52.9989 33.7529 53.5066 61.744 53.9362 79.0681H43.4692V18.5699H57.8027L68.6993 62.9508C68.6993 62.9508 67.7619 26.2782 67.5667 18.5699H77.7993V79.0291H63.7392V79.0681Z" fill="#BDD141"/>
<path d="M103.615 79.068C102.834 78.1337 102.483 77.2772 102.404 75.2139C100.608 77.0826 98.6942 80.0024 93.5388 80.0024C85.962 80.0024 84.8684 74.2796 84.8684 68.3621V65.3645C84.8684 58.7852 86.5869 56.8776 91.586 54.386L102.248 49.0915V45.7434C102.248 42.1618 101.116 41.3054 98.6551 41.3054C95.4916 41.3054 95.1401 43.0962 95.1401 47.1449V48.78H85.7667V43.7969C85.7667 41.7336 86.1963 34.2979 99.3581 34.2979C100.295 34.2979 112.403 34.2979 112.403 43.9916V70.6201C112.403 73.8903 112.403 77.6276 114.395 79.107H103.615V79.068ZM102.17 56.9555L97.171 60.2256C95.101 61.5882 94.8667 63.1454 94.8667 67.5056C94.8667 70.9315 95.4525 72.2941 97.2881 72.2941C98.3036 72.2941 99.7096 71.9437 102.17 69.8025V56.9555Z" fill="#BDD141"/>
<path d="M132.399 67.1553C132.399 70.5033 133.61 71.788 137.047 71.788C137.633 71.788 138.179 71.7101 138.765 71.6323V78.9902C137.633 79.2627 136.188 79.4962 133.532 79.4962C125.018 79.4962 122.362 77.0047 122.362 70.4254V41.9672H116.777V35.1932H122.284V19.2706H132.438V35.1932H138.531V41.9672H132.399V67.1553Z" fill="#BDD141"/>
<path d="M161.183 79.0681V75.4865C160.051 76.4987 156.536 79.8467 151.81 79.8467C145.366 79.8467 143.218 75.2919 143.218 69.9194V35.1934H153.45V66.7271C153.45 69.3744 153.724 72.0217 157.239 72.0217C160.754 72.0217 161.183 69.3744 161.183 66.1821V35.1934H171.494V79.0681H161.183Z" fill="#BDD141"/>
<path d="M199.263 44.5366C198.482 44.1862 197.544 43.8359 195.826 43.8359C189.811 43.8359 189.226 48.7022 189.226 53.1792V79.068H179.071V35.1933H189.304V40.7604C191.374 36.478 194.459 34.4147 198.755 34.4147H199.263V44.5366Z" fill="#BDD141"/>
<path d="M220.119 79.068C219.337 78.1337 218.986 77.2772 218.908 75.2139C217.111 77.0826 215.198 80.0024 210.042 80.0024C202.465 80.0024 201.372 74.2796 201.372 68.3621V65.3645C201.372 58.7852 203.09 56.8776 208.089 54.386L218.752 49.0915V45.7434C218.752 42.1618 217.619 41.3054 215.159 41.3054C211.995 41.3054 211.643 43.0962 211.643 47.1449V48.78H202.27V43.7969C202.27 41.7336 202.7 34.2979 215.862 34.2979C216.799 34.2979 228.906 34.2979 228.906 43.9916V70.6201C228.906 73.8903 228.906 77.6276 230.898 79.107H220.119V79.068ZM218.674 56.9555L213.674 60.2256C211.604 61.5882 211.37 63.1454 211.37 67.5056C211.37 70.9315 211.956 72.2941 213.792 72.2941C214.807 72.2941 216.213 71.9437 218.674 69.8025V56.9555Z" fill="#BDD141"/>
<path d="M236.444 79.0681V18.5699H246.755V79.0291H236.444V79.0681Z" fill="#BDD141"/>
<path d="M0 73.1116H33.0021" stroke="#BDD141" stroke-miterlimit="10"/>
<path d="M335.294 83.0001H309.439C293.583 83.0001 280.733 70.1919 280.733 54.3861H364C364 70.1919 351.151 83.0001 335.294 83.0001Z" fill="#E5E2E2"/>
<path d="M346.542 14.3265H345.332L349.12 10.5502C351.424 8.33118 351.659 4.74956 349.706 2.21907C347.558 -0.389276 343.73 -0.739651 341.113 1.3626C340.957 1.47939 340.801 1.63512 340.684 1.75191L336.739 5.6839V4.55491C336.778 2.21907 335.021 0.233614 332.677 3.0383e-05C330.295 -0.116761 328.264 1.67405 328.147 4.04881C328.147 4.12667 328.147 4.20453 328.147 4.2824V11.4456C328.147 9.07086 326.233 7.16326 323.851 7.16326C323.773 7.16326 323.695 7.16326 323.616 7.16326C321.273 7.35791 319.477 9.34337 319.555 11.7181V18.6478C319.555 16.273 317.641 14.3654 315.259 14.3654C315.18 14.3654 315.102 14.3654 315.024 14.3654C312.681 14.5601 310.884 16.5455 310.962 18.9203V40.1375H335.372C337.755 40.1375 339.668 38.2299 339.668 35.8551C339.668 33.4803 337.755 31.5727 335.372 31.5727H342.324C344.668 31.6117 346.659 29.8598 346.894 27.524C347.011 25.1492 345.214 23.1248 342.832 23.008C342.754 23.008 342.676 23.008 342.598 23.008H346.894C349.276 23.008 351.19 21.1004 351.19 18.7256C351.19 18.6478 351.19 18.5699 351.19 18.4921C350.877 16.0394 348.886 14.2486 346.542 14.3265Z" fill="#BDD141"/>
<path d="M343.258 10.0244L341.227 8L335.057 14.151V10.4526H332.206V16.993L326.425 22.7158V17.5769H323.574V25.5966L317.833 31.3194V24.7402H314.943V34.1614L301 48.0596L303.031 50.084L316.974 36.1857H326.425V33.3438H319.864L325.605 27.621H333.612V24.7402H328.456L334.197 19.0174H340.798V16.1754H337.088L343.258 10.0244Z" fill="#DEDCDB"/>
<path d="M291.669 5.1C291.434 5.1 291.239 5.1 291.044 5.13893C290.028 5.29465 289.13 5.87861 288.583 6.73509C287.49 8.37017 287.88 10.5892 289.442 11.7571L291.278 13.1197C291.63 13.3922 291.864 13.8205 291.864 14.2487V15.6891C291.864 18.0639 293.778 19.9715 296.16 19.9715C298.542 19.9715 300.456 18.0639 300.456 15.6891V14.3265C300.456 13.8594 300.651 13.4701 301.042 13.1976L302.878 11.835C304.518 10.5892 304.869 8.25338 303.62 6.61829C302.37 4.98321 300.027 4.63283 298.386 5.87861L297.019 6.89081C296.512 7.28011 295.809 7.28011 295.301 6.89081L293.895 5.83968C293.231 5.37252 292.45 5.1 291.669 5.1ZM296.121 22.8913C292.176 22.8913 288.935 19.699 288.935 15.728V15.0273L287.685 14.093C284.756 11.9129 284.17 7.78621 286.357 4.86642C288.544 1.94662 292.684 1.36267 295.613 3.54278L296.121 3.93208L296.629 3.54278C299.558 1.36267 303.698 1.94662 305.885 4.86642C305.963 4.94428 306.041 5.06107 306.08 5.17786C308.033 8.09766 307.369 11.9907 304.557 14.093L303.307 15.0273V15.728C303.307 19.699 300.066 22.8913 296.121 22.8913Z" fill="#E5E2E2"/>
<path d="M356.814 18.6088V15.7669C358.415 15.7669 359.704 14.4822 359.704 12.886C359.704 11.2898 358.415 10.0051 356.814 10.0051V7.16321C359.977 7.16321 362.555 9.73263 362.555 12.886C362.594 16.0394 360.017 18.6088 356.814 18.6088Z" fill="#E73938"/>
<path d="M310.884 0H313.774V2.88086H310.884V0Z" fill="#E73938"/>
<path d="M319.516 45.8213H322.367V48.6632H319.516V45.8213Z" fill="#E73938"/>
<path d="M282.178 20.0493H285.029V22.8912H282.178V20.0493Z" fill="#E73938"/>
<path d="M279.288 14.3264H282.178V17.1683H279.288V14.3264Z" fill="#E73938"/>
<path d="M341.035 50.1036H338.145C338.145 48.5075 336.856 47.2228 335.255 47.2228C333.654 47.2228 332.365 48.5075 332.365 50.1036H329.475C329.475 46.9503 332.053 44.3809 335.216 44.3809C338.458 44.3809 341.035 46.9503 341.035 50.1036Z" fill="#EE741A"/>
<path d="M296.512 32.9353H295.067C295.067 30.5606 293.153 28.653 290.771 28.653C288.388 28.653 286.474 30.5606 286.474 32.9353H285.029C282.647 32.9353 280.733 34.8429 280.733 37.2177C280.733 39.5925 282.647 41.5 285.029 41.5H296.512C298.894 41.5 300.808 39.5925 300.808 37.2177C300.847 34.8429 298.894 32.9353 296.512 32.9353Z" fill="#BDD141"/>
<path d="M287.919 41.5H293.661V47.2228H287.919V41.5Z" fill="#E5E2E2"/>
<path d="M355.408 44.3809C353.025 44.3809 351.112 42.4733 351.112 40.0985C351.112 37.7238 353.025 35.8162 355.408 35.8162C357.79 35.8162 359.704 37.7238 359.704 40.0985C359.704 42.4344 357.79 44.3809 355.408 44.3809ZM355.408 31.4949C350.643 31.4949 346.776 35.349 346.776 40.0985C346.776 44.8481 350.643 48.7022 355.408 48.7022C360.173 48.7022 364.039 44.8481 364.039 40.0985C364 35.349 360.173 31.4949 355.408 31.4949Z" fill="#E5E2E2"/>
<path d="M344.16 54.3861C332.834 69.3354 316.157 77.7445 303.346 82.3383C305.338 82.7665 307.408 83.0001 309.478 83.0001H335.333C351.19 83.0001 364.039 70.1919 364.039 54.3861H344.16Z" fill="#DEDCDB"/>
</g>
<defs>
<clipPath id="clip0">
<rect width="364" height="83" fill="white"/>
</clipPath>
</defs>
</svg>
